<svg width="1200" height="675" viewBox="0 0 1200 675" fill="none" xmlns="http://www.w3.org/2000/svg">
<g clip-path="url(#clip0_1297_11514)">
<path d="M314.856 -239.374V-199.256L204.211 -135.377V-175.493L314.856 -239.374ZM356.014 -261.284L390.756 -241.225V-113.467L356.014 -133.523V-261.284ZM542.558 -239.374V-199.256L431.913 -135.377V-175.493L542.558 -239.374ZM583.716 -261.284L618.458 -241.225V-113.467L583.716 -133.523V-261.284ZM770.261 -239.374V-199.256L659.617 -135.377V-175.493L770.261 -239.374ZM811.418 -261.284L846.161 -241.225V-113.467L811.418 -133.523V-261.284ZM997.964 -239.374V-199.256L887.318 -135.377V-175.493L997.964 -239.374ZM1039.12 -261.284L1073.86 -241.225V-113.467L1039.12 -133.523V-261.284ZM1187.72 83.7302L1152.97 63.671V-64.0876L1187.72 -44.0281V83.7302ZM1186.11 130.33L1151.37 150.388L1040.72 86.5081L1075.47 66.45L1186.11 130.33ZM1187.72 478.118L1152.97 458.065V330.305L1187.72 350.363V478.118ZM1186.11 524.717L1151.37 544.785L1040.72 480.896L1075.47 460.842L1186.11 524.717ZM1149.77 722.845V850.608L1115.02 830.539V702.791L1149.77 722.845ZM1187.72 872.518L1152.97 852.464V724.702L1187.72 744.755V872.518ZM961.616 917.26L850.973 853.386L885.716 833.317L996.361 897.206L961.616 917.26ZM733.914 917.26L623.271 853.386L658.012 833.317L768.655 897.206L733.914 917.26ZM506.211 917.26L395.567 853.386L430.309 833.317L540.953 897.206L506.211 917.26ZM278.509 917.26L167.864 853.386L202.607 833.317L313.252 897.206L278.509 917.26ZM14.459 724.702L49.2024 744.755V872.518L14.459 852.464V724.702ZM16.0619 678.103L50.8049 658.035L161.45 721.924L126.706 741.978L16.0619 678.103ZM14.459 330.305L49.2024 350.363V478.118L14.459 458.065V330.305ZM16.0633 283.703L50.8049 263.647L161.45 327.526L126.706 347.585L16.0633 283.703ZM14.459 -64.0876L49.2024 -44.0281V83.7302L14.459 63.671V-64.0876ZM16.0633 -110.687L50.8049 -130.745L161.45 -66.8655L126.706 -46.8088L16.0633 -110.687ZM128.311 -261.284L163.052 -241.225V-113.467L128.311 -133.523V-261.284ZM314.856 -155.435L204.211 -91.5564V-131.672L314.856 -195.552V-155.435ZM427.102 -88.7757L392.359 -68.7193L281.717 -132.598L316.46 -152.656L398.418 -105.338L427.102 -88.7757ZM428.706 -91.5564L400.021 -108.116L393.963 -111.613V-239.374L428.706 -219.315V-91.5564ZM542.558 -155.435L431.913 -91.5564V-131.672L542.558 -195.552V-155.435ZM654.805 -88.7757L620.062 -68.7193L509.419 -132.598L544.162 -152.656L625.69 -105.586L654.805 -88.7757ZM656.409 -91.5564L627.295 -108.364L621.667 -111.613V-239.374L656.409 -219.315V-91.5564ZM770.261 -155.435L659.617 -91.5564V-131.672L770.261 -195.552V-155.435ZM882.507 -88.7757L847.766 -68.7193L737.122 -132.598L771.863 -152.656L853.394 -105.586L882.507 -88.7757ZM884.111 -91.5564L854.997 -108.364L849.37 -111.613V-239.374L884.111 -219.315V-91.5564ZM997.964 -155.435L887.318 -91.5564V-131.672L997.964 -195.552V-155.435ZM1110.21 -88.7757L1075.47 -68.7193L964.824 -132.598L999.567 -152.656L1081.96 -105.086L1110.21 -88.7757ZM1111.82 -91.5564L1083.57 -107.864L1077.07 -111.613V-239.374L1111.82 -219.315V-91.5564ZM1115.02 41.7605V-85.9978L1149.77 -65.94V61.8186L1115.02 41.7605ZM1113.42 172.298L1002.78 108.418L1037.52 88.3619L1148.16 152.24L1113.42 172.298ZM1111.82 302.838L1083.57 286.529L1077.07 282.778V155.02L1111.82 175.077V302.838ZM1115.02 436.154V308.395L1149.77 328.452V456.208L1115.02 436.154ZM1113.42 566.695L1002.78 502.806L1037.52 482.753L1148.16 546.627L1113.42 566.695ZM1111.82 697.236L1077.07 677.168V549.405L1111.82 569.473V697.236ZM52.4106 874.375V746.612L87.1539 766.666V894.428L52.4106 874.375ZM88.7581 636.125L199.401 700.014L164.658 720.067L54.0148 656.193L88.7581 636.125ZM125.104 525.652V653.415L90.3606 633.347V505.584L125.104 525.652ZM88.7581 241.737L170.286 288.806L199.401 305.615L164.658 325.673L54.0148 261.793L88.7581 241.737ZM90.3606 111.198L125.104 131.257V259.015L90.3606 238.958V111.198ZM88.7581 -152.656L170.286 -105.586L199.401 -88.7757L164.658 -68.7193L54.0148 -132.598L88.7581 -152.656ZM201.006 -91.5564L171.891 -108.364L166.263 -111.613V-239.374L201.006 -219.315V-91.5564ZM354.412 -46.8088L243.768 -110.687L278.51 -130.745L389.153 -66.8655L354.412 -46.8088ZM582.114 -46.8088L471.469 -110.687L506.212 -130.745L616.857 -66.8655L582.114 -46.8088ZM809.817 -46.8088L699.172 -110.687L733.915 -130.745L844.558 -66.8655L809.817 -46.8088ZM1037.52 -46.8088L926.876 -110.687L961.619 -130.745L1072.26 -66.8655L1037.52 -46.8088ZM1001.17 65.5245L1111.82 1.64465V41.7605L1001.17 105.641V65.5245ZM1035.91 259.015L1001.17 238.958V111.198L1035.91 131.257V259.015ZM1039.12 260.868V133.11L1073.87 153.167V280.927L1039.12 260.868ZM1110.21 305.615L1075.47 325.673L964.826 261.793L999.569 241.737L1081.96 289.307L1110.21 305.615ZM1111.82 348.511L1001.17 412.388V372.273L1038.31 350.834C1038.31 350.834 1038.31 350.834 1038.31 350.832L1076.26 328.923C1076.26 328.922 1076.26 328.922 1076.26 328.922L1111.82 308.395V348.511ZM1001.17 459.922L1111.82 396.037V436.154L1001.17 500.029V459.922ZM1035.91 653.415L1001.17 633.347V505.584L1035.91 525.652V653.415ZM1039.12 655.257V527.495L1073.87 547.563V675.326L1039.12 655.257ZM1111.82 742.898L1001.17 806.787V766.666L1038.31 745.231H1038.31L1076.26 723.32H1076.26L1111.82 702.791V742.898ZM963.221 746.612L997.965 766.666V894.428L963.221 874.375V746.612ZM925.271 852.464V724.702L960.013 744.755V872.518L925.271 852.464ZM773.47 854.307L884.113 790.432V830.539L773.47 894.428V854.307ZM735.52 746.612L770.263 766.666V894.428L735.52 874.375V746.612ZM697.568 852.464V724.702L732.311 744.755V872.518L697.568 852.464ZM545.766 854.307L656.411 790.432V830.539L545.766 894.428V854.307ZM507.816 746.612L542.559 766.666V894.428L507.816 874.375V746.612ZM469.865 852.464V724.702L504.608 744.755V872.518L469.865 852.464ZM318.064 854.307L428.708 790.432V830.539L318.064 894.428V854.307ZM280.114 746.612L314.857 766.666V894.428L280.114 874.375V746.612ZM242.164 852.464V724.702L276.907 744.755V872.518L242.164 852.464ZM90.3606 854.307L201.006 790.432V830.539L90.3606 894.428V854.307ZM201.006 786.719L90.3606 850.608V810.486L201.006 746.612V786.719ZM163.054 547.563V675.326L128.312 655.257V527.495L163.054 547.563ZM126.708 482.753L237.351 546.627L202.608 566.695L91.9649 502.806L126.708 482.753ZM90.3606 459.922L201.006 396.037V436.154L90.3606 500.029V459.922ZM201.006 392.331L90.3606 456.208V416.101L201.006 352.216V392.331ZM166.263 282.778V155.02L201.006 175.077V302.838L171.891 286.028L166.263 282.778ZM163.054 153.167V280.927L128.312 260.868V133.11L163.054 153.167ZM126.708 88.3619L237.351 152.24L202.608 172.298L91.9649 108.418L126.708 88.3619ZM90.3606 65.5245L201.006 1.64465V41.7605L90.3606 105.641V65.5245ZM201.006 -2.06158L90.3606 61.8186V21.7042L201.006 -42.1774V-2.06158ZM428.708 -2.06158L318.064 61.8186V21.7042L428.708 -42.1774V-2.06158ZM656.411 -2.06158L545.766 61.8186V21.7042L656.411 -42.1774V-2.06158ZM884.113 -2.06158L773.47 61.8186V21.7042L884.113 -42.1774V-2.06158ZM963.221 85.5826V-42.1774L997.965 -22.1179V105.641L968.85 88.8329L963.221 85.5826ZM999.569 369.495L888.924 305.615L918.039 288.806L923.667 285.557L1034.31 349.438L999.569 369.495ZM963.221 479.975V352.216L997.965 372.273V500.029L968.85 483.228L963.221 479.975ZM887.32 702.791L922.065 722.845V850.608L887.32 830.539V702.791ZM773.47 810.486L884.113 746.612V786.719L773.47 850.608V810.486ZM773.47 766.666L810.604 745.231H810.609L848.556 723.32H848.557L884.113 702.791V742.898L773.47 806.787V766.666ZM659.618 702.791L694.361 722.845V850.608L659.618 830.539V702.791ZM545.766 810.486L656.411 746.612V786.719L545.766 850.608V810.486ZM545.766 766.666L582.901 745.231H582.905L620.854 723.32H620.855L656.411 702.791V742.898L545.766 806.787V766.666ZM431.915 702.791L466.658 722.845V850.608L431.915 830.539V702.791ZM318.064 810.486L428.708 746.612V786.719L318.064 850.608V810.486ZM318.064 766.666L355.2 745.231H355.203L393.15 723.32H393.152L428.708 702.791V742.898L318.064 806.787V766.666ZM204.213 702.791L238.956 722.845V850.608L204.213 830.539V702.791ZM241.35 548.023L279.3 526.113H279.302L314.857 505.584V545.706L204.213 609.595V569.473L241.35 548.023ZM164.658 460.842L275.303 524.717L240.56 544.785L129.916 480.896L164.658 460.842ZM238.956 328.452V456.208L204.213 436.154V308.395L238.956 328.452ZM204.213 262.72L314.857 198.84V238.958L204.213 302.838V262.72ZM241.35 153.637L279.3 131.726H279.302L314.857 111.198V151.313L204.213 215.195V175.077L241.35 153.637ZM164.658 66.45L275.303 130.33L240.56 150.388L129.916 86.5081L164.658 66.45ZM238.956 61.8186L204.213 41.7605V-85.9978L238.956 -65.94V61.8186ZM276.907 83.7302L242.164 63.671V-64.0876L276.907 -44.0281V83.7302ZM314.857 105.641L286.173 89.0807L280.114 85.5826V-42.1774L314.857 -22.1179V105.641ZM428.708 41.7605L318.064 105.641V65.5245L428.708 1.64465V41.7605ZM466.658 61.8186L431.915 41.7605V-85.9978L466.658 -65.94V61.8186ZM504.608 83.7302L469.865 63.671V-64.0876L504.608 -44.0281V83.7302ZM542.559 105.641L513.874 89.0807L507.816 85.5826V-42.1774L542.559 -22.1179V105.641ZM656.411 41.7605L545.766 105.641V65.5245L656.411 1.64465V41.7605ZM694.361 61.8186L659.618 41.7605V-85.9978L694.361 -65.94V61.8186ZM732.311 83.7302L697.568 63.671V-64.0876L732.311 -44.0281V83.7302ZM770.263 105.641L742.014 89.3334L735.52 85.5826V-42.1774L770.263 -22.1179V105.641ZM884.113 41.7605L773.47 105.641V65.5245L884.113 1.64465V41.7605ZM922.065 61.8186L887.32 41.7605V-85.9978L922.065 -65.94V61.8186ZM925.271 63.671V-64.0876L960.013 -44.0281V83.7302L925.271 63.671ZM961.619 128.478L850.974 64.598L885.717 44.5399L996.362 108.418L961.619 128.478ZM997.965 151.313L887.32 215.195V175.077L924.456 153.637H924.459L962.408 131.726H962.409L997.965 111.198V151.313ZM887.32 302.838V262.72L997.965 198.84V238.958L887.32 302.838ZM922.065 456.208L887.32 436.154V308.395L922.065 328.452V456.208ZM925.271 458.065V330.305L960.013 350.363V478.118L925.271 458.065ZM961.619 522.875L850.974 458.986L885.717 438.932L996.362 502.806L961.619 522.875ZM997.965 545.706L887.32 609.595V569.473L924.456 548.023H924.459L962.408 526.113H962.409L997.965 505.584V545.706ZM887.32 697.236V657.114L997.965 593.24V633.347L887.32 697.236ZM204.211 657.114L314.856 593.24V633.347L204.211 697.236V657.114ZM314.856 589.527L204.211 653.415V613.293L314.856 549.405V589.527ZM276.906 350.363V478.118L242.163 458.065V330.305L276.906 350.363ZM234.499 289.056L240.559 285.557L351.202 349.438L316.46 369.495L205.816 305.615L234.499 289.056ZM885.715 172.298L775.072 108.418L809.815 88.3619L920.458 152.24L885.715 172.298ZM885.715 566.694L775.072 502.805L809.815 482.752L920.458 546.625L885.715 566.694ZM352.806 525.651V653.414L318.063 633.346V505.583L352.806 525.651ZM355.199 350.832H355.201L393.147 328.922C393.149 328.921 393.149 328.921 393.151 328.921L428.706 308.393V348.509L318.063 412.386V372.272L355.199 350.832ZM278.509 263.646L389.152 327.524L354.41 347.584L243.767 283.702L278.509 263.646ZM318.063 111.196L352.806 131.256V259.014L318.063 238.956V111.196ZM354.41 88.3605L465.052 152.239L430.309 172.297L319.667 108.417L354.41 88.3605ZM506.211 128.476L395.567 64.5965L430.309 44.5384L540.953 108.417L506.211 128.476ZM582.112 88.3605L692.755 152.239L658.012 172.297L547.369 108.417L582.112 88.3605ZM733.914 128.476L623.271 64.5965L658.012 44.5384L768.655 108.417L733.914 128.476ZM808.211 259.014L773.468 238.956V111.196L808.211 131.256V259.014ZM846.161 280.926L811.418 260.866V133.108L846.161 153.166V280.926ZM884.111 302.836L854.997 286.027L849.37 282.777V155.018L884.111 175.076V302.836ZM884.111 348.509L773.468 412.386V372.272L810.603 350.832C810.604 350.832 810.604 350.832 810.606 350.831L848.555 328.922C848.555 328.921 848.556 328.921 848.556 328.921L884.111 308.393V348.509ZM884.111 436.153L773.468 500.027V459.92L884.111 396.036V436.153ZM621.667 549.403L656.409 569.472V697.235L621.667 677.166V549.403ZM583.716 527.493L618.458 547.561V675.324L583.716 655.256V527.493ZM545.765 505.583L580.508 525.651V653.414L545.765 633.346V505.583ZM393.963 549.403L428.706 569.472V697.235L393.963 677.166V549.403ZM390.756 547.561V675.324L356.014 655.256V527.493L390.756 547.561ZM354.41 482.752L465.052 546.625L430.309 566.694L319.667 502.805L354.41 482.752ZM318.063 459.92L428.706 396.036V436.153L318.063 500.027V459.92ZM428.706 392.329L318.063 456.206V416.1L428.706 352.215V392.329ZM428.706 302.836L400.021 286.275L393.963 282.777V155.018L428.706 175.076V302.836ZM580.508 259.014L545.765 238.956V111.196L580.508 131.256V259.014ZM618.458 280.926L583.716 260.866V133.108L618.458 153.166V280.926ZM656.409 302.836L627.295 286.027L621.667 282.777V155.018L656.409 175.076V302.836ZM771.863 369.494L661.221 305.614L689.468 289.305L695.964 285.556L806.607 349.436L771.863 369.494ZM770.261 545.705L659.617 609.593V569.472L696.753 548.022H696.754L734.703 526.112H734.704L770.261 505.583V545.705ZM659.617 613.292L770.261 549.403V589.525L659.617 653.414V613.292ZM392.359 460.841L503.002 524.715L468.26 544.784L357.619 480.895L392.359 460.841ZM466.656 328.451V456.206L431.913 436.153V308.393L466.656 328.451ZM542.558 195.134L431.913 259.014V218.897L542.558 155.018V195.134ZM654.805 305.614L620.062 325.672L509.419 261.792L544.162 241.736L625.69 288.805L654.805 305.614ZM770.261 195.134L659.617 259.014V218.897L770.261 155.018V195.134ZM770.261 238.956L659.617 302.836V262.719L770.261 198.839V238.956ZM694.36 456.206L659.617 436.153V308.393L694.36 328.451V456.206ZM732.31 478.117L697.567 458.064V330.303L732.31 350.361V478.117ZM770.261 500.027L742.013 483.717L735.518 479.974V352.215L770.261 372.272V500.027ZM504.606 350.361V478.117L469.863 458.064V330.303L504.606 350.361ZM462.203 289.054L468.26 285.556L578.904 349.436L544.162 369.494L433.517 305.614L462.203 289.054ZM582.112 347.584L471.468 283.702L506.211 263.646L616.855 327.524L582.112 347.584ZM545.765 459.92L656.409 396.036V436.153L545.765 500.027V459.92ZM656.409 392.329L545.765 456.206V416.1L656.409 352.215V392.329ZM507.815 479.974V352.215L542.558 372.272V500.027L513.873 483.465L507.815 479.974ZM620.854 328.921L656.409 308.393V348.509L545.765 412.386V372.272L582.901 350.832H582.903L620.853 328.922C620.853 328.921 620.853 328.921 620.854 328.921ZM431.913 262.719L542.558 198.839V238.956L431.913 302.836V262.719ZM506.211 522.873L395.567 458.984L430.309 438.931L540.953 502.805L506.211 522.873ZM695.964 544.784L585.319 480.895L620.062 460.841L730.705 524.715L695.964 544.784ZM733.914 522.873L623.271 458.984L658.012 438.931L768.655 502.805L733.914 522.873ZM542.558 545.705L431.913 609.593V569.472L469.049 548.022H469.051L506.999 526.112H507.002L542.558 505.583V545.705ZM431.913 613.292L542.558 549.403V589.525L431.913 653.414V613.292ZM547.369 502.805L582.112 482.752L692.755 546.625L658.012 566.694L547.369 502.805ZM884.111 392.329L773.468 456.206V416.1L884.111 352.215V392.329ZM809.815 347.584L699.171 283.702L733.914 263.646L844.557 327.524L809.815 347.584ZM882.507 305.614L847.766 325.672L737.122 261.792L771.863 241.736L853.394 288.805L882.507 305.614ZM696.753 153.635H696.754L734.703 131.725C734.704 131.725 734.704 131.725 734.704 131.723L770.261 111.196V151.312L659.617 215.194V175.076L696.753 153.635ZM695.964 150.387L585.319 86.5067L620.062 66.4486L730.705 130.329L695.964 150.387ZM469.049 153.635H469.051L506.999 131.725C507.001 131.725 507.001 131.725 507.002 131.723L542.558 111.196V151.312L431.913 215.194V175.076L469.049 153.635ZM468.26 150.387L357.619 86.5067L392.359 66.4486L503.002 130.329L468.26 150.387ZM390.756 153.166V280.926L356.014 260.866V133.108L390.756 153.166ZM392.359 325.672L281.717 261.792L316.46 241.736L398.418 289.054L427.102 305.614L392.359 325.672ZM542.558 633.346L431.913 697.235V657.113L542.558 593.239V633.346ZM770.261 633.346L659.617 697.235V657.113L770.261 593.239V633.346ZM808.211 653.414L773.468 633.346V505.583L808.211 525.651V653.414ZM846.161 675.324L811.418 655.256V527.493L846.161 547.561V675.324ZM884.111 569.472V697.235L849.37 677.166V549.403L884.111 569.472ZM280.111 479.974V352.215L314.854 372.272V500.027L286.171 483.465L280.111 479.974ZM997.962 589.525L887.317 653.414V613.292L997.962 549.403V589.525ZM923.664 544.784L813.021 480.895L847.764 460.841L958.407 524.715L923.664 544.784ZM997.962 195.134L887.317 259.014V218.897L997.962 155.018V195.134ZM923.664 150.387L813.021 86.5067L847.764 66.4486L958.407 130.329L923.664 150.387ZM278.505 128.476L167.862 64.5965L202.604 44.5384L313.248 108.417L278.505 128.476ZM204.208 218.897L314.853 155.018V195.134L204.208 259.014V218.897ZM278.505 522.873L167.862 458.984L202.604 438.931L313.248 502.805L278.505 522.873ZM354.407 741.976L243.764 678.102L278.505 658.034L389.149 721.923L354.407 741.976ZM392.356 720.066L281.714 656.192L316.457 636.123L427.099 700.012L392.356 720.066ZM582.109 741.976L471.464 678.102L506.207 658.034L616.852 721.923L582.109 741.976ZM620.059 720.066L509.414 656.192L544.159 636.123L654.802 700.012L620.059 720.066ZM809.812 741.976L699.168 678.102L733.911 658.034L844.554 721.923L809.812 741.976ZM847.762 720.066L737.118 656.192L771.859 636.123L882.504 700.012L847.762 720.066ZM200.999 569.472V697.235L166.257 677.166V549.403L200.999 569.472ZM205.811 700.012L240.554 679.944L351.198 743.833L316.455 763.886L205.811 700.012ZM433.513 700.012L468.256 679.944L578.9 743.833L544.157 763.886L433.513 700.012ZM661.216 700.012L695.959 679.944L806.604 743.833L771.858 763.886L661.216 700.012ZM999.563 763.886L888.918 700.012L923.661 679.944L1034.31 743.833L999.563 763.886ZM1111.81 786.718L1001.17 850.606V810.484L1111.81 746.611V786.718ZM1037.51 741.976L926.87 678.102L961.613 658.034L1072.26 721.923L1037.51 741.976ZM1075.46 720.066L964.82 656.192L999.563 636.123L1110.21 700.012L1075.46 720.066ZM1111.81 392.329L1001.17 456.206V416.1L1111.81 352.215V392.329ZM1037.51 347.584L926.87 283.702L961.613 263.646L1072.26 327.524L1037.51 347.584ZM1111.81 -2.06302L1001.17 61.8172V21.7028L1111.81 -42.1789V-2.06302ZM918.033 -105.588L923.661 -108.837L1034.31 -44.9564L999.563 -24.8987L888.918 -88.7771L918.033 -105.588ZM689.463 -105.087L695.959 -108.837L806.602 -44.9564L771.858 -24.8987L661.216 -88.7771L689.463 -105.087ZM462.198 -105.34L468.256 -108.837L578.899 -44.9564L544.157 -24.8987L433.513 -88.7771L462.198 -105.34ZM234.495 -105.34L240.554 -108.837L351.197 -44.9564L316.455 -24.8987L205.811 -88.7771L234.495 -105.34ZM1111.81 830.539L1001.17 894.428V854.306L1111.81 790.432V830.539ZM1076.25 -65.4716L1111.81 -85.9988V-45.883L1001.17 17.9969V-22.119L1038.3 -43.5614H1038.3L1076.25 -65.4716H1076.25ZM848.551 -65.4716L884.106 -85.9988V-45.883L773.463 17.9969V-22.119L810.598 -43.56C810.599 -43.5614 810.599 -43.5614 810.601 -43.5614L848.549 -65.4716H848.551ZM620.849 -65.4716L656.404 -85.9988V-45.883L545.76 17.9969V-22.119L582.896 -43.5614H582.898L620.848 -65.4716H620.849ZM393.146 -65.4716L428.701 -85.9988V-45.883L318.058 17.9969V-22.119L355.194 -43.5614H355.196L393.142 -65.4716H393.146ZM127.49 -43.5614H127.492L165.442 -65.4716H165.443L200.999 -85.9988V-45.883L90.3542 17.9969V-22.119L127.49 -43.5614ZM52.4041 85.5815V-42.1785L87.1475 -22.119V105.64L58.4619 89.0796L52.4041 85.5815ZM127.49 350.833C127.492 350.833 127.492 350.833 127.492 350.831L165.442 328.922C165.442 328.921 165.442 328.921 165.443 328.921L200.999 308.394V348.51L90.3542 412.386V372.272L127.49 350.833ZM52.4041 479.974V352.215L87.1475 372.272V500.027L58.4619 483.465L52.4041 479.974ZM127.49 745.23H127.493L165.442 723.319L200.999 702.79V742.897L90.3542 806.786V766.665L127.49 745.23ZM204.206 -219.316L241.344 -240.756V-240.758L279.294 -262.667L279.295 -262.668L279.871 -263.001H273.456L240.553 -244.003L207.651 -263.001H201.235L237.345 -242.151L202.602 -222.093L131.749 -263.001H125.098V-135.378L90.3542 -155.436V-263.001H87.1475V-243.078L-0.00512695 -192.76V-189.057L87.1475 -239.375V-199.256L-0.00512695 -148.94V-145.237L87.1475 -195.553V-155.436L-0.00512695 -105.118V-101.415L6.79238 -105.339L12.8512 -108.836L123.493 -44.9557L88.7517 -24.8979L-0.00512695 -76.1411V-72.4348L11.2455 -65.9407V61.8179L-0.00512695 55.3235V59.0268L85.5432 108.418L50.7999 128.477L-0.00512695 99.1441V102.849L47.5927 130.329L12.8498 150.387L-0.00512695 142.966V146.669L9.64122 152.24L-0.00512695 157.809V161.515L13.6401 153.636L51.5902 131.726C51.5902 131.726 51.5917 131.726 51.5917 131.724L87.1475 111.197V151.313L-0.00512695 201.631V205.335L87.1475 155.019V195.135L-0.00512695 245.451V249.157L87.1475 198.84V238.957L-0.00512695 289.273V292.979L6.79238 289.055L12.8512 285.557L123.493 349.437L88.7517 369.495L-0.00512695 318.251V321.956L11.2455 328.452V456.207L-0.00512695 449.716V453.415L85.5432 502.806L50.7999 522.874L-0.00512695 493.537V497.235L47.5927 524.716L12.8498 544.784L-0.00512695 537.357V541.071L9.64122 546.626L-0.00512695 552.196V555.91L13.6401 548.023L51.5902 526.112H51.5917L87.1475 505.583V545.705L-0.00512695 596.017V599.731L87.1475 549.404V589.526L-0.00512695 639.852V643.551L87.1475 593.239V633.346L-0.00512695 683.673V687.372L12.8512 679.945L123.493 743.834L88.7517 763.887L-0.00512695 712.639V716.353L11.2455 722.844V850.607L-0.00512695 844.116V847.815L85.5432 897.205L50.7999 917.259L-0.00512695 887.936V891.635L47.5927 919.116L17.1221 936.703H23.5375L51.5874 920.512H51.5945L87.1475 899.983V936.703H90.3542V899.983L125.098 920.037V936.703H128.306V921.893L153.964 936.703H160.378L91.9585 897.205L126.701 877.152L229.864 936.703H236.281L129.909 875.295L164.652 855.242L275.296 919.116L244.827 936.703H251.241L279.291 920.512H279.298L314.851 899.983V936.703H318.058V899.983L352.801 920.037V936.703H356.009V921.893L381.668 936.703H388.08L319.662 897.205L354.405 877.152L457.566 936.703H463.982L357.612 875.295L392.354 855.242L502.998 919.116L472.529 936.703H478.943L506.991 920.512H506.999L542.553 899.983V936.703H545.76V899.983L580.503 920.037V936.703H583.711V921.893L609.37 936.703H615.785L547.364 897.205L582.107 877.152L685.27 936.703H691.685L585.314 875.295L620.057 855.242L730.7 919.116L700.231 936.703H706.647L734.695 920.512H734.702L770.256 899.983V936.703H773.463V899.983L808.206 920.037V936.703H811.413V921.893L837.073 936.703H843.487L775.068 897.205L809.811 877.152L912.973 936.703H919.387L813.016 875.295L847.761 855.242L958.404 919.116L927.935 936.703H934.35L962.398 920.512H962.406L997.958 899.983V936.703H1001.17V899.983L1035.91 920.037V936.703H1039.12V921.893L1064.77 936.703H1071.19L1002.77 897.205L1037.51 877.152L1140.68 936.703H1147.09L1040.72 875.295L1075.46 855.242L1186.11 919.116L1155.64 936.703H1162.05L1190.1 920.512H1190.11L1199.7 914.972V911.273L1189.31 917.259L1078.67 853.385L1113.41 833.317L1199.7 883.138V879.44L1190.92 874.374V746.611L1199.7 751.677V747.978L1116.62 700.013L1151.36 679.945L1199.7 707.856V704.157L1154.57 678.103L1189.31 658.034L1199.7 664.036V660.337L1192.52 656.193L1199.7 652.048V648.334L1115.02 697.235V657.113L1199.7 608.213V604.514L1115.02 653.415V613.293L1199.7 564.392V560.693L1115.02 609.594V569.472L1152.15 548.023L1190.1 526.112H1190.1L1199.7 520.572V516.873L1189.31 522.874L1078.67 458.985L1113.41 438.932L1199.7 488.753V485.04L1196.55 483.227L1190.92 479.974V352.216L1199.7 357.287V353.581L1116.62 305.615L1145.74 288.805L1151.36 285.557L1199.7 313.465V309.76L1154.57 283.703L1189.31 263.646L1199.7 269.645V265.938L1192.52 261.793L1199.7 257.648V253.943L1115.02 302.837V262.719L1199.7 213.826V210.121L1115.02 259.015V218.897L1199.7 170.004V166.301L1115.02 215.194V175.077L1152.15 153.636L1190.1 131.726C1190.1 131.726 1190.1 131.726 1190.1 131.724L1199.7 126.184V122.479L1189.31 128.477L1078.67 64.5972L1113.41 44.5391L1199.7 94.358V90.6532L1196.55 88.8322L1190.92 85.5819V-42.1782L1199.7 -37.1069V-40.8099L1116.62 -88.7764L1145.74 -105.587L1151.36 -108.836L1199.7 -80.9272V-84.632L1154.57 -110.688L1189.31 -130.746L1199.7 -124.749V-128.453L1192.52 -132.598L1199.7 -136.744V-140.449L1115.02 -91.5571V-131.673L1199.7 -180.566V-184.271L1115.02 -135.378V-175.494L1199.7 -224.387V-228.093L1115.02 -179.2V-219.316L1152.15 -240.756V-240.758L1190.1 -262.667C1190.1 -262.667 1190.1 -262.668 1190.1 -262.668L1190.68 -263.001H1184.27L1151.36 -244.003L1118.46 -263.001H1112.05L1148.15 -242.151L1113.41 -222.093L1042.56 -263.001H1035.91V-135.378L1001.17 -155.436V-263.001H997.958V-243.078L887.314 -179.2V-219.316L924.45 -240.756C924.451 -240.756 924.451 -240.756 924.453 -240.758L962.401 -262.667L962.403 -262.668L962.979 -263.001H956.563L923.661 -244.003L890.76 -263.001H884.343L920.454 -242.151L885.711 -222.093L814.858 -263.001H808.206V-135.378L773.463 -155.436V-263.001H770.256V-243.078L659.612 -179.2V-219.316L696.748 -240.756C696.748 -240.756 696.749 -240.756 696.749 -240.758L734.698 -262.667C734.699 -262.667 734.699 -262.668 734.699 -262.668L735.277 -263.001H728.862L695.959 -244.003L663.057 -263.001H656.641L692.75 -242.151L658.007 -222.093L587.155 -263.001H580.503V-135.378L545.76 -155.436V-263.001H542.553V-243.078L431.908 -179.2V-219.316L469.044 -240.756C469.044 -240.756 469.046 -240.756 469.046 -240.758L506.994 -262.667C506.996 -262.667 506.996 -262.668 506.997 -262.668L507.572 -263.001H501.158L468.255 -244.003L435.353 -263.001H428.937L465.047 -242.151L430.304 -222.093L359.453 -263.001H352.801V-135.378L318.058 -155.436V-263.001H314.851V-243.078L204.206 -179.2V-219.316Z" fill="#403F6F"/>
</g>
<defs>
<clipPath id="clip0_1297_11514">
<rect width="1200" height="675" rx="32" fill="white"/>
</clipPath>
</defs>
</svg>
