<svg width="1200" height="675" viewBox="0 0 1200 675" fill="none" xmlns="http://www.w3.org/2000/svg">
<g clip-path="url(#clip0_1297_11548)">
<path d="M1195.92 1039.25H1122.1L1151.32 1022.37L1232.84 975.312L1195.92 1039.25ZM939.785 1039.25H865.962L895.187 1022.37L976.699 975.312L939.785 1039.25ZM683.648 1039.25H609.823L650.551 1015.73L720.56 975.312L683.648 1039.25ZM427.508 1039.25H353.686L387.853 1019.52L464.423 975.312L427.508 1039.25ZM171.373 1039.25H97.5479L122.778 1024.68L208.285 975.312L171.373 1039.25ZM-43.1702 830.035V958.085L-80.1344 894.059L-43.1702 830.035ZM-43.1702 682.173V810.223L-80.1344 746.197L-43.1702 682.173ZM-43.1702 534.312V662.361L-80.1344 598.338L-43.1702 534.312ZM-43.1702 386.45V514.502L-80.1344 450.476L-43.1702 386.45ZM-43.1702 238.59V366.64L-80.1344 302.614L-43.1702 238.59ZM-43.1702 90.7292V218.778L-80.1344 154.754L-43.1702 90.7292ZM-43.1702 -57.1308V70.9181L-80.1344 6.89343L-43.1702 -57.1308ZM-43.1702 -204.993V-76.9423L-80.1344 -140.967L-43.1702 -204.993ZM-43.1702 -352.853V-224.804L-80.1344 -288.829L-43.1702 -352.853ZM1242.87 -352.732L1279.76 -288.829L1242.87 -224.924V-352.732ZM1242.87 -204.871L1279.76 -140.967L1242.87 -77.064V-204.871ZM1242.87 -57.0091L1279.76 6.89343L1242.87 70.7964V-57.0091ZM1242.87 90.8513L1279.76 154.754L1242.87 218.658V90.8513ZM1242.87 238.711L1279.76 302.614L1242.87 366.519V238.711ZM1242.87 386.574L1279.76 450.476L1242.87 514.379V386.574ZM1242.87 534.434L1279.76 598.338L1242.87 662.239V534.434ZM1242.87 682.294L1279.76 746.197L1242.87 810.101V682.294ZM1242.87 830.156L1279.76 894.059L1242.87 957.962V830.156ZM607.115 1034.64L644.046 970.673H717.905L691.331 986.014L607.115 1034.64ZM-37.8241 830.156L-0.928864 894.059L-37.8241 957.962V830.156ZM-37.8241 682.294L-0.928864 746.197L-37.8241 810.101V682.294ZM-37.8241 534.434L-0.928864 598.338L-37.8241 662.241V534.434ZM-37.8241 386.572L-0.928864 450.476L-37.8241 514.379V386.572ZM-37.8241 238.711L-0.928864 302.614L-37.8241 366.519V238.711ZM-37.8241 90.8513L-0.928864 154.754L-37.8241 218.658V90.8513ZM-37.8241 -57.0091L-0.928864 6.89343L-37.8241 70.7964V-57.0091ZM-37.8241 -204.871L-0.928864 -140.967L-37.8241 -77.064V-204.871ZM-37.8241 -352.732L-0.928864 -288.829L-37.8241 -224.924V-352.732ZM333.733 -291.501H259.84L222.893 -355.497L298.436 -311.882L333.733 -291.501ZM464.424 -355.436L427.509 -291.501H353.686L388.983 -311.882L464.424 -355.436ZM720.561 -355.436L683.649 -291.501H609.823L634.933 -305.999L720.561 -355.436ZM976.699 -355.436L939.785 -291.501H865.962L921.365 -323.489L976.699 -355.436ZM1102.15 -291.501H1028.25L991.305 -355.497L1046.74 -323.489L1102.15 -291.501ZM1200.56 -288.829L1237.52 -352.853V-224.804L1200.56 -288.829ZM1195.92 -143.641H1122.1L1177.5 -175.628L1232.84 -207.574L1195.92 -143.641ZM1200.56 -140.967L1237.52 -204.993V-76.9423L1200.56 -140.967ZM1195.92 4.2196H1122.1L1177.5 -27.7672L1232.84 -59.7134L1195.92 4.2196ZM1200.56 6.89343L1237.52 -57.1308V70.9181L1200.56 6.89343ZM1195.92 152.082H1122.1L1232.84 88.147L1195.92 152.082ZM1200.56 154.754L1237.52 90.7292V218.778L1200.56 154.754ZM1195.92 299.942H1122.1L1232.84 236.009L1195.92 299.942ZM1200.56 302.614L1237.52 238.59V366.64L1200.56 302.614ZM1195.92 447.803H1122.1L1151.32 430.93L1232.84 383.869L1195.92 447.803ZM1200.56 450.476L1237.52 386.45V514.502L1200.56 450.476ZM1195.92 595.663H1122.1L1151.32 578.791L1232.84 531.73L1195.92 595.663ZM1200.56 598.338L1237.52 534.312V662.363L1200.56 598.338ZM1195.92 743.525H1122.1L1177.5 711.538L1232.84 679.592L1195.92 743.525ZM1200.56 746.197L1237.52 682.173V810.223L1200.56 746.197ZM1195.92 891.385H1122.1L1232.84 827.452L1195.92 891.385ZM1200.56 894.059L1237.52 830.033V958.085L1200.56 894.059ZM1156.32 970.673H1230.18L1119.39 1034.64L1156.32 970.673ZM900.183 970.673H974.042L863.255 1034.64L900.183 970.673ZM644.046 965.327L607.08 901.301L717.976 965.327H644.046ZM602.539 904.127L639.415 967.999L602.539 1031.87V904.127ZM387.908 970.673H461.767L350.977 1034.64L387.908 970.673ZM131.771 970.673H205.63L94.8407 1034.64L131.771 970.673ZM3.70174 896.733H77.5611L-33.2288 960.696L3.70174 896.733ZM77.5964 891.385H3.70174L-33.2474 827.391L77.5964 891.385ZM3.70174 748.871H77.5611L-33.2288 812.836L3.70174 748.871ZM33.118 717.845L77.5964 743.525H3.70174L-33.2474 679.531L33.118 717.845ZM3.70174 601.01H77.5591L-33.2288 664.974L3.70174 601.01ZM52.3666 581.097L77.5964 595.663H3.70174L-33.2474 531.669L52.3666 581.097ZM3.70174 453.148H77.5611L-33.2288 517.114L3.70174 453.148ZM52.3666 433.237L77.5964 447.803H3.70174L-33.2474 383.808L52.3666 433.237ZM3.70174 305.288H77.5611L-33.2288 369.253L3.70174 305.288ZM77.5964 299.942H3.70174L-33.2474 235.948L77.5964 299.942ZM3.70174 157.428H77.5611L-33.2288 221.391L3.70174 157.428ZM77.5964 152.082H3.70174L-33.2474 88.0877L77.5964 152.082ZM3.70174 9.56732H77.5611L-33.2288 73.5307L3.70174 9.56732ZM33.118 -21.4597L77.5964 4.2196H3.70174L-33.2474 -59.7742L33.118 -21.4597ZM3.70174 -138.295H77.5591L-33.2288 -74.3297L3.70174 -138.295ZM32.981 -169.4L77.5964 -143.641H3.70174L-33.2474 -207.636L32.981 -169.4ZM3.70174 -286.155H77.5611L-33.2288 -222.192L3.70174 -286.155ZM3.70174 -291.501L-33.2474 -355.497L77.5964 -291.501H3.70174ZM171.374 -291.501H97.5483L208.285 -355.436L171.374 -291.501ZM218.315 -224.924V-352.732L255.209 -288.829L218.315 -224.924ZM222.91 -222.192L259.839 -286.155H333.698L222.91 -222.192ZM469.105 -224.804L432.141 -288.829L469.105 -352.853V-224.804ZM515.977 -291.501L479.03 -355.497L589.872 -291.501H515.977ZM725.242 -224.804L688.278 -288.829L725.242 -352.853V-224.804ZM772.114 -291.501L735.168 -355.497L846.01 -291.501H772.114ZM981.382 -224.804L944.416 -288.829L981.382 -352.853V-224.804ZM986.728 -224.924V-352.732L1023.62 -288.829L986.728 -224.924ZM991.324 -222.192L1028.25 -286.155H1102.11L991.324 -222.192ZM1119.39 -0.38913L1156.32 -64.3545H1230.18L1174.83 -32.3962L1119.39 -0.38913ZM1119.39 147.471L1156.32 83.5074H1230.18L1147.54 131.223L1119.39 147.471ZM1119.39 295.332L1156.32 231.368H1230.18L1147.54 279.083L1119.39 295.332ZM1119.39 738.915L1156.32 674.949H1230.18L1174.83 706.906L1119.39 738.915ZM1119.39 886.775L1156.32 822.81H1230.18L1147.54 870.526L1119.39 886.775ZM1156.32 965.326L1119.36 901.3L1230.25 965.326H1156.32ZM1114.81 904.125L1151.69 967.998L1114.81 1031.87V904.125ZM1067.86 970.672L1104.75 1034.57L994.066 970.672H1067.86ZM900.183 965.326L863.219 901.3L974.113 965.326H900.183ZM858.677 904.125L895.554 967.998L858.677 1031.87V904.125ZM811.718 970.672L848.613 1034.57L737.928 970.672H811.718ZM683.649 896.731L720.542 960.634L609.859 896.731H683.649ZM555.58 970.672L592.474 1034.57L481.791 970.672H555.58ZM387.908 965.326L350.942 901.3L461.838 965.326H387.908ZM346.401 904.125L383.277 967.998L346.401 1031.87V904.125ZM299.441 970.672L336.336 1034.57L225.653 970.672H299.441ZM131.771 965.326L94.805 901.3L205.701 965.326H131.771ZM90.262 904.125L127.14 967.998L90.262 1031.87V904.125ZM43.3045 970.672L80.1993 1034.57L-30.4855 970.672H43.3045ZM43.3045 965.326H-30.5549L80.2346 901.361L43.3045 965.326ZM43.3045 817.464H-30.5549L80.2346 753.5L43.3045 817.464ZM-30.4855 674.949H43.3045L80.1993 738.852L7.37955 696.811L-30.4855 674.949ZM43.3045 669.604H-30.5549L80.2346 605.638L43.3045 669.604ZM43.3045 521.741H-30.5549L80.2346 457.778L43.3045 521.741ZM43.3045 373.881H-30.5549L80.2346 309.917L43.3045 373.881ZM43.3045 226.021H-30.5549L80.2346 162.057L43.3045 226.021ZM43.3045 78.1605H-30.5549L80.2346 14.1951L43.3045 78.1605ZM-30.4855 -64.3557H43.3045L80.1993 -0.451202L7.37955 -42.4942L-30.4855 -64.3557ZM43.3045 -69.7015H-30.5549L80.2346 -133.665L43.3045 -69.7015ZM43.3045 -217.562H-30.5549L80.2346 -281.527L43.3045 -217.562ZM212.969 -224.805L176.004 -288.83L212.969 -352.855V-224.805ZM299.441 -217.562H225.584L336.372 -281.527L299.441 -217.562ZM387.908 -217.562L350.942 -281.588L461.838 -217.562H387.908ZM479.048 -222.193L515.977 -286.156H589.836L479.048 -222.193ZM644.046 -217.562L607.08 -281.588L717.976 -217.562H644.046ZM735.185 -222.193L772.114 -286.156H845.975L735.185 -222.193ZM900.183 -217.562L863.219 -281.588L974.113 -217.562H900.183ZM1067.86 -217.562H993.995L1104.79 -281.527L1067.86 -217.562ZM1156.32 -217.562L1119.36 -281.588L1230.25 -217.562H1156.32ZM1156.32 -212.216H1230.18L1119.39 -148.252L1156.32 -212.216ZM1156.32 -69.7015L1119.36 -133.726L1230.25 -69.7015H1156.32ZM1114.81 -130.9L1151.69 -67.0276L1114.81 -3.15552V-130.9ZM1156.32 78.1605L1119.36 14.1343L1230.25 78.1605H1156.32ZM1114.81 16.9602L1151.69 80.8327L1114.81 144.706V16.9602ZM1156.32 226.021L1119.36 161.996L1230.25 226.021H1156.32ZM1114.81 164.822L1151.69 228.695L1114.81 292.567V164.822ZM1156.32 373.881L1119.36 309.857L1230.25 373.881H1156.32ZM1156.32 379.227H1230.18L1119.39 443.192L1156.32 379.227ZM1156.32 521.741L1119.36 457.717L1230.25 521.741H1156.32ZM1156.32 527.089H1230.18L1119.39 591.053L1156.32 527.089ZM1156.32 669.604L1119.36 605.578L1230.25 669.604H1156.32ZM1114.81 608.403L1151.69 672.276L1114.81 736.15V608.403ZM1156.32 817.464L1119.36 753.44L1230.25 817.464H1156.32ZM1114.81 756.264L1151.69 820.138L1114.81 884.01V756.264ZM1109.43 904.002V1031.99L1072.49 967.998L1109.43 904.002ZM1104.79 901.361L1067.86 965.326H993.995L1104.79 901.361ZM939.785 896.731L976.681 960.634L865.997 896.731H939.785ZM853.294 904.002V1031.99L816.347 967.998L853.294 904.002ZM848.647 901.361L811.718 965.326H737.859L848.647 901.361ZM725.242 830.033V958.084L688.278 894.058L725.242 830.033ZM597.158 904.002V1031.99L560.21 967.998L597.158 904.002ZM592.51 901.361L555.58 965.326H481.72L592.51 901.361ZM427.509 896.731L464.405 960.634L353.721 896.731H427.509ZM341.018 904.002V1031.99L304.07 967.998L341.018 904.002ZM336.372 901.361L299.441 965.326H225.584L336.372 901.361ZM171.374 896.731L208.268 960.634L97.5836 896.731H171.374ZM84.8806 1031.99L47.9335 967.998L84.8806 904.002V1031.99ZM84.8806 884.131L47.9335 820.138L84.8806 756.144V884.131ZM84.8806 736.271L47.9335 672.276L84.8806 608.282V736.271ZM43.3045 527.089L80.1993 590.992L-30.4855 527.089H43.3045ZM84.8806 588.409L47.9335 524.415L84.8806 460.42V588.409ZM43.3045 379.227L80.1993 443.13L-30.4855 379.227H43.3045ZM84.8806 440.549L47.9335 376.555L84.8806 312.559V440.549ZM84.8806 292.687L47.9335 228.695L84.8806 164.699V292.687ZM84.8806 144.828L47.9335 80.8327L84.8806 16.8386V144.828ZM84.8806 -3.0318L47.9335 -67.0276L84.8806 -131.022V-3.0318ZM43.3045 -212.216L80.1993 -148.313L-30.4855 -212.216H43.3045ZM84.8806 -150.894L47.9335 -214.89L84.8806 -278.884V-150.894ZM131.771 -217.562L94.805 -281.588L205.701 -217.562H131.771ZM299.441 -212.216L336.336 -148.313L225.653 -212.216H299.441ZM341.018 -150.896L304.07 -214.89L341.018 -278.884V-150.896ZM346.401 -151.016V-278.762L383.277 -214.89L346.401 -151.016ZM350.977 -148.252L387.908 -212.216H461.767L350.977 -148.252ZM555.58 -217.562H481.72L592.51 -281.527L555.58 -217.562ZM602.539 -151.017V-278.762L639.415 -214.89L602.539 -151.017ZM607.116 -148.252L644.046 -212.216H717.905L607.116 -148.252ZM811.718 -217.562H737.859L848.648 -281.527L811.718 -217.562ZM858.677 -151.017V-278.762L895.554 -214.89L858.677 -151.017ZM863.255 -148.252L900.183 -212.216H974.042L863.255 -148.252ZM1067.86 -212.216L1104.75 -148.313L994.066 -212.216H1067.86ZM1109.43 -150.894L1072.49 -214.89L1109.43 -278.884V-150.894ZM1114.81 -278.762L1151.69 -214.89L1114.81 -151.016V-278.762ZM1114.81 312.679L1151.69 376.553L1114.81 440.426V312.679ZM1114.81 460.541L1151.69 524.414L1114.81 588.286V460.541ZM1028.25 896.73H1102.11L991.324 960.694L1028.25 896.73ZM981.382 830.03V958.082L944.416 894.056L981.382 830.03ZM772.114 896.73H845.975L735.185 960.694L772.114 896.73ZM730.59 830.153L767.484 894.056L730.59 957.959V830.153ZM515.977 896.73H589.836L479.048 960.694L515.977 896.73ZM469.105 830.032V958.082L432.141 894.056L469.105 830.032ZM259.839 896.73H333.698L222.91 960.694L259.839 896.73ZM212.969 830.032V958.082L176.004 894.056L212.969 830.032ZM90.262 -151.016V-278.762L127.14 -214.89L90.262 -151.016ZM94.8407 -148.253L131.771 -212.216H205.63L94.8407 -148.253ZM555.582 -212.216L592.477 -148.314L481.793 -212.216H555.582ZM597.16 -150.895L560.212 -214.89L597.16 -278.884V-150.895ZM811.72 -212.216L848.615 -148.314L737.93 -212.216H811.72ZM853.296 -150.895L816.349 -214.89L853.296 -278.884V-150.895ZM1023.63 894.059L986.73 957.962V830.157L1023.63 894.059ZM1028.26 891.386L991.307 827.391L1102.15 891.386H1028.26ZM607.116 886.777L644.047 822.812H717.906L627.724 874.878L607.116 886.777ZM515.977 891.386L479.03 827.391L589.872 891.386H515.977ZM474.451 830.157L511.347 894.059L474.451 957.962V830.157ZM259.841 891.386L222.893 827.391L333.734 891.386H259.841ZM218.315 830.157L255.21 894.059L218.315 957.962V830.157ZM333.734 -143.639H259.841L222.892 -207.634L261.879 -185.126L333.734 -143.639ZM464.424 -207.572L427.509 -143.639H353.687L425.542 -185.126L464.424 -207.572ZM720.561 -207.573L683.649 -143.639H609.824L710.174 -201.575L720.561 -207.573ZM976.7 -207.572L939.786 -143.639H865.962L921.365 -175.625L976.7 -207.572ZM1102.15 -143.639H1028.25L991.305 -207.634L1046.74 -175.625L1102.15 -143.639ZM1072.49 -67.0244L1109.43 -131.019V-3.02853L1072.49 -67.0244ZM1072.49 80.836L1109.43 16.8418V144.831L1072.49 80.836ZM1072.49 228.698L1109.43 164.702V292.69L1072.49 228.698ZM1072.49 376.558L1109.43 312.562V440.552L1072.49 376.558ZM1072.49 524.419L1109.43 460.423V588.412L1072.49 524.419ZM1072.49 672.279L1109.43 608.285V736.275L1072.49 672.279ZM1072.49 820.141L1109.43 756.147V884.135L1072.49 820.141ZM863.255 886.778L900.183 822.813H974.043L891.398 870.53L863.255 886.778ZM737.929 822.813H811.718L848.614 886.717L808.582 863.605L737.929 822.813ZM644.047 817.467L607.081 753.443L717.977 817.467H644.047ZM602.54 756.268L639.416 820.141L602.54 884.013V756.268ZM350.978 886.778L387.908 822.813H461.768L374.955 872.935L350.978 886.778ZM94.8411 886.778L131.772 822.813H205.631L128.139 867.553L94.8411 886.778ZM127.141 820.141L90.2625 884.013V756.268L127.141 820.141ZM127.141 672.279L90.2625 736.153V608.406L127.141 672.279ZM127.141 524.419L90.2625 588.291V460.546L127.141 524.419ZM127.141 376.558L90.2625 440.431V312.684L127.141 376.558ZM127.141 228.698L90.2625 292.57V164.825L127.141 228.698ZM127.141 80.836L90.2625 144.71V16.9635L127.141 80.836ZM127.141 -67.0244L90.2625 -3.15225V-130.897L127.141 -67.0244ZM208.286 -207.572L171.374 -143.639H97.5487L142.164 -169.398L208.286 -207.572ZM218.315 -77.062V-204.869L255.21 -140.965L218.315 -77.062ZM222.91 -74.3276L259.839 -138.293H333.698L222.91 -74.3276ZM469.106 -76.9402L432.142 -140.965L469.106 -204.991V-76.9402ZM589.872 -143.639H515.977L479.03 -207.634L545.257 -169.398L589.872 -143.639ZM725.243 -76.9402L688.278 -140.965L725.243 -204.991V-76.9402ZM846.011 -143.639H772.114L735.168 -207.634L809.073 -164.964L846.011 -143.639ZM981.383 -76.9402L944.417 -140.965L981.383 -204.991V-76.9402ZM986.729 -77.062V-204.869L1023.62 -140.965L986.729 -77.062ZM991.324 -74.3276L1028.25 -138.293H1102.11L991.324 -74.3276ZM1067.86 -69.6982H993.996L1104.79 -133.662L1067.86 -69.6982ZM1049.42 -32.3942L994.067 -64.3525H1067.86L1104.75 -0.447968L1049.42 -32.3942ZM1067.86 78.1638H993.996L1104.79 14.1983L1067.86 78.1638ZM1076.71 131.225L994.067 83.5095H1067.86L1104.75 147.412L1076.71 131.225ZM1067.86 226.024H993.996L1104.79 162.06L1067.86 226.024ZM1076.71 279.085L994.067 231.37H1067.86L1104.75 295.273L1076.71 279.085ZM1067.86 373.884H993.996L1104.79 309.921L1067.86 373.884ZM994.067 379.23H1067.86L1104.75 443.133L994.067 379.23ZM1067.86 521.745H993.996L1104.79 457.781L1067.86 521.745ZM994.067 527.093H1067.86L1104.75 590.995L994.067 527.093ZM1067.86 669.607H993.996L1104.79 605.641L1067.86 669.607ZM1049.42 706.909L994.067 674.952H1067.86L1104.75 738.855L1049.42 706.909ZM1067.86 817.467H993.996L1104.79 753.504L1067.86 817.467ZM900.183 817.467L863.219 753.443L974.114 817.467H900.183ZM858.678 756.268L895.554 820.141L858.678 884.013V756.268ZM853.295 756.147V884.135L816.348 820.141L853.295 756.147ZM848.647 753.504L811.718 817.467H737.859L848.647 753.504ZM683.649 748.873L720.542 812.776L609.859 748.873H683.649ZM481.792 822.813H555.58L592.475 886.717L559.281 867.553L481.792 822.813ZM387.908 817.467L350.942 753.443L461.839 817.467H387.908ZM346.401 756.268L383.277 820.141L346.401 884.013V756.268ZM225.653 822.813H299.441L336.336 886.717L312.464 872.935L225.653 822.813ZM131.772 674.952H205.631L167.766 696.814L94.8391 738.918L131.772 674.952ZM205.702 669.607H131.772L94.8054 605.581L205.702 669.607ZM131.772 527.093H205.631L94.8411 591.056L131.772 527.093ZM205.702 521.745H131.772L94.8054 457.72L205.702 521.745ZM131.772 379.23H205.631L94.8411 443.196L131.772 379.23ZM205.702 373.884H131.772L94.8054 309.86L205.702 373.884ZM131.772 231.37H205.631L128.139 276.109L94.8411 295.334L131.772 231.37ZM205.702 226.024H131.772L94.8054 161.999L205.702 226.024ZM131.772 83.5095H205.631L128.139 128.248L94.8411 147.473L131.772 83.5095ZM205.702 78.1638H131.772L94.8054 14.1375L205.702 78.1638ZM131.772 -64.3525H205.632L167.766 -42.4909L94.8391 -0.387115L131.772 -64.3525ZM205.702 -69.6982H131.772L94.8054 -133.722L205.702 -69.6982ZM212.969 -76.9402L176.005 -140.965L212.969 -204.991V-76.9402ZM299.441 -69.6982H225.584L336.372 -133.662L299.441 -69.6982ZM387.908 -69.6982L350.942 -133.722L461.839 -69.6982H387.908ZM479.049 -74.3276L515.977 -138.293H589.837L479.049 -74.3276ZM644.047 -69.6982L607.081 -133.722L717.977 -69.6982H644.047ZM735.185 -74.3276L772.114 -138.293H845.975L735.185 -74.3276ZM900.183 -69.6982L863.219 -133.722L974.114 -69.6982H900.183ZM1028.25 9.56937H1102.11L991.324 73.5327L1028.25 9.56937ZM1028.25 152.084L991.305 88.0898L1102.15 152.084H1028.25ZM1028.25 157.43H1102.11L991.324 221.393L1028.25 157.43ZM1028.25 299.944L991.305 235.95L1102.15 299.944H1028.25ZM1028.25 305.29H1102.11L991.324 369.255L1028.25 305.29ZM1028.25 453.15H1102.11L991.324 517.116L1028.25 453.15ZM1028.25 601.012H1102.11L991.324 664.976L1028.25 601.012ZM1028.25 748.873H1102.11L991.324 812.838L1028.25 748.873ZM939.786 748.873L976.681 812.776L865.998 748.873H939.786ZM772.114 748.873H845.975L735.185 812.838L772.114 748.873ZM725.243 682.176V810.225L688.278 746.199L725.243 682.176ZM597.158 756.147V884.135L560.211 820.141L597.158 756.147ZM592.51 753.504L555.58 817.467H481.721L592.51 753.504ZM427.509 748.873L464.406 812.776L353.721 748.873H427.509ZM341.018 756.147V884.135L304.07 820.141L341.018 756.147ZM336.372 753.504L299.441 817.467H225.584L336.372 753.504ZM171.374 748.873L208.269 812.776L97.584 748.873H171.374ZM171.374 601.012L208.269 664.915L97.584 601.012H171.374ZM171.374 453.15L208.269 517.055L97.584 453.15H171.374ZM171.374 305.29L208.269 369.193L97.584 305.29H171.374ZM208.286 236.011L171.374 299.944H97.5487L208.286 236.011ZM171.374 157.43L208.269 221.332L97.584 157.43H171.374ZM208.286 88.149L171.374 152.084H97.5487L208.286 88.149ZM171.374 9.56937L208.269 73.4719L97.584 9.56937H171.374ZM299.441 -64.3525L336.336 -0.447968L292.394 -25.8181L225.653 -64.3525H299.441ZM341.018 -3.02853L304.07 -67.0244L341.018 -131.019V-3.02853ZM346.401 -3.15225V-130.897L383.277 -67.0244L346.401 -3.15225ZM395.025 -25.8181L350.978 -0.387115L387.908 -64.3525H461.768L395.025 -25.8181ZM555.58 -69.6982H481.721L592.51 -133.662L555.58 -69.6982ZM602.54 -3.15225V-130.897L639.416 -67.0244L602.54 -3.15225ZM643.094 -21.1584L607.116 -0.387115L644.047 -64.3525H717.906L643.094 -21.1584ZM811.718 -69.6982H737.859L848.649 -133.662L811.718 -69.6982ZM858.678 -3.15225V-130.897L895.554 -67.0244L858.678 -3.15225ZM918.692 -32.3942L863.255 -0.387115L900.183 -64.3525H974.044L918.692 -32.3942ZM986.729 -57.007L1023.62 6.89548L986.729 70.7984V-57.007ZM986.729 90.8533L1023.62 154.756L986.729 218.66V90.8533ZM986.729 238.713L1023.62 302.616L986.729 366.521V238.713ZM986.729 386.576L1023.62 450.478L986.729 514.381V386.576ZM986.729 534.436L1023.62 598.34L986.729 662.241V534.436ZM986.729 682.296L1023.62 746.199L986.729 810.103V682.296ZM981.383 682.175V810.225L944.417 746.199L981.383 682.175ZM772.114 743.527L735.168 679.533L809.271 722.316L846.011 743.527H772.114ZM730.59 682.296L767.485 746.199L730.59 810.103V682.296ZM607.116 738.918L644.047 674.952H717.906L643.094 718.145L607.116 738.918ZM515.977 748.873H589.837L479.049 812.838L515.977 748.873ZM469.106 682.175V810.225L432.142 746.199L469.106 682.175ZM259.839 748.873H333.698L222.91 812.838L259.839 748.873ZM212.969 810.225L176.005 746.199L212.969 682.175V810.225ZM212.969 662.363L176.005 598.34L212.969 534.314V662.363ZM212.969 514.504L176.005 450.478L212.969 386.452V514.504ZM212.969 366.642L176.005 302.616L212.969 238.592V366.642ZM212.969 218.78L176.005 154.756L212.969 90.7312V218.78ZM212.969 70.9201L176.005 6.89548L212.969 -57.1288V70.9201ZM333.734 4.22156H259.841L222.893 -59.7722L261.561 -37.4458L333.734 4.22156ZM464.424 -59.7114L427.509 4.22156H353.687L425.859 -37.4458L464.424 -59.7114ZM555.58 -64.3525L592.475 -0.447968L519.655 -42.4909L481.792 -64.3525H555.58ZM597.158 -3.02853L560.211 -67.0244L597.158 -131.019V-3.02853ZM720.561 -59.7114L683.649 4.22156H609.824L711.37 -54.4046L720.561 -59.7114ZM811.718 -64.3525L848.614 -0.447968L745.169 -60.1713L737.929 -64.3525H811.718ZM853.295 -3.02853L816.348 -67.0244L853.295 -131.019V-3.02853ZM976.7 -59.7114L939.786 4.22156H865.962L921.365 -27.7652L976.7 -59.7114ZM944.417 6.89548L981.383 -57.1288V70.9201L944.417 6.89548ZM944.417 154.756L981.383 90.7312V218.78L944.417 154.756ZM944.417 302.616L981.383 238.592V366.642L944.417 302.616ZM944.417 450.478L981.383 386.452V514.504L944.417 450.478ZM944.417 598.34L981.383 534.314V662.365L944.417 598.34ZM863.255 738.918L900.183 674.952H974.043L918.692 706.909L863.255 738.918ZM737.929 674.952H811.718L848.614 738.855L745.169 679.134L737.929 674.952ZM644.047 669.607L607.081 605.581L717.977 669.607H644.047ZM602.54 608.406L639.416 672.279L602.54 736.153V608.406ZM515.977 743.527L479.03 679.533L545.394 717.847L589.872 743.527H515.977ZM474.451 682.296L511.347 746.199L474.451 810.103V682.296ZM350.978 738.918L387.908 674.952H461.768L395.025 713.485L350.978 738.918ZM259.841 743.527L222.893 679.533L261.561 701.858L333.734 743.527H259.841ZM218.315 682.296L255.21 746.199L218.315 810.103V682.296ZM218.315 534.436L255.21 598.34L218.315 662.243V534.436ZM218.315 386.574L255.21 450.478L218.315 514.381V386.574ZM218.315 238.713L255.21 302.616L218.315 366.521V238.713ZM218.315 90.8533L255.21 154.756L218.315 218.66V90.8533ZM222.91 73.5327L259.839 9.56937H333.698L222.91 73.5327ZM469.106 70.9201L432.142 6.89548L469.106 -57.1288V70.9201ZM589.872 4.22156H515.977L479.03 -59.7722L545.394 -21.4577L589.872 4.22156ZM725.243 70.9201L688.278 6.89548L725.243 -57.1288V70.9201ZM846.011 4.22156H772.114L735.168 -59.7722L809.271 -16.9889L846.011 4.22156ZM939.786 152.084H865.962L976.7 88.149L939.786 152.084ZM865.998 157.43H939.786L976.681 221.332L865.998 157.43ZM939.786 299.944H865.962L976.7 236.011L939.786 299.944ZM865.998 305.29H939.786L976.681 369.193L865.998 305.29ZM939.786 447.805H865.962L895.187 430.932L976.7 383.871L939.786 447.805ZM865.998 453.15H939.786L976.681 517.055L865.998 453.15ZM939.786 595.665H865.962L895.187 578.793L976.7 531.732L939.786 595.665ZM865.998 601.012H939.786L976.681 664.915L865.998 601.012ZM900.183 669.607L863.219 605.581L974.114 669.607H900.183ZM858.678 608.406L895.554 672.279L858.678 736.153V608.406ZM853.295 608.285V736.275L816.348 672.279L853.295 608.285ZM848.649 605.641L811.718 669.607H737.859L848.649 605.641ZM683.649 601.012L720.542 664.915L609.861 601.012H683.649ZM481.792 674.952H555.58L592.475 738.855L519.655 696.814L481.792 674.952ZM387.908 669.607L350.942 605.581L461.839 669.607H387.908ZM346.401 608.406L383.277 672.279L346.401 736.153V608.406ZM225.653 674.952H299.441L336.336 738.857L292.394 713.485L225.653 674.952ZM259.839 601.012H333.698L222.91 664.976L259.839 601.012ZM299.565 575.938L333.734 595.665H259.841L222.893 531.671L299.565 575.938ZM259.839 453.15H333.698L222.91 517.114L259.839 453.15ZM299.565 428.078L333.734 447.805H259.841L222.893 383.81L299.565 428.078ZM259.839 305.29H333.698L222.91 369.255L259.839 305.29ZM333.734 299.944H259.841L222.893 235.95L333.734 299.944ZM259.839 157.43H333.698L222.91 221.393L259.839 157.43ZM333.734 152.084H259.841L222.893 88.0898L333.734 152.084ZM299.441 78.1638H225.584L336.372 14.1983L299.441 78.1638ZM387.908 78.1638L350.942 14.1375L461.839 78.1638H387.908ZM479.049 73.5327L515.977 9.56937H589.837L479.049 73.5327ZM644.047 78.1638L607.081 14.1375L717.977 78.1638H644.047ZM735.185 73.5327L772.114 9.56937H845.975L735.185 73.5327ZM900.183 78.1638L863.219 14.1375L974.114 78.1638H900.183ZM863.255 147.473L900.183 83.5095H974.043L891.398 131.225L863.255 147.473ZM900.183 226.024L863.219 161.999L974.114 226.024H900.183ZM863.255 295.334L900.183 231.37H974.043L891.398 279.085L863.255 295.334ZM900.183 373.884L863.219 309.86L974.114 373.884H900.183ZM900.183 521.745L863.219 457.72L974.114 521.745H900.183ZM772.114 601.012H845.975L735.185 664.976L772.114 601.012ZM725.243 534.314V662.363L688.278 598.34L725.243 534.314ZM597.158 608.285V736.275L560.211 672.279L597.158 608.285ZM592.51 605.641L555.58 669.607H481.721L592.51 605.641ZM427.509 601.012L464.406 664.915L353.721 601.012H427.509ZM341.018 608.285V736.275L304.07 672.279L341.018 608.285ZM299.441 669.607H225.584L336.372 605.641L299.441 669.607ZM299.441 521.745H225.584L336.372 457.781L299.441 521.745ZM299.441 373.884H225.584L336.372 309.921L299.441 373.884ZM299.441 226.024H225.584L336.372 162.06L299.441 226.024ZM299.441 83.5095L336.336 147.412L312.464 133.63L225.653 83.5095H299.441ZM341.018 144.831L304.07 80.836L341.018 16.8418V144.831ZM346.401 144.71V16.9635L383.277 80.836L346.401 144.71ZM374.955 133.63L350.978 147.473L387.908 83.5095H461.768L374.955 133.63ZM555.58 78.1638H481.721L592.51 14.1983L555.58 78.1638ZM602.54 144.71V16.9635L639.416 80.836L602.54 144.71ZM627.724 135.577L607.116 147.473L644.047 83.5095H717.906L627.724 135.577ZM811.718 78.1638H737.859L848.647 14.1983L811.718 78.1638ZM858.678 16.9635L895.554 80.836L858.678 144.71V16.9635ZM858.678 164.825L895.554 228.698L858.678 292.57V164.825ZM858.678 440.431V312.684L895.554 376.558L858.678 440.431ZM900.183 379.23H974.043L863.255 443.196L900.183 379.23ZM858.678 588.291V460.546L895.554 524.419L858.678 588.291ZM900.183 527.093H974.043L863.255 591.056L900.183 527.093ZM772.114 595.665L735.168 531.671L824.014 582.965L846.011 595.665H772.114ZM730.59 534.436L767.485 598.34L730.59 662.243V534.436ZM607.116 591.056L644.047 527.093H717.906L691.333 542.433L607.116 591.056ZM515.977 601.012H589.837L479.049 664.976L515.977 601.012ZM469.106 534.314V662.363L432.142 598.34L469.106 534.314ZM299.441 527.093L336.336 590.995L225.653 527.093H299.441ZM341.018 588.412L304.07 524.419L341.018 460.423V588.412ZM299.441 379.23L336.336 443.135L225.653 379.23H299.441ZM341.018 440.552L304.07 376.558L341.018 312.562V440.552ZM341.018 292.69L304.07 228.698L341.018 164.704V292.69ZM555.58 83.5095L592.475 147.412L559.281 128.248L481.792 83.5095H555.58ZM597.158 144.831L560.211 80.836L597.158 16.8418V144.831ZM811.718 83.5095L848.614 147.412L808.582 124.3L737.929 83.5095H811.718ZM853.295 144.831L816.348 80.836L853.295 16.8418V144.831ZM644.047 521.745L607.081 457.72L717.977 521.745H644.047ZM602.54 460.546L639.416 524.419L602.54 588.291V460.546ZM515.977 595.665L479.03 531.671L564.642 581.099L589.872 595.665H515.977ZM474.451 534.436L511.347 598.34L474.451 662.243V534.436ZM427.509 152.084H353.687L464.424 88.149L427.509 152.084ZM683.649 152.084H609.824L720.561 88.149L683.649 152.084ZM846.011 152.084H772.114L735.168 88.0898L763.006 104.161L846.011 152.084ZM811.718 527.093L848.614 590.995L737.929 527.093H811.718ZM683.649 453.15L720.542 517.055L609.859 453.15H683.649ZM387.908 527.093H461.768L350.978 591.056L387.908 527.093ZM469.106 218.78L432.142 154.756L469.106 90.7312V218.78ZM515.977 152.084L479.03 88.0898L589.872 152.084H515.977ZM725.243 218.78L688.278 154.756L725.243 90.7312V218.78ZM730.59 218.66V90.8533L767.485 154.756L730.59 218.66ZM735.185 221.393L772.114 157.43H845.975L735.185 221.393ZM816.348 228.698L853.295 164.702V292.69L816.348 228.698ZM816.348 376.558L853.295 312.562V440.552L816.348 376.558ZM853.295 460.423V588.412L816.348 524.419L853.295 460.423ZM848.647 457.781L811.718 521.745H737.859L848.647 457.781ZM725.243 386.452V514.504L688.278 450.478L725.243 386.452ZM555.58 527.093L592.475 590.995L481.792 527.093H555.58ZM383.277 524.419L346.401 588.291V460.546L383.277 524.419ZM387.908 521.745L350.942 457.72L461.839 521.745H387.908ZM383.277 376.558L346.401 440.431V312.684L383.277 376.558ZM383.277 228.698L346.401 292.57V164.825L383.277 228.698ZM387.908 226.024L350.942 161.999L461.839 226.024H387.908ZM474.451 218.66V90.8533L511.347 154.756L474.451 218.66ZM479.049 221.393L515.977 157.43H589.837L479.049 221.393ZM644.047 226.024L607.081 161.999L717.977 226.024H644.047ZM811.718 226.024H737.859L848.647 162.06L811.718 226.024ZM808.582 272.161L737.929 231.37H811.718L848.614 295.273L808.582 272.161ZM811.718 373.884H737.859L848.647 309.921L811.718 373.884ZM737.929 379.23H811.718L848.614 443.133L737.929 379.23ZM772.114 453.15H845.975L735.185 517.116L772.114 453.15ZM730.59 386.574L767.485 450.478L730.59 514.381V386.574ZM607.116 443.196L644.047 379.23H717.906L691.333 394.573L607.116 443.196ZM597.158 460.423V588.412L560.211 524.419L597.158 460.423ZM592.51 457.781L555.58 521.745H481.721L592.51 457.781ZM427.509 453.15L464.406 517.055L353.721 453.15H427.509ZM387.908 379.23H461.768L350.978 443.196L387.908 379.23ZM461.839 373.884H387.908L350.942 309.86L461.839 373.884ZM555.58 226.024H481.721L592.51 162.06L555.58 226.024ZM602.54 292.57V164.825L639.416 228.698L602.54 292.57ZM627.724 283.437L607.116 295.334L644.047 231.37H717.906L627.724 283.437ZM772.114 305.29H845.975L735.185 369.255L772.114 305.29ZM644.047 373.884L607.081 309.86L717.977 373.884H644.047ZM602.54 312.684L639.416 376.558L602.54 440.431V312.684ZM515.977 453.15H589.837L479.049 517.116L515.977 453.15ZM469.106 386.452V514.504L432.142 450.478L469.106 386.452ZM427.509 305.29L464.406 369.193L353.721 305.29H427.509ZM464.424 236.011L427.509 299.944H353.687L464.424 236.011ZM555.58 231.37L592.475 295.273L559.281 276.109L481.792 231.37H555.58ZM597.158 292.69L560.211 228.698L597.158 164.702V292.69ZM730.59 238.713L767.485 302.616L730.59 366.521V238.713ZM683.649 305.29L720.542 369.193L609.859 305.29H683.649ZM515.977 447.805L479.03 383.81L564.642 433.239L589.872 447.805H515.977ZM474.451 386.574L511.347 450.478L474.451 514.381V386.574ZM469.106 366.642L432.142 302.616L469.106 238.592V366.642ZM474.451 238.713L511.347 302.616L474.451 366.521V238.713ZM515.977 299.944L479.03 235.95L589.872 299.944H515.977ZM560.211 376.558L597.158 312.562V440.552L560.211 376.558ZM555.58 379.23L592.475 443.133L481.792 379.23H555.58ZM555.58 373.884H481.721L592.51 309.921L555.58 373.884ZM515.977 305.29H589.837L479.049 369.255L515.977 305.29ZM683.649 299.944H609.824L720.561 236.011L683.649 299.944ZM725.243 366.642L688.278 302.616L725.243 238.592V366.642ZM427.509 447.805H353.687L387.854 428.078L464.424 383.871L427.509 447.805ZM846.012 447.805H772.116L735.17 383.81L824.016 435.105L846.012 447.805ZM846.012 299.944H772.116L735.17 235.95L763.008 252.021L846.012 299.944ZM387.908 231.37H461.767L374.955 281.49L350.977 295.334L387.908 231.37ZM683.649 447.805H609.823L650.551 424.292L720.561 383.871L683.649 447.805ZM683.649 157.43L720.542 221.332L609.859 157.43H683.649ZM427.509 157.43L464.405 221.332L353.721 157.43H427.509ZM225.653 231.37H299.441L336.336 295.273L312.463 281.49L225.653 231.37ZM427.509 595.665H353.686L387.854 575.938L464.424 531.732L427.509 595.665ZM683.649 595.665H609.823L650.551 572.152L720.561 531.732L683.649 595.665ZM730.59 -57.0054L767.484 6.89709L730.59 70.8017V-57.0054ZM474.451 -57.0054L511.346 6.89709L474.451 70.8V-57.0054ZM939.784 9.57098L976.679 73.4735L865.996 9.57098H939.784ZM683.647 9.57098L720.54 73.4735L609.857 9.57098H683.647ZM427.507 9.57098L464.404 73.4735L353.719 9.57098H427.507ZM218.313 -57.0054L255.208 6.89709L218.313 70.8V-57.0054ZM427.507 743.527H353.685L425.857 701.858L464.422 679.592L427.507 743.527ZM939.782 743.527H865.959L921.362 711.54L976.696 679.594L939.782 743.527ZM142.024 -21.4565L208.281 -59.7101L171.37 4.22281H97.5442L142.024 -21.4565ZM122.774 433.241L208.281 383.873L171.37 447.806H97.5442L122.774 433.241ZM122.774 581.101L208.281 531.733L171.37 595.667H97.5442L122.774 581.101ZM142.024 717.849L208.281 679.594L171.37 743.529H97.5442L142.024 717.849ZM683.647 743.529H609.821L711.368 684.9L720.559 679.594L683.647 743.529ZM1102.15 743.529H1028.25L991.304 679.534L1046.74 711.542L1102.15 743.529ZM1102.15 595.667H1028.25L991.304 531.672L1072.92 578.794L1102.15 595.667ZM1102.15 447.806H1028.25L991.304 383.812L1072.92 430.934L1102.15 447.806ZM1102.15 4.22321H1028.25L991.304 -59.7706L1046.74 -27.7635L1102.15 4.22321ZM730.589 -204.868L767.483 -140.963L730.589 -77.0603V-204.868ZM474.45 -204.868L511.345 -140.963L474.45 -77.0603V-204.868ZM171.372 -138.291L208.267 -74.3868L97.5824 -138.291H171.372ZM131.77 817.47L94.8038 753.446L205.7 817.47H131.77ZM1076.71 870.532L994.067 822.816H1067.86L1104.75 886.72L1076.71 870.532ZM939.786 -138.289L976.681 -74.384L865.998 -138.289H939.786ZM683.65 -138.289L720.543 -74.384L609.862 -138.289H683.65ZM427.509 -138.289L464.406 -74.384L353.721 -138.289H427.509ZM772.115 891.394L735.169 827.4L763.007 843.471L846.011 891.394H772.115ZM171.372 891.394H97.5471L208.284 827.46L171.372 891.394ZM427.507 891.394H353.685L464.422 827.46L427.507 891.394ZM939.783 891.394H865.959L976.697 827.46L939.783 891.394ZM-30.4876 83.5152H43.3021L80.1973 147.418L47.0038 128.254L-30.4876 83.5152ZM-30.4876 231.375H43.3021L80.1973 295.278L47.0038 276.114L-30.4876 231.375ZM-30.4876 822.821H43.3021L80.1973 886.725L47.0038 867.561L-30.4876 822.821ZM683.647 891.395H609.822L720.559 827.462L683.647 891.395ZM730.588 -352.721L767.483 -288.818L730.588 -224.913V-352.721ZM474.449 -352.721L511.345 -288.818L474.449 -224.913V-352.721ZM171.372 -286.144L208.267 -222.241L97.582 -286.144H171.372ZM1195.92 896.743L1232.82 960.646L1122.14 896.743H1195.92ZM1195.92 748.881L1232.82 812.784L1122.14 748.881H1195.92ZM1195.92 601.02L1232.82 664.923L1122.14 601.02H1195.92ZM1195.92 453.159L1232.82 517.063L1122.14 453.159H1195.92ZM1195.92 305.298L1232.82 369.201L1122.14 305.298H1195.92ZM1195.92 157.438L1232.82 221.34L1122.14 157.438H1195.92ZM1195.92 9.57748L1232.82 73.48L1122.14 9.57748H1195.92ZM1195.92 -138.285L1232.82 -74.3804L1122.14 -138.285H1195.92ZM1195.92 -286.145L1232.82 -222.242L1122.14 -286.145H1195.92ZM939.785 -286.145L976.68 -222.242L865.997 -286.145H939.785ZM683.648 -286.145L720.541 -222.242L609.858 -286.145H683.648ZM427.508 -286.145L464.405 -222.242L353.72 -286.145H427.508ZM1232.83 -355.426L1195.92 -291.491H1122.1L1177.5 -323.479L1232.83 -355.426ZM3.70296 1039.25L-33.2462 975.26L52.3678 1024.69L77.5976 1039.25H3.70296ZM259.842 1039.25L222.894 975.26L299.566 1019.53L333.735 1039.25H259.842ZM515.978 1039.25L479.031 975.26L564.643 1024.69L589.873 1039.25H515.978ZM772.115 1039.25L735.169 975.26L824.015 1026.56L846.011 1039.25H772.115ZM1028.26 1039.25L991.306 975.26L1072.92 1022.38L1102.15 1039.25H1028.26ZM1156.32 -360.07H1230.18L1174.83 -328.112L1119.39 -296.105L1156.32 -360.07ZM1067.86 -360.07L1104.75 -296.165L1049.42 -328.112L994.068 -360.07H1067.86ZM900.184 -360.07H974.044L918.693 -328.112L863.256 -296.105L900.184 -360.07ZM811.719 -360.07L848.614 -296.165L824.867 -309.875L737.93 -360.07H811.719ZM644.048 -360.07H717.907L607.117 -296.105L644.048 -360.07ZM555.581 -360.07L592.476 -296.165L558.106 -316.009L481.792 -360.07H555.581ZM387.909 -360.07H461.768L350.979 -296.105L387.909 -360.07ZM299.442 -360.07L336.337 -296.165L225.654 -360.07H299.442ZM131.772 -360.07H205.631L129.316 -316.009L94.842 -296.105L131.772 -360.07ZM43.3053 -360.07L80.2005 -296.165L45.8307 -316.009L-30.4843 -360.07H43.3053ZM-122.149 -412.992H-132.842L-50.4378 -365.416H-124.366L-150 -409.815V-399.121L-128.997 -362.742L-150 -326.363V-315.671L-124.366 -360.07H-50.5072L-150 -302.627V-296.455L-123.291 -311.875L-47.8519 -355.429L-84.7638 -291.494H-150V-286.148H-84.7638L-47.8686 -222.245L-150 -281.211V-275.038L-50.4378 -217.554H-124.366L-150 -261.953V-251.261L-128.997 -214.882L-150 -178.502V-167.809L-124.366 -212.208H-50.5072L-150 -154.767V-148.592L-86.7327 -185.121L-47.8519 -207.567L-84.7638 -143.634H-150V-138.288H-84.7638L-47.8686 -74.3836L-150 -133.35V-127.175L-50.4378 -69.6934H-124.366L-150 -114.091V-103.399L-128.997 -67.0195L-150 -30.6402V-19.9488L-124.366 -64.3477H-50.5072L-117.249 -25.8133L-150 -6.9043V-0.730286L-86.4151 -37.4409L-47.8519 -59.7065L-84.7638 4.22647H-150V9.57422H-84.7638L-47.8686 73.4767L-150 14.5127V20.6847L-50.4378 78.1686H-124.366L-150 33.7697V44.4628L-128.997 80.8409L-150 117.22V127.913L-124.366 83.5143H-50.5072L-137.317 133.635L-150 140.958V147.13L-47.8519 88.1538L-84.7638 152.089H-150V157.435H-84.7638L-47.8686 221.337L-150 162.373V168.545L-50.4378 226.029H-124.366L-150 181.63V192.323L-128.997 228.703L-150 265.08V275.774L-124.366 231.375H-50.5072L-137.317 281.495L-150 288.816V294.99L-47.8519 236.016L-84.7638 299.949H-150V305.295H-84.7638L-47.8686 369.197L-150 310.233V316.407L-50.4378 373.889H-124.366L-150 329.49V340.183L-128.997 376.563L-150 412.941V423.634L-124.366 379.235H-50.5072L-150 436.678V442.852L-124.42 428.082L-47.8519 383.876L-84.7638 447.81H-150V453.155H-84.7638L-47.8686 517.06L-150 458.094V464.268L-50.4378 521.75H-124.366L-150 477.352V488.044L-128.997 524.424L-150 560.803V571.495L-124.366 527.097H-50.5072L-150 584.539V590.713L-124.42 575.943L-47.8519 531.737L-84.7638 595.67H-150V601.017H-84.7638L-47.8686 664.92L-150 605.954V612.128L-50.4378 669.612H-124.366L-150 625.213V635.906L-128.997 672.284L-150 708.663V719.357L-124.366 674.957H-50.5072L-117.249 713.49L-150 732.399V738.573L-86.4151 701.862L-47.8519 679.597L-84.7638 743.532H-150V748.878H-84.7638L-47.8686 812.781L-150 753.816V759.99L-50.4378 817.472H-124.366L-150 773.073V783.766L-128.997 820.146L-150 856.523V867.217L-124.366 822.818H-50.5072L-137.317 872.939L-150 880.261V886.435L-47.8519 827.459L-84.7638 891.392H-150V896.74H-84.7638L-47.8686 960.642L-150 901.676V907.85L-50.4378 965.334H-124.366L-150 920.935V931.629L-128.997 968.006L-150 1004.39V1015.08L-124.366 970.68H-50.5072L-150 1028.12V1034.3L-124.42 1019.53L-47.8519 975.319L-84.7638 1039.25H-150V1044.6H-84.7638L-60.4839 1086.65H-54.3115L-80.1328 1041.93L-43.1686 977.902V1086.65H-37.8229V978.023L-0.927658 1041.93L-26.7509 1086.65H-20.5786L3.70296 1044.6H77.5624L4.72392 1086.65H15.4154L80.2358 1049.23L58.6298 1086.65H64.8018L84.8819 1051.87V1086.65H90.2633V1052L110.274 1086.65H116.45L94.8063 1049.17L159.732 1086.65H170.425L97.5848 1044.6H171.375L195.655 1086.65H201.829L176.005 1041.93L212.97 977.902V1086.65H218.316V978.023L255.211 1041.93L229.388 1086.65H235.561L259.84 1044.6H333.699L260.861 1086.65H271.554L336.373 1049.23L314.765 1086.65H320.939L341.019 1051.87V1086.65H346.402V1052L366.413 1086.65H372.585L350.943 1049.17L415.868 1086.65H426.562L353.722 1044.6H427.51L451.792 1086.65H457.966L432.142 1041.93L469.107 977.902V1086.65H474.452V978.023L511.348 1041.93L485.526 1086.65H491.698L515.978 1044.6H589.838L516.999 1086.65H527.691L592.511 1049.23L570.905 1086.65H577.077L597.159 1051.87V1086.65H602.54V1052L622.551 1086.65H628.724L607.081 1049.17L672.007 1086.65H682.7L609.86 1044.6H683.65L707.93 1086.65H714.104L688.279 1041.93L725.244 977.902V1086.65H730.591V978.023L767.486 1041.93L741.663 1086.65H747.837L772.115 1044.6H845.976L773.136 1086.65H783.829L848.648 1049.23L827.042 1086.65H833.216L853.296 1051.87V1086.65H858.679V1052L878.688 1086.65H884.862L863.22 1049.17L928.145 1086.65H938.837L865.999 1044.6H939.787L964.068 1086.65H970.241L944.418 1041.93L981.383 977.902V1086.65H986.729V978.023L1023.62 1041.93L997.801 1086.65H1003.97L1028.25 1044.6H1102.11L1029.27 1086.65H1039.97L1104.79 1049.23L1083.18 1086.65H1089.35L1109.43 1051.87V1086.65H1114.82V1052L1134.83 1086.65H1141L1119.36 1049.17L1184.28 1086.65H1194.98L1122.14 1044.6H1195.93L1220.21 1086.65H1226.38L1200.56 1041.93L1237.52 977.902V1086.65H1242.87V978.023L1279.76 1041.93L1253.94 1086.65H1260.11L1284.39 1044.6H1349.65V1039.25H1284.39L1247.44 975.258L1329.06 1022.38L1349.65 1034.26V1028.09L1250.2 970.68H1324L1349.65 1015.11V1004.42L1328.63 968.006L1349.65 931.596V920.905L1324 965.334H1250.14L1349.65 907.881V901.707L1247.46 960.703L1284.39 896.74H1349.65V891.392H1284.39L1247.44 827.398L1349.65 886.403V880.231L1332.85 870.535L1250.2 822.818H1324L1349.65 867.247V856.555L1328.63 820.146L1349.65 783.736V773.043L1324 817.472H1250.14L1349.65 760.02V753.846L1247.46 812.843L1284.39 748.878H1349.65V743.532H1284.39L1247.44 679.538L1302.88 711.545L1349.65 738.543V732.37L1305.56 706.914L1250.2 674.957H1324L1349.65 719.387V708.694L1328.63 672.284L1349.65 635.876V625.182L1324 669.612H1250.13L1349.65 612.158V605.986L1247.46 664.981L1284.39 601.017H1349.65V595.67H1284.39L1247.44 531.676L1329.06 578.797L1349.65 590.682V584.508L1250.2 527.097H1324L1349.65 571.525V560.833L1328.63 524.424L1349.65 488.013V477.322L1324 521.75H1250.14L1349.65 464.298V458.124L1247.46 517.121L1284.39 453.155H1349.65V447.81H1284.39L1247.44 383.815L1329.06 430.937L1349.65 442.822V436.648L1250.2 379.235H1324L1349.65 423.665V412.971L1328.63 376.563L1349.65 340.153V329.46L1324 373.889H1250.14L1349.65 316.436V310.264L1247.46 369.26L1284.39 305.295H1349.65V299.949H1284.39L1247.44 235.955L1349.65 294.96V288.786L1332.85 279.09L1250.2 231.375H1324L1349.65 275.804V265.111L1328.63 228.703L1349.65 192.293V181.6L1324 226.029H1250.14L1349.65 168.576V162.403L1247.46 221.398L1284.39 157.435H1349.65V152.089H1284.39L1247.44 88.0946L1349.65 147.1V140.926L1332.85 131.23L1250.2 83.5143H1324L1349.65 127.944V117.251L1328.63 80.8409L1349.65 44.4324V33.7393L1324 78.1686H1250.14L1349.65 20.7155V14.5431L1247.46 73.5376L1284.39 9.57422H1349.65V4.22647H1284.39L1247.44 -59.7673L1302.88 -27.7603L1349.65 -0.762299V-6.93472L1305.56 -32.3893L1250.2 -64.3477H1324L1349.65 -19.9183V-30.6098L1328.63 -67.0195L1349.65 -103.43V-114.121L1324 -69.6934H1250.14L1349.65 -127.145V-133.319L1247.46 -74.3228L1284.39 -138.288H1349.65V-143.634H1284.39L1247.44 -207.629L1302.88 -175.621L1349.65 -148.623V-154.797L1250.2 -212.208H1324L1349.65 -167.779V-178.472L1328.63 -214.882L1349.65 -251.29V-261.983L1324 -217.554H1250.13L1349.65 -275.007V-281.179L1247.46 -222.185L1284.39 -286.148H1349.65V-291.494H1284.39L1247.44 -355.49L1302.88 -323.483L1349.65 -296.483V-302.657L1305.56 -328.112L1250.2 -360.07H1324L1349.65 -315.641V-326.334L1328.63 -362.742L1349.65 -399.152V-409.845L1324 -365.416H1250.14L1332.54 -412.992H1321.85L1247.46 -370.047L1272.26 -412.992H1266.08L1242.87 -372.78V-412.992H1237.52V-372.658L1214.23 -412.992H1208.06L1232.82 -370.108L1158.54 -412.992H1147.85L1230.25 -365.416H1156.32L1128.86 -412.992H1122.68L1151.69 -362.742L1114.82 -298.87V-412.992H1109.43V-298.748L1072.49 -362.742L1101.5 -412.992H1095.33L1067.86 -365.416H993.997L1076.4 -412.992H1065.71L991.325 -370.047L1016.12 -412.992H1009.95L986.729 -372.78V-412.992H981.383V-372.658L958.096 -412.992H951.922L976.682 -370.108L902.402 -412.992H891.71L974.115 -365.416H900.184L872.717 -412.992H866.543L895.555 -362.742L858.679 -298.87V-412.992H853.296V-298.748L816.349 -362.742L845.361 -412.992H839.187L811.719 -365.416H737.86L820.264 -412.992H809.571L735.186 -370.047L759.982 -412.992H753.808L730.591 -372.78V-412.992H725.244V-372.658L701.957 -412.992H695.785L720.543 -370.108L646.265 -412.992H635.572L717.978 -365.416H644.048L616.578 -412.992H610.404L639.417 -362.742L602.54 -298.87V-412.992H597.159V-298.748L560.211 -362.742L589.222 -412.992H583.05L555.581 -365.416H481.722L564.128 -412.992H553.434L479.05 -370.047L503.844 -412.992H497.669L474.452 -372.78V-412.992H469.107V-372.658L445.819 -412.992H439.646L464.407 -370.108L390.127 -412.992H379.433L461.839 -365.416H387.909L360.44 -412.992H354.267L383.278 -362.742L346.402 -298.87V-412.992H341.019V-298.748L304.071 -362.742L333.084 -412.992H326.91L299.442 -365.416H225.585L307.988 -412.992H297.294L222.911 -370.047L247.706 -412.992H241.532L218.316 -372.78V-412.992H212.97V-372.658L189.684 -412.992H183.509L208.27 -370.108L133.988 -412.992H123.297L205.702 -365.416H131.772L104.303 -412.992H98.1292L127.141 -362.742L90.2633 -298.87V-412.992H84.8819V-298.748L47.9347 -362.742L76.947 -412.992H70.773L43.3053 -365.416H-30.5537L51.8506 -412.992H41.1591L-33.2275 -370.047L-8.43172 -412.992H-14.6057L-37.8229 -372.78V-412.992H-43.1686V-372.658L-66.4567 -412.992H-72.6287L-47.8686 -370.108L-122.149 -412.992Z" fill="#E8E4DC"/>
</g>
<defs>
<clipPath id="clip0_1297_11548">
<rect width="1200" height="675" rx="32" fill="white"/>
</clipPath>
</defs>
</svg>
