<svg width="1200" height="675" viewBox="0 0 1200 675" fill="none" xmlns="http://www.w3.org/2000/svg">
<g clip-path="url(#clip0_1297_11884)">
<path d="M309.857 -22.0699L302.003 -14.2175C291.393 -3.60547 291.393 13.6569 302.003 24.2668L326.478 48.7421L315.083 1.60836C314.616 -0.324213 315.805 -2.27136 317.738 -2.73907C319.67 -3.2145 321.618 -2.01758 322.084 -0.0850048L332.99 45.0214L343.896 -0.0850048C344.363 -2.01758 346.303 -3.2145 348.243 -2.73907C350.176 -2.27136 351.366 -0.324213 350.896 1.60836L339.502 48.7421L363.979 24.2668C374.587 13.6569 374.587 -3.60547 363.979 -14.2175L356.124 -22.0699C349.944 -28.2505 341.731 -31.6514 332.99 -31.6514C324.251 -31.6514 316.037 -28.2505 309.857 -22.0699Z" fill="#403F6F"/>
<path d="M339.501 71.9531L350.898 119.087C351.368 121.021 350.178 122.967 348.245 123.436C347.961 123.504 347.677 123.536 347.395 123.536C345.772 123.536 344.296 122.429 343.898 120.78L332.992 75.6738L322.085 120.78C321.689 122.429 320.214 123.536 318.588 123.536C318.308 123.536 318.024 123.504 317.74 123.436C315.807 122.967 314.618 121.021 315.085 119.087L326.48 71.9531L302.005 96.4284C291.395 107.039 291.395 124.302 302.005 134.913L309.859 142.767C322.615 155.522 343.371 155.522 356.126 142.767L363.981 134.913C374.589 124.302 374.589 107.039 363.981 96.4284L339.501 71.9531Z" fill="#403F6F"/>
<path d="M344.594 53.8364L391.732 42.4399C393.67 41.9666 395.611 43.1614 396.078 45.0944C396.546 47.0269 395.358 48.9741 393.423 49.4422L348.317 60.3471L393.423 71.254C395.358 71.7217 396.546 73.6654 396.078 75.5997C395.679 77.2468 394.204 78.3558 392.578 78.3558C392.3 78.3558 392.016 78.3237 391.732 78.2542L344.594 66.8581L369.071 91.3347C379.682 101.945 396.946 101.945 407.556 91.3347L415.41 83.4809C428.164 70.725 428.164 49.9691 415.41 37.2136L407.556 29.3594C396.946 18.7491 379.684 18.7508 369.071 29.3594L344.594 53.8364Z" fill="#403F6F"/>
<path d="M527.221 -22.0699L519.368 -14.2175C508.756 -3.60547 508.756 13.6569 519.368 24.2668L543.843 48.7421L532.447 1.60836C531.979 -0.324213 533.169 -2.27136 535.101 -2.73907C537.034 -3.2145 538.981 -2.01758 539.449 -0.0850048L550.354 45.0214L561.259 -0.0850048C561.729 -2.01758 563.667 -3.2145 565.607 -2.73907C567.541 -2.27136 568.729 -0.324213 568.261 1.60836L556.865 48.7421L581.342 24.2668C591.952 13.6569 591.952 -3.60547 581.342 -14.2175L573.488 -22.0699C567.309 -28.2505 559.093 -31.6514 550.354 -31.6514C541.616 -31.6514 533.401 -28.2505 527.221 -22.0699Z" fill="#403F6F"/>
<path d="M538.748 66.8583L491.613 78.2544C491.328 78.3238 491.042 78.356 490.762 78.356C489.139 78.356 487.663 77.2469 487.265 75.5998C486.795 73.6656 487.985 71.7219 489.917 71.2541L535.025 60.3472L489.917 49.4424C487.985 48.9742 486.795 47.0271 487.265 45.0945C487.731 43.1615 489.676 41.9667 491.613 42.44L538.748 53.8365L514.271 29.3595C508.968 24.0544 501.997 21.4033 495.029 21.4033C488.059 21.4033 481.091 24.0544 475.786 29.3595L467.934 37.2137C455.178 49.9692 455.178 70.7251 467.934 83.4811L475.786 91.3348C486.398 101.945 503.662 101.945 514.271 91.3348L538.748 66.8583Z" fill="#403F6F"/>
<path d="M556.865 71.9531L568.261 119.087C568.729 121.021 567.541 122.967 565.607 123.436C565.321 123.504 565.039 123.536 564.758 123.536C563.133 123.536 561.659 122.429 561.259 120.78L550.354 75.6738L539.449 120.78C539.051 122.429 537.575 123.536 535.95 123.536C535.671 123.536 535.387 123.504 535.101 123.436C533.169 122.967 531.979 121.021 532.447 119.087L543.843 71.9531L519.368 96.4284C508.756 107.039 508.756 124.302 519.368 134.913L527.221 142.767C539.976 155.522 560.732 155.522 573.488 142.767L581.342 134.913C591.952 124.302 591.952 107.039 581.342 96.4284L556.865 71.9531Z" fill="#403F6F"/>
<path d="M561.959 53.8364L609.093 42.4399C611.031 41.9666 612.975 43.1614 613.443 45.0944C613.91 47.0269 612.721 48.9741 610.788 49.4422L565.682 60.3471L610.788 71.254C612.721 71.7217 613.91 73.6654 613.443 75.5997C613.042 77.2468 611.569 78.3558 609.943 78.3558C609.665 78.3558 609.379 78.3237 609.093 78.2542L561.959 66.8581L586.435 91.3347C597.045 101.945 614.309 101.945 624.919 91.3347L632.773 83.4809C645.529 70.725 645.529 49.9691 632.773 37.2136L624.919 29.3594C614.307 18.7491 597.045 18.7508 586.435 29.3594L561.959 53.8364Z" fill="#403F6F"/>
<path d="M744.584 -22.0699L736.728 -14.2175C726.119 -3.60547 726.119 13.6569 736.728 24.2668L761.205 48.7421L749.811 1.60836C749.342 -0.324213 750.53 -2.27136 752.465 -2.73907C754.398 -3.2145 756.343 -2.01758 756.812 -0.0850048L767.716 45.0214L778.619 -0.0850048C779.083 -2.01758 781.03 -3.2145 782.977 -2.73907C784.906 -2.27136 786.085 -0.324213 785.621 1.60836L774.228 48.7421L798.696 24.2668C809.307 13.6569 809.307 -3.60547 798.696 -14.2175L790.855 -22.0699C784.674 -28.2505 776.458 -31.6514 767.716 -31.6514C758.977 -31.6514 750.762 -28.2505 744.584 -22.0699Z" fill="#403F6F"/>
<path d="M756.111 66.8583L708.976 78.2544C708.69 78.3238 708.408 78.356 708.127 78.356C706.502 78.356 705.026 77.2469 704.63 75.5998C704.16 73.6656 705.35 71.7219 707.282 71.2541L752.39 60.3472L707.282 49.4424C705.35 48.9742 704.16 47.0271 704.63 45.0945C705.094 43.1615 707.038 41.9667 708.976 42.44L756.111 53.8365L731.636 29.3595C726.331 24.0544 719.363 21.4033 712.393 21.4033C705.425 21.4033 698.457 24.0544 693.152 29.3595L685.296 37.2137C672.542 49.9692 672.542 70.7251 685.296 83.4811L693.152 91.3348C703.76 101.945 721.024 101.945 731.636 91.3348L756.111 66.8583Z" fill="#403F6F"/>
<path d="M774.228 71.9531L785.621 119.087C786.085 121.021 784.906 122.967 782.977 123.436C782.691 123.504 782.406 123.536 782.12 123.536C780.495 123.536 779.03 122.429 778.619 120.78L767.716 75.6738L756.812 120.78C756.412 122.429 754.939 123.536 753.313 123.536C753.031 123.536 752.749 123.504 752.465 123.436C750.53 122.967 749.342 121.021 749.811 119.087L761.205 71.9531L736.728 96.4284C726.119 107.039 726.119 124.302 736.728 134.913L744.584 142.767C757.338 155.522 778.101 155.522 790.855 142.767L798.696 134.913C809.307 124.302 809.307 107.039 798.696 96.4284L774.228 71.9531Z" fill="#403F6F"/>
<path d="M779.312 53.8364L826.452 42.4399C828.399 41.9666 830.328 43.1614 830.792 45.0944C831.275 47.0269 830.076 48.9741 828.149 49.4422L783.046 60.3471L828.149 71.254C830.076 71.7217 831.275 73.6654 830.792 75.5997C830.399 77.2468 828.933 78.3558 827.309 78.3558C827.023 78.3558 826.736 78.3237 826.452 78.2542L779.312 66.8581L803.802 91.3347C814.395 101.945 831.667 101.945 842.278 91.3347L850.137 83.4809C862.889 70.725 862.889 49.9691 850.137 37.2136L842.278 29.3594C831.667 18.7491 814.413 18.7508 803.802 29.3594L779.312 53.8364Z" fill="#403F6F"/>
<path d="M435.162 186.89L423.766 139.755C423.299 137.822 424.487 135.877 426.42 135.409C428.355 134.936 430.3 136.131 430.768 138.063L441.673 183.17L452.578 138.063C453.046 136.131 454.986 134.936 456.926 135.409C458.86 135.877 460.048 137.822 459.58 139.755L448.184 186.89L472.659 162.415C483.271 151.805 483.271 134.543 472.659 123.931L464.806 116.078C458.626 109.898 450.411 106.495 441.673 106.495C432.933 106.495 424.72 109.898 418.541 116.078L410.685 123.931C400.076 134.543 400.076 151.805 410.685 162.415L435.162 186.89Z" fill="#403F6F"/>
<path d="M359.257 175.362C346.5 188.119 346.5 208.874 359.257 221.629L367.111 229.483C377.72 240.092 394.984 240.092 405.594 229.483L430.071 205.007L382.936 216.403C382.65 216.472 382.368 216.504 382.086 216.504C380.462 216.504 378.986 215.397 378.588 213.748C378.12 211.814 379.31 209.869 381.242 209.403L426.351 198.496L381.242 187.591C379.31 187.123 378.12 185.176 378.588 183.243C379.054 181.31 380.998 180.115 382.936 180.588L430.071 191.985L405.594 167.508C400.291 162.203 393.321 159.552 386.353 159.552C379.385 159.552 372.415 162.203 367.111 167.508L359.257 175.362Z" fill="#403F6F"/>
<path d="M448.182 210.101L459.578 257.238C460.046 259.17 458.858 261.117 456.924 261.586C456.64 261.653 456.354 261.685 456.076 261.685C454.45 261.685 452.976 260.578 452.576 258.929L441.671 213.823L430.766 258.929C430.368 260.578 428.892 261.685 427.267 261.685C426.987 261.685 426.704 261.653 426.419 261.586C424.486 261.117 423.298 259.17 423.764 257.238L435.16 210.101L410.683 234.577C400.075 245.188 400.075 262.452 410.683 273.062L418.539 280.916C431.293 293.672 452.049 293.672 464.805 280.916L472.657 273.062C483.269 262.452 483.269 245.188 472.657 234.577L448.182 210.101Z" fill="#403F6F"/>
<path d="M453.274 191.985L500.41 180.589C502.348 180.115 504.291 181.31 504.757 183.243C505.226 185.176 504.038 187.123 502.103 187.591L456.997 198.496L502.103 209.403C504.038 209.869 505.226 211.814 504.757 213.748C504.359 215.397 502.884 216.505 501.26 216.505C500.98 216.505 500.697 216.472 500.41 216.403L453.274 205.007L477.751 229.483C488.36 240.092 505.626 240.092 516.236 229.483L524.088 221.63C536.846 208.874 536.846 188.12 524.088 175.362L516.236 167.508C505.624 156.9 488.361 156.9 477.751 167.508L453.274 191.985Z" fill="#403F6F"/>
<path d="M652.522 186.89L641.128 139.755C640.658 137.822 641.848 135.877 643.781 135.409C645.713 134.936 647.66 136.131 648.128 138.063L659.033 183.17L669.94 138.063C670.406 136.131 672.346 134.936 674.286 135.409C676.219 135.877 677.408 137.822 676.941 139.755L665.546 186.89L690.021 162.415C700.63 151.805 700.63 134.543 690.021 123.931L682.167 116.078C675.987 109.898 667.773 106.495 659.033 106.495C650.295 106.495 642.08 109.898 635.9 116.078L628.048 123.931C617.437 134.543 617.437 151.805 628.048 162.415L652.522 186.89Z" fill="#403F6F"/>
<path d="M576.614 175.362C563.856 188.119 563.856 208.874 576.614 221.629L584.466 229.483C595.079 240.092 612.342 240.092 622.953 229.483L647.428 205.007L600.291 216.403C600.007 216.472 599.723 216.504 599.444 216.504C597.818 216.504 596.345 215.397 595.945 213.748C595.477 211.814 596.667 209.869 598.599 209.403L643.705 198.496L598.599 187.591C596.667 187.123 595.477 185.176 595.945 183.243C596.413 181.31 598.354 180.115 600.291 180.588L647.428 191.985L622.953 167.508C617.646 162.203 610.678 159.552 603.71 159.552C596.742 159.552 589.773 162.203 584.466 167.508L576.614 175.362Z" fill="#403F6F"/>
<path d="M665.546 210.101L676.941 257.238C677.408 259.17 676.219 261.117 674.286 261.586C674.002 261.653 673.718 261.685 673.438 261.685C671.814 261.685 670.337 260.578 669.94 258.929L659.033 213.823L648.128 258.929C647.73 260.578 646.254 261.685 644.631 261.685C644.351 261.685 644.065 261.653 643.781 261.586C641.848 261.117 640.658 259.17 641.128 257.238L652.524 210.101L628.048 234.577C617.437 245.188 617.437 262.452 628.048 273.062L635.9 280.916C648.657 293.672 669.411 293.672 682.167 280.916L690.021 273.062C700.63 262.452 700.63 245.188 690.021 234.577L665.546 210.101Z" fill="#403F6F"/>
<path d="M670.637 191.985L717.775 180.589C719.712 180.115 721.655 181.31 722.122 183.243C722.589 185.176 721.401 187.123 719.466 187.591L674.36 198.496L719.466 209.403C721.401 209.869 722.589 211.814 722.122 213.748C721.722 215.397 720.248 216.505 718.623 216.505C718.343 216.505 718.059 216.472 717.775 216.403L670.637 205.007L695.114 229.483C705.725 240.092 722.989 240.092 733.599 229.483L741.453 221.63C754.207 208.874 754.207 188.12 741.453 175.362L733.599 167.508C722.989 156.9 705.726 156.9 695.114 167.508L670.637 191.985Z" fill="#403F6F"/>
<path d="M869.875 186.89L858.479 139.755C858.015 137.822 859.211 135.877 861.14 135.409C863.07 134.936 865.016 136.131 865.481 138.063L876.395 183.17L887.291 138.063C887.774 136.131 889.702 134.936 891.649 135.409C893.579 135.877 894.775 137.822 894.293 139.755L882.897 186.89L907.386 162.415C917.997 151.805 917.997 134.543 907.386 123.931L899.527 116.078C893.347 109.898 885.13 106.495 876.395 106.495C867.66 106.495 859.443 109.898 853.263 116.078L845.404 123.931C834.793 134.543 834.793 151.805 845.404 162.415L869.875 186.89Z" fill="#403F6F"/>
<path d="M793.977 175.362C781.223 188.119 781.223 208.874 793.977 221.629L801.837 229.483C812.447 240.092 829.702 240.092 840.312 229.483L864.784 205.007L817.663 216.403C817.377 216.472 817.091 216.504 816.805 216.504C815.18 216.504 813.697 215.397 813.304 213.748C812.84 211.814 814.019 209.869 815.966 209.403L861.069 198.496L815.966 187.591C814.019 187.123 812.84 185.176 813.304 183.243C813.769 181.31 815.716 180.115 817.663 180.588L864.784 191.985L840.312 167.508C835.005 162.203 828.039 159.552 821.074 159.552C814.108 159.552 807.142 162.203 801.837 167.508L793.977 175.362Z" fill="#403F6F"/>
<path d="M882.9 210.101L894.296 257.238C894.778 259.17 893.581 261.117 891.652 261.586C891.367 261.653 891.081 261.685 890.795 261.685C889.169 261.685 887.705 260.578 887.294 258.929L876.398 213.823L865.484 258.929C865.091 260.578 863.626 261.685 861.999 261.685C861.715 261.685 861.429 261.653 861.143 261.586C859.214 261.117 858.017 259.17 858.482 257.238L869.878 210.101L845.406 234.577C834.796 245.188 834.796 262.452 845.406 273.062L853.266 280.916C866.019 293.672 886.776 293.672 899.529 280.916L907.389 273.062C917.999 262.452 917.999 245.188 907.389 234.577L882.9 210.101Z" fill="#403F6F"/>
<path d="M309.857 254.227L302.003 262.081C291.393 272.691 291.393 289.953 302.003 300.566L326.478 325.041L315.083 277.905C314.616 275.973 315.805 274.026 317.738 273.56C319.67 273.086 321.618 274.281 322.084 276.214L332.991 321.32L343.896 276.214C344.363 274.281 346.303 273.086 348.243 273.56C350.176 274.026 351.366 275.973 350.896 277.905L339.502 325.041L363.979 300.566C374.587 289.953 374.587 272.691 363.979 262.081L356.124 254.227C349.944 248.048 341.731 244.646 332.991 244.646C324.251 244.646 316.037 248.048 309.857 254.227Z" fill="#403F6F"/>
<path d="M339.501 348.249L350.898 395.386C351.368 397.319 350.178 399.266 348.245 399.732C347.961 399.802 347.677 399.834 347.395 399.834C345.772 399.834 344.296 398.727 343.898 397.078L332.992 351.971L322.085 397.078C321.689 398.727 320.214 399.834 318.588 399.834C318.308 399.834 318.024 399.802 317.74 399.732C315.807 399.266 314.618 397.319 315.085 395.386L326.48 348.249L302.005 372.724C291.395 383.336 291.395 400.6 302.005 411.21L309.859 419.064C322.615 431.818 343.371 431.818 356.126 419.064L363.981 411.21C374.589 400.6 374.589 383.336 363.981 372.724L339.501 348.249Z" fill="#403F6F"/>
<path d="M344.594 330.137L391.732 318.738C393.67 318.267 395.611 319.462 396.078 321.393C396.546 323.326 395.358 325.273 393.423 325.741L348.317 336.646L393.423 347.553C395.358 348.019 396.546 349.966 396.078 351.898C395.679 353.547 394.204 354.654 392.578 354.654C392.3 354.654 392.016 354.622 391.732 354.553L344.594 343.157L369.071 367.633C379.682 378.242 396.946 378.242 407.556 367.633L415.41 359.78C428.164 347.024 428.164 326.269 415.41 313.512L407.556 305.656C396.946 295.049 379.684 295.049 369.071 305.656L344.594 330.137Z" fill="#403F6F"/>
<path d="M527.221 254.227L519.368 262.081C508.756 272.691 508.756 289.953 519.368 300.566L543.843 325.041L532.447 277.905C531.979 275.973 533.169 274.026 535.101 273.56C537.034 273.086 538.981 274.281 539.449 276.214L550.354 321.32L561.259 276.214C561.729 274.281 563.667 273.086 565.607 273.56C567.541 274.026 568.729 275.973 568.261 277.905L556.865 325.041L581.342 300.566C591.952 289.953 591.952 272.691 581.342 262.081L573.488 254.227C567.309 248.048 559.093 244.646 550.354 244.646C541.616 244.646 533.401 248.048 527.221 254.227Z" fill="#403F6F"/>
<path d="M538.748 343.156L491.613 354.552C491.328 354.621 491.042 354.654 490.762 354.654C489.139 354.654 487.663 353.546 487.265 351.897C486.795 349.965 487.985 348.018 489.917 347.552L535.025 336.645L489.917 325.74C487.985 325.272 486.795 323.325 487.265 321.392C487.731 319.461 489.676 318.266 491.613 318.738L538.748 330.136L514.271 305.655C508.968 300.352 501.997 297.699 495.029 297.699C488.059 297.699 481.091 300.352 475.786 305.655L467.934 313.511C455.178 326.269 455.178 347.023 467.934 359.779L475.786 367.632C486.398 378.241 503.662 378.241 514.271 367.632L538.748 343.156Z" fill="#403F6F"/>
<path d="M556.865 348.249L568.261 395.386C568.729 397.319 567.541 399.266 565.607 399.732C565.321 399.802 565.039 399.834 564.758 399.834C563.133 399.834 561.659 398.727 561.259 397.078L550.354 351.971L539.449 397.078C539.051 398.727 537.575 399.834 535.95 399.834C535.671 399.834 535.387 399.802 535.101 399.732C533.169 399.266 531.979 397.319 532.447 395.386L543.843 348.249L519.368 372.724C508.756 383.336 508.756 400.6 519.368 411.21L527.221 419.064C539.976 431.818 560.732 431.818 573.488 419.064L581.342 411.21C591.952 400.6 591.952 383.336 581.342 372.724L556.865 348.249Z" fill="#403F6F"/>
<path d="M561.959 330.137L609.093 318.738C611.031 318.267 612.975 319.462 613.443 321.393C613.91 323.326 612.721 325.273 610.788 325.741L565.682 336.646L610.788 347.553C612.721 348.019 613.91 349.966 613.443 351.898C613.042 353.547 611.569 354.654 609.943 354.654C609.665 354.654 609.379 354.622 609.093 354.553L561.959 343.157L586.435 367.633C597.045 378.242 614.309 378.242 624.919 367.633L632.773 359.78C645.529 347.024 645.529 326.269 632.773 313.512L624.919 305.656C614.307 295.049 597.045 295.049 586.435 305.656L561.959 330.137Z" fill="#403F6F"/>
<path d="M744.584 254.226L736.728 262.08C726.119 272.69 726.119 289.952 736.728 300.565L761.205 325.04L749.81 277.904C749.342 275.972 750.53 274.025 752.464 273.559C754.397 273.085 756.342 274.28 756.812 276.213L767.715 321.319L778.619 276.213C779.083 274.28 781.03 273.085 782.977 273.559C784.906 274.025 786.085 275.972 785.621 277.904L774.228 325.04L798.696 300.565C809.306 289.952 809.306 272.69 798.696 262.08L790.854 254.226C784.674 248.047 776.457 244.645 767.715 244.645C758.977 244.645 750.762 248.047 744.584 254.226Z" fill="#403F6F"/>
<path d="M756.111 343.156L708.975 354.552C708.69 354.621 708.407 354.654 708.127 354.654C706.502 354.654 705.026 353.546 704.63 351.897C704.16 349.965 705.349 348.018 707.282 347.552L752.39 336.645L707.282 325.74C705.349 325.272 704.16 323.325 704.63 321.392C705.094 319.461 707.038 318.266 708.975 318.738L756.111 330.136L731.636 305.655C726.331 300.352 719.363 297.699 712.393 297.699C705.424 297.699 698.456 300.352 693.151 305.655L685.295 313.511C672.542 326.269 672.542 347.023 685.295 359.779L693.151 367.632C703.76 378.241 721.024 378.241 731.636 367.632L756.111 343.156Z" fill="#403F6F"/>
<path d="M774.228 348.248L785.621 395.385C786.085 397.318 784.906 399.265 782.977 399.731C782.691 399.801 782.406 399.833 782.12 399.833C780.494 399.833 779.03 398.726 778.619 397.077L767.715 351.97L756.812 397.077C756.412 398.726 754.938 399.833 753.313 399.833C753.031 399.833 752.749 399.801 752.464 399.731C750.53 399.265 749.342 397.318 749.81 395.385L761.205 348.248L736.728 372.723C726.119 383.335 726.119 400.599 736.728 411.209L744.584 419.064C757.337 431.817 778.101 431.817 790.854 419.064L798.696 411.209C809.306 400.599 809.306 383.335 798.696 372.723L774.228 348.248Z" fill="#403F6F"/>
<path d="M779.312 330.136L826.451 318.738C828.399 318.266 830.327 319.461 830.792 321.392C831.274 323.325 830.076 325.272 828.148 325.74L783.046 336.645L828.148 347.552C830.076 348.018 831.274 349.965 830.792 351.897C830.399 353.546 828.932 354.653 827.309 354.653C827.023 354.653 826.735 354.621 826.451 354.552L779.312 343.156L803.802 367.632C814.394 378.241 831.667 378.241 842.278 367.632L850.137 359.779C862.889 347.023 862.889 326.268 850.137 313.511L842.278 305.655C831.667 295.048 814.412 295.048 803.802 305.655L779.312 330.136Z" fill="#403F6F"/>
<path d="M961.652 254.226L953.797 262.08C943.188 272.69 943.188 289.952 953.797 300.565L978.274 325.04L966.879 277.904C966.411 275.972 967.599 274.025 969.533 273.559C971.466 273.085 973.411 274.28 973.881 276.213L984.784 321.319L995.688 276.213C996.152 274.28 998.099 273.085 1000.05 273.559C1001.97 274.025 1003.15 275.972 1002.69 277.904L991.297 325.04L1015.76 300.565C1026.38 289.952 1026.38 272.69 1015.76 262.08L1007.92 254.226C1001.74 248.047 993.526 244.645 984.784 244.645C976.046 244.645 967.831 248.047 961.652 254.226Z" fill="#403F6F"/>
<path d="M973.18 343.156L926.044 354.552C925.759 354.621 925.476 354.654 925.196 354.654C923.571 354.654 922.095 353.546 921.698 351.897C921.229 349.965 922.418 348.018 924.351 347.552L969.459 336.645L924.351 325.74C922.418 325.272 921.229 323.325 921.698 321.392C922.163 319.461 924.107 318.266 926.044 318.738L973.18 330.136L948.705 305.655C943.4 300.352 936.432 297.699 929.461 297.699C922.493 297.699 915.525 300.352 910.22 305.655L902.364 313.511C889.61 326.269 889.61 347.023 902.364 359.779L910.22 367.632C920.829 378.241 938.093 378.241 948.705 367.632L973.18 343.156Z" fill="#403F6F"/>
<path d="M991.297 348.249L1002.69 395.386C1003.15 397.319 1001.97 399.266 1000.05 399.732C999.76 399.802 999.474 399.834 999.188 399.834C997.563 399.834 996.098 398.727 995.688 397.078L984.784 351.971L973.881 397.078C973.481 398.727 972.007 399.834 970.382 399.834C970.1 399.834 969.817 399.802 969.533 399.732C967.599 399.266 966.411 397.319 966.879 395.386L978.274 348.249L953.797 372.724C943.188 383.336 943.188 400.6 953.797 411.21L961.652 419.064C974.406 431.818 995.169 431.818 1007.92 419.064L1015.76 411.21C1026.38 400.6 1026.38 383.336 1015.76 372.724L991.297 348.249Z" fill="#403F6F"/>
<path d="M996.381 330.136L1043.52 318.738C1045.47 318.266 1047.4 319.461 1047.86 321.392C1048.34 323.325 1047.14 325.272 1045.22 325.74L1000.11 336.645L1045.22 347.552C1047.14 348.018 1048.34 349.965 1047.86 351.897C1047.47 353.546 1046 354.653 1044.38 354.653C1044.09 354.653 1043.8 354.621 1043.52 354.552L996.381 343.156L1020.87 367.632C1031.46 378.241 1048.74 378.241 1059.35 367.632L1067.21 359.779C1079.96 347.023 1079.96 326.268 1067.21 313.511L1059.35 305.655C1048.74 295.048 1031.48 295.048 1020.87 305.655L996.381 330.136Z" fill="#403F6F"/>
<path d="M1178.72 254.226L1170.87 262.08C1160.26 272.69 1160.26 289.952 1170.87 300.565L1195.34 325.04L1183.95 277.904C1183.48 275.972 1184.67 274.025 1186.6 273.559C1188.53 273.085 1190.48 274.28 1190.95 276.213L1201.85 321.319L1212.76 276.213C1213.22 274.28 1215.17 273.085 1217.11 273.559C1219.04 274.025 1220.22 275.972 1219.76 277.904L1208.37 325.04L1232.83 300.565C1243.44 289.952 1243.44 272.69 1232.83 262.08L1224.99 254.226C1218.81 248.047 1210.59 244.645 1201.85 244.645C1193.11 244.645 1184.9 248.047 1178.72 254.226Z" fill="#403F6F"/>
<path d="M1190.25 343.156L1143.11 354.552C1142.83 354.621 1142.54 354.654 1142.26 354.654C1140.64 354.654 1139.16 353.546 1138.77 351.897C1138.3 349.965 1139.49 348.018 1141.42 347.552L1186.53 336.645L1141.42 325.74C1139.49 325.272 1138.3 323.325 1138.77 321.392C1139.23 319.461 1141.17 318.266 1143.11 318.738L1190.25 330.136L1165.77 305.655C1160.47 300.352 1153.5 297.699 1146.53 297.699C1139.56 297.699 1132.59 300.352 1127.29 305.655L1119.43 313.511C1106.68 326.269 1106.68 347.023 1119.43 359.779L1127.29 367.632C1137.9 378.241 1155.16 378.241 1165.77 367.632L1190.25 343.156Z" fill="#403F6F"/>
<path d="M1208.37 348.249L1219.76 395.386C1220.22 397.319 1219.04 399.266 1217.11 399.732C1216.83 399.802 1216.54 399.834 1216.26 399.834C1214.63 399.834 1213.17 398.727 1212.76 397.078L1201.85 351.971L1190.95 397.078C1190.55 398.727 1189.08 399.834 1187.45 399.834C1187.17 399.834 1186.89 399.802 1186.6 399.732C1184.67 399.266 1183.48 397.319 1183.95 395.386L1195.34 348.249L1170.87 372.724C1160.26 383.336 1160.26 400.6 1170.87 411.21L1178.72 419.064C1191.47 431.818 1212.24 431.818 1224.99 419.064L1232.83 411.21C1243.44 400.6 1243.44 383.336 1232.83 372.724L1208.37 348.249Z" fill="#403F6F"/>
<path d="M961.939 254.227L954.079 262.081C943.487 272.691 943.487 289.953 954.079 300.566L978.568 325.041L967.172 277.905C966.708 275.973 967.887 274.026 969.816 273.56C971.763 273.086 973.71 274.281 974.174 276.214L985.071 321.32L995.984 276.214C996.449 274.281 998.396 273.086 1000.32 273.56C1002.25 274.026 1003.45 275.973 1002.99 277.905L991.59 325.041L1016.06 300.566C1026.67 289.953 1026.67 272.691 1016.06 262.081L1008.2 254.227C1002.02 248.048 993.823 244.646 985.071 244.646C976.336 244.646 968.119 248.048 961.939 254.227Z" fill="#403F6F"/>
<path d="M973.48 343.156L926.341 354.552C926.055 354.621 925.769 354.654 925.483 354.654C923.858 354.654 922.393 353.546 921.982 351.897C921.518 349.965 922.714 348.018 924.644 347.552L969.747 336.645L924.644 325.74C922.714 325.272 921.518 323.325 921.982 321.392C922.465 319.461 924.394 318.266 926.341 318.738L973.48 330.136L948.99 305.655C943.685 300.352 936.719 297.699 929.752 297.699C922.786 297.699 915.82 300.352 910.515 305.655L902.655 313.511C889.901 326.269 889.901 347.023 902.655 359.779L910.515 367.632C921.125 378.241 938.38 378.241 948.99 367.632L973.48 343.156Z" fill="#403F6F"/>
<path d="M991.592 348.249L1002.99 395.386C1003.45 397.319 1002.26 399.266 1000.33 399.732C1000.04 399.802 999.755 399.834 999.487 399.834C997.862 399.834 996.379 398.727 995.986 397.078L985.072 351.971L974.176 397.078C973.765 398.727 972.301 399.834 970.675 399.834C970.389 399.834 970.104 399.802 969.818 399.732C967.888 399.266 966.71 397.319 967.174 395.386L978.57 348.249L954.081 372.724C943.489 383.336 943.489 400.6 954.081 411.21L961.941 419.064C974.694 431.818 995.45 431.818 1008.2 419.064L1016.06 411.21C1026.67 400.6 1026.67 383.336 1016.06 372.724L991.592 348.249Z" fill="#403F6F"/>
<path d="M435.162 463.183L423.766 416.051C423.299 414.118 424.487 412.171 426.42 411.705C428.355 411.232 430.3 412.427 430.768 414.359L441.673 459.467L452.578 414.359C453.046 412.427 454.986 411.232 456.926 411.705C458.86 412.171 460.048 414.118 459.58 416.051L448.184 463.183L472.659 438.711C483.271 428.099 483.271 410.837 472.659 400.228L464.806 392.372C458.626 386.194 450.411 382.791 441.673 382.791C432.933 382.791 424.72 386.194 418.541 392.372L410.685 400.228C400.076 410.837 400.076 428.099 410.685 438.711L435.162 463.183Z" fill="#403F6F"/>
<path d="M359.257 451.66C346.5 464.417 346.5 485.173 359.257 497.927L367.111 505.786C377.72 516.397 394.984 516.397 405.594 505.786L430.071 481.297L382.936 492.693C382.65 492.765 382.368 492.8 382.086 492.8C380.462 492.8 378.986 491.693 378.588 490.05C378.12 488.121 379.31 486.174 381.242 485.691L426.351 474.795L381.242 463.881C379.31 463.417 378.12 461.47 378.588 459.541C379.054 457.611 380.998 456.415 382.936 456.879L430.071 468.275L405.594 443.804C400.291 438.5 393.321 435.848 386.353 435.848C379.385 435.848 372.415 438.5 367.111 443.804L359.257 451.66Z" fill="#403F6F"/>
<path d="M448.182 486.405L459.578 533.528C460.046 535.473 458.858 537.42 456.924 537.885C456.64 537.958 456.354 537.976 456.076 537.976C454.45 537.976 452.976 536.868 452.576 535.223L441.671 490.12L430.766 535.223C430.368 536.868 428.892 537.976 427.267 537.976C426.987 537.976 426.704 537.958 426.419 537.885C424.486 537.42 423.298 535.473 423.764 533.528L435.16 486.405L410.683 510.877C400.075 521.487 400.075 538.742 410.683 549.352L418.539 557.212C431.293 569.966 452.049 569.966 464.805 557.212L472.657 549.352C483.269 538.742 483.269 521.487 472.657 510.877L448.182 486.405Z" fill="#403F6F"/>
<path d="M453.274 468.276L500.41 456.88C502.348 456.415 504.291 457.612 504.757 459.541C505.226 461.471 504.038 463.418 502.103 463.882L456.997 474.796L502.103 485.692C504.038 486.174 505.226 488.121 504.757 490.051C504.359 491.694 502.884 492.801 501.26 492.801C500.98 492.801 500.697 492.766 500.41 492.694L453.274 481.298L477.751 505.787C488.36 516.398 505.626 516.398 516.236 505.787L524.088 497.928C536.846 485.174 536.846 464.418 524.088 451.661L516.236 443.805C505.624 433.198 488.361 433.198 477.751 443.805L453.274 468.276Z" fill="#403F6F"/>
<path d="M652.522 463.183L641.128 416.051C640.658 414.118 641.848 412.171 643.781 411.705C645.713 411.232 647.66 412.427 648.128 414.359L659.033 459.467L669.94 414.359C670.406 412.427 672.346 411.232 674.286 411.705C676.219 412.171 677.408 414.118 676.941 416.051L665.546 463.183L690.021 438.711C700.63 428.099 700.63 410.837 690.021 400.228L682.167 392.372C675.987 386.194 667.773 382.791 659.033 382.791C650.295 382.791 642.08 386.194 635.9 392.372L628.048 400.228C617.437 410.837 617.437 428.099 628.048 438.711L652.522 463.183Z" fill="#403F6F"/>
<path d="M576.614 451.66C563.856 464.417 563.856 485.173 576.614 497.927L584.466 505.786C595.079 516.397 612.342 516.397 622.953 505.786L647.428 481.297L600.291 492.693C600.007 492.765 599.723 492.8 599.444 492.8C597.818 492.8 596.345 491.693 595.945 490.05C595.477 488.121 596.667 486.174 598.599 485.691L643.705 474.795L598.599 463.881C596.667 463.417 595.477 461.47 595.945 459.541C596.413 457.611 598.354 456.415 600.291 456.879L647.428 468.275L622.953 443.804C617.646 438.5 610.678 435.848 603.71 435.848C596.742 435.848 589.773 438.5 584.466 443.804L576.614 451.66Z" fill="#403F6F"/>
<path d="M665.546 486.405L676.941 533.528C677.408 535.473 676.219 537.42 674.286 537.885C674.002 537.958 673.718 537.976 673.438 537.976C671.814 537.976 670.337 536.868 669.94 535.223L659.033 490.12L648.128 535.223C647.73 536.868 646.254 537.976 644.631 537.976C644.351 537.976 644.065 537.958 643.781 537.885C641.848 537.42 640.658 535.473 641.128 533.528L652.524 486.405L628.048 510.877C617.437 521.487 617.437 538.742 628.048 549.352L635.9 557.212C648.657 569.966 669.411 569.966 682.167 557.212L690.021 549.352C700.63 538.742 700.63 521.487 690.021 510.877L665.546 486.405Z" fill="#403F6F"/>
<path d="M670.637 468.276L717.775 456.88C719.712 456.415 721.655 457.612 722.122 459.541C722.589 461.471 721.401 463.418 719.466 463.882L674.36 474.796L719.466 485.692C721.401 486.174 722.589 488.121 722.122 490.051C721.722 491.694 720.248 492.801 718.623 492.801C718.343 492.801 718.059 492.766 717.775 492.694L670.637 481.298L695.114 505.787C705.725 516.398 722.989 516.398 733.599 505.787L741.453 497.928C754.207 485.174 754.207 464.418 741.453 451.661L733.599 443.805C722.989 433.198 705.726 433.198 695.114 443.805L670.637 468.276Z" fill="#403F6F"/>
<path d="M869.875 463.183L858.479 416.051C858.015 414.118 859.211 412.171 861.14 411.705C863.07 411.232 865.016 412.427 865.481 414.359L876.395 459.467L887.291 414.359C887.774 412.427 889.702 411.232 891.649 411.705C893.579 412.171 894.775 414.118 894.293 416.051L882.897 463.183L907.386 438.711C917.997 428.099 917.997 410.837 907.386 400.228L899.527 392.372C893.347 386.194 885.13 382.791 876.395 382.791C867.66 382.791 859.443 386.194 853.263 392.372L845.404 400.228C834.793 410.837 834.793 428.099 845.404 438.711L869.875 463.183Z" fill="#403F6F"/>
<path d="M793.977 451.66C781.223 464.417 781.223 485.173 793.977 497.927L801.837 505.786C812.447 516.397 829.702 516.397 840.312 505.786L864.784 481.297L817.663 492.693C817.377 492.765 817.091 492.8 816.805 492.8C815.18 492.8 813.697 491.693 813.304 490.05C812.84 488.121 814.019 486.174 815.966 485.691L861.069 474.795L815.966 463.881C814.019 463.417 812.84 461.47 813.304 459.541C813.769 457.611 815.716 456.415 817.663 456.879L864.784 468.275L840.312 443.804C835.005 438.5 828.039 435.848 821.074 435.848C814.108 435.848 807.142 438.5 801.837 443.804L793.977 451.66Z" fill="#403F6F"/>
<path d="M882.9 486.405L894.296 533.528C894.778 535.473 893.581 537.42 891.652 537.885C891.367 537.958 891.081 537.976 890.795 537.976C889.169 537.976 887.705 536.868 887.294 535.223L876.398 490.12L865.484 535.223C865.091 536.868 863.626 537.976 861.999 537.976C861.715 537.976 861.429 537.958 861.143 537.885C859.214 537.42 858.017 535.473 858.482 533.528L869.878 486.405L845.406 510.877C834.796 521.487 834.796 538.742 845.406 549.352L853.266 557.212C866.019 569.966 886.776 569.966 899.529 557.212L907.389 549.352C917.999 538.742 917.999 521.487 907.389 510.877L882.9 486.405Z" fill="#403F6F"/>
<path d="M888.004 468.276L935.126 456.88C937.072 456.415 939.02 457.612 939.484 459.541C939.949 461.471 938.752 463.418 936.822 463.882L891.72 474.796L936.822 485.692C938.752 486.174 939.949 488.121 939.484 490.051C939.073 491.694 937.609 492.801 935.983 492.801C935.697 492.801 935.412 492.766 935.126 492.694L888.004 481.298L912.476 505.787C923.087 516.398 940.342 516.398 950.952 505.787L958.811 497.928C971.565 485.174 971.565 464.418 958.811 451.661L950.952 443.805C940.342 433.198 923.087 433.198 912.476 443.805L888.004 468.276Z" fill="#403F6F"/>
<path d="M543.843 601.331L532.446 554.209C531.978 552.263 533.168 550.316 535.101 549.851C537.033 549.387 538.98 550.565 539.449 552.513L550.353 597.615L561.259 552.513C561.728 550.565 563.666 549.387 565.606 549.851C567.541 550.316 568.729 552.263 568.261 554.209L556.864 601.331L581.341 576.859C591.952 566.249 591.952 548.994 581.341 538.384L573.487 530.524C567.308 524.345 559.092 520.932 550.353 520.932C541.615 520.932 533.4 524.345 527.22 530.524L519.367 538.384C508.755 548.994 508.755 566.249 519.367 576.859L543.843 601.331Z" fill="#403F6F"/>
<path d="M538.748 619.444L491.613 630.84C491.328 630.912 491.042 630.947 490.762 630.947C489.139 630.947 487.663 629.84 487.265 628.197C486.795 626.268 487.985 624.32 489.917 623.838L535.025 612.942L489.917 602.028C487.985 601.564 486.795 599.617 487.265 597.688C487.731 595.758 489.676 594.561 491.613 595.026L538.748 606.422L514.271 581.951C508.968 576.646 501.997 574.002 495.029 574.002C488.059 574.002 481.091 576.646 475.786 581.951L467.934 589.81C455.178 602.564 455.178 623.32 467.934 636.074L475.786 643.933C486.398 654.544 503.662 654.544 514.271 643.933L538.748 619.444Z" fill="#403F6F"/>
<path d="M573.487 695.358L581.341 687.498C591.952 676.888 591.952 659.633 581.341 649.023L556.864 624.533L568.261 671.672C568.729 673.619 567.541 675.566 565.606 676.031C565.32 676.102 565.038 676.12 564.758 676.12C563.132 676.12 561.659 675.012 561.259 673.369L550.353 628.266L539.449 673.369C539.05 675.012 537.575 676.12 535.949 676.12C535.67 676.12 535.387 676.102 535.101 676.031C533.168 675.566 531.978 673.619 532.446 671.672L543.843 624.533L519.367 649.023C508.755 659.633 508.755 676.888 519.367 687.498L527.22 695.358C539.975 708.111 560.731 708.111 573.487 695.358Z" fill="#403F6F"/>
<path d="M561.959 606.424L609.093 595.028C611.031 594.563 612.975 595.76 613.443 597.69C613.91 599.619 612.721 601.566 610.788 602.03L565.682 612.944L610.788 623.84C612.721 624.322 613.91 626.27 613.443 628.199C613.042 629.842 611.569 630.949 609.943 630.949C609.665 630.949 609.379 630.914 609.093 630.842L561.959 619.446L586.435 643.935C597.045 654.546 614.309 654.546 624.919 643.935L632.773 636.076C645.529 623.322 645.529 602.566 632.773 589.812L624.919 581.953C614.307 571.343 597.045 571.343 586.435 581.953L561.959 606.424Z" fill="#403F6F"/>
<path d="M761.205 601.331L749.811 554.209C749.342 552.263 750.53 550.316 752.465 549.851C754.398 549.387 756.343 550.565 756.812 552.513L767.715 597.615L778.619 552.513C779.083 550.565 781.03 549.387 782.977 549.851C784.906 550.316 786.085 552.263 785.621 554.209L774.228 601.331L798.696 576.859C809.307 566.249 809.307 548.994 798.696 538.384L790.855 530.524C784.674 524.345 776.458 520.932 767.715 520.932C758.977 520.932 750.762 524.345 744.584 530.524L736.728 538.384C726.119 548.994 726.119 566.249 736.728 576.859L761.205 601.331Z" fill="#403F6F"/>
<path d="M756.111 619.444L708.976 630.84C708.69 630.912 708.408 630.947 708.127 630.947C706.502 630.947 705.026 629.84 704.63 628.197C704.16 626.268 705.35 624.32 707.282 623.838L752.39 612.942L707.282 602.028C705.35 601.564 704.16 599.617 704.63 597.688C705.094 595.758 707.038 594.561 708.976 595.026L756.111 606.422L731.636 581.951C726.331 576.646 719.363 574.002 712.393 574.002C705.425 574.002 698.457 576.646 693.152 581.951L685.296 589.81C672.542 602.564 672.542 623.32 685.296 636.074L693.152 643.933C703.76 654.544 721.024 654.544 731.636 643.933L756.111 619.444Z" fill="#403F6F"/>
<path d="M790.852 695.358L798.694 687.498C809.304 676.888 809.304 659.633 798.694 649.023L774.226 624.533L785.618 671.672C786.083 673.619 784.904 675.566 782.975 676.031C782.689 676.102 782.403 676.12 782.117 676.12C780.492 676.12 779.027 675.012 778.616 673.369L767.713 628.266L756.81 673.369C756.41 675.012 754.936 676.12 753.31 676.12C753.028 676.12 752.746 676.102 752.462 676.031C750.528 675.566 749.34 673.619 749.808 671.672L761.202 624.533L736.725 649.023C726.117 659.633 726.117 676.888 736.725 687.498L744.581 695.358C757.335 708.111 778.098 708.111 790.852 695.358Z" fill="#403F6F"/>
<path d="M779.312 606.424L826.452 595.028C828.399 594.563 830.328 595.76 830.792 597.69C831.275 599.619 830.076 601.566 828.149 602.03L783.046 612.944L828.149 623.84C830.076 624.322 831.275 626.27 830.792 628.199C830.399 629.842 828.933 630.949 827.309 630.949C827.023 630.949 826.736 630.914 826.452 630.842L779.312 619.446L803.802 643.935C814.395 654.546 831.667 654.546 842.278 643.935L850.137 636.076C862.889 623.322 862.889 602.566 850.137 589.812L842.278 581.953C831.667 571.343 814.413 571.343 803.802 581.953L779.312 606.424Z" fill="#403F6F"/>
</g>
<defs>
<clipPath id="clip0_1297_11884">
<rect width="1200" height="675" rx="32" fill="white"/>
</clipPath>
</defs>
</svg>
