<svg width="1200" height="675" viewBox="0 0 1200 675" fill="none" xmlns="http://www.w3.org/2000/svg">
<g clip-path="url(#clip0_1297_11993)">
<g clip-path="url(#clip1_1297_11993)">
<path d="M1191.13 53.0666C1181.28 63.9477 1162.89 59.657 1159.49 45.3811C1158.62 41.7514 1158.9 37.9474 1160.93 34.1108C1165.57 25.3718 1172.8 25.3099 1178.28 26.955C1182.43 28.1998 1186.25 24.2334 1184.72 20.1822C1182.01 12.9738 1174.03 5.04702 1151.59 7.26818C1128.88 9.51714 1102.14 34.9062 1085.7 53.0666C1075.86 63.9477 1057.47 59.657 1054.07 45.3811C1053.2 41.7514 1053.47 37.9474 1055.51 34.1108C1060.14 25.3718 1067.38 25.3099 1072.86 26.955C1077 28.1998 1080.82 24.2334 1079.3 20.1822C1076.58 12.9738 1068.61 5.04702 1046.17 7.26818C1023.45 9.51714 996.714 34.9062 980.279 53.0666C970.431 63.9477 952.044 59.657 948.641 45.3811C947.774 41.7514 948.047 37.9474 950.082 34.1108C954.719 25.3718 961.953 25.3099 967.432 26.955C971.577 28.1998 975.397 24.2334 973.873 20.1822C971.159 12.9738 963.183 5.04702 940.745 7.26818C918.027 9.51714 891.289 34.9062 874.854 53.0666C865.006 63.9477 846.62 59.657 843.216 45.3811C842.351 41.7514 842.621 37.9474 844.658 34.1108C849.295 25.3718 856.528 25.3099 862.008 26.955C866.154 28.1998 869.972 24.2334 868.447 20.1822C865.734 12.9738 857.758 5.04702 835.32 7.26818C812.602 9.51714 785.866 34.9062 769.431 53.0666C759.584 63.9477 741.195 59.657 737.793 45.3811C736.927 41.7514 737.196 37.9474 739.234 34.1108C743.87 25.3718 751.105 25.3099 756.583 26.955C760.729 28.1998 764.547 24.2334 763.022 20.1822C760.309 12.9738 752.333 5.04702 729.897 7.26818C707.177 9.51714 680.441 34.9062 664.007 53.0666C654.159 63.9477 635.77 59.657 632.367 45.3811C631.503 41.7514 631.775 37.9474 633.809 34.1108C638.447 25.3718 645.681 25.3099 651.158 26.955C655.304 28.1998 659.125 24.2334 657.599 20.1822C654.884 12.9738 646.908 5.04702 624.472 7.26818C601.753 9.51714 575.018 34.9062 558.582 53.0666C548.734 63.9477 530.347 59.657 526.944 45.3811C526.078 41.7514 526.349 37.9474 528.384 34.1108C533.022 25.3718 540.258 25.3099 545.736 26.955C549.884 28.2013 553.697 24.2101 552.165 20.1588C549.442 12.9553 541.46 5.04888 519.047 7.26818C496.329 9.51714 469.593 34.9062 453.157 53.0666C443.311 63.9477 424.922 59.657 421.519 45.3811C420.653 41.7514 420.924 37.9474 422.96 34.1108C427.597 25.3718 434.831 25.3099 440.31 26.955C444.455 28.1998 448.275 24.2334 446.751 20.1822C444.035 12.9738 436.061 5.04702 413.623 7.26818C390.904 9.51714 364.168 34.9062 347.734 53.0666C337.886 63.9477 319.497 59.657 316.094 45.3811C315.229 41.7514 315.501 37.9474 317.535 34.1108C322.173 25.3718 329.407 25.3099 334.885 26.955C339.03 28.1998 342.85 24.2334 341.326 20.1822C338.61 12.9738 330.636 5.04702 308.198 7.26818C285.48 9.51714 258.744 34.9062 242.309 53.0666C232.461 63.9477 214.073 59.657 210.671 45.3811C209.804 41.7514 210.076 37.9474 212.112 34.1108C216.748 25.3718 223.983 25.3099 229.462 26.955C233.607 28.1998 237.426 24.2334 235.901 20.1822C233.187 12.9738 225.211 5.04702 202.775 7.26818C180.055 9.51714 153.319 34.9062 136.885 53.0666C127.038 63.9477 108.648 59.657 105.246 45.3811C104.381 41.7514 104.651 37.9474 106.687 34.1108C111.324 25.3718 118.56 25.3099 124.038 26.955C128.185 28.1998 132.002 24.2319 130.476 20.1788C127.761 12.9705 119.783 5.04702 97.3501 7.26818C74.63 9.51714 47.8941 34.9062 31.4605 53.0666C21.6124 63.9477 3.22485 59.657 -0.179173 45.3811C-1.04436 41.7514 -0.773758 37.9474 1.26168 34.1108C5.90009 25.3718 13.1329 25.3099 18.6113 26.955C22.7571 28.1998 26.5781 24.2334 25.0524 20.1822C22.3386 12.9738 14.3625 5.04702 -8.07332 7.26818C-21.6327 8.61044 -36.6211 18.1975 -49.998 29.5684V134.57C-28.6913 129.095 -5.05075 106.456 9.97765 89.8495C19.8238 78.9684 38.2114 83.2605 41.6143 97.5353C42.4806 101.166 42.2104 104.971 40.1731 108.806C35.5365 117.545 28.3018 117.607 22.8234 115.963C18.6781 114.718 14.86 118.685 16.3842 122.734C19.098 129.944 27.0741 137.872 49.5114 135.649C72.2297 133.401 98.9656 108.012 115.401 89.8495C125.249 78.9684 143.637 83.2605 147.039 97.5353C147.904 101.166 147.634 104.971 145.599 108.806C140.961 117.545 133.727 117.607 128.248 115.963C124.103 114.718 120.283 118.685 121.808 122.734C124.523 129.944 132.499 137.872 154.936 135.649C177.655 133.401 204.39 108.012 220.826 89.8495C230.673 78.9684 249.06 83.2605 252.464 97.5353C253.329 101.166 253.059 104.971 251.021 108.806C246.386 117.545 239.152 117.607 233.673 115.963C229.528 114.718 225.708 118.685 227.233 122.734C229.946 129.944 237.924 137.872 260.36 135.649C283.078 133.401 309.816 108.012 326.251 89.8495C336.097 78.9684 354.485 83.2605 357.889 97.5353C358.754 101.166 358.482 104.971 356.448 108.806C351.81 117.545 344.575 117.607 339.097 115.963C334.951 114.718 331.132 118.685 332.656 122.734C335.371 129.944 343.347 137.872 365.785 135.649C388.503 133.401 415.239 108.012 431.674 89.8495C441.521 78.9684 459.91 83.2605 463.312 97.5353C464.179 101.166 463.907 104.971 461.872 108.806C457.235 117.545 450 117.607 444.522 115.963C440.376 114.718 436.557 118.685 438.081 122.734C440.796 129.944 448.772 137.872 471.208 135.649C493.928 133.401 520.664 108.012 537.098 89.8495C546.947 78.9684 565.333 83.2605 568.737 97.5353C569.603 101.166 569.331 104.971 567.297 108.806C562.66 117.545 555.424 117.607 549.947 115.963C545.801 114.718 541.98 118.685 543.505 122.734C546.22 129.944 554.196 137.872 576.633 135.649C599.352 133.401 626.089 108.01 642.524 89.8495C652.371 78.9684 670.758 83.2605 674.162 97.5353C675.028 101.166 674.757 104.971 672.72 108.806C668.083 117.546 660.849 117.607 655.369 115.963C651.222 114.717 647.41 118.708 648.94 122.759C651.664 129.963 659.646 137.869 682.057 135.649C704.777 133.401 731.513 108.012 747.946 89.8495C757.794 78.9684 776.183 83.2605 779.586 97.5353C780.451 101.166 780.181 104.971 778.145 108.806C773.507 117.545 766.274 117.607 760.795 115.963C756.65 114.718 752.832 118.685 754.356 122.734C757.07 129.944 765.046 137.872 787.482 135.649C810.202 133.401 836.937 108.012 853.372 89.8495C863.219 78.9684 881.608 83.2605 885.011 97.5353C885.876 101.166 885.604 104.971 883.57 108.806C878.932 117.545 871.697 117.607 866.22 115.963C862.073 114.718 858.253 118.685 859.78 122.734C862.495 129.944 870.469 137.872 892.907 135.649C915.627 133.401 942.361 108.012 958.796 89.8495C968.644 78.9684 987.032 83.2605 990.435 97.5353C991.301 101.166 991.029 104.971 988.995 108.806C984.357 117.545 977.122 117.607 971.644 115.963C967.498 114.718 963.678 118.685 965.204 122.734C967.917 129.944 975.892 137.872 998.332 135.649C1021.05 133.401 1047.79 108.012 1064.22 89.8495C1074.07 78.9684 1092.46 83.2605 1095.86 97.5353C1096.73 101.166 1096.45 104.971 1094.42 108.806C1089.78 117.546 1082.55 117.607 1077.07 115.963C1072.92 114.717 1069.1 118.686 1070.63 122.739C1073.34 129.946 1081.32 137.871 1103.76 135.649C1126.48 133.401 1153.21 108.012 1169.65 89.8495C1179.49 78.9684 1197.88 83.2605 1201.28 97.5353C1202.15 101.166 1201.88 104.971 1199.84 108.806C1195.21 117.545 1187.97 117.607 1182.49 115.963C1178.35 114.718 1174.53 118.685 1176.05 122.734C1178.77 129.944 1186.74 137.872 1209.18 135.649C1222.27 134.354 1236.69 125.372 1249.71 114.52V8.72944C1228.77 14.8054 1205.83 36.8212 1191.13 53.0666Z" fill="#E8E4DC"/>
<path d="M1191.13 229.141C1181.28 240.022 1162.89 235.731 1159.49 221.455C1158.62 217.826 1158.9 214.021 1160.93 210.185C1165.57 201.446 1172.8 201.384 1178.28 203.029C1182.43 204.273 1186.25 200.308 1184.72 196.257C1182.01 189.046 1174.03 181.121 1151.59 183.343C1128.88 185.591 1102.14 210.98 1085.7 229.141C1075.86 240.022 1057.47 235.731 1054.07 221.455C1053.2 217.826 1053.47 214.021 1055.51 210.185C1060.14 201.446 1067.38 201.384 1072.86 203.029C1077 204.273 1080.82 200.308 1079.3 196.257C1076.58 189.046 1068.61 181.121 1046.17 183.343C1023.45 185.591 996.714 210.98 980.279 229.141C970.431 240.022 952.044 235.731 948.641 221.455C947.774 217.826 948.047 214.021 950.082 210.185C954.719 201.446 961.953 201.384 967.432 203.029C971.577 204.273 975.397 200.308 973.873 196.257C971.159 189.046 963.183 181.121 940.745 183.343C918.027 185.591 891.289 210.98 874.854 229.141C865.006 240.022 846.62 235.731 843.216 221.455C842.351 217.826 842.621 214.021 844.658 210.185C849.295 201.446 856.528 201.384 862.008 203.029C866.154 204.273 869.972 200.308 868.447 196.257C865.734 189.046 857.758 181.121 835.32 183.343C812.602 185.591 785.866 210.98 769.431 229.141C759.584 240.022 741.195 235.731 737.793 221.455C736.927 217.826 737.196 214.021 739.234 210.185C743.87 201.446 751.105 201.384 756.583 203.029C760.729 204.273 764.547 200.308 763.022 196.257C760.309 189.046 752.333 181.121 729.897 183.343C707.177 185.591 680.441 210.98 664.007 229.141C654.159 240.022 635.77 235.731 632.367 221.455C631.503 217.826 631.775 214.021 633.809 210.185C638.447 201.446 645.681 201.384 651.158 203.029C655.304 204.273 659.125 200.308 657.599 196.257C654.884 189.046 646.908 181.121 624.472 183.343C601.753 185.591 575.018 210.98 558.582 229.141C548.734 240.022 530.347 235.731 526.944 221.455C526.078 217.826 526.349 214.021 528.384 210.185C533.022 201.444 540.258 201.384 545.736 203.029C549.884 204.276 553.697 200.284 552.165 196.233C549.442 189.03 541.46 181.123 519.047 183.343C496.329 185.591 469.593 210.98 453.157 229.141C443.311 240.022 424.922 235.731 421.519 221.455C420.653 217.826 420.924 214.021 422.96 210.185C427.597 201.446 434.831 201.384 440.31 203.029C444.455 204.273 448.275 200.308 446.751 196.257C444.035 189.046 436.061 181.121 413.623 183.343C390.904 185.591 364.168 210.98 347.734 229.141C337.886 240.022 319.497 235.731 316.094 221.455C315.229 217.826 315.501 214.021 317.535 210.185C322.173 201.446 329.407 201.384 334.885 203.029C339.03 204.273 342.85 200.308 341.326 196.257C338.61 189.046 330.636 181.121 308.198 183.343C285.48 185.591 258.744 210.98 242.309 229.141C232.461 240.022 214.073 235.731 210.671 221.455C209.804 217.826 210.076 214.021 212.112 210.185C216.748 201.446 223.983 201.384 229.462 203.029C233.607 204.273 237.426 200.308 235.901 196.257C233.187 189.046 225.211 181.121 202.775 183.343C180.055 185.591 153.319 210.98 136.885 229.141C127.038 240.022 108.648 235.731 105.246 221.455C104.381 217.826 104.651 214.021 106.687 210.185C111.324 201.446 118.56 201.384 124.038 203.029C128.185 204.274 132.002 200.304 130.476 196.253C127.761 189.045 119.783 181.121 97.3501 183.343C74.63 185.591 47.8941 210.98 31.4605 229.141C21.6124 240.022 3.22485 235.731 -0.179173 221.455C-1.04436 217.826 -0.773758 214.021 1.26168 210.185C5.90009 201.446 13.1329 201.384 18.6113 203.029C22.7571 204.273 26.5781 200.308 25.0524 196.257C22.3386 189.046 14.3625 181.121 -8.07332 183.343C-21.6327 184.685 -36.6211 194.27 -49.998 205.642V310.644C-28.6913 305.169 -5.05075 282.531 9.97765 265.924C19.8238 255.043 38.2114 259.335 41.6143 273.609C42.4806 277.241 42.2104 281.045 40.1731 284.88C35.5365 293.619 28.3018 293.682 22.8234 292.037C18.6781 290.792 14.86 294.757 16.3842 298.809C19.098 306.018 27.0741 313.945 49.5114 311.724C72.2297 309.475 98.9656 284.086 115.401 265.924C125.249 255.043 143.637 259.335 147.039 273.609C147.904 277.241 147.634 281.045 145.599 284.88C140.961 293.619 133.727 293.682 128.248 292.037C124.103 290.792 120.283 294.757 121.808 298.809C124.523 306.018 132.499 313.945 154.936 311.724C177.655 309.475 204.39 284.086 220.826 265.924C230.673 255.043 249.06 259.335 252.464 273.609C253.329 277.241 253.059 281.045 251.021 284.88C246.386 293.619 239.152 293.682 233.673 292.037C229.528 290.792 225.708 294.757 227.233 298.809C229.946 306.018 237.924 313.945 260.36 311.724C283.078 309.475 309.816 284.086 326.251 265.924C336.097 255.043 354.485 259.335 357.889 273.609C358.754 277.241 358.482 281.045 356.448 284.88C351.81 293.619 344.575 293.682 339.097 292.037C334.951 290.792 331.132 294.757 332.656 298.809C335.371 306.018 343.347 313.945 365.785 311.724C388.503 309.475 415.239 284.086 431.674 265.924C441.521 255.043 459.91 259.335 463.312 273.609C464.179 277.241 463.907 281.045 461.872 284.88C457.235 293.619 450 293.682 444.522 292.037C440.376 290.792 436.557 294.757 438.081 298.809C440.796 306.018 448.772 313.945 471.208 311.724C493.928 309.475 520.664 284.086 537.098 265.924C546.947 255.043 565.333 259.335 568.737 273.609C569.603 277.241 569.331 281.045 567.297 284.88C562.66 293.619 555.424 293.682 549.947 292.037C545.801 290.792 541.98 294.757 543.505 298.809C546.22 306.018 554.196 313.945 576.633 311.724C599.352 309.475 626.089 284.085 642.524 265.924C652.371 255.043 670.758 259.335 674.162 273.609C675.028 277.241 674.757 281.045 672.72 284.88C668.083 293.62 660.849 293.682 655.369 292.036C651.222 290.791 647.41 294.782 648.94 298.832C651.664 306.036 659.646 313.942 682.057 311.724C704.777 309.475 731.513 284.086 747.946 265.924C757.794 255.043 776.183 259.335 779.586 273.609C780.451 277.241 780.181 281.045 778.145 284.88C773.507 293.619 766.274 293.682 760.795 292.037C756.65 290.792 752.832 294.757 754.356 298.809C757.07 306.018 765.046 313.945 787.482 311.724C810.202 309.475 836.937 284.086 853.372 265.924C863.219 255.043 881.608 259.335 885.011 273.609C885.876 277.241 885.604 281.045 883.57 284.88C878.932 293.619 871.697 293.682 866.22 292.037C862.073 290.792 858.253 294.757 859.78 298.809C862.495 306.018 870.469 313.945 892.907 311.724C915.627 309.475 942.361 284.086 958.796 265.924C968.644 255.043 987.032 259.335 990.435 273.609C991.301 277.241 991.029 281.045 988.995 284.88C984.357 293.619 977.122 293.682 971.644 292.037C967.498 290.792 963.678 294.757 965.204 298.809C967.917 306.018 975.892 313.945 998.332 311.724C1021.05 309.475 1047.79 284.086 1064.22 265.924C1074.07 255.043 1092.46 259.335 1095.86 273.609C1096.73 277.241 1096.45 281.045 1094.42 284.88C1089.78 293.619 1082.55 293.682 1077.07 292.037C1072.92 290.791 1069.1 294.76 1070.63 298.812C1073.34 306.02 1081.32 313.945 1103.76 311.724C1126.48 309.475 1153.21 284.086 1169.65 265.924C1179.49 255.043 1197.88 259.335 1201.28 273.609C1202.15 277.241 1201.88 281.045 1199.84 284.88C1195.21 293.619 1187.97 293.682 1182.49 292.037C1178.35 290.792 1174.53 294.757 1176.05 298.809C1178.77 306.018 1186.74 313.945 1209.18 311.724C1222.27 310.428 1236.69 301.446 1249.71 290.595V184.804C1228.77 190.88 1205.83 212.896 1191.13 229.141Z" fill="#E8E4DC"/>
<path d="M1191.13 405.214C1181.28 416.096 1162.89 411.806 1159.49 397.529C1158.62 393.898 1158.9 390.094 1160.93 386.259C1165.57 377.52 1172.8 377.458 1178.28 379.102C1182.43 380.347 1186.25 376.38 1184.72 372.33C1182.01 365.121 1174.03 357.196 1151.59 359.415C1128.88 361.666 1102.14 387.054 1085.7 405.214C1075.86 416.096 1057.47 411.806 1054.07 397.529C1053.2 393.898 1053.47 390.094 1055.51 386.259C1060.14 377.52 1067.38 377.458 1072.86 379.102C1077 380.347 1080.82 376.38 1079.3 372.33C1076.58 365.121 1068.61 357.196 1046.17 359.415C1023.45 361.666 996.714 387.054 980.279 405.214C970.431 416.096 952.044 411.806 948.641 397.529C947.774 393.898 948.047 390.094 950.082 386.259C954.719 377.52 961.953 377.458 967.432 379.102C971.577 380.347 975.397 376.38 973.873 372.33C971.159 365.121 963.183 357.196 940.745 359.415C918.027 361.666 891.289 387.054 874.854 405.214C865.006 416.096 846.62 411.806 843.216 397.529C842.351 393.898 842.621 390.094 844.658 386.259C849.295 377.52 856.528 377.458 862.008 379.102C866.154 380.347 869.972 376.38 868.447 372.33C865.734 365.121 857.758 357.196 835.32 359.415C812.602 361.666 785.866 387.054 769.431 405.214C759.584 416.096 741.195 411.806 737.793 397.529C736.927 393.898 737.196 390.094 739.234 386.259C743.87 377.52 751.105 377.458 756.583 379.102C760.729 380.347 764.547 376.38 763.022 372.33C760.309 365.121 752.333 357.196 729.897 359.415C707.177 361.666 680.441 387.054 664.007 405.214C654.159 416.096 635.77 411.806 632.367 397.529C631.503 393.898 631.775 390.094 633.809 386.259C638.447 377.52 645.681 377.458 651.158 379.102C655.304 380.347 659.125 376.38 657.599 372.33C654.884 365.121 646.908 357.196 624.472 359.415C601.753 361.666 575.018 387.054 558.582 405.214C548.734 416.096 530.347 411.806 526.944 397.529C526.078 393.898 526.349 390.094 528.384 386.259C533.022 377.519 540.258 377.459 545.736 379.103C549.884 380.348 553.697 376.359 552.165 372.307C549.442 365.104 541.46 357.197 519.047 359.415C496.329 361.666 469.593 387.054 453.157 405.214C443.311 416.096 424.922 411.806 421.519 397.529C420.653 393.898 420.924 390.094 422.96 386.259C427.597 377.52 434.831 377.458 440.31 379.102C444.455 380.347 448.275 376.38 446.751 372.33C444.035 365.121 436.061 357.196 413.623 359.415C390.904 361.666 364.168 387.054 347.734 405.214C337.886 416.096 319.497 411.806 316.094 397.529C315.229 393.898 315.501 390.094 317.535 386.259C322.173 377.52 329.407 377.458 334.885 379.102C339.03 380.347 342.85 376.38 341.326 372.33C338.61 365.121 330.636 357.196 308.198 359.415C285.48 361.666 258.744 387.054 242.309 405.214C232.461 416.096 214.073 411.806 210.671 397.529C209.804 393.898 210.076 390.094 212.112 386.259C216.748 377.52 223.983 377.458 229.462 379.102C233.607 380.347 237.426 376.38 235.901 372.33C233.187 365.121 225.211 357.196 202.775 359.415C180.055 361.666 153.319 387.054 136.885 405.214C127.038 416.096 108.648 411.806 105.246 397.529C104.381 393.898 104.651 390.094 106.687 386.259C111.324 377.52 118.56 377.458 124.038 379.102C128.185 380.348 132.002 376.38 130.476 372.326C127.761 365.118 119.783 357.196 97.3501 359.415C74.63 361.666 47.8941 387.054 31.4605 405.214C21.6124 416.096 3.22485 411.806 -0.179173 397.529C-1.04436 393.898 -0.773758 390.094 1.26168 386.259C5.90009 377.52 13.1329 377.458 18.6113 379.102C22.7571 380.347 26.5781 376.38 25.0524 372.33C22.3386 365.121 14.3625 357.196 -8.07332 359.415C-21.6327 360.758 -36.6211 370.344 -49.998 381.717V486.719C-28.6913 481.243 -5.05075 458.605 9.97765 441.998C19.8238 431.117 38.2114 435.408 41.6143 449.684C42.4806 453.313 42.2104 457.119 40.1731 460.952C35.5365 469.693 28.3018 469.756 22.8234 468.11C18.6781 466.865 14.86 470.831 16.3842 474.882C19.098 482.092 27.0741 490.019 49.5114 487.796C72.2297 485.548 98.9656 460.16 115.401 441.998C125.249 431.117 143.637 435.408 147.039 449.684C147.904 453.313 147.634 457.119 145.599 460.952C140.961 469.693 133.727 469.756 128.248 468.11C124.103 466.865 120.283 470.831 121.808 474.882C124.523 482.092 132.499 490.019 154.936 487.796C177.655 485.548 204.39 460.16 220.826 441.998C230.673 431.117 249.06 435.408 252.464 449.684C253.329 453.313 253.059 457.119 251.021 460.952C246.386 469.693 239.152 469.756 233.673 468.11C229.528 466.865 225.708 470.831 227.233 474.882C229.946 482.092 237.924 490.019 260.36 487.796C283.078 485.548 309.816 460.16 326.251 441.998C336.097 431.117 354.485 435.408 357.889 449.684C358.754 453.313 358.482 457.119 356.448 460.952C351.81 469.693 344.575 469.756 339.097 468.11C334.951 466.865 331.132 470.831 332.656 474.882C335.371 482.092 343.347 490.019 365.785 487.796C388.503 485.548 415.239 460.16 431.674 441.998C441.521 431.117 459.91 435.408 463.312 449.684C464.179 453.313 463.907 457.119 461.872 460.952C457.235 469.693 450 469.756 444.522 468.11C440.376 466.865 436.557 470.831 438.081 474.882C440.796 482.092 448.772 490.019 471.208 487.796C493.928 485.548 520.664 460.16 537.098 441.998C546.947 431.117 565.333 435.408 568.737 449.684C569.603 453.313 569.331 457.119 567.297 460.952C562.66 469.693 555.424 469.756 549.947 468.11C545.801 466.865 541.98 470.831 543.505 474.882C546.22 482.092 554.196 490.019 576.633 487.796C599.352 485.548 626.089 460.159 642.524 441.998C652.371 431.117 670.758 435.408 674.162 449.684C675.028 453.313 674.757 457.119 672.72 460.952C668.083 469.695 660.849 469.756 655.369 468.11C651.222 466.863 647.41 470.855 648.94 474.907C651.664 482.109 659.646 490.016 682.057 487.796C704.777 485.548 731.513 460.16 747.946 441.998C757.794 431.117 776.183 435.408 779.586 449.684C780.451 453.313 780.181 457.119 778.145 460.952C773.507 469.693 766.274 469.756 760.795 468.11C756.65 466.865 752.832 470.831 754.356 474.882C757.07 482.092 765.046 490.019 787.482 487.796C810.202 485.548 836.937 460.16 853.372 441.998C863.219 431.117 881.608 435.408 885.011 449.684C885.876 453.313 885.604 457.119 883.57 460.952C878.932 469.693 871.697 469.756 866.22 468.11C862.073 466.865 858.253 470.831 859.78 474.882C862.495 482.092 870.469 490.019 892.907 487.796C915.627 485.548 942.361 460.16 958.796 441.998C968.644 431.117 987.032 435.408 990.435 449.684C991.301 453.313 991.029 457.119 988.995 460.952C984.357 469.693 977.122 469.756 971.644 468.11C967.498 466.865 963.678 470.831 965.204 474.882C967.917 482.092 975.892 490.019 998.332 487.796C1021.05 485.548 1047.79 460.16 1064.22 441.998C1074.07 431.117 1092.46 435.408 1095.86 449.684C1096.73 453.313 1096.45 457.119 1094.42 460.952C1089.78 469.695 1082.55 469.756 1077.07 468.11C1072.92 466.865 1069.1 470.835 1070.63 474.886C1073.34 482.094 1081.32 490.019 1103.76 487.796C1126.48 485.548 1153.21 460.16 1169.65 441.998C1179.49 431.117 1197.88 435.408 1201.28 449.684C1202.15 453.313 1201.88 457.119 1199.84 460.952C1195.21 469.693 1187.97 469.756 1182.49 468.11C1178.35 466.865 1174.53 470.831 1176.05 474.882C1178.77 482.092 1186.74 490.019 1209.18 487.796C1222.27 486.501 1236.69 477.521 1249.71 466.669V360.878C1228.77 366.954 1205.83 388.97 1191.13 405.214Z" fill="#E8E4DC"/>
<path d="M1191.13 581.29C1181.28 592.171 1162.89 587.881 1159.49 573.606C1158.62 569.975 1158.9 566.171 1160.93 562.335C1165.57 553.596 1172.8 553.535 1178.28 555.178C1182.43 556.423 1186.25 552.458 1184.72 548.405C1182.01 541.197 1174.03 533.271 1151.59 535.492C1128.88 537.74 1102.14 563.131 1085.7 581.29C1075.86 592.171 1057.47 587.881 1054.07 573.606C1053.2 569.975 1053.47 566.171 1055.51 562.335C1060.14 553.596 1067.38 553.535 1072.86 555.178C1077 556.423 1080.82 552.458 1079.3 548.405C1076.58 541.197 1068.61 533.271 1046.17 535.492C1023.45 537.74 996.714 563.131 980.279 581.29C970.431 592.171 952.044 587.881 948.641 573.606C947.774 569.975 948.047 566.171 950.082 562.335C954.719 553.596 961.953 553.535 967.432 555.178C971.577 556.423 975.397 552.458 973.873 548.405C971.159 541.197 963.183 533.271 940.745 535.492C918.027 537.74 891.289 563.131 874.854 581.29C865.006 592.171 846.62 587.881 843.216 573.606C842.351 569.975 842.621 566.171 844.658 562.335C849.295 553.596 856.528 553.535 862.008 555.178C866.154 556.423 869.972 552.458 868.447 548.405C865.734 541.197 857.758 533.271 835.32 535.492C812.602 537.74 785.866 563.131 769.431 581.29C759.584 592.171 741.195 587.881 737.793 573.606C736.927 569.975 737.196 566.171 739.234 562.335C743.87 553.596 751.105 553.535 756.583 555.178C760.729 556.423 764.547 552.458 763.022 548.405C760.309 541.197 752.333 533.271 729.897 535.492C707.177 537.74 680.441 563.131 664.007 581.29C654.159 592.171 635.77 587.881 632.367 573.606C631.503 569.975 631.775 566.171 633.809 562.335C638.447 553.596 645.681 553.535 651.158 555.178C655.304 556.423 659.125 552.458 657.599 548.405C654.884 541.197 646.908 533.271 624.472 535.492C601.753 537.74 575.018 563.131 558.582 581.29C548.734 592.171 530.347 587.881 526.944 573.606C526.078 569.975 526.349 566.171 528.384 562.335C533.022 553.595 540.258 553.535 545.736 555.18C549.884 556.424 553.697 552.434 552.165 548.384C549.442 541.18 541.46 533.273 519.047 535.492C496.329 537.74 469.593 563.131 453.157 581.29C443.311 592.171 424.922 587.881 421.519 573.606C420.653 569.975 420.924 566.171 422.96 562.335C427.597 553.596 434.831 553.535 440.31 555.178C444.455 556.423 448.275 552.458 446.751 548.405C444.035 541.197 436.061 533.271 413.623 535.492C390.904 537.74 364.168 563.131 347.734 581.29C337.886 592.171 319.497 587.881 316.094 573.606C315.229 569.975 315.501 566.171 317.535 562.335C322.173 553.596 329.407 553.535 334.885 555.178C339.03 556.423 342.85 552.458 341.326 548.405C338.61 541.197 330.636 533.271 308.198 535.492C285.48 537.74 258.744 563.131 242.309 581.29C232.461 592.171 214.073 587.881 210.671 573.606C209.804 569.975 210.076 566.171 212.112 562.335C216.748 553.596 223.983 553.535 229.462 555.178C233.607 556.423 237.426 552.458 235.901 548.405C233.187 541.197 225.211 533.271 202.775 535.492C180.055 537.74 153.319 563.131 136.885 581.29C127.038 592.171 108.648 587.881 105.246 573.606C104.381 569.975 104.651 566.171 106.687 562.335C111.324 553.596 118.56 553.535 124.038 555.178C128.185 556.424 132.002 552.457 130.476 548.404C127.761 541.195 119.783 533.271 97.3501 535.492C74.63 537.74 47.8941 563.131 31.4605 581.29C21.6124 592.171 3.22485 587.881 -0.179173 573.606C-1.04436 569.975 -0.773758 566.171 1.26168 562.335C5.90009 553.596 13.1329 553.535 18.6113 555.178C22.7571 556.423 26.5781 552.458 25.0524 548.405C22.3386 541.197 14.3625 533.271 -8.07332 535.492C-21.6327 536.834 -36.6211 546.421 -49.998 557.793V662.795C-28.6913 657.318 -5.05075 634.681 9.97765 618.075C19.8238 607.193 38.2114 611.484 41.6143 625.758C42.4806 629.39 42.2104 633.194 40.1731 637.029C35.5365 645.769 28.3018 645.833 22.8234 644.186C18.6781 642.941 14.86 646.908 16.3842 650.959C19.098 658.169 27.0741 666.096 49.5114 663.873C72.2297 661.624 98.9656 636.235 115.401 618.075C125.249 607.193 143.637 611.484 147.039 625.758C147.904 629.39 147.634 633.194 145.599 637.029C140.961 645.769 133.727 645.833 128.248 644.186C124.103 642.941 120.283 646.908 121.808 650.959C124.523 658.169 132.499 666.096 154.936 663.873C177.655 661.624 204.39 636.235 220.826 618.075C230.673 607.193 249.06 611.484 252.464 625.758C253.329 629.39 253.059 633.194 251.021 637.029C246.386 645.769 239.152 645.833 233.673 644.186C229.528 642.941 225.708 646.908 227.233 650.959C229.946 658.169 237.924 666.096 260.36 663.873C283.078 661.624 309.816 636.235 326.251 618.075C336.097 607.193 354.485 611.484 357.889 625.758C358.754 629.39 358.482 633.194 356.448 637.029C351.81 645.769 344.575 645.833 339.097 644.186C334.951 642.941 331.132 646.908 332.656 650.959C335.371 658.169 343.347 666.096 365.785 663.873C388.503 661.624 415.239 636.235 431.674 618.075C441.521 607.193 459.91 611.484 463.312 625.758C464.179 629.39 463.907 633.194 461.872 637.029C457.235 645.769 450 645.833 444.522 644.186C440.376 642.941 436.557 646.908 438.081 650.959C440.796 658.169 448.772 666.096 471.208 663.873C493.928 661.624 520.664 636.235 537.098 618.075C546.947 607.193 565.333 611.484 568.737 625.758C569.603 629.39 569.331 633.194 567.297 637.029C562.66 645.769 555.424 645.833 549.947 644.186C545.801 642.941 541.98 646.908 543.505 650.959C546.22 658.169 554.196 666.096 576.633 663.873C599.352 661.624 626.089 636.235 642.524 618.075C652.371 607.193 670.758 611.484 674.162 625.758C675.028 629.39 674.757 633.194 672.72 637.029C668.083 645.771 660.849 645.833 655.369 644.186C651.222 642.941 647.41 646.931 648.94 650.984C651.664 658.186 659.646 666.092 682.057 663.873C704.777 661.624 731.513 636.235 747.946 618.075C757.794 607.193 776.183 611.484 779.586 625.758C780.451 629.39 780.181 633.194 778.145 637.029C773.507 645.769 766.274 645.833 760.795 644.186C756.65 642.941 752.832 646.908 754.356 650.959C757.07 658.169 765.046 666.096 787.482 663.873C810.202 661.624 836.937 636.235 853.372 618.075C863.219 607.193 881.608 611.484 885.011 625.758C885.876 629.39 885.604 633.194 883.57 637.029C878.932 645.769 871.697 645.833 866.22 644.186C862.073 642.941 858.253 646.908 859.78 650.959C862.495 658.169 870.469 666.096 892.907 663.873C915.627 661.624 942.361 636.235 958.796 618.075C968.644 607.193 987.032 611.484 990.435 625.758C991.301 629.39 991.029 633.194 988.995 637.029C984.357 645.769 977.122 645.833 971.644 644.186C967.498 642.941 963.678 646.908 965.204 650.959C967.917 658.169 975.892 666.096 998.332 663.873C1021.05 661.624 1047.79 636.235 1064.22 618.075C1074.07 607.193 1092.46 611.484 1095.86 625.758C1096.73 629.39 1096.45 633.194 1094.42 637.029C1089.78 645.771 1082.55 645.833 1077.07 644.186C1072.92 642.941 1069.1 646.911 1070.63 650.962C1073.34 658.17 1081.32 666.096 1103.76 663.873C1126.48 661.624 1153.21 636.235 1169.65 618.075C1179.49 607.193 1197.88 611.484 1201.28 625.758C1202.15 629.39 1201.88 633.194 1199.84 637.029C1195.21 645.769 1187.97 645.833 1182.49 644.186C1178.35 642.941 1174.53 646.908 1176.05 650.959C1178.77 658.169 1186.74 666.096 1209.18 663.873C1222.27 662.577 1236.69 653.597 1249.71 642.745V536.953C1228.77 543.03 1205.83 565.046 1191.13 581.29Z" fill="#E8E4DC"/>
</g>
</g>
<defs>
<clipPath id="clip0_1297_11993">
<rect width="1200" height="675" rx="32" fill="white"/>
</clipPath>
<clipPath id="clip1_1297_11993">
<rect width="1200" height="675" fill="white"/>
</clipPath>
</defs>
</svg>
