<svg width="1200" height="675" viewBox="0 0 1200 675" fill="none" xmlns="http://www.w3.org/2000/svg">
<g clip-path="url(#clip0_1297_12284)">
<g clip-path="url(#clip1_1297_12284)">
<path d="M60 -22H0V38L60 -22Z" fill="#E8E4DC"/>
<path d="M60 38H0V98L60 38Z" fill="#E8E4DC"/>
<path d="M60 158H0V218L60 158Z" fill="#E8E4DC"/>
<path d="M180 38H240V-22L180 38Z" fill="#E8E4DC"/>
<path d="M120 -22H60V38L120 -22Z" fill="#E8E4DC"/>
<path d="M120 38H60V98L120 38Z" fill="#E8E4DC"/>
<path d="M120 98H60V158L120 98Z" fill="#E8E4DC"/>
<path d="M120 98H180V38L120 98Z" fill="#E8E4DC"/>
<path d="M180 -22H120V38L180 -22Z" fill="#E8E4DC"/>
<path d="M60 38H120V-22L60 38Z" fill="#E8E4DC"/>
<path d="M60 98H120V38L60 98Z" fill="#E8E4DC"/>
<path d="M60 218H120V158L60 218Z" fill="#E8E4DC"/>
<path d="M240 38H180V98L240 38Z" fill="#E8E4DC"/>
<path d="M-3.8147e-06 38H60V-22L-3.8147e-06 38Z" fill="#E8E4DC"/>
<path d="M-3.8147e-06 98H60V38L-3.8147e-06 98Z" fill="#E8E4DC"/>
<path d="M-3.8147e-06 158H60V98L-3.8147e-06 158Z" fill="#E8E4DC"/>
</g>
<g clip-path="url(#clip2_1297_12284)">
<path d="M300 -22H240V38L300 -22Z" fill="#E8E4DC"/>
<path d="M300 38H240V98L300 38Z" fill="#E8E4DC"/>
<path d="M300 158H240V218L300 158Z" fill="#E8E4DC"/>
<path d="M420 38H480V-22L420 38Z" fill="#E8E4DC"/>
<path d="M360 -22H300V38L360 -22Z" fill="#E8E4DC"/>
<path d="M360 38H300V98L360 38Z" fill="#E8E4DC"/>
<path d="M360 98H300V158L360 98Z" fill="#E8E4DC"/>
<path d="M360 98H420V38L360 98Z" fill="#E8E4DC"/>
<path d="M420 -22H360V38L420 -22Z" fill="#E8E4DC"/>
<path d="M300 38H360V-22L300 38Z" fill="#E8E4DC"/>
<path d="M300 98H360V38L300 98Z" fill="#E8E4DC"/>
<path d="M300 218H360V158L300 218Z" fill="#E8E4DC"/>
<path d="M480 38H420V98L480 38Z" fill="#E8E4DC"/>
<path d="M240 38H300V-22L240 38Z" fill="#E8E4DC"/>
<path d="M240 98H300V38L240 98Z" fill="#E8E4DC"/>
<path d="M240 158H300V98L240 158Z" fill="#E8E4DC"/>
</g>
<g clip-path="url(#clip3_1297_12284)">
<path d="M540 -22H480V38L540 -22Z" fill="#E8E4DC"/>
<path d="M540 38H480V98L540 38Z" fill="#E8E4DC"/>
<path d="M540 158H480V218L540 158Z" fill="#E8E4DC"/>
<path d="M660 38H720V-22L660 38Z" fill="#E8E4DC"/>
<path d="M600 -22H540V38L600 -22Z" fill="#E8E4DC"/>
<path d="M600 38H540V98L600 38Z" fill="#E8E4DC"/>
<path d="M600 98H540V158L600 98Z" fill="#E8E4DC"/>
<path d="M600 98H660V38L600 98Z" fill="#E8E4DC"/>
<path d="M660 -22H600V38L660 -22Z" fill="#E8E4DC"/>
<path d="M540 38H600V-22L540 38Z" fill="#E8E4DC"/>
<path d="M540 98H600V38L540 98Z" fill="#E8E4DC"/>
<path d="M540 218H600V158L540 218Z" fill="#E8E4DC"/>
<path d="M720 38H660V98L720 38Z" fill="#E8E4DC"/>
<path d="M480 38H540V-22L480 38Z" fill="#E8E4DC"/>
<path d="M480 98H540V38L480 98Z" fill="#E8E4DC"/>
<path d="M480 158H540V98L480 158Z" fill="#E8E4DC"/>
</g>
<g clip-path="url(#clip4_1297_12284)">
<path d="M780 -22H720V38L780 -22Z" fill="#E8E4DC"/>
<path d="M780 38H720V98L780 38Z" fill="#E8E4DC"/>
<path d="M780 158H720V218L780 158Z" fill="#E8E4DC"/>
<path d="M900 38H960V-22L900 38Z" fill="#E8E4DC"/>
<path d="M840 -22H780V38L840 -22Z" fill="#E8E4DC"/>
<path d="M840 38H780V98L840 38Z" fill="#E8E4DC"/>
<path d="M840 98H780V158L840 98Z" fill="#E8E4DC"/>
<path d="M840 98H900V38L840 98Z" fill="#E8E4DC"/>
<path d="M900 -22H840V38L900 -22Z" fill="#E8E4DC"/>
<path d="M780 38H840V-22L780 38Z" fill="#E8E4DC"/>
<path d="M780 98H840V38L780 98Z" fill="#E8E4DC"/>
<path d="M780 218H840V158L780 218Z" fill="#E8E4DC"/>
<path d="M960 38H900V98L960 38Z" fill="#E8E4DC"/>
<path d="M720 38H780V-22L720 38Z" fill="#E8E4DC"/>
<path d="M720 98H780V38L720 98Z" fill="#E8E4DC"/>
<path d="M720 158H780V98L720 158Z" fill="#E8E4DC"/>
</g>
<g clip-path="url(#clip5_1297_12284)">
<path d="M1020 -22H960V38L1020 -22Z" fill="#E8E4DC"/>
<path d="M1020 38H960V98L1020 38Z" fill="#E8E4DC"/>
<path d="M1020 158H960V218L1020 158Z" fill="#E8E4DC"/>
<path d="M1140 38H1200V-22L1140 38Z" fill="#E8E4DC"/>
<path d="M1080 -22H1020V38L1080 -22Z" fill="#E8E4DC"/>
<path d="M1080 38H1020V98L1080 38Z" fill="#E8E4DC"/>
<path d="M1080 98H1020V158L1080 98Z" fill="#E8E4DC"/>
<path d="M1080 98H1140V38L1080 98Z" fill="#E8E4DC"/>
<path d="M1140 -22H1080V38L1140 -22Z" fill="#E8E4DC"/>
<path d="M1020 38H1080V-22L1020 38Z" fill="#E8E4DC"/>
<path d="M1020 98H1080V38L1020 98Z" fill="#E8E4DC"/>
<path d="M1020 218H1080V158L1020 218Z" fill="#E8E4DC"/>
<path d="M1200 38H1140V98L1200 38Z" fill="#E8E4DC"/>
<path d="M960 38H1020V-22L960 38Z" fill="#E8E4DC"/>
<path d="M960 98H1020V38L960 98Z" fill="#E8E4DC"/>
<path d="M960 158H1020V98L960 158Z" fill="#E8E4DC"/>
</g>
<g clip-path="url(#clip6_1297_12284)">
<path d="M60 218H0V278L60 218Z" fill="#E8E4DC"/>
<path d="M60 278H0V338L60 278Z" fill="#E8E4DC"/>
<path d="M60 398H0V458L60 398Z" fill="#E8E4DC"/>
<path d="M180 278H240V218L180 278Z" fill="#E8E4DC"/>
<path d="M120 218H60V278L120 218Z" fill="#E8E4DC"/>
<path d="M120 278H60V338L120 278Z" fill="#E8E4DC"/>
<path d="M120 338H60V398L120 338Z" fill="#E8E4DC"/>
<path d="M120 338H180V278L120 338Z" fill="#E8E4DC"/>
<path d="M180 218H120V278L180 218Z" fill="#E8E4DC"/>
<path d="M60 278H120V218L60 278Z" fill="#E8E4DC"/>
<path d="M60 338H120V278L60 338Z" fill="#E8E4DC"/>
<path d="M60 458H120V398L60 458Z" fill="#E8E4DC"/>
<path d="M240 278H180V338L240 278Z" fill="#E8E4DC"/>
<path d="M-3.8147e-06 278H60V218L-3.8147e-06 278Z" fill="#E8E4DC"/>
<path d="M-3.8147e-06 338H60V278L-3.8147e-06 338Z" fill="#E8E4DC"/>
<path d="M-3.8147e-06 398H60V338L-3.8147e-06 398Z" fill="#E8E4DC"/>
</g>
<g clip-path="url(#clip7_1297_12284)">
<path d="M300 218H240V278L300 218Z" fill="#E8E4DC"/>
<path d="M300 278H240V338L300 278Z" fill="#E8E4DC"/>
<path d="M300 398H240V458L300 398Z" fill="#E8E4DC"/>
<path d="M420 278H480V218L420 278Z" fill="#E8E4DC"/>
<path d="M360 218H300V278L360 218Z" fill="#E8E4DC"/>
<path d="M360 278H300V338L360 278Z" fill="#E8E4DC"/>
<path d="M360 338H300V398L360 338Z" fill="#E8E4DC"/>
<path d="M360 338H420V278L360 338Z" fill="#E8E4DC"/>
<path d="M420 218H360V278L420 218Z" fill="#E8E4DC"/>
<path d="M300 278H360V218L300 278Z" fill="#E8E4DC"/>
<path d="M300 338H360V278L300 338Z" fill="#E8E4DC"/>
<path d="M300 458H360V398L300 458Z" fill="#E8E4DC"/>
<path d="M480 278H420V338L480 278Z" fill="#E8E4DC"/>
<path d="M240 278H300V218L240 278Z" fill="#E8E4DC"/>
<path d="M240 338H300V278L240 338Z" fill="#E8E4DC"/>
<path d="M240 398H300V338L240 398Z" fill="#E8E4DC"/>
</g>
<g clip-path="url(#clip8_1297_12284)">
<path d="M540 218H480V278L540 218Z" fill="#E8E4DC"/>
<path d="M540 278H480V338L540 278Z" fill="#E8E4DC"/>
<path d="M540 398H480V458L540 398Z" fill="#E8E4DC"/>
<path d="M660 278H720V218L660 278Z" fill="#E8E4DC"/>
<path d="M600 218H540V278L600 218Z" fill="#E8E4DC"/>
<path d="M600 278H540V338L600 278Z" fill="#E8E4DC"/>
<path d="M600 338H540V398L600 338Z" fill="#E8E4DC"/>
<path d="M600 338H660V278L600 338Z" fill="#E8E4DC"/>
<path d="M660 218H600V278L660 218Z" fill="#E8E4DC"/>
<path d="M540 278H600V218L540 278Z" fill="#E8E4DC"/>
<path d="M540 338H600V278L540 338Z" fill="#E8E4DC"/>
<path d="M540 458H600V398L540 458Z" fill="#E8E4DC"/>
<path d="M720 278H660V338L720 278Z" fill="#E8E4DC"/>
<path d="M480 278H540V218L480 278Z" fill="#E8E4DC"/>
<path d="M480 338H540V278L480 338Z" fill="#E8E4DC"/>
<path d="M480 398H540V338L480 398Z" fill="#E8E4DC"/>
</g>
<g clip-path="url(#clip9_1297_12284)">
<path d="M780 218H720V278L780 218Z" fill="#E8E4DC"/>
<path d="M780 278H720V338L780 278Z" fill="#E8E4DC"/>
<path d="M780 398H720V458L780 398Z" fill="#E8E4DC"/>
<path d="M900 278H960V218L900 278Z" fill="#E8E4DC"/>
<path d="M840 218H780V278L840 218Z" fill="#E8E4DC"/>
<path d="M840 278H780V338L840 278Z" fill="#E8E4DC"/>
<path d="M840 338H780V398L840 338Z" fill="#E8E4DC"/>
<path d="M840 338H900V278L840 338Z" fill="#E8E4DC"/>
<path d="M900 218H840V278L900 218Z" fill="#E8E4DC"/>
<path d="M780 278H840V218L780 278Z" fill="#E8E4DC"/>
<path d="M780 338H840V278L780 338Z" fill="#E8E4DC"/>
<path d="M780 458H840V398L780 458Z" fill="#E8E4DC"/>
<path d="M960 278H900V338L960 278Z" fill="#E8E4DC"/>
<path d="M720 278H780V218L720 278Z" fill="#E8E4DC"/>
<path d="M720 338H780V278L720 338Z" fill="#E8E4DC"/>
<path d="M720 398H780V338L720 398Z" fill="#E8E4DC"/>
</g>
<g clip-path="url(#clip10_1297_12284)">
<path d="M1020 218H960V278L1020 218Z" fill="#E8E4DC"/>
<path d="M1020 278H960V338L1020 278Z" fill="#E8E4DC"/>
<path d="M1020 398H960V458L1020 398Z" fill="#E8E4DC"/>
<path d="M1140 278H1200V218L1140 278Z" fill="#E8E4DC"/>
<path d="M1080 218H1020V278L1080 218Z" fill="#E8E4DC"/>
<path d="M1080 278H1020V338L1080 278Z" fill="#E8E4DC"/>
<path d="M1080 338H1020V398L1080 338Z" fill="#E8E4DC"/>
<path d="M1080 338H1140V278L1080 338Z" fill="#E8E4DC"/>
<path d="M1140 218H1080V278L1140 218Z" fill="#E8E4DC"/>
<path d="M1020 278H1080V218L1020 278Z" fill="#E8E4DC"/>
<path d="M1020 338H1080V278L1020 338Z" fill="#E8E4DC"/>
<path d="M1020 458H1080V398L1020 458Z" fill="#E8E4DC"/>
<path d="M1200 278H1140V338L1200 278Z" fill="#E8E4DC"/>
<path d="M960 278H1020V218L960 278Z" fill="#E8E4DC"/>
<path d="M960 338H1020V278L960 338Z" fill="#E8E4DC"/>
<path d="M960 398H1020V338L960 398Z" fill="#E8E4DC"/>
</g>
<g clip-path="url(#clip11_1297_12284)">
<path d="M60 458H0V518L60 458Z" fill="#E8E4DC"/>
<path d="M60 518H0V578L60 518Z" fill="#E8E4DC"/>
<path d="M60 638H0V698L60 638Z" fill="#E8E4DC"/>
<path d="M180 518H240V458L180 518Z" fill="#E8E4DC"/>
<path d="M120 458H60V518L120 458Z" fill="#E8E4DC"/>
<path d="M120 518H60V578L120 518Z" fill="#E8E4DC"/>
<path d="M120 578H60V638L120 578Z" fill="#E8E4DC"/>
<path d="M120 578H180V518L120 578Z" fill="#E8E4DC"/>
<path d="M180 458H120V518L180 458Z" fill="#E8E4DC"/>
<path d="M60 518H120V458L60 518Z" fill="#E8E4DC"/>
<path d="M60 578H120V518L60 578Z" fill="#E8E4DC"/>
<path d="M60 698H120V638L60 698Z" fill="#E8E4DC"/>
<path d="M240 518H180V578L240 518Z" fill="#E8E4DC"/>
<path d="M-3.8147e-06 518H60V458L-3.8147e-06 518Z" fill="#E8E4DC"/>
<path d="M-3.8147e-06 578H60V518L-3.8147e-06 578Z" fill="#E8E4DC"/>
<path d="M-3.8147e-06 638H60V578L-3.8147e-06 638Z" fill="#E8E4DC"/>
</g>
<g clip-path="url(#clip12_1297_12284)">
<path d="M300 458H240V518L300 458Z" fill="#E8E4DC"/>
<path d="M300 518H240V578L300 518Z" fill="#E8E4DC"/>
<path d="M300 638H240V698L300 638Z" fill="#E8E4DC"/>
<path d="M420 518H480V458L420 518Z" fill="#E8E4DC"/>
<path d="M360 458H300V518L360 458Z" fill="#E8E4DC"/>
<path d="M360 518H300V578L360 518Z" fill="#E8E4DC"/>
<path d="M360 578H300V638L360 578Z" fill="#E8E4DC"/>
<path d="M360 578H420V518L360 578Z" fill="#E8E4DC"/>
<path d="M420 458H360V518L420 458Z" fill="#E8E4DC"/>
<path d="M300 518H360V458L300 518Z" fill="#E8E4DC"/>
<path d="M300 578H360V518L300 578Z" fill="#E8E4DC"/>
<path d="M300 698H360V638L300 698Z" fill="#E8E4DC"/>
<path d="M480 518H420V578L480 518Z" fill="#E8E4DC"/>
<path d="M240 518H300V458L240 518Z" fill="#E8E4DC"/>
<path d="M240 578H300V518L240 578Z" fill="#E8E4DC"/>
<path d="M240 638H300V578L240 638Z" fill="#E8E4DC"/>
</g>
<g clip-path="url(#clip13_1297_12284)">
<path d="M540 458H480V518L540 458Z" fill="#E8E4DC"/>
<path d="M540 518H480V578L540 518Z" fill="#E8E4DC"/>
<path d="M540 638H480V698L540 638Z" fill="#E8E4DC"/>
<path d="M660 518H720V458L660 518Z" fill="#E8E4DC"/>
<path d="M600 458H540V518L600 458Z" fill="#E8E4DC"/>
<path d="M600 518H540V578L600 518Z" fill="#E8E4DC"/>
<path d="M600 578H540V638L600 578Z" fill="#E8E4DC"/>
<path d="M600 578H660V518L600 578Z" fill="#E8E4DC"/>
<path d="M660 458H600V518L660 458Z" fill="#E8E4DC"/>
<path d="M540 518H600V458L540 518Z" fill="#E8E4DC"/>
<path d="M540 578H600V518L540 578Z" fill="#E8E4DC"/>
<path d="M540 698H600V638L540 698Z" fill="#E8E4DC"/>
<path d="M720 518H660V578L720 518Z" fill="#E8E4DC"/>
<path d="M480 518H540V458L480 518Z" fill="#E8E4DC"/>
<path d="M480 578H540V518L480 578Z" fill="#E8E4DC"/>
<path d="M480 638H540V578L480 638Z" fill="#E8E4DC"/>
</g>
<g clip-path="url(#clip14_1297_12284)">
<path d="M780 458H720V518L780 458Z" fill="#E8E4DC"/>
<path d="M780 518H720V578L780 518Z" fill="#E8E4DC"/>
<path d="M780 638H720V698L780 638Z" fill="#E8E4DC"/>
<path d="M900 518H960V458L900 518Z" fill="#E8E4DC"/>
<path d="M840 458H780V518L840 458Z" fill="#E8E4DC"/>
<path d="M840 518H780V578L840 518Z" fill="#E8E4DC"/>
<path d="M840 578H780V638L840 578Z" fill="#E8E4DC"/>
<path d="M840 578H900V518L840 578Z" fill="#E8E4DC"/>
<path d="M900 458H840V518L900 458Z" fill="#E8E4DC"/>
<path d="M780 518H840V458L780 518Z" fill="#E8E4DC"/>
<path d="M780 578H840V518L780 578Z" fill="#E8E4DC"/>
<path d="M780 698H840V638L780 698Z" fill="#E8E4DC"/>
<path d="M960 518H900V578L960 518Z" fill="#E8E4DC"/>
<path d="M720 518H780V458L720 518Z" fill="#E8E4DC"/>
<path d="M720 578H780V518L720 578Z" fill="#E8E4DC"/>
<path d="M720 638H780V578L720 638Z" fill="#E8E4DC"/>
</g>
<g clip-path="url(#clip15_1297_12284)">
<path d="M1020 458H960V518L1020 458Z" fill="#E8E4DC"/>
<path d="M1020 518H960V578L1020 518Z" fill="#E8E4DC"/>
<path d="M1020 638H960V698L1020 638Z" fill="#E8E4DC"/>
<path d="M1140 518H1200V458L1140 518Z" fill="#E8E4DC"/>
<path d="M1080 458H1020V518L1080 458Z" fill="#E8E4DC"/>
<path d="M1080 518H1020V578L1080 518Z" fill="#E8E4DC"/>
<path d="M1080 578H1020V638L1080 578Z" fill="#E8E4DC"/>
<path d="M1080 578H1140V518L1080 578Z" fill="#E8E4DC"/>
<path d="M1140 458H1080V518L1140 458Z" fill="#E8E4DC"/>
<path d="M1020 518H1080V458L1020 518Z" fill="#E8E4DC"/>
<path d="M1020 578H1080V518L1020 578Z" fill="#E8E4DC"/>
<path d="M1020 698H1080V638L1020 698Z" fill="#E8E4DC"/>
<path d="M1200 518H1140V578L1200 518Z" fill="#E8E4DC"/>
<path d="M960 518H1020V458L960 518Z" fill="#E8E4DC"/>
<path d="M960 578H1020V518L960 578Z" fill="#E8E4DC"/>
<path d="M960 638H1020V578L960 638Z" fill="#E8E4DC"/>
</g>
</g>
<defs>
<clipPath id="clip0_1297_12284">
<rect width="1200" height="675" rx="32" fill="white"/>
</clipPath>
<clipPath id="clip1_1297_12284">
<rect width="240" height="240" fill="white" transform="translate(0 -22)"/>
</clipPath>
<clipPath id="clip2_1297_12284">
<rect width="240" height="240" fill="white" transform="translate(240 -22)"/>
</clipPath>
<clipPath id="clip3_1297_12284">
<rect width="240" height="240" fill="white" transform="translate(480 -22)"/>
</clipPath>
<clipPath id="clip4_1297_12284">
<rect width="240" height="240" fill="white" transform="translate(720 -22)"/>
</clipPath>
<clipPath id="clip5_1297_12284">
<rect width="240" height="240" fill="white" transform="translate(960 -22)"/>
</clipPath>
<clipPath id="clip6_1297_12284">
<rect width="240" height="240" fill="white" transform="translate(0 218)"/>
</clipPath>
<clipPath id="clip7_1297_12284">
<rect width="240" height="240" fill="white" transform="translate(240 218)"/>
</clipPath>
<clipPath id="clip8_1297_12284">
<rect width="240" height="240" fill="white" transform="translate(480 218)"/>
</clipPath>
<clipPath id="clip9_1297_12284">
<rect width="240" height="240" fill="white" transform="translate(720 218)"/>
</clipPath>
<clipPath id="clip10_1297_12284">
<rect width="240" height="240" fill="white" transform="translate(960 218)"/>
</clipPath>
<clipPath id="clip11_1297_12284">
<rect width="240" height="240" fill="white" transform="translate(0 458)"/>
</clipPath>
<clipPath id="clip12_1297_12284">
<rect width="240" height="240" fill="white" transform="translate(240 458)"/>
</clipPath>
<clipPath id="clip13_1297_12284">
<rect width="240" height="240" fill="white" transform="translate(480 458)"/>
</clipPath>
<clipPath id="clip14_1297_12284">
<rect width="240" height="240" fill="white" transform="translate(720 458)"/>
</clipPath>
<clipPath id="clip15_1297_12284">
<rect width="240" height="240" fill="white" transform="translate(960 458)"/>
</clipPath>
</defs>
</svg>
