<svg width="650" height="317" viewBox="0 0 650 317" fill="none" xmlns="http://www.w3.org/2000/svg">
<rect width="649.247" height="316.706" fill="#C43C3C"/>
<path fill-rule="evenodd" clip-rule="evenodd" d="M292.328 315.631H632.504C630.067 289.07 621.743 263.975 614.898 255.232C606.068 243.954 600.134 245.991 592.992 248.442C588.036 250.144 582.499 252.045 575.009 249.833C566.396 247.289 562.763 228.059 558.94 207.822C554.647 185.104 550.116 161.116 538.029 158.041C523.629 154.377 515.828 171.822 509.74 185.436C506.167 193.428 503.184 200.099 499.802 200.406C496.096 200.743 494.575 193.226 492.637 183.643C489.795 169.593 486.055 151.103 473.21 146.411C460.796 141.877 455.926 152.287 450.956 162.912C447.275 170.779 443.54 178.764 436.645 180.885C429.615 183.047 426.104 177.001 421.431 168.954C415.331 158.451 407.251 144.539 386.785 141.011C384.929 140.692 383.201 140.538 381.592 140.538C352.26 140.537 362.646 191.52 367.474 215.221C367.541 215.549 367.607 215.872 367.671 216.189C371.66 235.794 369.333 240.972 367.671 241.11C365.218 242.986 361.821 240.812 356.706 237.538C347.095 231.386 331.415 221.35 304.514 226.988C273.642 233.459 282.303 279.15 292.328 315.631Z" fill="#444089" fill-opacity="0.18"/>
</svg>
