<svg version="1.1" id="Layer_1" xmlns="http://www.w3.org/2000/svg" xmlns:xlink="http://www.w3.org/1999/xlink" x="0px" y="0px"
	 width="100%" viewBox="0 0 236 162" enable-background="new 0 0 236 162" xml:space="preserve">
<path fill="#B72024" opacity="1.000000" stroke="none" 
	d="
M125.000000,163.000000 
	C124.555557,163.000000 124.111107,163.000000 123.333450,162.531342 
	C123.000153,126.430634 122.900642,90.797890 123.149567,55.167580 
	C123.175240,51.493580 124.743385,47.536179 126.570045,44.252178 
	C128.375397,41.006485 131.286285,38.321095 133.936127,35.608677 
	C150.478134,18.676128 170.138260,7.391174 193.523651,2.867276 
	C194.114075,2.753059 194.512192,1.644707 195.000000,0.999999 
	C201.354401,1.000000 207.708786,1.000000 214.531067,1.468657 
	C214.998932,39.166206 214.998932,76.395103 214.998932,113.643250 
	C206.301697,114.967384 198.075821,115.665054 190.125351,117.534195 
	C166.265900,123.143509 146.578079,135.868301 130.458115,154.161926 
	C128.201584,156.722733 126.798271,160.035385 125.000000,163.000000 
z"/>
<path fill="#E4262C" opacity="1.000000" stroke="none" 
	d="
M115.000000,163.000000 
	C114.555557,163.000000 114.111107,163.000000 113.663132,162.753906 
	C91.523651,131.427368 60.792969,116.121536 23.000000,114.040878 
	C23.000000,75.843468 23.000000,38.421734 23.000000,1.000000 
	C29.354399,1.000000 35.708797,1.000000 42.302330,1.360327 
	C45.458202,2.534125 48.384888,3.313731 51.290119,4.166403 
	C75.388420,11.239140 95.674042,24.173407 111.215599,43.997295 
	C113.433784,46.826683 114.815056,51.111992 114.841415,54.736156 
	C115.103920,90.822578 115.000259,126.911667 115.000000,163.000000 
z"/>
<path fill="#616262" opacity="1.000000" stroke="none" 
	d="
M106.000000,163.000000 
	C71.070358,163.000000 36.140724,163.000000 1.000000,163.000000 
	C1.000000,125.646034 1.000000,88.291679 1.465269,50.468651 
	C6.172593,49.999981 10.414647,49.999981 15.177181,49.999981 
	C15.177181,74.409248 15.177181,97.951355 15.177181,121.855507 
	C52.433338,120.921181 82.851585,134.055969 106.000000,163.000000 
z"/>
<path fill="#888988" opacity="1.000000" stroke="none" 
	d="
M237.000000,50.000000 
	C237.000000,87.590584 237.000000,125.181160 237.000000,163.000000 
	C202.646103,163.000000 168.291718,163.000000 133.479004,162.644333 
	C137.844101,157.191116 142.339676,151.727570 147.549271,147.061157 
	C167.166046,129.489746 190.797287,122.634712 216.623566,122.006981 
	C218.693848,121.956657 220.766449,122.000343 223.218124,122.000343 
	C223.218124,97.565414 223.218124,73.978004 223.218124,50.519550 
	C223.908981,50.281311 224.209351,50.089886 224.511734,50.086685 
	C228.674332,50.042629 232.837204,50.024498 237.000000,50.000000 
z"/>
<path fill="#000000" opacity="1.000000" stroke="none" 
	d="
M115.444168,163.000000 
	C115.000259,126.911667 115.103920,90.822578 114.841415,54.736156 
	C114.815056,51.111992 113.433784,46.826683 111.215599,43.997295 
	C95.674042,24.173407 75.388420,11.239140 51.290119,4.166403 
	C48.384888,3.313731 45.458202,2.534125 42.770729,1.360327 
	C93.354225,1.000000 143.708450,1.000000 194.531342,0.999999 
	C194.512192,1.644707 194.114075,2.753059 193.523651,2.867276 
	C170.138260,7.391174 150.478134,18.676128 133.936127,35.608677 
	C131.286285,38.321095 128.375397,41.006485 126.570045,44.252178 
	C124.743385,47.536179 123.175240,51.493580 123.149567,55.167580 
	C122.900642,90.797890 123.000153,126.430634 123.000122,162.531342 
	C120.629440,163.000000 118.258888,163.000000 115.444168,163.000000 
z"/>
<path fill="#000000" opacity="1.000000" stroke="none" 
	d="
M237.000000,49.531342 
	C232.837204,50.024498 228.674332,50.042629 224.511734,50.086685 
	C224.209351,50.089886 223.908981,50.281311 223.218124,50.519550 
	C223.218124,73.978004 223.218124,97.565414 223.218124,122.000343 
	C220.766449,122.000343 218.693848,121.956657 216.623566,122.006981 
	C190.797287,122.634712 167.166046,129.489746 147.549271,147.061157 
	C142.339676,151.727570 137.844101,157.191116 133.010345,162.644333 
	C130.629440,163.000000 128.258896,163.000000 125.444168,163.000000 
	C126.798271,160.035385 128.201584,156.722733 130.458115,154.161926 
	C146.578079,135.868301 166.265900,123.143509 190.125351,117.534195 
	C198.075821,115.665054 206.301697,114.967384 214.998932,113.643250 
	C214.998932,76.395103 214.998932,39.166206 214.999466,1.468657 
	C222.287842,1.000000 229.575684,1.000000 237.000000,1.000000 
	C237.000000,17.020672 237.000000,33.041676 237.000000,49.531342 
z"/>
<path fill="#000000" opacity="1.000000" stroke="none" 
	d="
M106.437500,163.000000 
	C82.851585,134.055969 52.433338,120.921181 15.177181,121.855507 
	C15.177181,97.951355 15.177181,74.409248 15.177181,49.999981 
	C10.414647,49.999981 6.172593,49.999981 1.465269,49.999992 
	C1.000000,33.768044 1.000000,17.536087 1.000000,1.000000 
	C8.017884,1.000000 15.040159,1.000000 22.531218,1.000000 
	C23.000000,38.421734 23.000000,75.843468 23.000000,114.040878 
	C60.792969,116.121536 91.523651,131.427368 113.329796,162.753906 
	C110.958336,163.000000 108.916664,163.000000 106.437500,163.000000 
z"/>
</svg>