<svg width="1200" height="675" viewBox="0 0 1200 675" fill="none" xmlns="http://www.w3.org/2000/svg">
<g clip-path="url(#clip0_1297_11999)">
<circle cx="106.5" cy="39.5" r="100" stroke="#E8E4DC" stroke-width="8"/>
<ellipse cx="204.5" cy="139.5" rx="100" ry="100" stroke="#E8E4DC" stroke-width="8"/>
<circle cx="106.5" cy="445.25" r="100" stroke="#E8E4DC" stroke-width="8"/>
<ellipse cx="204.5" cy="545.25" rx="100" ry="100" stroke="#E8E4DC" stroke-width="8"/>
<circle cx="309" cy="39.5" r="100" stroke="#E8E4DC" stroke-width="8"/>
<ellipse cx="407" cy="139.5" rx="100" ry="100" stroke="#E8E4DC" stroke-width="8"/>
<circle cx="309" cy="445.25" r="100" stroke="#E8E4DC" stroke-width="8"/>
<ellipse cx="407" cy="545.25" rx="100" ry="100" stroke="#E8E4DC" stroke-width="8"/>
<circle cx="511.5" cy="39.5" r="100" stroke="#E8E4DC" stroke-width="8"/>
<ellipse cx="609.5" cy="139.5" rx="100" ry="100" stroke="#E8E4DC" stroke-width="8"/>
<circle cx="511.5" cy="445.25" r="100" stroke="#E8E4DC" stroke-width="8"/>
<ellipse cx="609.5" cy="545.25" rx="100" ry="100" stroke="#E8E4DC" stroke-width="8"/>
<circle cx="714" cy="39.5" r="100" stroke="#E8E4DC" stroke-width="8"/>
<ellipse cx="812" cy="139.5" rx="100" ry="100" stroke="#E8E4DC" stroke-width="8"/>
<circle cx="714" cy="445.25" r="100" stroke="#E8E4DC" stroke-width="8"/>
<ellipse cx="812" cy="545.25" rx="100" ry="100" stroke="#E8E4DC" stroke-width="8"/>
<circle cx="916.5" cy="39.5" r="100" stroke="#E8E4DC" stroke-width="8"/>
<ellipse cx="1014.5" cy="139.5" rx="100" ry="100" stroke="#E8E4DC" stroke-width="8"/>
<circle cx="916.5" cy="445.25" r="100" stroke="#E8E4DC" stroke-width="8"/>
<ellipse cx="1014.5" cy="545.25" rx="100" ry="100" stroke="#E8E4DC" stroke-width="8"/>
<circle cx="1119" cy="39.5" r="100" stroke="#E8E4DC" stroke-width="8"/>
<ellipse cx="1217" cy="139.5" rx="100" ry="100" stroke="#E8E4DC" stroke-width="8"/>
<circle cx="1119" cy="445.25" r="100" stroke="#E8E4DC" stroke-width="8"/>
<ellipse cx="1217" cy="545.25" rx="100" ry="100" stroke="#E8E4DC" stroke-width="8"/>
<circle cx="-96" cy="39.5" r="100" stroke="#E8E4DC" stroke-width="8"/>
<ellipse cx="2.00001" cy="139.5" rx="100" ry="100" stroke="#E8E4DC" stroke-width="8"/>
<circle cx="-96" cy="445.25" r="100" stroke="#E8E4DC" stroke-width="8"/>
<ellipse cx="2.00001" cy="545.25" rx="100" ry="100" stroke="#E8E4DC" stroke-width="8"/>
<ellipse cx="204.5" cy="-63" rx="100" ry="100" stroke="#E8E4DC" stroke-width="8"/>
<circle cx="106.5" cy="242.75" r="100" stroke="#E8E4DC" stroke-width="8"/>
<ellipse cx="204.5" cy="342.75" rx="100" ry="100" stroke="#E8E4DC" stroke-width="8"/>
<ellipse cx="407" cy="-63" rx="100" ry="100" stroke="#E8E4DC" stroke-width="8"/>
<circle cx="309" cy="242.75" r="100" stroke="#E8E4DC" stroke-width="8"/>
<ellipse cx="407" cy="342.75" rx="100" ry="100" stroke="#E8E4DC" stroke-width="8"/>
<ellipse cx="609.5" cy="-63" rx="100" ry="100" stroke="#E8E4DC" stroke-width="8"/>
<circle cx="511.5" cy="242.75" r="100" stroke="#E8E4DC" stroke-width="8"/>
<ellipse cx="609.5" cy="342.75" rx="100" ry="100" stroke="#E8E4DC" stroke-width="8"/>
<ellipse cx="812" cy="-63" rx="100" ry="100" stroke="#E8E4DC" stroke-width="8"/>
<circle cx="714" cy="242.75" r="100" stroke="#E8E4DC" stroke-width="8"/>
<ellipse cx="812" cy="342.75" rx="100" ry="100" stroke="#E8E4DC" stroke-width="8"/>
<ellipse cx="1014.5" cy="-63" rx="100" ry="100" stroke="#E8E4DC" stroke-width="8"/>
<circle cx="916.5" cy="242.75" r="100" stroke="#E8E4DC" stroke-width="8"/>
<ellipse cx="1014.5" cy="342.75" rx="100" ry="100" stroke="#E8E4DC" stroke-width="8"/>
<ellipse cx="1217" cy="-63" rx="100" ry="100" stroke="#E8E4DC" stroke-width="8"/>
<circle cx="1119" cy="242.75" r="100" stroke="#E8E4DC" stroke-width="8"/>
<ellipse cx="1217" cy="342.75" rx="100" ry="100" stroke="#E8E4DC" stroke-width="8"/>
<ellipse cx="2.00001" cy="-63" rx="100" ry="100" stroke="#E8E4DC" stroke-width="8"/>
<circle cx="-96" cy="242.75" r="100" stroke="#E8E4DC" stroke-width="8"/>
<ellipse cx="2.00001" cy="342.75" rx="100" ry="100" stroke="#E8E4DC" stroke-width="8"/>
<circle cx="106.5" cy="647.75" r="100" stroke="#E8E4DC" stroke-width="8"/>
<ellipse cx="204.5" cy="747.75" rx="100" ry="100" stroke="#E8E4DC" stroke-width="8"/>
<circle cx="309" cy="647.75" r="100" stroke="#E8E4DC" stroke-width="8"/>
<ellipse cx="407" cy="747.75" rx="100" ry="100" stroke="#E8E4DC" stroke-width="8"/>
<circle cx="511.5" cy="647.75" r="100" stroke="#E8E4DC" stroke-width="8"/>
<ellipse cx="609.5" cy="747.75" rx="100" ry="100" stroke="#E8E4DC" stroke-width="8"/>
<circle cx="714" cy="647.75" r="100" stroke="#E8E4DC" stroke-width="8"/>
<ellipse cx="812" cy="747.75" rx="100" ry="100" stroke="#E8E4DC" stroke-width="8"/>
<circle cx="916.5" cy="647.75" r="100" stroke="#E8E4DC" stroke-width="8"/>
<ellipse cx="1014.5" cy="747.75" rx="100" ry="100" stroke="#E8E4DC" stroke-width="8"/>
<circle cx="1119" cy="647.75" r="100" stroke="#E8E4DC" stroke-width="8"/>
<ellipse cx="1217" cy="747.75" rx="100" ry="100" stroke="#E8E4DC" stroke-width="8"/>
<circle cx="-96" cy="647.75" r="100" stroke="#E8E4DC" stroke-width="8"/>
<ellipse cx="2.00001" cy="747.75" rx="100" ry="100" stroke="#E8E4DC" stroke-width="8"/>
</g>
<defs>
<clipPath id="clip0_1297_11999">
<rect width="1200" height="675" rx="32" fill="white"/>
</clipPath>
</defs>
</svg>
