<svg version="1.1" id="Layer_1" xmlns="http://www.w3.org/2000/svg" xmlns:xlink="http://www.w3.org/1999/xlink" x="0px" y="0px"
	 width="100%" viewBox="0 0 512 512" enable-background="new 0 0 512 512" xml:space="preserve">
<path fill="#FFFFFF" opacity="1.000000" stroke="none" 
	d="
M292.000000,513.000000 
	C194.690292,513.000000 97.880577,513.000000 1.035435,513.000000 
	C1.035435,342.398590 1.035435,171.797195 1.035435,1.097890 
	C171.559723,1.097890 342.119537,1.097890 512.839661,1.097890 
	C512.839661,171.666550 512.839661,342.333252 512.839661,513.000000 
	C439.463837,513.000000 365.981903,513.000000 292.000000,513.000000 
M194.500000,17.000000 
	C165.500732,17.000000 136.501328,16.956944 107.502327,17.045786 
	C103.082993,17.059326 98.551208,17.165436 94.265968,18.110661 
	C68.735443,23.742107 47.937695,36.840134 33.162136,58.603874 
	C22.124472,74.861847 16.801773,92.825058 16.878460,112.747841 
	C17.176756,190.245071 16.983356,267.744141 17.050831,345.242493 
	C17.054089,348.982727 17.426767,352.806976 18.257143,356.448486 
	C23.539738,379.614807 35.022411,399.023407 54.071072,413.508331 
	C70.106667,425.702087 88.058563,432.952728 108.492256,432.988617 
	C134.991623,433.035187 161.491364,433.052429 187.990265,432.932098 
	C191.221680,432.917419 193.589584,433.705627 195.742676,436.174622 
	C205.900085,447.822540 216.234772,459.315704 226.410446,470.947876 
	C232.016891,477.356903 237.679977,483.741760 242.876572,490.477692 
	C249.829926,499.490723 263.993988,499.387573 271.522034,490.156860 
	C280.653717,478.959900 290.527649,468.370361 300.002655,457.450562 
	C305.474518,451.144287 310.807800,444.717316 316.175232,438.320984 
	C319.275696,434.626221 322.735138,432.771484 328.017853,432.841675 
	C354.179382,433.189148 380.348175,433.047333 406.513977,432.953918 
	C410.933472,432.938171 415.465515,432.835144 419.750275,431.888458 
	C445.277771,426.248535 466.076569,413.151611 480.847443,391.382843 
	C491.880951,375.122070 497.200653,357.158325 497.121948,337.235748 
	C496.820435,260.905182 496.966400,184.572708 497.032928,108.241028 
	C497.044067,95.455872 493.800842,83.490845 488.498962,72.053375 
	C480.013641,53.748466 466.917816,39.329983 449.498962,29.332722 
	C436.012390,21.592348 421.402832,16.933676 405.495544,16.956551 
	C335.497162,17.057213 265.498535,17.000000 194.500000,17.000000 
z"/>
<path fill="#FF0004" opacity="1.000000" stroke="none" 
	d="
M195.000000,17.000000 
	C265.498535,17.000000 335.497162,17.057213 405.495544,16.956551 
	C421.402832,16.933676 436.012390,21.592348 449.498962,29.332722 
	C466.917816,39.329983 480.013641,53.748466 488.498962,72.053375 
	C493.800842,83.490845 497.044067,95.455872 497.032928,108.241028 
	C496.966400,184.572708 496.820435,260.905182 497.121948,337.235748 
	C497.200653,357.158325 491.880951,375.122070 480.847443,391.382843 
	C466.076569,413.151611 445.277771,426.248535 419.750275,431.888458 
	C415.465515,432.835144 410.933472,432.938171 406.513977,432.953918 
	C380.348175,433.047333 354.179382,433.189148 328.017853,432.841675 
	C322.735138,432.771484 319.275696,434.626221 316.175232,438.320984 
	C310.807800,444.717316 305.474518,451.144287 300.002655,457.450562 
	C290.527649,468.370361 280.653717,478.959900 271.522034,490.156860 
	C263.993988,499.387573 249.829926,499.490723 242.876572,490.477692 
	C237.679977,483.741760 232.016891,477.356903 226.410446,470.947876 
	C216.234772,459.315704 205.900085,447.822540 195.742676,436.174622 
	C193.589584,433.705627 191.221680,432.917419 187.990265,432.932098 
	C161.491364,433.052429 134.991623,433.035187 108.492256,432.988617 
	C88.058563,432.952728 70.106667,425.702087 54.071072,413.508331 
	C35.022411,399.023407 23.539738,379.614807 18.257143,356.448486 
	C17.426767,352.806976 17.054089,348.982727 17.050831,345.242493 
	C16.983356,267.744141 17.176756,190.245071 16.878460,112.747841 
	C16.801773,92.825058 22.124472,74.861847 33.162136,58.603874 
	C47.937695,36.840134 68.735443,23.742107 94.265968,18.110661 
	C98.551208,17.165436 103.082993,17.059326 107.502327,17.045786 
	C136.501328,16.956944 165.500732,17.000000 195.000000,17.000000 
M235.505951,153.995972 
	C235.002869,156.366196 234.495392,158.735489 233.997360,161.106781 
	C229.994873,180.164185 219.617630,194.118103 200.610718,199.825836 
	C186.728775,203.994568 172.400620,206.682220 158.261337,209.987106 
	C151.495621,211.568512 146.466232,216.957016 145.960800,222.783432 
	C145.105835,232.638992 150.125275,237.802795 156.423950,239.587997 
	C168.218765,242.930939 180.240936,245.570053 192.281143,247.926559 
	C211.879578,251.762360 226.025360,262.130035 231.837860,281.547760 
	C235.994431,295.433502 238.686264,309.759094 241.988754,323.898468 
	C243.547577,330.572449 249.045883,335.545685 254.942795,336.045502 
	C264.865967,336.886536 269.978027,331.498688 271.657898,325.431580 
	C274.929779,313.614838 277.561523,301.597717 279.933624,289.560211 
	C283.757202,270.157013 294.111877,256.081085 313.218475,250.209869 
	C327.221191,245.907013 341.754120,243.326019 356.057434,240.006577 
	C362.585449,238.491562 367.564728,232.793549 368.051788,226.897934 
	C368.877411,216.903229 363.141602,211.844452 357.286255,210.276306 
	C345.283875,207.061951 333.072235,204.608902 320.909149,202.019180 
	C301.851562,197.961502 287.906830,187.610764 282.178894,168.629837 
	C277.991730,154.754578 275.318176,140.421082 272.013123,126.281746 
	C270.426239,119.492882 265.065308,114.468765 259.236938,113.961685 
	C249.399399,113.105812 244.282410,118.077698 242.422318,124.407547 
	C239.649506,133.843536 238.047882,143.623703 235.505951,153.995972 
z"/>
<path fill="#FFFFFF" opacity="1.000000" stroke="none" 
	d="
M235.726959,153.626709 
	C238.047882,143.623703 239.649506,133.843536 242.422318,124.407547 
	C244.282410,118.077698 249.399399,113.105812 259.236938,113.961685 
	C265.065308,114.468765 270.426239,119.492882 272.013123,126.281746 
	C275.318176,140.421082 277.991730,154.754578 282.178894,168.629837 
	C287.906830,187.610764 301.851562,197.961502 320.909149,202.019180 
	C333.072235,204.608902 345.283875,207.061951 357.286255,210.276306 
	C363.141602,211.844452 368.877411,216.903229 368.051788,226.897934 
	C367.564728,232.793549 362.585449,238.491562 356.057434,240.006577 
	C341.754120,243.326019 327.221191,245.907013 313.218475,250.209869 
	C294.111877,256.081085 283.757202,270.157013 279.933624,289.560211 
	C277.561523,301.597717 274.929779,313.614838 271.657898,325.431580 
	C269.978027,331.498688 264.865967,336.886536 254.942795,336.045502 
	C249.045883,335.545685 243.547577,330.572449 241.988754,323.898468 
	C238.686264,309.759094 235.994431,295.433502 231.837860,281.547760 
	C226.025360,262.130035 211.879578,251.762360 192.281143,247.926559 
	C180.240936,245.570053 168.218765,242.930939 156.423950,239.587997 
	C150.125275,237.802795 145.105835,232.638992 145.960800,222.783432 
	C146.466232,216.957016 151.495621,211.568512 158.261337,209.987106 
	C172.400620,206.682220 186.728775,203.994568 200.610718,199.825836 
	C219.617630,194.118103 229.994873,180.164185 233.997360,161.106781 
	C234.495392,158.735489 235.002869,156.366196 235.726959,153.626709 
z"/>
</svg>