<svg width="292" height="292" viewBox="0 0 292 292" fill="none" xmlns="http://www.w3.org/2000/svg">
<path fill-rule="evenodd" clip-rule="evenodd" d="M251.402 247.027C276.548 220.799 292 185.204 292 146C292 65.3664 226.634 0 146 0C65.3664 0 0 65.3664 0 146C0 182.287 13.2383 215.483 35.1487 241.02C40.6475 224.768 49.8565 209.876 62.3435 197.389C74.6675 185.066 89.3364 175.942 105.341 170.42C88.1991 158.614 76.9376 138.855 76.9376 116.513C76.9376 80.4438 106.283 51.0986 142.352 51.0986C178.422 51.0986 207.767 80.4438 207.767 116.513C207.767 138.855 196.506 158.614 179.364 170.42C195.369 175.942 210.038 185.066 222.362 197.389C236.372 211.4 246.256 228.437 251.402 247.027ZM236.359 260.687C228.434 215.984 189.295 181.928 142.352 181.928C97.2456 181.928 59.3447 213.372 49.4181 255.492C75.1566 278.213 108.968 292 146 292C180.118 292 211.502 280.297 236.359 260.687ZM142.352 164.248C116.031 164.248 94.6171 142.835 94.6171 116.513C94.6171 90.1918 116.031 68.7781 142.352 68.7781C168.673 68.7781 190.087 90.1918 190.087 116.513C190.087 142.835 168.673 164.248 142.352 164.248Z" fill="#9A9896"/>
</svg>
