<svg width="21" height="21" viewBox="0 0 21 21" fill="none" xmlns="http://www.w3.org/2000/svg">
<path d="M15.6627 7.02473C16.3496 7.02473 16.9065 6.46508 16.9065 5.77473C16.9065 5.08437 16.3496 4.52473 15.6627 4.52473C14.9758 4.52473 14.4189 5.08437 14.4189 5.77473C14.4189 6.46508 14.9758 7.02473 15.6627 7.02473ZM7.65268 7.37471C7.65268 3.7605 10.5739 0.824707 14.1701 0.824707C17.7493 0.824707 20.6875 3.64357 20.6875 7.27471C20.6875 8.7141 20.2242 10.0459 19.4394 11.1274C19.2923 11.0067 19.1391 10.8928 18.9802 10.7861C18.7212 10.6121 18.4502 10.4596 18.1699 10.3293C18.8129 9.48071 19.195 8.42193 19.195 7.27471C19.195 4.50586 16.959 2.32471 14.1701 2.32471C11.3981 2.32471 9.1452 4.58893 9.1452 7.37471C9.1452 7.63711 9.17923 7.91356 9.23266 8.21952C9.32998 8.77671 9.1654 9.36511 8.74908 9.78351L2.54434 16.0192C2.31107 16.2537 2.18004 16.5716 2.18004 16.9031V19.0747C2.18004 19.2128 2.29141 19.3247 2.4288 19.3247H4.91636C5.05374 19.3247 5.16512 19.2128 5.16512 19.0747V17.5747C5.16512 16.8843 5.72197 16.3247 6.4089 16.3247H8.15019V14.5747C8.15019 13.9244 8.64433 13.3901 9.27585 13.3303L10.3478 14.4075C10.2013 14.5252 10.0743 14.6661 9.97207 14.8247H9.64271V16.5747C9.64271 17.2651 9.0859 17.8247 8.39895 17.8247H6.65766V19.0747C6.65766 20.0412 5.87805 20.8247 4.91636 20.8247H2.4288C1.4671 20.8247 0.6875 20.0412 0.6875 19.0747V16.9031C0.6875 16.1738 0.975789 15.4743 1.48894 14.9586L7.69372 8.72282C7.74792 8.66835 7.78031 8.5802 7.76259 8.47873C7.7026 8.13508 7.65268 7.76192 7.65268 7.37471ZM12.4597 10.0552C12.7512 9.76231 12.7512 9.28751 12.4597 8.99461C12.1683 8.70169 11.6958 8.70169 11.4044 8.99461L9.41435 10.9946C9.12291 11.2875 9.12291 11.7623 9.41435 12.0552L11.4044 14.0552C11.6958 14.3481 12.1683 14.3481 12.4597 14.0552C12.7512 13.7623 12.7512 13.2875 12.4597 12.9946L11.7437 12.2749H15.6634C16.3522 12.2749 17.0255 12.4802 17.5982 12.8648C18.171 13.2493 18.6173 13.796 18.8809 14.4355C19.1445 15.075 19.2135 15.7788 19.079 16.4577C18.9447 17.1366 18.6131 17.7603 18.126 18.2498C17.6389 18.7393 17.0183 19.0726 16.3428 19.2076C15.6673 19.3427 14.967 19.2734 14.3307 19.0085C13.6944 18.7436 13.1504 18.295 12.7678 17.7194C12.3851 17.1438 12.1808 16.4671 12.1808 15.7749C12.1808 15.3607 11.8467 15.0249 11.4346 15.0249C11.0224 15.0249 10.6883 15.3607 10.6883 15.7749C10.6883 16.7638 10.98 17.7305 11.5268 18.5528C12.0735 19.375 12.8505 20.0159 13.7595 20.3943C14.6686 20.7727 15.6689 20.8718 16.6341 20.6788C17.5991 20.4859 18.4856 20.0097 19.1813 19.3104C19.8771 18.6112 20.351 17.7203 20.5429 16.7504C20.735 15.7804 20.6364 14.7751 20.2598 13.8615C19.8833 12.9479 19.2456 12.167 18.4275 11.6176C17.6093 11.0681 16.6474 10.7749 15.6634 10.7749H11.7437L12.4597 10.0552Z" fill="white"/>
</svg>
