<svg width="20" height="21" viewBox="0 0 20 21" fill="none" xmlns="http://www.w3.org/2000/svg">
<path fill-rule="evenodd" clip-rule="evenodd" d="M8.84548 2.565C5.3551 2.565 2.52722 5.43429 2.52722 8.97804C2.52722 12.5187 5.3551 15.3911 8.84548 15.3911C12.3349 15.3911 15.1627 12.5187 15.1627 8.97804C15.1627 5.43429 12.3349 2.565 8.84548 2.565ZM20 18.4865L18.2133 20.3L14.1474 16.1731C12.6695 17.2978 10.8409 17.9703 8.85336 17.9703C3.96303 17.9703 0 13.9478 0 8.98515C0 4.02146 3.96303 0 8.85336 0C13.7417 0 17.7057 4.02146 17.7057 8.98515C17.7057 11.0035 17.0412 12.8606 15.935 14.3606L20 18.4865Z" fill="#8193AB"/>
</svg>
