<svg width="215" height="44" viewBox="0 0 215 44" fill="none" xmlns="http://www.w3.org/2000/svg">
<g clip-path="url(#clip0_1294_11430)">
<path d="M86.046 29.4479C85.022 29.4479 84.006 29.3519 82.998 29.1599C81.99 28.9679 81.166 28.7119 80.526 28.3919V25.1759C81.374 25.5919 82.254 25.9039 83.166 26.1119C84.078 26.3199 84.95 26.4239 85.782 26.4239C86.71 26.4239 87.414 26.2639 87.894 25.9439C88.374 25.6239 88.614 25.1759 88.614 24.5999C88.614 24.1839 88.494 23.8319 88.254 23.5439C88.014 23.2559 87.662 22.9999 87.198 22.7759C86.75 22.5359 86.054 22.2239 85.11 21.8399C83.542 21.1999 82.406 20.4879 81.702 19.7039C80.998 18.9039 80.646 17.9199 80.646 16.7519C80.646 15.8079 80.902 14.9759 81.414 14.2559C81.926 13.5199 82.646 12.9519 83.574 12.5519C84.502 12.1519 85.574 11.9519 86.79 11.9519C87.782 11.9519 88.662 12.0319 89.43 12.1919C90.198 12.3519 90.95 12.5999 91.686 12.9359V16.0559C90.278 15.3519 88.87 14.9999 87.462 14.9999C86.566 14.9999 85.862 15.1599 85.35 15.4799C84.838 15.7839 84.582 16.2239 84.582 16.7999C84.582 17.2159 84.702 17.5599 84.942 17.8319C85.182 18.1039 85.518 18.3439 85.95 18.5519C86.382 18.7599 87.086 19.0639 88.062 19.4639C89.198 19.9439 90.086 20.4079 90.726 20.8559C91.366 21.2879 91.838 21.8079 92.142 22.4159C92.446 23.0079 92.598 23.7439 92.598 24.6239C92.598 26.1439 92.046 27.3279 90.942 28.1759C89.854 29.0239 88.222 29.4479 86.046 29.4479ZM98.2852 15.3599H93.3892V12.3119H106.829V15.3599H101.933V29.0879H98.2852V15.3599ZM108.673 12.3119H120.313V15.3599H112.321V19.2479H118.201V22.1759H112.321V26.0399H120.313V29.0879H108.673V12.3119ZM122.32 12.3119H125.968V26.0399H133.648V29.0879H122.32V12.3119ZM135.45 12.3119H139.098V19.6079L145.434 12.3119H149.778L142.674 20.4959L150.258 29.0879H145.914L139.098 21.3839V29.0879H135.45V12.3119Z" fill="#E4262C"/>
<path d="M159.982 29.4479C158.942 29.4479 158.038 29.2879 157.27 28.9679C156.518 28.6319 155.822 28.1119 155.182 27.4079V29.0879H152.83V11.3519H155.254V19.1039C155.782 18.4799 156.462 18.0079 157.294 17.6879C158.126 17.3679 159.022 17.2079 159.982 17.2079C161.134 17.2079 162.166 17.4719 163.078 17.9999C164.006 18.5119 164.726 19.2319 165.238 20.1599C165.766 21.0879 166.03 22.1519 166.03 23.3519C166.03 24.5679 165.766 25.6399 165.238 26.5679C164.726 27.4799 164.006 28.1919 163.078 28.7039C162.166 29.1999 161.134 29.4479 159.982 29.4479ZM159.43 27.5279C160.214 27.5279 160.918 27.3599 161.542 27.0239C162.182 26.6719 162.678 26.1759 163.03 25.5359C163.398 24.8959 163.582 24.1679 163.582 23.3519C163.582 22.5359 163.398 21.8079 163.03 21.1679C162.678 20.5279 162.182 20.0319 161.542 19.6799C160.918 19.3279 160.214 19.1519 159.43 19.1519C158.454 19.1519 157.582 19.4159 156.814 19.9439C156.046 20.4719 155.526 21.1759 155.254 22.0559V24.6479C155.558 25.5279 156.078 26.2319 156.814 26.7599C157.566 27.2719 158.438 27.5279 159.43 27.5279ZM173.177 29.4479C171.881 29.4479 170.737 29.2079 169.745 28.7279C168.769 28.2319 168.001 27.5279 167.441 26.6159C166.897 25.6879 166.625 24.5999 166.625 23.3519C166.625 22.1199 166.897 21.0399 167.441 20.1119C167.985 19.1839 168.753 18.4719 169.745 17.9759C170.737 17.4639 171.881 17.2079 173.177 17.2079C174.473 17.2079 175.617 17.4639 176.609 17.9759C177.601 18.4719 178.369 19.1839 178.913 20.1119C179.473 21.0399 179.753 22.1199 179.753 23.3519C179.753 24.5999 179.473 25.6879 178.913 26.6159C178.369 27.5279 177.601 28.2319 176.609 28.7279C175.617 29.2079 174.473 29.4479 173.177 29.4479ZM173.177 27.5279C174.425 27.5279 175.417 27.1439 176.153 26.3759C176.889 25.6079 177.257 24.5999 177.257 23.3519C177.257 22.0559 176.889 21.0319 176.153 20.2799C175.417 19.5279 174.425 19.1519 173.177 19.1519C171.929 19.1519 170.937 19.5279 170.201 20.2799C169.465 21.0319 169.097 22.0559 169.097 23.3519C169.097 24.5999 169.465 25.6079 170.201 26.3759C170.937 27.1439 171.929 27.5279 173.177 27.5279ZM186.889 29.4479C185.593 29.4479 184.449 29.2079 183.457 28.7279C182.481 28.2319 181.713 27.5279 181.153 26.6159C180.609 25.6879 180.337 24.5999 180.337 23.3519C180.337 22.1199 180.609 21.0399 181.153 20.1119C181.697 19.1839 182.465 18.4719 183.457 17.9759C184.449 17.4639 185.593 17.2079 186.889 17.2079C188.185 17.2079 189.329 17.4639 190.321 17.9759C191.313 18.4719 192.081 19.1839 192.625 20.1119C193.185 21.0399 193.465 22.1199 193.465 23.3519C193.465 24.5999 193.185 25.6879 192.625 26.6159C192.081 27.5279 191.313 28.2319 190.321 28.7279C189.329 29.2079 188.185 29.4479 186.889 29.4479ZM186.889 27.5279C188.137 27.5279 189.129 27.1439 189.865 26.3759C190.601 25.6079 190.969 24.5999 190.969 23.3519C190.969 22.0559 190.601 21.0319 189.865 20.2799C189.129 19.5279 188.137 19.1519 186.889 19.1519C185.641 19.1519 184.649 19.5279 183.913 20.2799C183.177 21.0319 182.809 22.0559 182.809 23.3519C182.809 24.5999 183.177 25.6079 183.913 26.3759C184.649 27.1439 185.641 27.5279 186.889 27.5279ZM195.138 11.3519H197.562V29.0879H195.138V11.3519ZM197.586 23.2559L202.89 17.5679H205.842L200.514 23.2559L206.394 29.0879H203.442L197.586 23.2559Z" fill="black"/>
<path d="M53.3748 1C53.3748 10.3132 53.3748 19.6264 53.3748 29.2219C52.9659 29.2412 52.557 29.2605 52.1358 29.2803C50.5231 29.391 48.9307 29.614 47.3569 29.982C47.3391 29.9861 47.3214 29.9903 47.3031 29.9945C45.5801 30.3979 43.8929 30.967 42.2829 31.6971C42.2424 31.7153 42.2019 31.7335 42.1614 31.7517C41.5139 32.0439 40.8736 32.3533 40.2558 32.7035C40.175 32.7492 40.0939 32.7941 40.0123 32.8384C39.6883 33.0145 39.3715 33.1997 39.0576 33.3928C39.0395 33.4039 39.0215 33.415 39.0028 33.4264C38.4997 33.7365 38.0055 34.0647 37.5236 34.4063C37.5093 34.4164 37.4949 34.4265 37.48 34.437C37.2504 34.5988 37.0257 34.7667 36.8022 34.9369C36.7631 34.9666 36.724 34.9962 36.6847 35.0257C36.5276 35.1444 36.3745 35.2676 36.2215 35.3914C36.1752 35.4288 36.1285 35.4657 36.0818 35.5026C35.8959 35.6498 35.7136 35.8009 35.5334 35.9549C35.4987 35.9844 35.4638 36.0137 35.4289 36.043C35.298 36.153 35.17 36.2654 35.0451 36.3821C34.9885 36.4348 34.9313 36.4864 34.8727 36.5369C34.5555 36.8115 34.2609 37.1105 33.9634 37.4058C33.897 37.4718 33.8305 37.5377 33.7639 37.6035C33.712 37.6548 33.6602 37.7062 33.6084 37.7576C33.5839 37.7819 33.5594 37.8062 33.5349 37.8304C33.3652 37.998 33.3652 37.998 33.2052 38.1746C33.1522 38.236 33.0956 38.2942 33.0397 38.353C32.946 38.4522 32.8534 38.5518 32.7644 38.6551C32.7469 38.6753 32.7295 38.6954 32.7121 38.7155C32.6715 38.7623 32.6311 38.8091 32.5907 38.8559C32.5507 38.9022 32.5106 38.9485 32.4704 38.9946C32.2492 39.2487 32.0344 39.5077 31.8264 39.7725C31.8011 39.8045 31.7758 39.8364 31.7503 39.8683C31.3769 40.3359 31.0226 40.8167 30.6827 41.3088C30.6744 41.3208 30.6661 41.3328 30.6576 41.3451C30.6359 41.3765 30.6143 41.408 30.5927 41.4395C30.5825 41.4533 30.5723 41.467 30.5617 41.4812C30.5552 41.4812 30.5487 41.4812 30.5421 41.4812C30.5407 40.619 30.5393 39.7568 30.538 38.8946C30.538 38.8778 30.538 38.8609 30.5379 38.8435C30.5352 37.0355 30.5328 35.2276 30.5312 33.4196C30.5312 33.3794 30.5312 33.3393 30.5311 33.2991C30.5304 32.456 30.5297 31.613 30.5291 30.7699C30.5287 30.3464 30.5284 29.9229 30.5281 29.4994C30.528 29.4355 30.528 29.3717 30.5279 29.3078C30.5271 28.3242 30.5261 27.3405 30.5245 26.3569C30.5245 26.3358 30.5244 26.3146 30.5244 26.2928C30.5238 25.9519 30.5233 25.611 30.5227 25.27C30.521 24.288 30.5194 23.3059 30.5188 22.3238C30.5187 22.3036 30.5187 22.2834 30.5187 22.2626C30.5184 21.8191 30.5182 21.3757 30.518 20.9323C30.518 20.7538 30.5179 20.5754 30.5178 20.397C30.5178 20.3774 30.5178 20.3579 30.5178 20.3378C30.5175 19.7088 30.5164 19.0797 30.5149 18.4507C30.5134 17.817 30.5126 17.1833 30.513 16.5495C30.5131 16.4619 30.5131 16.3743 30.5131 16.2867C30.5132 16.2609 30.5132 16.2609 30.5132 16.2346C30.5133 15.9629 30.5125 15.6912 30.5114 15.4194C30.5103 15.1521 30.5101 14.8848 30.5109 14.6174C30.5114 14.4608 30.5111 14.3042 30.5098 14.1475C30.5089 14.031 30.5094 13.9146 30.5103 13.7981C30.5105 13.7514 30.5103 13.7047 30.5095 13.658C30.5049 13.3439 30.5613 13.153 30.7649 12.9098C30.8187 12.8439 30.8662 12.7738 30.9145 12.7039C31.0968 12.4479 31.2847 12.1959 31.4789 11.9487C31.5094 11.9099 31.5397 11.8709 31.57 11.832C31.7137 11.6479 31.8597 11.4659 32.0086 11.2859C32.034 11.2552 32.0592 11.2245 32.0844 11.1937C32.1885 11.0669 32.2945 10.9419 32.4013 10.8175C32.4207 10.7949 32.4401 10.7723 32.4595 10.7497C32.5771 10.6125 32.6961 10.4771 32.8189 10.3444C32.8566 10.3034 32.8937 10.262 32.9303 10.2201C33.0142 10.1245 33.101 10.0315 33.1876 9.93837C33.2165 9.9072 33.2453 9.87592 33.2741 9.84461C33.3855 9.72365 33.4991 9.60564 33.6174 9.4912C33.6724 9.43755 33.7246 9.38257 33.775 9.32462C33.8473 9.24189 33.9239 9.16434 34.0021 9.08723C34.0152 9.07421 34.0283 9.06118 34.0417 9.04776C34.106 8.98414 34.1712 8.92261 34.24 8.86378C34.3191 8.79613 34.3924 8.72381 34.4655 8.64992C34.5502 8.56517 34.6347 8.48199 34.7267 8.405C34.792 8.34862 34.8547 8.28961 34.9178 8.23088C35.0179 8.138 35.1184 8.04619 35.2227 7.95802C35.2428 7.94097 35.2628 7.92391 35.2829 7.90685C35.3177 7.87728 35.3525 7.84771 35.3874 7.81819C35.4491 7.76588 35.5106 7.71333 35.5717 7.66026C35.7009 7.54806 35.8315 7.43905 35.9674 7.33482C36.0459 7.27448 36.122 7.21202 36.1974 7.14795C36.31 7.05246 36.4263 6.96222 36.5445 6.87355C36.5821 6.84524 36.6195 6.81671 36.6569 6.78815C36.865 6.62942 37.0756 6.47429 37.2876 6.32084C37.3025 6.31008 37.3173 6.29932 37.3326 6.28824C38.3666 5.53931 39.462 4.87153 40.5916 4.27436C40.6086 4.26534 40.6257 4.25632 40.6432 4.24703C41.2445 3.92977 41.8546 3.62711 42.4796 3.35832C42.4922 3.35288 42.5048 3.34745 42.5177 3.34185C43.4249 2.95029 44.3501 2.6064 45.2919 2.30585C45.3069 2.30104 45.322 2.29624 45.3375 2.29129C45.8681 2.12234 46.4037 1.97419 46.9439 1.83808C46.9694 1.83163 46.9694 1.83163 46.9955 1.82505C48.8031 1.3708 50.6661 1.10098 52.5291 1.01949C52.5542 1.01839 52.5794 1.01729 52.6052 1.01616C52.8621 1.00532 53.1176 1 53.3748 1Z" fill="#B72024"/>
<path d="M5.62402 1C5.96635 1 5.96635 1 6.11476 1.00579C6.1408 1.00676 6.1408 1.00676 6.16736 1.00775C6.22389 1.00993 6.28041 1.01225 6.33693 1.01462C6.35676 1.01545 6.37658 1.01628 6.39701 1.01713C7.7958 1.0771 9.1854 1.24638 10.5603 1.50675C10.5772 1.50995 10.5941 1.51315 10.6116 1.51644C11.5343 1.69183 12.4498 1.92088 13.3477 2.19482C13.3921 2.20835 13.4366 2.22176 13.4811 2.23515C14.4829 2.53681 15.4617 2.904 16.4209 3.31934C16.4473 3.33073 16.4737 3.34212 16.5 3.3535C16.8704 3.51371 17.2344 3.6863 17.5968 3.86334C17.6414 3.88512 17.686 3.90684 17.7306 3.92856C18.0759 4.09666 18.4165 4.26874 18.7495 4.45992C18.8182 4.49872 18.8878 4.53566 18.9576 4.57262C19.2062 4.70457 19.4466 4.84889 19.6868 4.99515C19.7695 5.04544 19.8528 5.09468 19.9363 5.14356C20.1703 5.2807 20.3972 5.42811 20.6239 5.57678C20.687 5.61822 20.7503 5.65952 20.8136 5.7008C21.0369 5.84699 21.2566 5.99692 21.4724 6.15393C21.5149 6.1847 21.5576 6.21513 21.6005 6.24546C21.8311 6.40892 22.0567 6.57847 22.2815 6.74962C22.3059 6.76815 22.3303 6.78668 22.3548 6.8052C22.4157 6.85144 22.4765 6.89793 22.5371 6.94452C22.5536 6.95712 22.5536 6.95712 22.5703 6.96997C22.719 7.08413 22.8645 7.20126 23.0075 7.3223C23.0632 7.36931 23.1196 7.4153 23.1763 7.46102C23.3519 7.60288 23.5246 7.74766 23.6923 7.89863C23.733 7.93512 23.7741 7.97105 23.8155 8.00674C23.8913 8.0722 23.966 8.13876 24.0406 8.20553C24.0726 8.23408 24.1046 8.26256 24.1367 8.29095C24.3558 8.48508 24.5694 8.684 24.7762 8.89101C24.8484 8.96306 24.922 9.03185 25.0002 9.09759C25.092 9.17687 25.1754 9.26387 25.2547 9.3553C25.3345 9.44614 25.4202 9.53031 25.5068 9.61469C25.6042 9.70958 25.6988 9.80506 25.7878 9.90773C25.8462 9.97424 25.9077 10.0379 25.9689 10.1019C26.0664 10.2039 26.1615 10.3074 26.2541 10.4138C26.2685 10.4303 26.2685 10.4303 26.2832 10.4472C26.3108 10.4791 26.3384 10.511 26.3659 10.5429C26.3866 10.5668 26.4072 10.5907 26.4278 10.6146C26.4382 10.6266 26.4485 10.6386 26.4592 10.6509C26.4887 10.6851 26.5184 10.7192 26.5481 10.7533C26.6903 10.9166 26.8294 11.0823 26.9671 11.2493C27.0005 11.2897 27.0339 11.33 27.0674 11.3703C27.1935 11.5225 27.3151 11.6773 27.4335 11.8354C27.4842 11.903 27.5357 11.9698 27.5876 12.0365C27.7193 12.2059 27.8464 12.3782 27.972 12.552C28.0051 12.5977 28.0384 12.6431 28.0718 12.6886C28.1907 12.8506 28.307 13.0135 28.4174 13.1814C28.4304 13.2007 28.4434 13.22 28.4567 13.2399C28.4616 13.2776 28.4616 13.2776 28.4616 13.3215C28.4617 13.3382 28.4618 13.355 28.4619 13.3722C28.4618 13.4 28.4618 13.4 28.4616 13.4282C28.4617 13.4479 28.4617 13.4676 28.4618 13.4879C28.4619 13.5546 28.4617 13.6214 28.4616 13.6881C28.4616 13.7364 28.4616 13.7846 28.4617 13.8328C28.4618 13.9384 28.4618 14.044 28.4616 14.1496C28.4614 14.3077 28.4615 14.4658 28.4615 14.6239C28.4617 14.8933 28.4616 15.1626 28.4614 15.432C28.4613 15.7052 28.4612 15.9783 28.4612 16.2514C28.4612 16.2772 28.4612 16.2772 28.4612 16.3036C28.4612 16.3914 28.4612 16.4793 28.4612 16.5671C28.4613 17.2035 28.4611 17.8399 28.4609 18.4762C28.4607 19.1066 28.4605 19.737 28.4605 20.3674C28.4605 20.3869 28.4605 20.4065 28.4605 20.4267C28.4605 20.6053 28.4604 20.784 28.4604 20.9627C28.4604 21.4069 28.4604 21.8511 28.4603 22.2954C28.4603 22.3156 28.4603 22.3358 28.4603 22.3567C28.4602 23.3412 28.46 24.3257 28.4597 25.3103C28.4596 25.652 28.4595 25.9938 28.4594 26.3355C28.4594 26.3673 28.4594 26.3673 28.4594 26.3997C28.4592 27.3847 28.459 28.3696 28.4589 29.3545C28.4589 29.4184 28.4589 29.4823 28.4589 29.5463C28.4588 29.9699 28.4588 30.3936 28.4587 30.8172C28.4586 31.6602 28.4585 32.5031 28.4584 33.3461C28.4584 33.3863 28.4584 33.4264 28.4584 33.4665C28.4581 35.2743 28.4578 37.082 28.4574 38.8897C28.4574 38.9151 28.4574 38.9151 28.4573 38.941C28.4572 39.7877 28.4569 40.6345 28.4567 41.4812C28.4103 41.4358 28.3678 41.3928 28.3314 41.3391C28.3231 41.327 28.3148 41.3149 28.3063 41.3024C28.2975 41.2895 28.2888 41.2765 28.2797 41.2632C28.2604 41.235 28.2411 41.2068 28.2217 41.1787C28.2118 41.1642 28.2019 41.1497 28.1917 41.1348C27.971 40.8148 27.7396 40.5017 27.4999 40.1954C27.4607 40.1453 27.4219 40.095 27.3832 40.0446C27.2785 39.9087 27.1702 39.776 27.061 39.6437C27.0136 39.5862 26.9668 39.5283 26.9203 39.4701C26.8516 39.3847 26.7806 39.3014 26.7091 39.2182C26.6511 39.1506 26.5943 39.0823 26.538 39.0133C26.4629 38.9217 26.3835 38.8348 26.3028 38.748C26.2543 38.6944 26.2086 38.6394 26.1631 38.5833C26.1 38.5057 26.0344 38.4342 25.9614 38.3656C25.9115 38.3155 25.8656 38.2627 25.819 38.2096C25.7602 38.1432 25.6993 38.0788 25.6383 38.0144C25.6255 38.0008 25.6126 37.9873 25.5994 37.9733C25.5136 37.883 25.4264 37.7945 25.3365 37.708C25.2986 37.6694 25.2631 37.6302 25.2277 37.5894C25.145 37.495 25.0565 37.407 24.9672 37.3188C24.9513 37.303 24.9354 37.2872 24.919 37.2709C24.8346 37.1874 24.7486 37.1074 24.6582 37.0303C24.5897 36.9705 24.5268 36.9052 24.4631 36.8405C24.3944 36.7714 24.323 36.707 24.2489 36.6436C24.1826 36.5859 24.1191 36.5252 24.0551 36.4649C23.9498 36.3663 23.8431 36.2727 23.7297 36.1832C23.6711 36.1354 23.6153 36.085 23.5598 36.0337C23.4702 35.9512 23.3778 35.8733 23.2825 35.7973C23.2178 35.7449 23.1547 35.6908 23.0915 35.6366C22.9785 35.5399 22.8627 35.4477 22.7448 35.357C22.6848 35.3108 22.6256 35.2638 22.5665 35.2165C22.4024 35.0853 22.2347 34.9594 22.0651 34.8351C22.0504 34.8243 22.0357 34.8134 22.0206 34.8023C20.7708 33.8846 19.4625 33.0661 18.0814 32.3564C18.0146 32.3221 17.9481 32.2875 17.8818 32.2523C17.4011 31.9974 16.9047 31.7759 16.4052 31.5599C16.3771 31.5478 16.3489 31.5356 16.3208 31.5234C15.0096 30.955 13.6539 30.5014 12.2713 30.1379C12.2543 30.1334 12.2374 30.129 12.2199 30.1244C10.0522 29.5548 7.85926 29.3274 5.62402 29.2219C5.62402 19.9087 5.62402 10.5954 5.62402 1Z" fill="#E4262C"/>
<path d="M55.5193 13.2598C56.668 13.2598 57.8167 13.2598 59.0002 13.2598C59.0002 22.573 59.0002 31.8862 59.0002 41.4816C50.4076 41.4816 41.8149 41.4816 32.9619 41.4816C33.0181 41.3982 33.075 41.3188 33.1377 41.2404C33.147 41.2288 33.1563 41.2171 33.1659 41.2051C33.3249 41.0062 33.4864 40.8092 33.6525 40.616C33.7089 40.5504 33.764 40.484 33.8186 40.417C33.8949 40.3242 33.975 40.2356 34.0567 40.1475C34.0952 40.1058 34.1329 40.0638 34.1702 40.0211C34.2367 39.9452 34.3053 39.8711 34.3741 39.7971C34.4329 39.7338 34.491 39.67 34.5487 39.6057C34.6132 39.5344 34.6797 39.4661 34.7493 39.3997C34.7853 39.3629 34.8188 39.3254 34.8524 39.2866C34.9273 39.2015 35.0064 39.1213 35.087 39.0416C35.1091 39.0197 35.1091 39.0197 35.1316 38.9974C35.1625 38.9668 35.1934 38.9361 35.2244 38.9056C35.2714 38.8591 35.3182 38.8126 35.3651 38.766C35.3953 38.736 35.4255 38.7061 35.4558 38.6762C35.4696 38.6625 35.4834 38.6487 35.4976 38.6346C35.5762 38.5571 35.6566 38.4831 35.7407 38.4116C35.7835 38.3747 35.8232 38.3353 35.8627 38.295C35.9274 38.2301 35.9938 38.1692 36.0636 38.1099C36.1098 38.0697 36.1548 38.0285 36.1997 37.9869C36.306 37.8885 36.4144 37.7949 36.5278 37.7046C36.5831 37.6594 36.636 37.6122 36.6887 37.5641C36.7833 37.478 36.8811 37.397 36.9811 37.3171C37.0174 37.2878 37.0534 37.2582 37.0894 37.2285C37.2558 37.0913 37.4246 36.9584 37.5971 36.8289C37.6694 36.7746 37.7409 36.7195 37.8123 36.664C38.0084 36.5118 38.2075 36.3638 38.4095 36.2193C38.4235 36.2093 38.4375 36.1992 38.4519 36.1889C38.6932 36.0172 38.9405 35.8541 39.1876 35.6906C39.2036 35.6799 39.2197 35.6693 39.2363 35.6583C39.5313 35.4629 39.829 35.2711 40.134 35.0913C40.15 35.0818 40.166 35.0724 40.1825 35.0626C40.2339 35.0323 40.2853 35.0021 40.3368 34.9719C40.3547 34.9614 40.3725 34.9509 40.3909 34.9401C40.9154 34.6325 41.45 34.347 41.9932 34.0735C42.043 34.0483 42.0928 34.023 42.1425 33.9976C42.4597 33.837 42.7843 33.6922 43.1098 33.5491C43.1303 33.5401 43.1303 33.5401 43.1512 33.5309C44.8102 32.8019 46.5509 32.2512 51.511 31.4198C51.5282 31.4183 51.5454 31.4168 51.5631 31.4152C51.6952 31.4038 51.8274 31.3943 51.9597 31.3857C51.9723 31.3849 51.9849 31.384 51.9979 31.3832C52.5265 31.3485 53.054 31.3405 53.5837 31.3416C53.69 31.3419 53.7962 31.3417 53.9025 31.3415C54.3099 31.3408 54.7165 31.3436 55.1234 31.3653C55.1393 31.3661 55.1552 31.367 55.1716 31.3678C55.424 31.3816 55.424 31.3816 55.5193 31.4052C55.5193 25.4172 55.5193 19.4292 55.5193 13.2598Z" fill="#888988"/>
<path d="M0 13.2598C1.14872 13.2598 2.29743 13.2598 3.48096 13.2598C3.48096 19.2478 3.48096 25.2357 3.48096 31.4052C3.50692 31.3988 3.53287 31.3923 3.55962 31.3857C3.66549 31.376 3.77174 31.371 3.87789 31.3654C3.89417 31.3645 3.91045 31.3636 3.92721 31.3628C4.35386 31.3408 4.78055 31.3398 5.20767 31.3405C5.27285 31.3406 5.33802 31.3407 5.40319 31.3407C6.04257 31.3415 6.67857 31.3502 7.31591 31.4052C7.35754 31.4087 7.39917 31.4122 7.44081 31.4156C9.34714 31.5773 11.2315 31.9313 13.0585 32.4966C13.0762 32.5021 13.0938 32.5076 13.112 32.5132C14.4553 32.9297 15.7477 33.463 17.0114 34.0753C17.0313 34.085 17.0512 34.0946 17.0717 34.1045C17.3249 34.2275 17.5739 34.357 17.8204 34.4927C17.8782 34.5244 17.936 34.5559 17.9939 34.5874C18.2634 34.7349 18.5274 34.89 18.7897 35.0495C18.867 35.0964 18.9445 35.143 19.0226 35.1885C19.2835 35.3405 19.5344 35.506 19.7851 35.6737C19.846 35.7143 19.9072 35.7544 19.9684 35.7945C20.1392 35.9063 20.3062 36.0234 20.4727 36.1413C20.4868 36.1512 20.5009 36.1612 20.5154 36.1714C20.7452 36.3336 20.9704 36.5015 21.1942 36.6719C21.2333 36.7016 21.2724 36.7312 21.3116 36.7607C21.4685 36.8792 21.6216 37.0019 21.7742 37.1257C21.8058 37.1513 21.8374 37.1769 21.8691 37.2024C21.9969 37.3054 22.123 37.4104 22.2484 37.5163C22.2711 37.5354 22.2937 37.5544 22.3164 37.5735C22.4607 37.6947 22.6024 37.8181 22.7412 37.9454C22.783 37.9835 22.8253 38.0207 22.8684 38.0574C22.9839 38.1569 23.0945 38.2616 23.206 38.3654C23.2433 38.4 23.2808 38.4343 23.3184 38.4686C23.5125 38.6467 23.7002 38.831 23.8873 39.0161C23.9003 39.0289 23.9132 39.0417 23.9266 39.0549C24.1754 39.3007 24.1754 39.3007 24.2814 39.4244C24.3175 39.466 24.3565 39.5042 24.3962 39.5424C24.4616 39.6065 24.5231 39.6722 24.5829 39.7414C24.6235 39.7872 24.6651 39.8318 24.7071 39.8763C24.8059 39.9812 24.8998 40.0882 24.9906 40.2002C25.0396 40.2589 25.0912 40.3149 25.1435 40.3707C25.2435 40.4774 25.3367 40.5885 25.4287 40.702C25.4565 40.7358 25.4844 40.7695 25.5123 40.8031C25.5268 40.8207 25.5413 40.8383 25.5562 40.8564C25.5826 40.8885 25.609 40.9205 25.6355 40.9525C26.0383 41.4391 26.0383 41.4391 26.0383 41.4816C17.4457 41.4816 8.85303 41.4816 0 41.4816C0 32.1684 0 22.8552 0 13.2598Z" fill="#616262"/>
<path d="M35.8518 38.3047C35.8518 38.3779 35.8258 38.3958 35.7756 38.4459C35.7644 38.4568 35.7532 38.4677 35.7417 38.4789C35.7241 38.4963 35.7241 38.4963 35.7062 38.5141C35.6674 38.5525 35.6284 38.5907 35.5894 38.6289C35.5624 38.6555 35.5355 38.6821 35.5087 38.7087C35.4378 38.7787 35.3667 38.8485 35.2957 38.9183C35.2232 38.9895 35.1509 39.0609 35.0786 39.1323C34.9366 39.2724 34.7944 39.4123 34.6521 39.5521C34.6391 39.5456 34.6262 39.5392 34.6128 39.5326C34.624 39.5217 34.6352 39.5109 34.6467 39.4997C34.6619 39.4848 34.677 39.4699 34.6927 39.4546C34.7075 39.4401 34.7223 39.4257 34.7376 39.4108C34.7774 39.3699 34.8148 39.3288 34.852 39.2858C34.9267 39.201 35.0055 39.1211 35.0859 39.0416C35.1006 39.027 35.1154 39.0124 35.1305 38.9974C35.1614 38.9667 35.1923 38.9361 35.2233 38.9055C35.2703 38.8591 35.3171 38.8125 35.364 38.7659C35.3942 38.736 35.4244 38.7061 35.4547 38.6761C35.4685 38.6624 35.4823 38.6487 35.4965 38.6345C35.575 38.5571 35.6555 38.4831 35.7396 38.4116C35.7788 38.3777 35.8157 38.3419 35.8518 38.3047Z" fill="#4EBAE1"/>
<path d="M34.0618 9.03027C34.0618 9.10317 34.0434 9.11706 33.9954 9.17036C33.9831 9.1843 33.9708 9.19825 33.9581 9.21261C33.9241 9.24467 33.9241 9.24467 33.8848 9.24467C33.88 9.25579 33.8752 9.26691 33.8702 9.27837C33.8411 9.33037 33.8069 9.36526 33.7642 9.40698C33.7484 9.42256 33.7325 9.43814 33.7162 9.45419C33.6996 9.47027 33.6831 9.48635 33.666 9.50291C33.6493 9.51929 33.6326 9.53567 33.6154 9.55255C33.5742 9.59294 33.5329 9.63324 33.4915 9.67345C33.4785 9.66702 33.4655 9.66059 33.4521 9.65396C33.469 9.63748 33.4859 9.621 33.5032 9.60402C33.6089 9.50032 33.7133 9.39718 33.8094 9.28471C33.8893 9.19596 33.9763 9.11364 34.0618 9.03027Z" fill="#F9C487"/>
<path d="M34.4168 8.69824C34.4168 8.76629 34.4098 8.77114 34.3637 8.81716C34.3525 8.82832 34.3413 8.83947 34.3298 8.85097C34.318 8.86247 34.3061 8.87398 34.2939 8.88584C34.2766 8.90332 34.2766 8.90332 34.259 8.92116C34.2477 8.93227 34.2364 8.94337 34.2248 8.95481C34.2093 8.97002 34.2093 8.97002 34.1936 8.98554C34.157 9.01328 34.1275 9.02157 34.0825 9.02958C34.14 8.95128 34.206 8.89156 34.2797 8.82912C34.3279 8.78759 34.3724 8.74366 34.4168 8.69824Z" fill="#F8B86F"/>
<path d="M33.7471 9.3418C33.7666 9.34823 33.7861 9.35466 33.8061 9.36129C33.7023 9.4642 33.5985 9.5671 33.4915 9.67313C33.4785 9.6667 33.4655 9.66027 33.4521 9.65364C33.4701 9.63603 33.4881 9.61842 33.5067 9.60027C33.5303 9.57705 33.5539 9.55383 33.5775 9.53061C33.5894 9.51901 33.6013 9.50742 33.6135 9.49547C33.6249 9.48423 33.6363 9.47299 33.648 9.4614C33.6585 9.45109 33.6691 9.44079 33.6799 9.43016C33.712 9.39732 33.712 9.39732 33.7471 9.3418Z" fill="#F7B365"/>
<path d="M33.4326 9.67285C33.4326 9.74454 33.4174 9.75517 33.3699 9.80685C33.3574 9.82046 33.3449 9.83408 33.3321 9.84811C33.2878 9.89469 33.2429 9.94016 33.1966 9.9847C33.1836 9.97826 33.1706 9.97183 33.1572 9.96521C33.2481 9.86873 33.3389 9.77225 33.4326 9.67285Z" fill="#F8BC76"/>
<path d="M35.2229 7.95801C35.2229 8.01661 35.2229 8.01661 35.1841 8.0608C35.1676 8.07643 35.1511 8.09207 35.1342 8.10818C35.1177 8.12397 35.1012 8.13976 35.0843 8.15603C35.0651 8.17405 35.0651 8.17405 35.0455 8.19243C35.0259 8.18598 35.0064 8.17954 34.9863 8.17289C35.0644 8.10198 35.1424 8.03107 35.2229 7.95801Z" fill="#F8BD78"/>
<path d="M33.138 9.98535C33.1445 10.0047 33.151 10.024 33.1577 10.044C33.0992 10.102 33.0407 10.16 32.9803 10.2198C32.9673 10.2133 32.9543 10.2069 32.9409 10.2002C33.006 10.1293 33.071 10.0584 33.138 9.98535Z" fill="#F8BB75"/>
<path d="M32.6852 10.4912C32.6982 10.4977 32.7112 10.5041 32.7246 10.5107C32.6661 10.5752 32.6076 10.6397 32.5472 10.7061C32.5342 10.6997 32.5212 10.6932 32.5078 10.6866C32.5664 10.6221 32.6249 10.5576 32.6852 10.4912Z" fill="#F8B76C"/>
<path d="M35.7931 7.4707C35.8061 7.47715 35.8191 7.4836 35.8326 7.49024C35.7805 7.54181 35.7285 7.59338 35.6749 7.64652C35.6553 7.64007 35.6358 7.63363 35.6157 7.62698C35.6743 7.57541 35.7328 7.52384 35.7931 7.4707Z" fill="#F8C07E"/>
<path d="M37.3475 37.0176C37.3605 37.024 37.3735 37.0305 37.3869 37.0371C37.3413 37.0822 37.2958 37.1274 37.2489 37.1739C37.2359 37.161 37.2229 37.1481 37.2095 37.1348C37.255 37.0961 37.3005 37.0574 37.3475 37.0176Z" fill="#57BEE2"/>
</g>
<defs>
<clipPath id="clip0_1294_11430">
<rect width="215" height="44" fill="white"/>
</clipPath>
</defs>
</svg>
