<svg width="209" height="144" viewBox="0 0 209 144" fill="none" xmlns="http://www.w3.org/2000/svg">
<g clip-path="url(#clip0_1295_11447)">
<path d="M188.584 0C188.584 32.9057 188.584 65.8114 188.584 99.7142C187.14 99.7824 185.695 99.8505 184.207 99.9208C178.509 100.312 172.882 101.1 167.322 102.4C167.259 102.414 167.196 102.429 167.132 102.444C161.044 103.869 155.083 105.88 149.394 108.46C149.251 108.524 149.108 108.588 148.965 108.653C146.677 109.685 144.415 110.778 142.232 112.015C141.947 112.177 141.66 112.336 141.372 112.492C140.227 113.114 139.108 113.769 137.999 114.451C137.935 114.49 137.871 114.529 137.805 114.57C136.028 115.665 134.281 116.825 132.579 118.032C132.528 118.068 132.477 118.103 132.425 118.14C131.613 118.712 130.819 119.305 130.03 119.906C129.892 120.011 129.753 120.116 129.615 120.22C129.06 120.64 128.518 121.075 127.978 121.513C127.814 121.645 127.65 121.775 127.485 121.905C126.827 122.426 126.184 122.959 125.547 123.503C125.424 123.608 125.301 123.711 125.178 123.815C124.715 124.203 124.263 124.601 123.821 125.013C123.622 125.199 123.419 125.381 123.212 125.56C122.091 126.53 121.051 127.587 120 128.63C119.765 128.863 119.53 129.096 119.295 129.328C119.111 129.51 118.928 129.691 118.745 129.873C118.659 129.959 118.572 130.044 118.485 130.13C117.886 130.722 117.886 130.722 117.321 131.346C117.134 131.563 116.934 131.769 116.736 131.977C116.405 132.327 116.078 132.679 115.763 133.044C115.702 133.115 115.64 133.186 115.578 133.257C115.435 133.423 115.292 133.588 115.149 133.753C115.008 133.917 114.866 134.08 114.724 134.244C113.943 135.141 113.184 136.056 112.449 136.992C112.36 137.105 112.27 137.218 112.18 137.33C110.861 138.983 109.609 140.681 108.408 142.42C108.379 142.462 108.35 142.505 108.319 142.548C108.243 142.659 108.166 142.771 108.09 142.882C108.054 142.93 108.018 142.979 107.981 143.029C107.958 143.029 107.935 143.029 107.911 143.029C107.906 139.983 107.902 136.937 107.897 133.89C107.897 133.831 107.897 133.771 107.897 133.71C107.887 127.322 107.879 120.934 107.873 114.546C107.873 114.404 107.873 114.262 107.873 114.12C107.87 111.141 107.868 108.163 107.865 105.184C107.864 103.687 107.863 102.191 107.862 100.695C107.862 100.469 107.861 100.243 107.861 100.018C107.859 96.5424 107.855 93.067 107.849 89.5917C107.849 89.517 107.849 89.4423 107.849 89.3653C107.847 88.1607 107.845 86.9561 107.843 85.7515C107.837 82.2815 107.831 78.8116 107.829 75.3417C107.829 75.2703 107.829 75.1989 107.829 75.1254C107.828 73.5586 107.827 71.9919 107.826 70.4251C107.826 69.7947 107.826 69.1643 107.826 68.5338C107.826 68.4648 107.825 68.3958 107.825 68.3248C107.824 66.1023 107.821 63.8798 107.815 61.6573C107.81 59.4182 107.807 57.1791 107.809 54.9399C107.809 54.6304 107.809 54.3208 107.809 54.0113C107.809 53.9202 107.809 53.9202 107.809 53.8274C107.809 52.8673 107.807 51.9072 107.803 50.9471C107.799 50.0025 107.798 49.058 107.801 48.1134C107.803 47.5599 107.802 47.0066 107.797 46.4531C107.794 46.0416 107.796 45.6302 107.799 45.2186C107.8 45.0536 107.799 44.8886 107.796 44.7237C107.78 43.6139 107.979 42.9394 108.698 42.0799C108.889 41.8471 109.056 41.5994 109.227 41.3525C109.871 40.4482 110.535 39.5575 111.221 38.6841C111.329 38.547 111.436 38.4094 111.543 38.2719C112.051 37.6213 112.567 36.9783 113.093 36.3422C113.182 36.2339 113.272 36.1253 113.361 36.0166C113.728 35.5688 114.103 35.1269 114.481 34.6874C114.549 34.6076 114.618 34.5278 114.686 34.4479C115.101 33.9631 115.522 33.4848 115.956 33.016C116.089 32.8711 116.22 32.7248 116.349 32.5767C116.646 32.2389 116.952 31.9104 117.259 31.5813C117.361 31.4711 117.462 31.3606 117.564 31.25C117.958 30.8226 118.359 30.4056 118.777 30.0013C118.971 29.8118 119.156 29.6175 119.334 29.4127C119.589 29.1204 119.86 28.8464 120.136 28.574C120.183 28.528 120.229 28.4819 120.276 28.4345C120.504 28.2098 120.734 27.9924 120.977 27.7845C121.257 27.5455 121.515 27.29 121.774 27.0289C122.073 26.7294 122.371 26.4355 122.697 26.1635C122.927 25.9643 123.149 25.7558 123.372 25.5483C123.725 25.2201 124.08 24.8958 124.449 24.5842C124.52 24.524 124.591 24.4637 124.662 24.4035C124.785 24.299 124.908 24.1945 125.031 24.0902C125.249 23.9054 125.466 23.7197 125.682 23.5322C126.139 23.1358 126.6 22.7506 127.08 22.3824C127.357 22.1692 127.626 21.9484 127.893 21.7221C128.291 21.3847 128.702 21.0659 129.119 20.7526C129.252 20.6525 129.384 20.5517 129.516 20.4508C130.252 19.89 130.996 19.3419 131.745 18.7997C131.797 18.7617 131.85 18.7237 131.904 18.6845C135.557 16.0384 139.427 13.679 143.419 11.569C143.479 11.5372 143.539 11.5053 143.601 11.4725C145.725 10.3515 147.881 9.28217 150.089 8.33247C150.134 8.31326 150.178 8.29406 150.224 8.27427C153.429 6.89079 156.698 5.67578 160.026 4.61385C160.079 4.59688 160.132 4.57991 160.187 4.56242C162.062 3.96548 163.954 3.44204 165.862 2.96113C165.953 2.93833 165.953 2.93833 166.045 2.91508C172.432 1.31011 179.014 0.356802 185.596 0.0688634C185.685 0.0649797 185.774 0.0610961 185.865 0.0570947C186.773 0.0188002 187.676 0 188.584 0Z" fill="#B72024"/>
<path d="M19.873 0C21.0826 0 21.0826 0 21.6069 0.0204438C21.6989 0.0238855 21.6989 0.0238855 21.7928 0.0273968C21.9925 0.0350962 22.1922 0.0432743 22.3919 0.0516475C22.462 0.054579 22.532 0.0575105 22.6042 0.0605308C27.5464 0.272409 32.4562 0.870506 37.314 1.79045C37.3738 1.80175 37.4336 1.81306 37.4952 1.82471C40.7555 2.44439 43.9899 3.25367 47.1624 4.22155C47.3194 4.26937 47.4766 4.31677 47.6338 4.36405C51.1734 5.4299 54.6317 6.72725 58.0208 8.19474C58.114 8.23498 58.2072 8.27522 58.3004 8.31546C59.609 8.8815 60.895 9.49129 62.1754 10.1168C62.333 10.1938 62.4907 10.2705 62.6484 10.3473C63.8681 10.9412 65.0718 11.5492 66.2482 12.2247C66.4909 12.3618 66.7371 12.4923 66.9834 12.6229C67.862 13.0891 68.7111 13.599 69.5599 14.1158C69.8521 14.2935 70.1463 14.4674 70.4415 14.6401C71.2682 15.1247 72.0701 15.6455 72.8708 16.1708C73.094 16.3172 73.3175 16.4631 73.5411 16.609C74.3303 17.1255 75.1066 17.6553 75.8689 18.21C76.0191 18.3187 76.17 18.4262 76.3213 18.5334C77.1361 19.1109 77.9332 19.71 78.7276 20.3147C78.8139 20.3802 78.9002 20.4456 78.9865 20.5111C79.2018 20.6745 79.4165 20.8387 79.6309 21.0033C79.6889 21.0478 79.6889 21.0478 79.7482 21.0932C80.2735 21.4966 80.7874 21.9105 81.2928 22.3381C81.4894 22.5042 81.6888 22.6667 81.8892 22.8282C82.5097 23.3295 83.1197 23.841 83.7124 24.3744C83.8561 24.5033 84.0012 24.6303 84.1475 24.7564C84.4153 24.9877 84.6794 25.2228 84.943 25.4587C85.0559 25.5596 85.1689 25.6602 85.2823 25.7606C86.0566 26.4465 86.8112 27.1493 87.5419 27.8807C87.7971 28.1353 88.0572 28.3783 88.3334 28.6106C88.6579 28.8907 88.9524 29.1981 89.2327 29.5211C89.5144 29.8421 89.8173 30.1395 90.1232 30.4376C90.4673 30.7729 90.8016 31.1102 91.1161 31.473C91.3226 31.708 91.5399 31.933 91.7562 32.1592C92.1006 32.5195 92.4367 32.8851 92.7637 33.261C92.8146 33.3195 92.8146 33.3195 92.8665 33.3792C92.9642 33.4917 93.0616 33.6044 93.1589 33.7172C93.2317 33.8016 93.3046 33.886 93.3774 33.9704C93.414 34.0128 93.4506 34.0552 93.4883 34.0988C93.5928 34.2196 93.6976 34.3401 93.8025 34.4605C94.3048 35.0376 94.7962 35.6231 95.283 36.2132C95.4008 36.3558 95.5191 36.4981 95.6373 36.6404C96.083 37.1782 96.5125 37.7252 96.931 38.284C97.1099 38.5227 97.292 38.7588 97.4752 38.9943C97.9405 39.5928 98.3897 40.2016 98.8335 40.8158C98.9504 40.9771 99.0681 41.1378 99.186 41.2984C99.6061 41.871 100.017 42.4463 100.407 43.0396C100.453 43.1078 100.499 43.176 100.546 43.2462C100.563 43.3797 100.563 43.3797 100.563 43.5345C100.564 43.5937 100.564 43.6529 100.564 43.7139C100.564 43.8118 100.564 43.8118 100.563 43.9117C100.564 43.9812 100.564 44.0508 100.564 44.1225C100.564 44.3583 100.564 44.5941 100.563 44.83C100.563 45.0004 100.563 45.1708 100.564 45.3412C100.564 45.7143 100.564 46.0874 100.563 46.4606C100.563 47.0191 100.563 47.5777 100.563 48.1362C100.564 49.088 100.563 50.0398 100.563 50.9916C100.562 51.9566 100.562 52.9216 100.562 53.8866C100.562 53.9779 100.562 53.9779 100.562 54.0711C100.562 54.3814 100.562 54.6918 100.562 55.0021C100.562 57.2506 100.562 59.499 100.561 61.7475C100.56 63.9747 100.559 66.202 100.559 68.4293C100.559 68.4984 100.559 68.5675 100.559 68.6388C100.559 69.2701 100.559 69.9014 100.559 70.5327C100.559 72.1022 100.559 73.6717 100.559 75.2413C100.559 75.3127 100.559 75.3842 100.559 75.4579C100.558 78.9365 100.558 82.4151 100.557 85.8937C100.556 87.1011 100.556 88.3086 100.556 89.516C100.556 89.6283 100.556 89.6283 100.556 89.7429C100.555 93.2229 100.554 96.7028 100.554 100.183C100.554 100.409 100.554 100.634 100.554 100.86C100.554 102.357 100.553 103.854 100.553 105.351C100.553 108.329 100.552 111.308 100.552 114.286C100.552 114.428 100.552 114.57 100.552 114.712C100.551 121.099 100.55 127.486 100.548 133.873C100.548 133.962 100.548 133.962 100.548 134.054C100.548 137.046 100.547 140.038 100.546 143.029C100.382 142.869 100.232 142.717 100.103 142.527C100.074 142.484 100.045 142.441 100.014 142.397C99.9835 142.352 99.9526 142.306 99.9208 142.259C99.8525 142.159 99.7842 142.06 99.7158 141.96C99.6808 141.909 99.6457 141.858 99.6096 141.805C98.83 140.675 98.0124 139.568 97.1655 138.486C97.027 138.309 96.8898 138.131 96.7529 137.953C96.3832 137.473 96.0003 137.004 95.6148 136.537C95.4474 136.334 95.2819 136.129 95.1175 135.923C94.8749 135.622 94.6239 135.327 94.3715 135.034C94.1666 134.795 93.9656 134.553 93.7669 134.309C93.5014 133.986 93.221 133.679 92.9358 133.372C92.7646 133.183 92.6029 132.988 92.4423 132.79C92.2192 132.516 91.9873 132.263 91.7296 132.021C91.5534 131.844 91.3909 131.657 91.2265 131.47C91.0187 131.235 90.8037 131.008 90.5879 130.78C90.5426 130.732 90.4973 130.684 90.4506 130.635C90.1473 130.316 89.8392 130.003 89.5218 129.698C89.3876 129.561 89.2624 129.423 89.1371 129.278C88.8451 128.945 88.5324 128.634 88.2167 128.323C88.1606 128.267 88.1045 128.211 88.0467 128.153C87.7484 127.858 87.4445 127.575 87.125 127.303C86.8832 127.092 86.661 126.861 86.4359 126.633C86.1931 126.388 85.9406 126.161 85.6789 125.937C85.4445 125.733 85.2202 125.519 84.9943 125.306C84.6222 124.957 84.2451 124.626 83.8446 124.31C83.6374 124.141 83.4404 123.963 83.2441 123.782C82.9276 123.49 82.6012 123.215 82.2646 122.947C82.0358 122.761 81.8127 122.571 81.5895 122.379C81.1903 122.037 80.781 121.711 80.3646 121.391C80.1527 121.228 79.9435 121.062 79.7348 120.895C79.1548 120.431 78.5622 119.986 77.9632 119.547C77.9113 119.509 77.8593 119.47 77.8057 119.431C73.3899 116.189 68.7676 113.297 63.8877 110.789C63.6519 110.668 63.4168 110.546 63.1826 110.421C61.484 109.521 59.7301 108.738 57.9654 107.975C57.8659 107.932 57.7665 107.889 57.6672 107.846C53.0345 105.838 48.2445 104.235 43.3593 102.951C43.2994 102.935 43.2395 102.919 43.1778 102.903C35.5187 100.89 27.7706 100.087 19.873 99.7142C19.873 66.8085 19.873 33.9028 19.873 0Z" fill="#E4262C"/>
<path d="M196.159 43.3149C200.217 43.3149 204.276 43.3149 208.458 43.3149C208.458 76.2206 208.458 109.126 208.458 143.029C178.098 143.029 147.738 143.029 116.458 143.029C116.657 142.734 116.858 142.454 117.08 142.177C117.112 142.136 117.145 142.094 117.179 142.052C117.741 141.349 118.311 140.653 118.898 139.971C119.098 139.739 119.293 139.504 119.485 139.267C119.755 138.939 120.038 138.626 120.327 138.315C120.463 138.168 120.596 138.019 120.728 137.869C120.963 137.6 121.205 137.339 121.448 137.077C121.656 136.854 121.861 136.628 122.065 136.401C122.293 136.149 122.528 135.908 122.774 135.673C122.901 135.543 123.019 135.411 123.138 135.273C123.403 134.973 123.682 134.69 123.967 134.408C124.045 134.331 124.045 134.331 124.125 134.252C124.234 134.144 124.343 134.035 124.452 133.927C124.618 133.763 124.784 133.599 124.949 133.434C125.056 133.328 125.163 133.223 125.27 133.117C125.319 133.068 125.368 133.02 125.418 132.97C125.695 132.696 125.98 132.435 126.277 132.182C126.428 132.052 126.568 131.913 126.708 131.77C126.936 131.541 127.171 131.326 127.417 131.116C127.581 130.974 127.74 130.828 127.898 130.681C128.274 130.334 128.657 130.003 129.058 129.684C129.253 129.524 129.44 129.358 129.626 129.188C129.96 128.883 130.306 128.597 130.659 128.315C130.787 128.211 130.915 128.107 131.042 128.002C131.63 127.517 132.226 127.047 132.836 126.59C133.091 126.398 133.344 126.203 133.596 126.008C134.289 125.47 134.992 124.947 135.706 124.436C135.755 124.401 135.805 124.365 135.856 124.329C136.708 123.722 137.582 123.146 138.455 122.568C138.512 122.53 138.569 122.493 138.627 122.454C139.67 121.763 140.721 121.086 141.799 120.451C141.856 120.417 141.912 120.384 141.97 120.349C142.152 120.242 142.334 120.135 142.516 120.029C142.579 119.992 142.642 119.955 142.707 119.916C144.56 118.829 146.449 117.821 148.368 116.854C148.544 116.766 148.72 116.676 148.896 116.586C150.016 116.019 151.163 115.507 152.313 115.002C152.386 114.97 152.386 114.97 152.46 114.937C158.321 112.362 164.471 110.416 181.997 107.478C182.057 107.473 182.118 107.468 182.181 107.462C182.647 107.422 183.114 107.388 183.582 107.358C183.626 107.355 183.671 107.352 183.717 107.349C185.585 107.227 187.448 107.198 189.32 107.202C189.695 107.203 190.071 107.203 190.446 107.202C191.886 107.199 193.322 107.209 194.76 107.286C194.816 107.289 194.872 107.292 194.93 107.295C195.822 107.343 195.822 107.343 196.159 107.427C196.159 86.2699 196.159 65.113 196.159 43.3149Z" fill="#888988"/>
<path d="M0 43.3149C4.05867 43.3149 8.11734 43.3149 12.299 43.3149C12.299 64.4718 12.299 85.6287 12.299 107.427C12.3907 107.404 12.4824 107.381 12.5769 107.358C12.951 107.324 13.3264 107.306 13.7015 107.286C13.759 107.283 13.8165 107.28 13.8757 107.277C15.3832 107.199 16.8908 107.196 18.3999 107.198C18.6301 107.199 18.8604 107.199 19.0907 107.199C21.3498 107.202 23.5969 107.232 25.8487 107.427C25.9958 107.439 26.1429 107.451 26.29 107.464C33.0256 108.035 39.6836 109.286 46.1386 111.283C46.201 111.302 46.2635 111.322 46.3278 111.342C51.0737 112.813 55.6401 114.697 60.1053 116.861C60.1755 116.895 60.2458 116.929 60.3182 116.964C61.2129 117.399 62.0924 117.856 62.9635 118.335C63.1676 118.448 63.3721 118.559 63.5766 118.67C64.5288 119.191 65.4613 119.74 66.3883 120.303C66.6614 120.469 66.9351 120.633 67.2113 120.794C68.1329 121.331 69.0193 121.916 69.9053 122.508C70.1204 122.652 70.3364 122.794 70.5528 122.935C71.1563 123.33 71.7462 123.744 72.3348 124.161C72.3845 124.196 72.4342 124.231 72.4854 124.267C73.2975 124.84 74.0931 125.433 74.8838 126.035C75.0218 126.14 75.1602 126.245 75.2988 126.349C75.8529 126.768 76.3939 127.201 76.933 127.639C77.0447 127.729 77.1566 127.819 77.2685 127.91C77.7201 128.274 78.1655 128.645 78.6087 129.019C78.6887 129.086 78.7688 129.153 78.8489 129.221C79.3587 129.649 79.8592 130.085 80.3498 130.535C80.4976 130.669 80.6468 130.801 80.799 130.931C81.2072 131.282 81.5982 131.652 81.9921 132.019C82.1239 132.141 82.2563 132.262 82.389 132.384C83.0748 133.013 83.738 133.664 84.3992 134.318C84.445 134.363 84.4908 134.408 84.538 134.455C85.4172 135.323 85.4172 135.323 85.7918 135.76C85.9192 135.907 86.0569 136.042 86.1972 136.177C86.4284 136.404 86.6456 136.636 86.857 136.881C87.0002 137.042 87.1474 137.2 87.2956 137.357C87.6449 137.728 87.9767 138.106 88.2972 138.502C88.4706 138.709 88.6527 138.907 88.8377 139.104C89.191 139.481 89.5202 139.873 89.8452 140.275C89.9435 140.394 90.042 140.513 90.1405 140.632C90.1917 140.694 90.243 140.756 90.2958 140.82C90.3891 140.933 90.4825 141.046 90.576 141.159C91.9993 142.879 91.9993 142.879 91.9993 143.029C61.6395 143.029 31.2797 143.029 0 143.029C0 110.123 0 77.2178 0 43.3149Z" fill="#616262"/>
<path d="M126.673 131.804C126.673 132.063 126.581 132.126 126.404 132.303C126.364 132.342 126.324 132.38 126.283 132.42C126.221 132.482 126.221 132.482 126.158 132.544C126.021 132.68 125.883 132.815 125.745 132.95C125.65 133.044 125.555 133.138 125.46 133.232C125.21 133.479 124.959 133.726 124.708 133.972C124.452 134.224 124.196 134.476 123.941 134.729C123.439 135.224 122.937 135.718 122.434 136.212C122.388 136.189 122.342 136.166 122.295 136.143C122.334 136.104 122.374 136.066 122.415 136.027C122.468 135.974 122.522 135.922 122.577 135.867C122.63 135.816 122.682 135.765 122.736 135.712C122.876 135.568 123.009 135.423 123.14 135.271C123.404 134.971 123.683 134.689 123.967 134.408C124.019 134.356 124.071 134.305 124.124 134.252C124.233 134.144 124.343 134.035 124.452 133.927C124.618 133.763 124.784 133.599 124.949 133.434C125.056 133.328 125.163 133.223 125.27 133.117C125.318 133.068 125.367 133.02 125.417 132.97C125.695 132.696 125.979 132.435 126.276 132.182C126.415 132.062 126.545 131.936 126.673 131.804Z" fill="#4EBAE1"/>
<path d="M120.35 28.3718C120.35 28.6294 120.285 28.6785 120.115 28.8668C120.072 28.916 120.028 28.9653 119.983 29.0161C119.863 29.1293 119.863 29.1293 119.724 29.1293C119.707 29.1686 119.69 29.2079 119.673 29.2484C119.57 29.4321 119.449 29.5554 119.298 29.7028C119.242 29.7579 119.186 29.8129 119.129 29.8696C119.07 29.9264 119.012 29.9832 118.951 30.0418C118.892 30.0996 118.833 30.1575 118.773 30.2171C118.627 30.3599 118.481 30.5022 118.335 30.6443C118.289 30.6216 118.243 30.5989 118.196 30.5755C118.255 30.5172 118.315 30.459 118.376 30.399C118.75 30.0326 119.118 29.6682 119.458 29.2708C119.74 28.9572 120.048 28.6664 120.35 28.3718Z" fill="#F9C487"/>
<path d="M121.6 27.2012C121.6 27.4416 121.575 27.4587 121.412 27.6213C121.373 27.6608 121.333 27.7002 121.293 27.7408C121.251 27.7814 121.209 27.8221 121.166 27.864C121.105 27.9258 121.105 27.9258 121.042 27.9888C121.003 28.028 120.963 28.0673 120.922 28.1077C120.867 28.1614 120.867 28.1614 120.811 28.2163C120.682 28.3143 120.578 28.3436 120.419 28.3718C120.622 28.0952 120.855 27.8842 121.116 27.6636C121.286 27.5169 121.443 27.3616 121.6 27.2012Z" fill="#F8B86F"/>
<path d="M119.238 29.4734C119.307 29.4961 119.376 29.5188 119.447 29.5423C119.08 29.9059 118.713 30.2694 118.335 30.6441C118.289 30.6213 118.243 30.5986 118.196 30.5752C118.259 30.513 118.323 30.4507 118.389 30.3866C118.472 30.3046 118.555 30.2226 118.639 30.1405C118.681 30.0995 118.723 30.0586 118.766 30.0164C118.806 29.9766 118.846 29.9369 118.888 29.896C118.925 29.8596 118.962 29.8231 119 29.7856C119.114 29.6696 119.114 29.6696 119.238 29.4734Z" fill="#F7B365"/>
<path d="M118.126 30.644C118.126 30.8973 118.073 30.9349 117.905 31.1175C117.861 31.1656 117.816 31.2137 117.771 31.2633C117.615 31.4278 117.456 31.5885 117.292 31.7459C117.246 31.7231 117.201 31.7004 117.153 31.677C117.474 31.3361 117.795 30.9952 118.126 30.644Z" fill="#F8BC76"/>
<path d="M124.449 24.5842C124.449 24.7908 124.449 24.7908 124.312 24.9466C124.254 25.0017 124.196 25.0568 124.136 25.1136C124.078 25.1693 124.02 25.2249 123.96 25.2823C123.893 25.3458 123.893 25.3458 123.824 25.4106C123.755 25.3879 123.686 25.3651 123.615 25.3417C123.89 25.0918 124.166 24.8418 124.449 24.5842Z" fill="#F8BD78"/>
<path d="M117.084 31.7461C117.106 31.8143 117.129 31.8824 117.153 31.9527C116.947 32.1572 116.74 32.3617 116.528 32.5725C116.482 32.5497 116.436 32.527 116.389 32.5036C116.618 32.2536 116.847 32.0036 117.084 31.7461Z" fill="#F8BB75"/>
<path d="M115.485 33.5366C115.531 33.5593 115.577 33.5821 115.624 33.6055C115.418 33.8327 115.211 34.06 114.999 34.2941C114.953 34.2714 114.907 34.2487 114.86 34.2253C115.066 33.998 115.273 33.7708 115.485 33.5366Z" fill="#F8B76C"/>
<path d="M126.464 22.8625C126.51 22.8853 126.556 22.908 126.603 22.9314C126.42 23.1132 126.236 23.295 126.047 23.4823C125.979 23.4596 125.91 23.4369 125.839 23.4135C126.045 23.2317 126.252 23.0499 126.464 22.8625Z" fill="#F8C07E"/>
<path d="M131.954 127.26C132 127.282 132.045 127.305 132.093 127.328C131.932 127.487 131.772 127.647 131.606 127.81C131.56 127.765 131.515 127.72 131.467 127.673C131.628 127.536 131.788 127.4 131.954 127.26Z" fill="#57BEE2"/>
</g>
<defs>
<clipPath id="clip0_1295_11447">
<rect width="209" height="144" fill="white"/>
</clipPath>
</defs>
</svg>
