<svg width="270" height="77" viewBox="0 0 270 77" fill="none" xmlns="http://www.w3.org/2000/svg">
<g clip-path="url(#clip0_1295_11448)">
<g filter="url(#filter0_d_1295_11448)">
<path d="M13.6555 55.7603C11.4927 55.7603 9.34693 55.5576 7.218 55.1521C5.08908 54.7466 3.34877 54.2059 1.99707 53.53V46.7377C3.78807 47.6163 5.64665 48.2753 7.57282 48.7146C9.49899 49.1539 11.3407 49.3736 13.0979 49.3736C15.0579 49.3736 16.5447 49.0356 17.5585 48.3598C18.5723 47.6839 19.0792 46.7377 19.0792 45.5212C19.0792 44.6426 18.8257 43.8992 18.3188 43.2909C17.8119 42.6827 17.0685 42.142 16.0885 41.6689C15.1423 41.162 13.6724 40.503 11.6786 39.692C8.36695 38.3403 5.96768 36.8366 4.48081 35.1807C2.99395 33.4911 2.25051 31.4129 2.25051 28.946C2.25051 26.9523 2.79119 25.1951 3.87255 23.6744C4.95391 22.1199 6.47457 20.9203 8.43453 20.0755C10.3945 19.2307 12.6586 18.8083 15.2268 18.8083C17.3219 18.8083 19.1805 18.9772 20.8026 19.3152C22.4246 19.6531 24.0129 20.1769 25.5673 20.8865V27.476C22.5936 25.9892 19.6198 25.2457 16.6461 25.2457C14.7537 25.2457 13.2669 25.5837 12.1855 26.2595C11.1041 26.9016 10.5635 27.8309 10.5635 29.0474C10.5635 29.926 10.8169 30.6525 11.3238 31.227C11.8307 31.8015 12.5403 32.3084 13.4527 32.7477C14.3651 33.187 15.852 33.829 17.9133 34.6738C20.3126 35.6876 22.1881 36.6676 23.5398 37.6138C24.8915 38.5262 25.8883 39.6244 26.5304 40.9085C27.1724 42.1589 27.4935 43.7133 27.4935 45.5719C27.4935 48.7822 26.3276 51.2828 23.996 53.0738C21.6981 54.8648 18.2512 55.7603 13.6555 55.7603ZM39.5051 26.0061H29.1646V19.5686H57.5503V26.0061H47.2098V55H39.5051V26.0061ZM61.4454 19.5686H86.0294V26.0061H69.1501V34.2176H81.5688V40.4017H69.1501V48.5625H86.0294V55H61.4454V19.5686ZM90.2666 19.5686H97.9713V48.5625H114.192V55H90.2666V19.5686ZM117.999 19.5686H125.704V34.978L139.085 19.5686H148.26L133.256 36.8535L149.274 55H140.099L125.704 38.7289V55H117.999V19.5686Z" fill="#E4262C"/>
<path d="M169.811 55.7603C167.615 55.7603 165.706 55.4224 164.084 54.7466C162.495 54.0369 161.025 52.9387 159.674 51.4518V55H154.706V17.5411H159.826V33.9135C160.941 32.5956 162.377 31.5987 164.134 30.9229C165.892 30.247 167.784 29.9091 169.811 29.9091C172.245 29.9091 174.424 30.4667 176.35 31.5818C178.31 32.6632 179.831 34.1838 180.912 36.1438C182.027 38.1038 182.585 40.351 182.585 42.8854C182.585 45.4536 182.027 47.7177 180.912 49.6777C179.831 51.6039 178.31 53.1076 176.35 54.189C174.424 55.2365 172.245 55.7603 169.811 55.7603ZM168.646 51.7052C170.301 51.7052 171.788 51.3504 173.106 50.6408C174.458 49.8973 175.505 48.8498 176.249 47.4981C177.026 46.1464 177.415 44.6088 177.415 42.8854C177.415 41.162 177.026 39.6244 176.249 38.2727C175.505 36.921 174.458 35.8735 173.106 35.13C171.788 34.3866 170.301 34.0149 168.646 34.0149C166.584 34.0149 164.743 34.5725 163.121 35.6876C161.499 36.8028 160.4 38.2896 159.826 40.1482V45.6226C160.468 47.4812 161.566 48.968 163.121 50.0832C164.709 51.1646 166.55 51.7052 168.646 51.7052ZM197.678 55.7603C194.941 55.7603 192.525 55.2534 190.43 54.2397C188.369 53.1921 186.746 51.7052 185.564 49.7791C184.415 47.8191 183.84 45.5212 183.84 42.8854C183.84 40.2834 184.415 38.0024 185.564 36.0424C186.713 34.0825 188.335 32.5787 190.43 31.5311C192.525 30.4498 194.941 29.9091 197.678 29.9091C200.416 29.9091 202.832 30.4498 204.927 31.5311C207.022 32.5787 208.644 34.0825 209.793 36.0424C210.976 38.0024 211.567 40.2834 211.567 42.8854C211.567 45.5212 210.976 47.8191 209.793 49.7791C208.644 51.7052 207.022 53.1921 204.927 54.2397C202.832 55.2534 200.416 55.7603 197.678 55.7603ZM197.678 51.7052C200.314 51.7052 202.409 50.8942 203.964 49.2722C205.518 47.6501 206.295 45.5212 206.295 42.8854C206.295 40.1482 205.518 37.9855 203.964 36.3973C202.409 34.809 200.314 34.0149 197.678 34.0149C195.043 34.0149 192.947 34.809 191.393 36.3973C189.838 37.9855 189.061 40.1482 189.061 42.8854C189.061 45.5212 189.838 47.6501 191.393 49.2722C192.947 50.8942 195.043 51.7052 197.678 51.7052ZM226.638 55.7603C223.901 55.7603 221.485 55.2534 219.39 54.2397C217.328 53.1921 215.706 51.7052 214.524 49.7791C213.375 47.8191 212.8 45.5212 212.8 42.8854C212.8 40.2834 213.375 38.0024 214.524 36.0424C215.673 34.0825 217.295 32.5787 219.39 31.5311C221.485 30.4498 223.901 29.9091 226.638 29.9091C229.375 29.9091 231.792 30.4498 233.887 31.5311C235.982 32.5787 237.604 34.0825 238.753 36.0424C239.936 38.0024 240.527 40.2834 240.527 42.8854C240.527 45.5212 239.936 47.8191 238.753 49.7791C237.604 51.7052 235.982 53.1921 233.887 54.2397C231.792 55.2534 229.375 55.7603 226.638 55.7603ZM226.638 51.7052C229.274 51.7052 231.369 50.8942 232.924 49.2722C234.478 47.6501 235.255 45.5212 235.255 42.8854C235.255 40.1482 234.478 37.9855 232.924 36.3973C231.369 34.809 229.274 34.0149 226.638 34.0149C224.002 34.0149 221.907 34.809 220.353 36.3973C218.798 37.9855 218.021 40.1482 218.021 42.8854C218.021 45.5212 218.798 47.6501 220.353 49.2722C221.907 50.8942 224.002 51.7052 226.638 51.7052ZM244.061 17.5411H249.18V55H244.061V17.5411ZM249.231 42.6827L260.433 30.6694H266.668L255.415 42.6827L267.834 55H261.599L249.231 42.6827Z" fill="black"/>
</g>
</g>
<defs>
<filter id="filter0_d_1295_11448" x="-2.00293" y="17.541" width="273.837" height="46.2192" filterUnits="userSpaceOnUse" color-interpolation-filters="sRGB">
<feFlood flood-opacity="0" result="BackgroundImageFix"/>
<feColorMatrix in="SourceAlpha" type="matrix" values="0 0 0 0 0 0 0 0 0 0 0 0 0 0 0 0 0 0 127 0" result="hardAlpha"/>
<feOffset dy="4"/>
<feGaussianBlur stdDeviation="2"/>
<feComposite in2="hardAlpha" operator="out"/>
<feColorMatrix type="matrix" values="0 0 0 0 0 0 0 0 0 0 0 0 0 0 0 0 0 0 0.25 0"/>
<feBlend mode="normal" in2="BackgroundImageFix" result="effect1_dropShadow_1295_11448"/>
<feBlend mode="normal" in="SourceGraphic" in2="effect1_dropShadow_1295_11448" result="shape"/>
</filter>
<clipPath id="clip0_1295_11448">
<rect width="270" height="77" fill="white"/>
</clipPath>
</defs>
</svg>
