<svg width="28" height="35" viewBox="0 0 28 35" fill="none" xmlns="http://www.w3.org/2000/svg">
<path d="M27.3 1.4H27.9999V0H3.50003C1.54003 0 0 1.54003 0 3.49995V30.7999C0 33.18 1.81996 34.9999 4.19999 34.9999H5.59999V5.59999H3.50003C2.38003 5.59999 1.4 4.61995 1.4 3.49995C1.4 2.37996 2.38003 1.39992 3.50003 1.39992H24.5C24.5 1.39992 23.8 2.37996 23.8 3.49995C23.8 4.61995 24.5 5.59999 24.5 5.59999H7.00006V34.9999H28V5.59999H27.3C26.18 5.59999 25.2 4.61995 25.2 3.49995C25.2 2.37996 26.18 1.4 27.3 1.4Z" fill="white"/>
</svg>
