<svg width="1200" height="675" viewBox="0 0 1200 675" fill="none" xmlns="http://www.w3.org/2000/svg">
<g clip-path="url(#clip0_1267_11407)">
<rect width="1200" height="675" rx="32" fill="black"/>
<path d="M-63 -90.6309V-66.072L-55.0097 -70.6846L20.7137 -26.9652V60.2069L-37.7122 93.9395V205.936L56.431 260.289H59.2788C62.1281 260.289 62.8325 259.883 68.3067 256.724L156.271 205.936V93.9395L97.8439 60.2069V-26.9652L173.569 -70.6846L249.294 -26.9652V60.2069L190.866 93.9395V205.936L285.009 260.289H287.859C290.708 260.289 291.411 259.883 296.886 256.724L384.85 205.936V93.9395L326.422 60.2069V-26.9652L402.147 -70.6846L477.872 -26.9652V60.2069L419.445 93.9395V205.936L513.588 260.289H516.437C519.287 260.289 519.991 259.883 525.465 256.724L613.43 205.936V93.9395L555.002 60.2069V-26.9652L630.727 -70.6846L706.452 -26.9652V60.2069L648.024 93.9395V205.936L742.168 260.289H745.014C747.865 260.289 748.569 259.883 754.042 256.724L842.01 205.936V93.9395L783.582 60.2069V-26.9652L859.305 -70.6846L935.03 -26.9652V60.2069L876.604 93.9395V205.936L970.746 260.289H973.595C976.445 260.289 977.149 259.883 982.623 256.724L1070.59 205.936V93.9395L1012.16 60.2069V-26.9652L1087.89 -70.6846L1163.61 -26.9652V60.2069L1105.18 93.9395V205.936L1199.33 260.289H1202.18C1205.02 260.289 1205.73 259.883 1211.2 256.724L1262.68 227.004V202.445C1242.79 213.93 1213.96 230.574 1202.18 237.376L1126.45 193.657V106.485L1184.88 72.7523V-39.2431L1087.89 -95.2432L990.893 -39.2431V72.7523L1049.32 106.485V193.657C1033.86 202.583 989.053 228.453 973.595 237.376L897.871 193.657V106.485L956.298 72.7523V-39.2431L859.305 -95.2432L762.314 -39.2431V72.7523L820.742 106.485V193.657C805.282 202.583 760.473 228.453 745.014 237.376L669.292 193.657V106.485L727.718 72.7523V-39.2431L630.727 -95.2432L533.736 -39.2431V72.7523L592.162 106.485V193.657C576.704 202.583 531.893 228.453 516.437 237.376L440.712 193.657V106.485L499.14 72.7523V-39.2431L402.147 -95.2432L305.156 -39.2431V72.7523L363.582 106.485V193.657C348.125 202.581 303.316 228.453 287.859 237.376L212.134 193.657V106.485L270.561 72.7523V-39.2431L173.569 -95.2432L76.5778 -39.2431V72.7523L135.004 106.485V193.657C119.546 202.581 74.7358 228.453 59.2788 237.376L-16.4446 193.657V106.485L41.9817 72.7523V-39.2431L-55.0097 -95.2432L-63 -90.6309H-63Z" fill="#E8E4DC"/>
<path d="M313.261 135.272V164.604L287.859 179.27L262.456 164.604V135.272L287.859 120.606L313.261 135.272ZM241.188 176.882L287.859 203.829L334.527 176.882V122.992L287.859 96.0469L241.188 122.992V176.882Z" fill="#E8E4DC"/>
<path d="M427.55 31.4202L402.147 46.0861L376.745 31.4202V2.08821L402.147 -12.5778L427.55 2.08821V31.4202ZM448.817 -10.1913L402.147 -37.1367L355.477 -10.1913V43.6996L402.147 70.6451L448.817 43.6996V-10.1913Z" fill="#E8E4DC"/>
<path d="M199.111 31.4202L173.708 46.0861L148.306 31.4202V2.08821L173.708 -12.5778L199.111 2.08821V31.4202ZM220.379 -10.1913L173.708 -37.1367L127.038 -10.1913V43.6996L173.708 70.6451L220.379 43.6996V-10.1913Z" fill="#E8E4DC"/>
<path d="M541.842 135.272V164.604L516.438 179.27L491.036 164.604V135.272L516.438 120.606L541.842 135.272ZM469.768 176.882L516.438 203.829L563.108 176.882V122.992L516.438 96.0469L469.768 122.992V176.882Z" fill="#E8E4DC"/>
<path d="M656.128 31.4202L630.726 46.0861L605.322 31.4202V2.08821L630.726 -12.5778L656.128 2.08821V31.4202ZM677.396 -10.1913L630.726 -37.1367L584.056 -10.1913V43.6996L630.726 70.6451L677.396 43.6996V-10.1913Z" fill="#E8E4DC"/>
<path d="M770.419 135.272V164.604L745.018 179.27L719.615 164.604V135.272L745.018 120.606L770.419 135.272ZM698.346 176.882L745.015 203.829H745.018L791.688 176.882V122.992L745.018 96.0469H745.015L698.346 122.992V176.882Z" fill="#E8E4DC"/>
<path d="M884.708 31.4202L859.304 46.0861L833.901 31.4202V2.08821L859.304 -12.5778L884.708 2.08821V31.4202ZM905.974 -10.1913L859.304 -37.1367L812.634 -10.1913V43.6996L859.304 70.6451L905.974 43.6996V-10.1913Z" fill="#E8E4DC"/>
<path d="M1113.1 30.8948L1087.69 45.5607L1062.29 30.8948V1.56282L1087.69 -13.1032L1113.1 1.56282V30.8948ZM1134.36 -10.7167L1087.69 -37.6621L1041.02 -10.7167V43.1742L1087.69 70.1197L1134.36 43.1742V-10.7167Z" fill="#E8E4DC"/>
<path d="M998.998 135.272V164.604L973.595 179.27L948.192 164.604V135.272L973.595 120.606L998.998 135.272ZM926.925 176.882L973.595 203.829L1020.27 176.882V122.992L973.595 96.0469L926.925 122.992V176.882Z" fill="#E8E4DC"/>
<path d="M1227.61 135.454V164.786L1202.2 179.453L1176.8 164.786V135.454L1202.2 120.788L1227.61 135.454ZM1155.53 177.064L1202.2 204.011L1248.87 177.064V123.175L1202.2 96.2295L1155.53 123.175V177.064Z" fill="#E8E4DC"/>
<path d="M-63 231.909V256.468L-55.0097 251.856L20.7137 295.575V382.747L-37.7122 416.482V528.477L56.431 582.829H59.2788C62.1281 582.829 62.8325 582.423 68.3067 579.264L156.271 528.477V416.482L97.8439 382.747V295.575L173.569 251.856L249.294 295.575V382.747L190.866 416.482V528.477L285.009 582.829H287.859C290.708 582.829 291.411 582.423 296.886 579.264L384.85 528.477V416.482L326.422 382.747V295.575L402.147 251.856L477.872 295.575V382.747L419.445 416.482V528.477L513.588 582.829H516.437C519.287 582.829 519.991 582.423 525.465 579.264L613.43 528.477V416.482L555.002 382.747V295.575L630.727 251.856L706.452 295.575V382.747L648.024 416.482V528.477L742.168 582.829H745.014C747.865 582.829 748.569 582.423 754.042 579.264L842.01 528.477V416.482L783.582 382.747V295.575L859.305 251.856L935.03 295.575V382.747L876.604 416.482V528.477L970.746 582.829H973.595C976.445 582.829 977.149 582.423 982.623 579.264L1070.59 528.477V416.482L1012.16 382.747V295.575L1087.89 251.856L1163.61 295.575V382.747L1105.18 416.482V528.477L1199.33 582.829H1202.18C1205.02 582.829 1205.73 582.423 1211.2 579.264L1262.68 549.544V524.986C1242.79 536.47 1213.96 553.116 1202.18 559.916L1126.45 516.199V429.025L1184.88 395.292V283.295L1087.89 227.297L990.893 283.295V395.292L1049.32 429.025V516.199C1033.86 525.123 989.053 550.994 973.595 559.916L897.871 516.199V429.025L956.298 395.292V283.295L859.305 227.297L762.314 283.295V395.292L820.742 429.025V516.199C805.282 525.123 760.473 550.994 745.014 559.916L669.292 516.199V429.025L727.718 395.292V283.295L630.727 227.297L533.736 283.295V395.292L592.162 429.025V516.199C576.704 525.123 531.893 550.995 516.437 559.916L440.712 516.199V429.025L499.14 395.292V283.295L402.147 227.297L305.156 283.295V395.292L363.582 429.025V516.199C348.125 525.122 303.316 550.994 287.859 559.916L212.134 516.199V429.025L270.561 395.292V283.295L173.569 227.297L76.5778 283.295V395.292L135.004 429.025V516.199C119.546 525.122 74.7358 550.994 59.2788 559.916L-16.4446 516.199V429.025L41.9817 395.292V283.295L-55.0097 227.297L-63 231.909H-63Z" fill="#E8E4DC"/>
<path d="M313.261 457.813V487.145L287.859 501.813L262.456 487.145V457.813L287.859 443.147L313.261 457.813ZM241.188 499.424L287.859 526.37L334.527 499.424V445.535L287.859 418.59L241.188 445.535V499.424Z" fill="#E8E4DC"/>
<path d="M84.2359 457.813V487.145L58.8335 501.813L33.4307 487.145V457.813L58.8335 443.147L84.2359 457.813ZM12.1631 499.424L58.8335 526.37L105.502 499.424V445.535L58.8335 418.59L12.1631 445.535V499.424Z" fill="#E8E4DC"/>
<path d="M427.55 353.963L402.147 368.628L376.745 353.963V324.63L402.147 309.964L427.55 324.63V353.963ZM448.817 312.352L402.147 285.406L355.477 312.352V366.241L402.147 393.186L448.817 366.241V312.352Z" fill="#E8E4DC"/>
<path d="M197.936 353.963L172.534 368.628L147.131 353.963V324.63L172.534 309.964L197.936 324.63V353.963ZM219.204 312.352L172.534 285.406L125.863 312.352V366.241L172.534 393.186L219.204 366.241V312.352Z" fill="#E8E4DC"/>
<path d="M84.2411 164.786L58.8383 179.451L33.4359 164.786V135.453L58.8383 120.787L84.2411 135.453V164.786ZM105.509 123.175L58.8383 96.2295L12.168 123.175V177.064L58.8383 204.01L105.509 177.064V123.175Z" fill="#E8E4DC"/>
<path d="M541.842 457.813V487.145L516.438 501.813L491.036 487.145V457.813L516.438 443.147L541.842 457.813ZM469.768 499.424L516.438 526.37L563.108 499.424V445.535L516.438 418.59L469.768 445.535V499.424Z" fill="#E8E4DC"/>
<path d="M656.128 353.963L630.726 368.628L605.322 353.963V324.63L630.726 309.964L656.128 324.63V353.963ZM677.396 312.352L630.726 285.406L584.056 312.352V366.241L630.726 393.186L677.396 366.241V312.352Z" fill="#E8E4DC"/>
<path d="M770.419 457.813V487.145L745.018 501.813L719.615 487.145V457.813L745.018 443.147L770.419 457.813ZM698.346 499.424L745.015 526.37H745.018L791.688 499.424V445.535L745.018 418.59H745.015L698.346 445.535V499.424Z" fill="#E8E4DC"/>
<path d="M884.708 353.963L859.304 368.628L833.901 353.963V324.63L859.304 309.964L884.708 324.63V353.963ZM905.974 312.352L859.304 285.406L812.634 312.352V366.241L859.304 393.186L905.974 366.241V312.352Z" fill="#E8E4DC"/>
<path d="M1113.68 353.879L1088.28 368.544L1062.88 353.879V324.546L1088.28 309.88L1113.68 324.546V353.879ZM1134.95 312.268L1088.28 285.322L1041.61 312.268V366.157L1088.28 393.102L1134.95 366.157V312.268Z" fill="#E8E4DC"/>
<path d="M998.998 457.813V487.145L973.595 501.813L948.192 487.145V457.813L973.595 443.147L998.998 457.813ZM926.925 499.424L973.595 526.37L1020.27 499.424V445.535L973.595 418.59L926.925 445.535V499.424Z" fill="#E8E4DC"/>
<path d="M1227.61 457.85V487.182L1202.2 501.85L1176.8 487.182V457.85L1202.2 443.184L1227.61 457.85ZM1155.53 499.461L1202.2 526.407L1248.87 499.461V445.572L1202.2 418.627L1155.53 445.572V499.461Z" fill="#E8E4DC"/>
<path d="M427.55 676.505L402.147 691.171L376.745 676.505V647.173L402.147 632.505L427.55 647.173V676.505ZM448.817 634.894L402.147 607.948L355.477 634.894V688.783L402.147 715.728L448.817 688.783V634.894Z" fill="#E8E4DC"/>
<path d="M199.111 676.505L173.708 691.171L148.306 676.505V647.173L173.708 632.505L199.111 647.173V676.505ZM220.379 634.894L173.708 607.948L127.038 634.894V688.783L173.708 715.728L220.379 688.783V634.894Z" fill="#E8E4DC"/>
<path d="M656.128 676.505L630.726 691.171L605.322 676.505V647.173L630.726 632.505L656.128 647.173V676.505ZM677.396 634.894L630.726 607.948L584.056 634.894V688.783L630.726 715.728L677.396 688.783V634.894Z" fill="#E8E4DC"/>
<path d="M884.708 676.505L859.304 691.171L833.901 676.505V647.173L859.304 632.505L884.708 647.173V676.505ZM905.974 634.894L859.304 607.948L812.634 634.894V688.783L859.304 715.728L905.974 688.783V634.894Z" fill="#E8E4DC"/>
<path d="M1113.68 676.277L1088.28 690.943L1062.88 676.277V646.944L1088.28 632.277L1113.68 646.944V676.277ZM1134.95 634.665L1088.28 607.72L1041.61 634.665V688.554L1088.28 715.5L1134.95 688.554V634.665Z" fill="#E8E4DC"/>
<path d="M1202.18 905.372C1205.02 905.372 1205.73 904.964 1211.2 901.805L1262.68 872.085V847.528C1242.79 859.011 1213.96 875.657 1202.18 882.459L1126.45 838.74V751.566L1184.88 717.833V605.838L1087.89 549.84L990.893 605.838V717.833L1049.32 751.566V838.74C1033.86 847.664 989.053 873.536 973.595 882.459L897.871 838.74V751.566L956.298 717.833V605.838L859.305 549.84L762.314 605.838V717.833L820.742 751.566V838.74C805.282 847.664 760.473 873.536 745.014 882.459L669.292 838.74V751.566L727.718 717.833V605.838L630.727 549.84L533.736 605.838V717.833L592.162 751.566V838.74C576.704 847.664 531.893 873.536 516.437 882.459L440.712 838.74V751.566L499.14 717.833V605.838L402.147 549.84L305.156 605.838V717.833L363.582 751.566V838.74C348.125 847.663 303.316 873.536 287.859 882.459L212.134 838.74V751.566L270.561 717.833V605.838L173.569 549.84L76.5778 605.838V717.833L135.004 751.566V838.74C119.546 847.663 74.7358 873.536 59.2788 882.459L-16.4446 838.74V751.566L41.9817 717.833V605.838L-55.0097 549.84L-63 554.451V579.009L-55.0097 574.397L20.7137 618.116V705.29L-37.7122 739.023V851.02L56.431 905.372H59.2788C62.1281 905.372 62.8325 904.964 68.3067 901.805L156.271 851.02V739.023L97.8439 705.29V618.116L173.569 574.397L249.294 618.116V705.29L190.866 739.023V851.02L285.009 905.372H287.859C290.708 905.372 291.411 904.964 296.886 901.805L384.85 851.02V739.023L326.422 705.29V618.116L402.147 574.397L477.872 618.116V705.29L419.445 739.023V851.02L513.588 905.372H516.437C519.287 905.372 519.991 904.964 525.465 901.805L613.43 851.02V739.023L555.002 705.29V618.116L630.727 574.397L706.452 618.116V705.29L648.024 739.023V851.02L742.168 905.372H745.014C747.865 905.372 748.569 904.964 754.042 901.805L842.01 851.02V739.023L783.582 705.29V618.116L859.305 574.397L935.03 618.116V705.29L876.604 739.023V851.02L970.746 905.372H973.595C976.445 905.372 977.149 904.964 982.623 901.805L1070.59 851.02V739.023L1012.16 705.29V618.116L1087.89 574.397L1163.61 618.116V705.29L1105.18 739.023V851.02L1199.33 905.372H1202.18Z" fill="#E8E4DC"/>
</g>
<defs>
<clipPath id="clip0_1267_11407">
<rect width="1200" height="675" rx="32" fill="white"/>
</clipPath>
</defs>
</svg>
