<svg width="1200" height="675" viewBox="0 0 1200 675" fill="none" xmlns="http://www.w3.org/2000/svg">
<g clip-path="url(#clip0_1267_11449)">
<rect width="1200" height="675" rx="32" fill="black"/>
<path d="M1138.96 -169.163C1118.65 -169.163 1099.42 -159.099 1087.53 -142.245C1084.23 -137.566 1081.66 -132.559 1079.8 -127.343C1077.71 -129.307 1075.47 -131.133 1073.09 -132.798C1062.61 -140.123 1050.17 -143.994 1037.1 -143.994C1024.03 -143.994 1011.59 -140.123 1001.11 -132.798C998.727 -131.133 996.49 -129.309 994.393 -127.343C992.545 -132.56 989.969 -137.569 986.669 -142.247C974.775 -159.101 955.55 -169.163 935.24 -169.163C934.111 -169.163 932.988 -169.124 931.866 -169.062C931.932 -191.779 951.562 -209.576 973.095 -209.576C981.409 -209.576 990.003 -206.924 997.86 -200.876C1003.62 -220.441 1020.36 -230.224 1037.1 -230.224C1053.84 -230.224 1070.58 -220.441 1076.34 -200.876C1084.19 -206.922 1092.79 -209.576 1101.1 -209.576C1122.64 -209.576 1142.27 -191.78 1142.33 -169.062C1141.21 -169.124 1140.09 -169.163 1138.96 -169.163ZM1142.33 -61.4478C1141.21 -61.5102 1140.09 -61.5487 1138.96 -61.5487C1118.65 -61.5487 1099.42 -51.4849 1087.53 -34.6296C1084.23 -29.9519 1081.66 -24.943 1079.8 -19.7262C1077.71 -21.6927 1075.47 -23.5169 1073.09 -25.1836C1062.61 -32.507 1050.17 -36.3779 1037.1 -36.3779C1024.03 -36.3779 1011.59 -32.507 1001.11 -25.1836C998.727 -23.5169 996.49 -21.6927 994.393 -19.7276C992.545 -24.9444 989.969 -29.9533 986.669 -34.631C974.775 -51.4848 955.548 -61.5487 935.238 -61.5487C934.111 -61.5487 932.988 -61.5102 931.866 -61.4478C931.932 -84.1647 951.562 -101.962 973.095 -101.962C981.409 -101.962 990.003 -99.3073 997.86 -93.2613C1003.62 -112.826 1020.36 -122.608 1037.1 -122.608C1053.84 -122.608 1070.58 -112.826 1076.34 -93.2613C1084.19 -99.3073 1092.79 -101.962 1101.1 -101.962C1122.64 -101.962 1142.27 -84.1661 1142.33 -61.4478ZM1142.33 46.1682C1141.21 46.1059 1140.09 46.067 1138.96 46.067C1118.65 46.067 1099.42 56.1294 1087.53 72.9865C1084.23 77.6624 1081.66 82.6713 1079.8 87.8884C1077.71 85.923 1075.47 84.0973 1073.09 82.4321C1062.61 75.1091 1050.17 71.2382 1037.1 71.2382C1024.03 71.2382 1011.59 75.1091 1001.11 82.4321C998.729 84.0973 996.49 85.923 994.393 87.8866C992.545 82.6699 989.969 77.6609 986.669 72.9846C974.775 56.1294 955.55 46.067 935.24 46.067C934.111 46.067 932.988 46.1059 931.866 46.1682C931.932 23.4499 951.562 5.65561 973.095 5.65561C981.409 5.65561 990.003 8.30731 997.86 14.3544C1003.62 -5.21036 1020.36 -14.9922 1037.1 -14.9922C1053.84 -14.9922 1070.58 -5.21036 1076.34 14.3544C1084.19 8.30872 1092.79 5.65561 1101.1 5.65561C1122.64 5.65561 1142.27 23.4499 1142.33 46.1682ZM1142.33 153.783C1141.21 153.72 1140.09 153.683 1138.96 153.683C1118.65 153.683 1099.42 163.745 1087.53 180.601C1084.23 185.28 1081.66 190.289 1079.8 195.504C1077.71 193.539 1075.47 191.715 1073.09 190.047C1062.61 182.725 1050.17 178.852 1037.1 178.852C1024.03 178.852 1011.59 182.725 1001.11 190.047C998.729 191.715 996.49 193.539 994.393 195.503C992.545 190.287 989.969 185.278 986.669 180.599C974.775 163.745 955.55 153.683 935.24 153.683C934.111 153.683 932.988 153.72 931.866 153.783C931.932 131.066 951.562 113.27 973.095 113.27C981.409 113.27 990.003 115.923 997.86 121.969C1003.62 102.404 1020.36 92.6239 1037.1 92.6239C1053.84 92.6239 1070.58 102.404 1076.34 121.969C1084.19 115.924 1092.79 113.27 1101.1 113.27C1122.64 113.27 1142.27 131.064 1142.33 153.783ZM1142.33 261.4C1141.21 261.338 1140.09 261.297 1138.96 261.297C1118.65 261.297 1099.42 271.361 1087.53 288.216C1084.23 292.894 1081.66 297.903 1079.8 303.12C1077.71 301.153 1075.47 299.329 1073.09 297.662C1062.61 290.339 1050.17 286.469 1037.1 286.469C1024.03 286.469 1011.59 290.339 1001.11 297.662C998.727 299.329 996.49 301.153 994.393 303.118C992.545 297.902 989.969 292.893 986.669 288.215C974.775 271.361 955.55 261.297 935.24 261.297C934.111 261.297 932.988 261.338 931.866 261.4C931.932 238.682 951.562 220.886 973.095 220.886C981.409 220.886 990.003 223.537 997.86 229.586C1003.62 210.021 1020.36 200.238 1037.1 200.238C1053.84 200.238 1070.58 210.021 1076.34 229.586C1084.19 223.539 1092.79 220.886 1101.1 220.886C1122.64 220.886 1142.27 238.682 1142.33 261.4ZM1142.33 369.014C1141.21 368.952 1140.09 368.915 1138.96 368.915C1118.65 368.915 1099.42 378.977 1087.53 395.832C1084.23 400.51 1081.66 405.519 1079.8 410.736C1077.71 408.771 1075.47 406.945 1073.09 405.278C1062.61 397.955 1050.17 394.084 1037.1 394.084C1024.03 394.084 1011.59 397.955 1001.11 405.278C998.727 406.944 996.49 408.769 994.393 410.734C992.545 405.518 989.969 400.509 986.669 395.831C974.775 378.976 955.55 368.915 935.24 368.915C934.111 368.915 932.988 368.952 931.866 369.014C931.932 346.297 951.562 328.5 973.095 328.5C981.409 328.5 990.003 331.155 997.86 337.2C1003.62 317.636 1020.36 307.854 1037.1 307.854C1053.84 307.854 1070.58 317.636 1076.34 337.2C1084.19 331.156 1092.79 328.5 1101.1 328.5C1122.64 328.5 1142.27 346.296 1142.33 369.014ZM1142.33 476.637C1141.21 476.565 1140.09 476.534 1138.96 476.534C1118.65 476.534 1099.42 486.591 1087.53 503.45C1084.23 508.129 1081.66 513.135 1079.8 518.349C1077.71 516.388 1075.47 514.561 1073.09 512.897C1062.61 505.574 1050.17 501.697 1037.1 501.697C1024.03 501.697 1011.59 505.574 1001.11 512.897C998.729 514.561 996.49 516.388 994.393 518.349C992.545 513.135 989.969 508.129 986.669 503.45C974.775 486.591 955.55 476.534 935.24 476.534C934.111 476.534 932.988 476.565 931.866 476.637C931.932 453.91 951.562 436.115 973.095 436.115C981.409 436.115 990.003 438.774 997.86 444.819C1003.62 425.256 1020.36 415.468 1037.1 415.468C1053.84 415.468 1070.58 425.256 1076.34 444.819C1084.19 438.774 1092.79 436.115 1101.1 436.115C1122.64 436.115 1142.27 453.91 1142.33 476.637ZM1142.33 584.243C1141.21 584.184 1140.09 584.139 1138.96 584.139C1118.65 584.139 1099.42 594.21 1087.53 611.07C1084.23 615.734 1081.66 620.755 1079.8 625.969C1077.71 624.008 1075.47 622.181 1073.09 620.503C1062.61 613.179 1050.17 609.317 1037.1 609.317C1024.03 609.317 1011.59 613.179 1001.11 620.503C998.729 622.181 996.49 623.994 994.393 625.969C992.545 620.755 989.969 615.734 986.669 611.055C974.775 594.21 955.55 584.139 935.24 584.139C934.111 584.139 932.988 584.184 931.866 584.243C931.932 561.531 951.562 543.735 973.095 543.735C981.409 543.735 990.003 546.379 997.86 552.425C1003.62 532.862 1020.36 523.087 1037.1 523.087C1053.84 523.087 1070.58 532.862 1076.34 552.425C1084.19 546.394 1092.79 543.735 1101.1 543.735C1122.64 543.735 1142.27 561.531 1142.33 584.243ZM1142.33 691.863C1141.21 691.804 1140.09 691.759 1138.96 691.759C1118.65 691.759 1099.42 701.816 1087.53 718.676C1084.23 723.355 1081.66 728.361 1079.8 733.575C1077.71 731.614 1075.47 729.787 1073.09 728.123C1062.61 720.8 1050.17 716.938 1037.1 716.938C1024.03 716.938 1011.59 720.8 1001.11 728.123C998.729 729.787 996.49 731.614 994.393 733.575C992.545 728.361 989.969 723.355 986.669 718.676C974.775 701.816 955.55 691.759 935.24 691.759C934.111 691.759 932.988 691.804 931.866 691.863C931.932 669.136 951.562 651.34 973.095 651.34C981.409 651.34 990.003 653.999 997.86 660.045C1003.62 640.482 1020.36 630.693 1037.1 630.693C1053.84 630.693 1070.58 640.482 1076.34 660.045C1084.19 653.999 1092.79 651.34 1101.1 651.34C1122.64 651.34 1142.27 669.136 1142.33 691.863ZM1142.33 799.484C1141.21 799.409 1140.09 799.38 1138.96 799.38C1118.65 799.38 1099.42 809.436 1087.53 826.296C1084.23 830.975 1081.66 835.981 1079.8 841.195C1077.71 839.234 1075.47 837.407 1073.09 835.743C1062.61 828.42 1050.17 824.543 1037.1 824.543C1024.03 824.543 1011.59 828.42 1001.11 835.743C998.729 837.407 996.49 839.234 994.393 841.195C992.545 835.981 989.969 830.975 986.669 826.296C974.775 809.436 955.55 799.38 935.24 799.38C934.111 799.38 932.988 799.409 931.866 799.484C931.932 776.756 951.562 758.961 973.095 758.961C981.409 758.961 990.003 761.62 997.86 767.666C1003.62 748.102 1020.36 738.313 1037.1 738.313C1053.84 738.313 1070.58 748.102 1076.34 767.666C1084.19 761.62 1092.79 758.961 1101.1 758.961C1122.64 758.961 1142.27 776.756 1142.33 799.484ZM921.664 872.107C915.636 880.663 912.009 890.304 910.87 900.316C909.69 899.35 908.479 898.414 907.221 897.538C896.744 890.215 884.299 886.338 871.233 886.338C858.167 886.338 845.722 890.215 835.247 897.538C833.989 898.414 832.778 899.35 831.6 900.316C830.46 890.304 826.834 880.648 820.803 872.107C808.937 855.292 789.767 845.235 769.506 845.191C776.107 830.693 791.14 820.755 807.227 820.755C815.543 820.755 824.137 823.414 831.994 829.46C837.757 809.897 854.497 800.108 871.233 800.108C887.971 800.108 904.709 809.897 910.473 829.46C918.326 823.414 926.926 820.755 935.24 820.755C951.33 820.755 966.361 830.693 972.964 845.191C952.702 845.235 933.535 855.292 921.664 872.107ZM755.8 826.296C752.501 830.975 749.923 835.981 748.074 841.195C745.979 839.234 743.738 837.407 741.355 835.743C730.878 828.42 718.435 824.543 705.369 824.543C692.301 824.543 679.858 828.42 669.383 835.743C666.998 837.407 664.758 839.234 662.664 841.195C660.814 835.981 658.24 830.975 654.938 826.296C643.044 809.436 623.82 799.38 603.509 799.38C602.38 799.38 601.256 799.409 600.134 799.484C600.199 776.756 619.831 758.961 641.363 758.961C649.678 758.961 658.273 761.62 666.13 767.666C671.893 748.102 688.631 738.313 705.369 738.313C722.107 738.313 738.843 748.102 744.607 767.666C752.462 761.62 761.061 758.961 769.374 758.961C790.908 758.961 810.538 776.756 810.604 799.484C809.482 799.409 808.356 799.38 807.227 799.38C786.92 799.38 767.694 809.436 755.8 826.296ZM589.934 872.107C583.906 880.663 580.278 890.304 579.139 900.316C577.959 899.35 576.747 898.414 575.491 897.538C565.014 890.215 552.569 886.338 539.503 886.338C526.437 886.338 513.993 890.215 503.516 897.538C502.258 898.414 501.046 899.35 499.868 900.316C498.727 890.304 495.101 880.648 489.072 872.107C477.203 855.292 458.035 845.235 437.774 845.191C444.377 830.693 459.409 820.755 475.498 820.755C483.81 820.755 492.407 823.414 500.263 829.46C506.027 809.897 522.765 800.108 539.503 800.108C556.242 800.108 572.979 809.897 578.742 829.46C586.597 823.414 595.195 820.755 603.509 820.755C619.599 820.755 634.632 830.693 641.232 845.191C620.972 845.235 601.801 855.292 589.934 872.107ZM424.069 826.296C420.768 830.975 418.191 835.981 416.343 841.195C414.248 839.234 412.007 837.407 409.625 835.743C399.148 828.42 386.703 824.543 373.637 824.543C360.571 824.543 348.127 828.42 337.65 835.743C335.268 837.407 333.028 839.234 330.932 841.195C329.084 835.981 326.508 830.975 323.208 826.296C311.314 809.436 292.087 799.38 271.777 799.38C270.648 799.38 269.523 799.409 268.404 799.484C268.469 776.756 288.101 758.961 309.632 758.961C317.948 758.961 326.541 761.62 334.397 767.666C340.162 748.102 356.899 738.313 373.637 738.313C390.375 738.313 407.113 748.102 412.876 767.666C420.731 761.62 429.331 758.961 437.643 758.961C459.178 758.961 478.808 776.756 478.87 799.484C477.748 799.409 476.625 799.38 475.498 799.38C455.188 799.38 435.963 809.436 424.069 826.296ZM258.203 872.107C252.174 880.663 248.548 890.304 247.407 900.316C246.229 899.35 245.017 898.414 243.759 897.538C233.282 890.215 220.838 886.338 207.772 886.338C194.706 886.338 182.261 890.215 171.786 897.538C170.528 898.414 169.316 899.35 168.138 900.316C166.997 890.304 163.371 880.648 157.342 872.107C145.474 855.292 126.305 845.235 106.043 845.191C112.646 830.693 127.677 820.755 143.766 820.755C152.081 820.755 160.676 823.414 168.533 829.46C174.296 809.897 191.034 800.108 207.772 800.108C224.51 800.108 241.247 809.897 247.012 829.46C254.865 823.414 263.465 820.755 271.777 820.755C287.869 820.755 302.9 830.693 309.503 845.191C289.241 845.235 270.072 855.292 258.203 872.107ZM106.043 737.585C112.646 723.087 127.677 713.15 143.766 713.15C152.081 713.15 160.676 715.794 168.533 721.84C174.296 702.276 191.034 692.502 207.772 692.502C224.51 692.502 241.247 702.276 247.012 721.84C254.865 715.794 263.465 713.15 271.777 713.15C287.869 713.15 302.9 723.087 309.503 737.585C289.241 737.63 270.072 747.671 258.203 764.502C252.174 773.043 248.548 782.683 247.407 792.695C246.229 791.73 245.017 790.809 243.759 789.917C233.282 782.594 220.838 778.732 207.772 778.732C194.706 778.732 182.261 782.594 171.786 789.917C170.528 790.809 169.316 791.73 168.138 792.695C166.997 782.683 163.371 773.043 157.342 764.502C145.474 747.671 126.305 737.63 106.043 737.585ZM106.043 629.965C112.646 615.467 127.677 605.529 143.766 605.529C152.081 605.529 160.676 608.188 168.533 614.234C174.296 594.671 191.034 584.882 207.772 584.882C224.51 584.882 241.247 594.671 247.012 614.234C254.865 608.188 263.465 605.529 271.777 605.529C287.869 605.529 302.9 615.467 309.503 629.965C289.24 630.01 270.072 640.066 258.203 656.881C252.174 665.422 248.548 675.078 247.407 685.075C246.229 684.109 245.017 683.188 243.759 682.312C233.282 674.989 220.838 671.112 207.772 671.112C194.706 671.112 182.261 674.989 171.786 682.312C170.528 683.188 169.316 684.109 168.138 685.075C166.997 675.078 163.371 665.422 157.342 656.881C145.474 640.066 126.305 630.01 106.043 629.965ZM106.043 522.345C112.646 507.847 127.677 497.909 143.766 497.909C152.081 497.909 160.676 500.568 168.533 506.614C174.296 487.051 191.034 477.261 207.772 477.261C224.51 477.261 241.247 487.051 247.012 506.614C254.865 500.568 263.465 497.909 271.777 497.909C287.869 497.909 302.9 507.847 309.503 522.345C289.24 522.389 270.072 532.446 258.203 549.261C252.174 557.817 248.548 567.457 247.407 577.47C246.229 576.504 245.017 575.568 243.759 574.692C233.282 567.368 220.838 563.491 207.772 563.491C194.706 563.491 182.261 567.368 171.784 574.692C170.526 575.568 169.316 576.504 168.138 577.47C166.997 567.457 163.371 557.802 157.342 549.261C145.474 532.446 126.305 522.389 106.043 522.345ZM106.043 414.735C112.646 400.235 127.677 390.299 143.766 390.299C152.081 390.299 160.676 392.951 168.533 398.998C174.296 379.435 191.034 369.653 207.772 369.653C224.51 369.653 241.247 379.435 247.012 398.998C254.865 392.954 263.465 390.299 271.777 390.299C287.869 390.299 302.9 400.235 309.503 414.735C289.24 414.779 270.072 424.825 258.203 441.655C252.174 450.197 248.548 459.837 247.407 469.849C246.229 468.883 245.017 467.963 243.759 467.071C233.282 459.748 220.838 455.886 207.772 455.886C194.706 455.886 182.261 459.748 171.786 467.071C170.528 467.963 169.316 468.883 168.138 469.849C166.997 459.837 163.371 450.197 157.342 441.655C145.474 424.825 126.305 414.779 106.043 414.735ZM106.043 307.12C112.646 292.619 127.677 282.683 143.766 282.683C152.081 282.683 160.676 285.336 168.533 291.384C174.296 271.819 191.034 262.036 207.772 262.036C224.51 262.036 241.247 271.819 247.012 291.384C254.865 285.338 263.465 282.683 271.777 282.683C287.869 282.683 302.9 292.619 309.503 307.12C289.241 307.162 270.072 317.215 258.203 334.034C252.174 342.579 248.548 352.224 247.407 362.233C246.229 361.271 245.017 360.341 243.759 359.461C233.282 352.138 220.838 348.267 207.772 348.267C194.706 348.267 182.261 352.138 171.786 359.461C170.528 360.341 169.316 361.271 168.138 362.233C166.997 352.223 163.371 342.578 157.342 334.034C145.474 317.215 126.305 307.163 106.043 307.12ZM106.043 199.504C112.646 185.005 127.677 175.067 143.766 175.067C152.081 175.067 160.676 177.722 168.533 183.768C174.296 164.203 191.034 154.421 207.772 154.421C224.51 154.421 241.247 164.203 247.012 183.768C254.865 177.723 263.465 175.067 271.777 175.067C287.869 175.067 302.9 185.004 309.503 199.504C289.241 199.548 270.072 209.6 258.203 226.419C252.174 234.963 248.548 244.61 247.407 254.619C246.229 253.656 245.017 252.725 243.759 251.846C233.282 244.522 220.838 240.651 207.772 240.651C194.706 240.651 182.261 244.522 171.786 251.846C170.528 252.725 169.316 253.655 168.138 254.619C166.997 244.609 163.371 234.962 157.342 226.418C145.474 209.6 126.305 199.548 106.043 199.504ZM106.043 91.8884C112.646 77.3893 127.677 67.4517 143.766 67.4517C152.081 67.4517 160.676 70.1045 168.533 76.1533C174.296 56.5886 191.034 46.8054 207.772 46.8054C224.51 46.8054 241.247 56.5886 247.012 76.1533C254.865 70.1059 263.465 67.4517 271.777 67.4517C287.869 67.4517 302.9 77.3893 309.503 91.8884C289.241 91.9315 270.072 101.984 258.203 118.803C252.174 127.348 248.548 136.994 247.407 147.004C246.229 146.039 245.017 145.111 243.759 144.231C233.282 136.906 220.838 133.037 207.772 133.037C194.706 133.037 182.261 136.906 171.786 144.231C170.528 145.111 169.316 146.039 168.138 147.003C166.997 136.992 163.371 127.348 157.342 118.803C145.474 101.984 126.305 91.933 106.043 91.8884ZM106.043 -15.7258C112.646 -30.2267 127.677 -40.1629 143.766 -40.1629C152.081 -40.1629 160.676 -37.5098 168.533 -31.4642C174.296 -51.0289 191.034 -60.8089 207.772 -60.8089C224.51 -60.8089 241.247 -51.0289 247.012 -31.4642C254.865 -37.5084 263.465 -40.1629 271.777 -40.1629C287.867 -40.1629 302.9 -30.2267 309.503 -15.7258C289.24 -15.6841 270.072 -5.63068 258.203 11.1875C252.174 19.7333 248.548 29.3782 247.407 39.3886C246.229 38.4232 245.017 37.493 243.759 36.6139C233.282 29.292 220.838 25.4196 207.772 25.4196C194.706 25.4196 182.261 29.292 171.784 36.6139C170.526 37.493 169.316 38.4232 168.138 39.3871C166.997 29.3768 163.371 19.7315 157.342 11.1861C145.474 -5.63068 126.305 -15.6841 106.043 -15.7258ZM106.043 -123.342C112.646 -137.841 127.677 -147.777 143.766 -147.777C152.081 -147.777 160.676 -145.126 168.533 -139.078C174.296 -158.643 191.034 -168.426 207.772 -168.426C224.51 -168.426 241.247 -158.643 247.012 -139.078C254.865 -145.123 263.465 -147.777 271.777 -147.777C287.869 -147.777 302.9 -137.842 309.503 -123.342C289.24 -123.299 270.072 -113.247 258.203 -96.4271C252.174 -87.8827 248.548 -78.2378 247.407 -68.2271C246.229 -69.1915 245.017 -70.1212 243.759 -71.0007C233.282 -78.3255 220.838 -82.195 207.772 -82.195C194.706 -82.195 182.261 -78.3255 171.786 -71.0007C170.528 -70.1212 169.316 -69.1915 168.138 -68.2289C166.997 -78.2392 163.371 -87.8841 157.342 -96.4285C145.474 -113.247 126.305 -123.299 106.043 -123.342ZM309.632 -209.576C317.948 -209.576 326.541 -206.924 334.397 -200.876C340.162 -220.441 356.899 -230.224 373.637 -230.224C390.375 -230.224 407.113 -220.441 412.876 -200.876C420.731 -206.922 429.331 -209.576 437.643 -209.576C459.178 -209.576 478.808 -191.78 478.87 -169.062C477.748 -169.124 476.625 -169.163 475.497 -169.163C455.188 -169.163 435.962 -159.099 424.069 -142.245C420.768 -137.566 418.191 -132.559 416.343 -127.343C414.248 -129.307 412.007 -131.133 409.625 -132.798C399.148 -140.123 386.703 -143.994 373.637 -143.994C360.571 -143.994 348.127 -140.123 337.65 -132.798C335.266 -131.133 333.028 -129.309 330.932 -127.343C329.084 -132.559 326.508 -137.568 323.208 -142.247C311.314 -159.101 292.087 -169.163 271.777 -169.163C270.648 -169.163 269.523 -169.124 268.404 -169.062C268.469 -191.78 288.099 -209.576 309.632 -209.576ZM500.263 -139.078C506.027 -158.643 522.765 -168.426 539.503 -168.426C556.242 -168.426 572.979 -158.643 578.742 -139.078C586.597 -145.123 595.195 -147.777 603.509 -147.777C619.599 -147.777 634.632 -137.842 641.232 -123.342C620.972 -123.299 601.801 -113.247 589.934 -96.4271C583.906 -87.8827 580.278 -78.2378 579.139 -68.2289C577.959 -69.1915 576.747 -70.1212 575.491 -71.0007C565.014 -78.3255 552.569 -82.195 539.503 -82.195C526.437 -82.195 513.993 -78.3255 503.516 -71.0007C502.258 -70.1212 501.046 -69.1915 499.868 -68.2289C498.729 -78.2378 495.101 -87.8841 489.072 -96.4285C477.203 -113.247 458.035 -123.299 437.774 -123.342C444.377 -137.841 459.409 -147.777 475.497 -147.777C483.81 -147.777 492.407 -145.126 500.263 -139.078ZM641.363 -209.576C649.678 -209.576 658.273 -206.924 666.13 -200.876C671.893 -220.441 688.631 -230.224 705.369 -230.224C722.107 -230.224 738.843 -220.441 744.607 -200.876C752.462 -206.922 761.061 -209.576 769.375 -209.576C790.908 -209.576 810.539 -191.78 810.604 -169.062C809.482 -169.124 808.356 -169.163 807.227 -169.163C786.92 -169.163 767.694 -159.099 755.8 -142.245C752.499 -137.566 749.923 -132.559 748.074 -127.343C745.979 -129.307 743.738 -131.133 741.355 -132.798C730.878 -140.123 718.435 -143.994 705.369 -143.994C692.301 -143.994 679.858 -140.123 669.383 -132.798C666.998 -131.133 664.758 -129.309 662.664 -127.343C660.814 -132.559 658.24 -137.568 654.938 -142.247C643.044 -159.101 623.82 -169.163 603.509 -169.163C602.38 -169.163 601.256 -169.124 600.134 -169.062C600.199 -191.78 619.831 -209.576 641.363 -209.576ZM921.664 11.1875C915.636 19.7315 912.009 29.3768 910.87 39.3886C909.69 38.4232 908.479 37.493 907.221 36.6139C896.744 29.292 884.299 25.4196 871.233 25.4196C858.167 25.4196 845.722 29.292 835.247 36.6139C833.989 37.493 832.778 38.4232 831.6 39.3871C830.46 29.3768 826.834 19.7301 820.803 11.1861C808.937 -5.63068 789.767 -15.6841 769.506 -15.7258C776.107 -30.2267 791.14 -40.1629 807.229 -40.1629C815.544 -40.1629 824.137 -37.5098 831.994 -31.4642C837.757 -51.0289 854.497 -60.8089 871.233 -60.8089C887.971 -60.8089 904.709 -51.0289 910.473 -31.4642C918.326 -37.5084 926.926 -40.1629 935.238 -40.1629C951.328 -40.1629 966.361 -30.2267 972.964 -15.7258C952.702 -15.6841 933.535 -5.63068 921.664 11.1875ZM921.664 118.803C915.636 127.348 912.009 136.994 910.87 147.004C909.69 146.039 908.479 145.111 907.221 144.231C896.744 136.906 884.299 133.037 871.233 133.037C858.167 133.037 845.722 136.906 835.247 144.231C833.989 145.111 832.778 146.039 831.6 147.003C830.46 136.992 826.834 127.348 820.803 118.802C808.937 101.984 789.767 91.933 769.506 91.8884C776.107 77.3893 791.138 67.4517 807.227 67.4517C815.543 67.4517 824.137 70.1045 831.994 76.1533C837.757 56.5886 854.497 46.8054 871.233 46.8054C887.971 46.8054 904.709 56.5886 910.473 76.1533C918.326 70.1059 926.926 67.4517 935.24 67.4517C951.33 67.4517 966.361 77.3893 972.964 91.8884C952.702 91.9315 933.535 101.984 921.664 118.803ZM921.664 226.419C915.636 234.963 912.009 244.61 910.87 254.619C909.691 253.656 908.479 252.725 907.221 251.846C896.744 244.522 884.299 240.651 871.233 240.651C858.167 240.651 845.722 244.522 835.247 251.846C833.989 252.725 832.778 253.655 831.6 254.617C830.46 244.609 826.834 234.962 820.803 226.418C808.937 209.6 789.767 199.548 769.506 199.504C776.107 185.005 791.138 175.067 807.227 175.067C815.543 175.067 824.137 177.722 831.994 183.768C837.757 164.203 854.497 154.421 871.233 154.421C887.971 154.421 904.709 164.203 910.473 183.768C918.326 177.723 926.926 175.067 935.24 175.067C951.33 175.067 966.361 185.004 972.964 199.504C952.702 199.548 933.535 209.6 921.664 226.419ZM921.664 334.034C915.636 342.579 912.009 352.224 910.87 362.233C909.69 361.271 908.479 360.341 907.221 359.461C896.744 352.138 884.299 348.267 871.233 348.267C858.167 348.267 845.722 352.138 835.247 359.461C833.989 360.341 832.778 361.269 831.6 362.233C830.46 352.223 826.834 342.578 820.803 334.032C808.937 317.215 789.767 307.163 769.506 307.12C776.107 292.619 791.14 282.683 807.227 282.683C815.543 282.683 824.137 285.336 831.994 291.384C837.757 271.819 854.497 262.036 871.233 262.036C887.971 262.036 904.709 271.819 910.473 291.384C918.326 285.338 926.926 282.683 935.24 282.683C951.33 282.683 966.361 292.619 972.964 307.12C952.702 307.162 933.535 317.215 921.664 334.034ZM921.664 441.655C915.636 450.197 912.009 459.837 910.87 469.849C909.69 468.883 908.479 467.963 907.221 467.071C896.744 459.748 884.299 455.886 871.233 455.886C858.167 455.886 845.722 459.748 835.247 467.071C833.989 467.963 832.778 468.883 831.6 469.849C830.46 459.837 826.834 450.197 820.803 441.655C808.937 424.825 789.767 414.779 769.506 414.735C776.107 400.235 791.14 390.299 807.227 390.299C815.543 390.299 824.137 392.951 831.994 398.998C837.757 379.435 854.497 369.653 871.233 369.653C887.971 369.653 904.709 379.435 910.473 398.998C918.326 392.954 926.926 390.299 935.24 390.299C951.33 390.299 966.361 400.235 972.964 414.735C952.702 414.779 933.535 424.825 921.664 441.655ZM921.664 549.261C915.636 557.817 912.009 567.457 910.87 577.47C909.69 576.504 908.479 575.568 907.221 574.692C896.744 567.368 884.299 563.491 871.233 563.491C858.167 563.491 845.722 567.368 835.247 574.692C833.989 575.568 832.778 576.504 831.6 577.47C830.46 567.457 826.834 557.802 820.803 549.261C808.937 532.446 789.767 522.389 769.506 522.345C776.107 507.847 791.138 497.909 807.227 497.909C815.543 497.909 824.137 500.568 831.994 506.614C837.757 487.051 854.497 477.261 871.233 477.261C887.971 477.261 904.709 487.051 910.473 506.614C918.326 500.568 926.926 497.909 935.24 497.909C951.33 497.909 966.361 507.847 972.964 522.345C952.702 522.389 933.535 532.446 921.664 549.261ZM921.664 656.881C915.636 665.422 912.009 675.078 910.87 685.075C909.69 684.109 908.479 683.188 907.221 682.312C896.744 674.989 884.299 671.112 871.233 671.112C858.167 671.112 845.722 674.989 835.247 682.312C833.989 683.188 832.778 684.109 831.6 685.075C830.46 675.078 826.834 665.422 820.803 656.881C808.937 640.066 789.767 630.01 769.506 629.965C776.107 615.467 791.138 605.529 807.227 605.529C815.543 605.529 824.137 608.188 831.994 614.234C837.757 594.671 854.497 584.882 871.233 584.882C887.971 584.882 904.709 594.671 910.473 614.234C918.326 608.188 926.926 605.529 935.24 605.529C951.33 605.529 966.361 615.467 972.964 629.965C952.702 630.01 933.535 640.066 921.664 656.881ZM807.227 713.15C815.543 713.15 824.137 715.794 831.994 721.84C837.757 702.276 854.497 692.502 871.233 692.502C887.971 692.502 904.709 702.276 910.473 721.84C918.326 715.794 926.926 713.15 935.24 713.15C951.33 713.15 966.361 723.087 972.964 737.585C952.702 737.63 933.535 747.671 921.664 764.502C915.636 773.043 912.009 782.683 910.87 792.695C909.69 791.73 908.479 790.809 907.221 789.917C896.744 782.594 884.299 778.732 871.233 778.732C858.167 778.732 845.722 782.594 835.247 789.917C833.989 790.809 832.778 791.73 831.6 792.695C830.46 782.683 826.834 773.043 820.803 764.502C808.937 747.671 789.767 737.63 769.506 737.585C776.107 723.087 791.138 713.15 807.227 713.15ZM603.509 691.759C602.38 691.759 601.256 691.804 600.134 691.863C600.199 669.136 619.831 651.34 641.363 651.34C649.678 651.34 658.273 653.999 666.13 660.045C671.893 640.482 688.631 630.693 705.369 630.693C722.107 630.693 738.843 640.482 744.607 660.045C752.462 653.999 761.061 651.34 769.374 651.34C790.908 651.34 810.538 669.136 810.604 691.863C809.482 691.804 808.356 691.759 807.227 691.759C786.92 691.759 767.694 701.816 755.8 718.676C752.499 723.355 749.923 728.361 748.074 733.575C745.979 731.614 743.738 729.787 741.355 728.123C730.878 720.8 718.435 716.938 705.369 716.938C692.301 716.938 679.858 720.8 669.383 728.123C666.998 729.787 664.758 731.614 662.664 733.575C660.814 728.361 658.24 723.355 654.938 718.676C643.044 701.816 623.82 691.759 603.509 691.759ZM475.497 713.15C483.81 713.15 492.407 715.794 500.263 721.84C506.027 702.276 522.765 692.502 539.503 692.502C556.242 692.502 572.979 702.276 578.742 721.84C586.597 715.794 595.195 713.15 603.509 713.15C619.599 713.15 634.632 723.087 641.232 737.585C620.972 737.63 601.801 747.671 589.934 764.502C583.906 773.043 580.278 782.683 579.139 792.695C577.959 791.73 576.747 790.809 575.491 789.917C565.014 782.594 552.569 778.732 539.503 778.732C526.437 778.732 513.993 782.594 503.516 789.917C502.258 790.809 501.046 791.73 499.868 792.695C498.727 782.683 495.101 773.043 489.072 764.502C477.203 747.671 458.035 737.63 437.774 737.585C444.377 723.087 459.409 713.15 475.497 713.15ZM334.397 660.045C340.162 640.482 356.899 630.693 373.637 630.693C390.375 630.693 407.113 640.482 412.876 660.045C420.731 653.999 429.331 651.34 437.643 651.34C459.178 651.34 478.808 669.136 478.87 691.863C477.748 691.804 476.625 691.759 475.497 691.759C455.188 691.759 435.962 701.816 424.069 718.676C420.768 723.355 418.191 728.361 416.343 733.575C414.248 731.614 412.007 729.787 409.625 728.123C399.148 720.8 386.703 716.938 373.637 716.938C360.571 716.938 348.127 720.8 337.65 728.123C335.268 729.787 333.028 731.614 330.932 733.575C329.084 728.361 326.508 723.355 323.208 718.676C311.314 701.816 292.087 691.759 271.777 691.759C270.648 691.759 269.523 691.804 268.404 691.863C268.469 669.136 288.101 651.34 309.632 651.34C317.948 651.34 326.541 653.999 334.397 660.045ZM334.397 552.425C340.162 532.862 356.899 523.087 373.637 523.087C390.375 523.087 407.113 532.862 412.876 552.425C420.731 546.394 429.331 543.735 437.643 543.735C459.178 543.735 478.808 561.531 478.87 584.243C477.748 584.184 476.625 584.139 475.498 584.139C455.188 584.139 435.962 594.21 424.069 611.07C420.768 615.734 418.191 620.755 416.343 625.969C414.248 624.008 412.007 622.181 409.625 620.503C399.148 613.179 386.703 609.317 373.637 609.317C360.571 609.317 348.127 613.179 337.65 620.503C335.268 622.181 333.028 623.994 330.932 625.969C329.084 620.755 326.508 615.734 323.208 611.055C311.314 594.21 292.087 584.139 271.777 584.139C270.648 584.139 269.523 584.184 268.404 584.243C268.469 561.531 288.099 543.735 309.632 543.735C317.948 543.735 326.541 546.379 334.397 552.425ZM334.397 444.819C340.162 425.256 356.899 415.468 373.637 415.468C390.375 415.468 407.113 425.256 412.876 444.819C420.731 438.774 429.331 436.115 437.643 436.115C459.178 436.115 478.808 453.91 478.87 476.637C477.748 476.565 476.625 476.534 475.498 476.534C455.188 476.534 435.962 486.591 424.069 503.45C420.768 508.129 418.191 513.135 416.343 518.349C414.248 516.388 412.009 514.561 409.625 512.897C399.148 505.574 386.703 501.697 373.637 501.697C360.571 501.697 348.127 505.574 337.65 512.897C335.268 514.561 333.028 516.388 330.932 518.349C329.084 513.135 326.508 508.129 323.208 503.45C311.314 486.591 292.087 476.534 271.777 476.534C270.648 476.534 269.523 476.565 268.404 476.637C268.469 453.91 288.099 436.115 309.632 436.115C317.948 436.115 326.541 438.774 334.397 444.819ZM334.397 337.2C340.162 317.636 356.899 307.854 373.637 307.854C390.375 307.854 407.113 317.636 412.876 337.2C420.731 331.156 429.331 328.5 437.643 328.5C459.178 328.5 478.808 346.296 478.87 369.014C477.748 368.952 476.625 368.915 475.498 368.915C455.188 368.915 435.962 378.977 424.069 395.832C420.768 400.51 418.191 405.519 416.343 410.736C414.248 408.771 412.009 406.945 409.625 405.278C399.148 397.955 386.703 394.084 373.637 394.084C360.571 394.084 348.127 397.955 337.65 405.278C335.266 406.944 333.028 408.769 330.932 410.734C329.084 405.518 326.508 400.509 323.208 395.832C311.314 378.977 292.087 368.915 271.777 368.915C270.648 368.915 269.523 368.952 268.404 369.014C268.469 346.297 288.101 328.5 309.632 328.5C317.948 328.5 326.541 331.155 334.397 337.2ZM334.397 229.586C340.162 210.021 356.899 200.238 373.637 200.238C390.375 200.238 407.113 210.021 412.876 229.586C420.731 223.539 429.331 220.886 437.643 220.886C459.178 220.886 478.808 238.682 478.87 261.4C477.748 261.338 476.625 261.297 475.498 261.297C455.188 261.297 435.963 271.361 424.069 288.216C420.768 292.894 418.191 297.903 416.343 303.12C414.248 301.153 412.007 299.329 409.625 297.662C399.148 290.339 386.703 286.469 373.637 286.469C360.571 286.469 348.127 290.339 337.65 297.662C335.266 299.329 333.028 301.153 330.932 303.118C329.084 297.903 326.508 292.894 323.208 288.215C311.314 271.361 292.087 261.297 271.777 261.297C270.648 261.297 269.523 261.338 268.404 261.4C268.469 238.682 288.101 220.886 309.632 220.886C317.948 220.886 326.541 223.537 334.397 229.586ZM334.397 121.969C340.162 102.404 356.899 92.6239 373.637 92.6239C390.375 92.6239 407.113 102.404 412.876 121.969C420.731 115.924 429.331 113.27 437.643 113.27C459.178 113.27 478.808 131.064 478.87 153.783C477.748 153.72 476.625 153.683 475.497 153.683C455.188 153.683 435.962 163.745 424.069 180.601C420.768 185.28 418.191 190.289 416.343 195.503C414.248 193.539 412.007 191.715 409.625 190.047C399.148 182.725 386.703 178.852 373.637 178.852C360.571 178.852 348.127 182.725 337.65 190.047C335.268 191.715 333.028 193.539 330.932 195.503C329.084 190.287 326.508 185.278 323.208 180.601C311.314 163.745 292.087 153.683 271.777 153.683C270.648 153.683 269.523 153.72 268.404 153.783C268.469 131.066 288.101 113.27 309.632 113.27C317.948 113.27 326.541 115.923 334.397 121.969ZM334.397 14.3544C340.162 -5.21036 356.899 -14.9922 373.637 -14.9922C390.375 -14.9922 407.113 -5.21036 412.876 14.3544C420.731 8.30872 429.331 5.65561 437.643 5.65561C459.178 5.65561 478.808 23.4499 478.87 46.1682C477.748 46.1059 476.625 46.067 475.497 46.067C455.188 46.067 435.962 56.1294 424.069 72.9865C420.768 77.6624 418.191 82.6713 416.343 87.8884C414.248 85.923 412.007 84.0973 409.625 82.4321C399.148 75.1091 386.703 71.2382 373.637 71.2382C360.571 71.2382 348.127 75.1091 337.65 82.4321C335.268 84.0973 333.028 85.923 330.932 87.8884C329.084 82.6713 326.508 77.6624 323.208 72.9846C311.314 56.1294 292.087 46.067 271.777 46.067C270.648 46.067 269.523 46.1059 268.404 46.1682C268.469 23.4499 288.099 5.65561 309.632 5.65561C317.948 5.65561 326.541 8.30731 334.397 14.3544ZM475.498 -61.5487C455.188 -61.5487 435.963 -51.4849 424.069 -34.6296C420.768 -29.9519 418.191 -24.943 416.343 -19.7262C414.248 -21.6927 412.007 -23.5169 409.625 -25.1836C399.148 -32.507 386.703 -36.3779 373.637 -36.3779C360.571 -36.3779 348.127 -32.507 337.65 -25.1836C335.266 -23.5169 333.028 -21.6927 330.932 -19.7276C329.084 -24.9444 326.508 -29.9533 323.208 -34.6296C311.314 -51.4849 292.087 -61.5487 271.777 -61.5487C270.648 -61.5487 269.523 -61.5102 268.404 -61.4478C268.469 -84.1647 288.099 -101.962 309.632 -101.962C317.948 -101.962 326.541 -99.3073 334.397 -93.2613C340.162 -112.826 356.899 -122.608 373.637 -122.608C390.375 -122.608 407.113 -112.826 412.876 -93.2613C420.731 -99.3073 429.331 -101.962 437.643 -101.962C459.178 -101.962 478.808 -84.1661 478.87 -61.4478C477.748 -61.5087 476.625 -61.5487 475.498 -61.5487ZM755.8 -34.6296C752.499 -29.9519 749.923 -24.943 748.074 -19.7262C745.979 -21.6927 743.738 -23.5169 741.355 -25.1836C730.878 -32.507 718.435 -36.3779 705.369 -36.3779C692.301 -36.3779 679.858 -32.507 669.383 -25.1836C666.998 -23.5169 664.758 -21.6927 662.664 -19.7276C660.814 -24.9444 658.24 -29.9533 654.938 -34.6296C643.044 -51.4849 623.82 -61.5487 603.509 -61.5487C602.38 -61.5487 601.256 -61.5087 600.134 -61.4478C600.199 -84.1647 619.831 -101.962 641.363 -101.962C649.678 -101.962 658.273 -99.3073 666.13 -93.2613C671.893 -112.826 688.631 -122.608 705.369 -122.608C722.107 -122.608 738.843 -112.826 744.607 -93.2613C752.462 -99.3073 761.061 -101.962 769.375 -101.962C790.908 -101.962 810.538 -84.1661 810.604 -61.4478C809.482 -61.5087 808.358 -61.5487 807.229 -61.5487C786.919 -61.5487 767.694 -51.4849 755.8 -34.6296ZM755.8 72.9865C752.499 77.6624 749.923 82.6713 748.074 87.8884C745.979 85.923 743.738 84.0973 741.355 82.4321C730.878 75.1091 718.435 71.2382 705.369 71.2382C692.301 71.2382 679.858 75.1091 669.383 82.4321C666.998 84.0973 664.758 85.923 662.664 87.8884C660.814 82.6713 658.24 77.6624 654.938 72.9846C643.044 56.1294 623.82 46.067 603.509 46.067C602.38 46.067 601.256 46.1059 600.134 46.1682C600.199 23.4499 619.831 5.65561 641.363 5.65561C649.678 5.65561 658.273 8.30731 666.13 14.3544C671.893 -5.21036 688.631 -14.9922 705.369 -14.9922C722.107 -14.9922 738.843 -5.21036 744.607 14.3544C752.462 8.30872 761.061 5.65561 769.375 5.65561C790.908 5.65561 810.538 23.4499 810.604 46.1682C809.482 46.1059 808.356 46.067 807.227 46.067C786.92 46.067 767.694 56.1294 755.8 72.9865ZM755.8 180.601C752.499 185.28 749.923 190.289 748.074 195.504C745.979 193.539 743.738 191.715 741.355 190.047C730.878 182.725 718.435 178.852 705.369 178.852C692.301 178.852 679.858 182.725 669.383 190.047C666.998 191.715 664.758 193.539 662.664 195.503C660.814 190.287 658.24 185.278 654.938 180.601C643.044 163.745 623.82 153.683 603.509 153.683C602.38 153.683 601.256 153.72 600.134 153.783C600.199 131.066 619.831 113.27 641.363 113.27C649.678 113.27 658.273 115.923 666.13 121.969C671.893 102.404 688.631 92.6239 705.369 92.6239C722.107 92.6239 738.843 102.404 744.607 121.969C752.462 115.924 761.061 113.27 769.374 113.27C790.908 113.27 810.538 131.064 810.604 153.783C809.482 153.72 808.356 153.683 807.227 153.683C786.92 153.683 767.694 163.745 755.8 180.601ZM755.8 288.216C752.501 292.894 749.923 297.903 748.074 303.12C745.979 301.155 743.738 299.329 741.355 297.664C730.878 290.339 718.435 286.469 705.369 286.469C692.301 286.469 679.858 290.339 669.383 297.662C666.998 299.329 664.758 301.153 662.664 303.12C660.814 297.903 658.24 292.894 654.938 288.215C643.044 271.361 623.82 261.297 603.509 261.297C602.38 261.297 601.256 261.338 600.134 261.4C600.199 238.682 619.831 220.886 641.363 220.886C649.678 220.886 658.273 223.537 666.13 229.586C671.893 210.021 688.631 200.238 705.369 200.238C722.107 200.238 738.843 210.021 744.607 229.586C752.462 223.539 761.061 220.886 769.374 220.886C790.908 220.886 810.538 238.682 810.604 261.4C809.482 261.338 808.356 261.297 807.227 261.297C786.92 261.297 767.694 271.361 755.8 288.216ZM755.8 395.832C752.499 400.51 749.923 405.519 748.074 410.736C745.979 408.771 743.738 406.945 741.355 405.278C730.878 397.955 718.435 394.084 705.369 394.084C692.301 394.084 679.858 397.955 669.383 405.278C666.998 406.944 664.758 408.769 662.664 410.734C660.814 405.518 658.24 400.509 654.938 395.832C643.044 378.977 623.82 368.915 603.509 368.915C602.38 368.915 601.256 368.952 600.134 369.014C600.199 346.297 619.831 328.5 641.363 328.5C649.678 328.5 658.273 331.155 666.13 337.2C671.893 317.636 688.631 307.854 705.369 307.854C722.107 307.854 738.843 317.636 744.607 337.2C752.462 331.156 761.061 328.5 769.374 328.5C790.908 328.5 810.538 346.296 810.604 369.014C809.482 368.952 808.356 368.915 807.227 368.915C786.92 368.915 767.694 378.977 755.8 395.832ZM755.8 503.45C752.499 508.129 749.923 513.135 748.074 518.349C745.979 516.388 743.738 514.561 741.355 512.897C730.878 505.574 718.435 501.697 705.369 501.697C692.301 501.697 679.858 505.574 669.383 512.897C666.998 514.561 664.758 516.388 662.664 518.349C660.814 513.135 658.24 508.129 654.938 503.45C643.044 486.591 623.82 476.534 603.509 476.534C602.38 476.534 601.256 476.565 600.134 476.637C600.199 453.91 619.831 436.115 641.363 436.115C649.678 436.115 658.273 438.774 666.13 444.819C671.893 425.256 688.631 415.468 705.369 415.468C722.107 415.468 738.843 425.256 744.607 444.819C752.462 438.774 761.061 436.115 769.375 436.115C790.908 436.115 810.538 453.91 810.604 476.637C809.482 476.565 808.356 476.534 807.227 476.534C786.92 476.534 767.694 486.591 755.8 503.45ZM603.509 584.139C602.38 584.139 601.256 584.184 600.134 584.243C600.199 561.531 619.831 543.735 641.363 543.735C649.678 543.735 658.273 546.379 666.13 552.425C671.893 532.862 688.631 523.087 705.369 523.087C722.107 523.087 738.843 532.862 744.607 552.425C752.462 546.394 761.061 543.735 769.375 543.735C790.908 543.735 810.538 561.531 810.604 584.243C809.482 584.184 808.356 584.139 807.227 584.139C786.92 584.139 767.694 594.21 755.8 611.07C752.499 615.734 749.923 620.755 748.074 625.969C745.979 624.008 743.738 622.181 741.355 620.503C730.878 613.179 718.435 609.317 705.369 609.317C692.301 609.317 679.858 613.179 669.383 620.503C666.998 622.181 664.758 623.994 662.664 625.969C660.814 620.755 658.24 615.734 654.938 611.055C643.046 594.21 623.82 584.139 603.509 584.139ZM500.263 614.234C506.027 594.671 522.765 584.882 539.503 584.882C556.242 584.882 572.979 594.671 578.742 614.234C586.597 608.188 595.195 605.529 603.509 605.529C619.599 605.529 634.632 615.467 641.232 629.965C620.972 630.01 601.801 640.066 589.934 656.881C583.906 665.422 580.278 675.078 579.139 685.075C577.959 684.109 576.747 683.188 575.491 682.312C565.014 674.989 552.569 671.112 539.503 671.112C526.437 671.112 513.993 674.989 503.516 682.312C502.258 683.188 501.046 684.109 499.868 685.075C498.729 675.078 495.101 665.422 489.072 656.881C477.203 640.066 458.035 630.01 437.774 629.965C444.377 615.467 459.409 605.529 475.498 605.529C483.81 605.529 492.407 608.188 500.263 614.234ZM500.263 506.614C506.027 487.051 522.765 477.261 539.503 477.261C556.242 477.261 572.979 487.051 578.742 506.614C586.597 500.568 595.195 497.909 603.509 497.909C619.599 497.909 634.632 507.847 641.232 522.345C620.972 522.389 601.801 532.446 589.934 549.261C583.906 557.817 580.278 567.457 579.139 577.47C577.959 576.504 576.747 575.568 575.491 574.692C565.014 567.368 552.569 563.491 539.503 563.491C526.437 563.491 513.993 567.368 503.515 574.692C502.258 575.568 501.046 576.504 499.868 577.47C498.727 567.457 495.101 557.802 489.072 549.261C477.203 532.446 458.035 522.389 437.774 522.345C444.377 507.847 459.409 497.909 475.498 497.909C483.81 497.909 492.407 500.568 500.263 506.614ZM500.263 398.998C506.027 379.435 522.765 369.653 539.503 369.653C556.242 369.653 572.979 379.435 578.742 398.998C586.597 392.954 595.195 390.299 603.509 390.299C619.599 390.299 634.632 400.235 641.232 414.735C620.972 414.778 601.801 424.825 589.934 441.655C583.906 450.197 580.278 459.837 579.139 469.849C577.959 468.883 576.747 467.963 575.491 467.071C565.014 459.748 552.569 455.886 539.503 455.886C526.437 455.886 513.993 459.748 503.516 467.071C502.258 467.963 501.046 468.883 499.868 469.849C498.729 459.837 495.101 450.197 489.072 441.655C477.203 424.825 458.035 414.779 437.774 414.735C444.377 400.235 459.409 390.299 475.498 390.299C483.81 390.299 492.407 392.951 500.263 398.998ZM500.263 291.384C506.027 271.819 522.765 262.036 539.503 262.036C556.242 262.036 572.979 271.819 578.742 291.384C586.597 285.338 595.195 282.683 603.509 282.683C619.599 282.683 634.632 292.619 641.232 307.12C620.972 307.162 601.801 317.215 589.934 334.034C583.906 342.579 580.278 352.224 579.139 362.233C577.959 361.271 576.747 360.341 575.491 359.461C565.014 352.138 552.569 348.267 539.503 348.267C526.437 348.267 513.993 352.138 503.516 359.461C502.258 360.341 501.046 361.271 499.868 362.233C498.729 352.223 495.101 342.578 489.072 334.034C477.203 317.215 458.035 307.162 437.774 307.12C444.377 292.619 459.409 282.683 475.498 282.683C483.81 282.683 492.407 285.336 500.263 291.384ZM437.774 91.8884C444.377 77.3893 459.409 67.4517 475.497 67.4517C483.81 67.4517 492.407 70.1045 500.263 76.1533C506.027 56.5886 522.765 46.8054 539.503 46.8054C556.242 46.8054 572.979 56.5886 578.742 76.1533C586.597 70.1059 595.195 67.4517 603.509 67.4517C619.599 67.4517 634.632 77.3893 641.232 91.8884C620.972 91.9315 601.801 101.984 589.934 118.803C583.906 127.348 580.278 136.994 579.139 147.004C577.959 146.039 576.747 145.111 575.491 144.231C565.014 136.906 552.569 133.037 539.503 133.037C526.437 133.037 513.993 136.906 503.516 144.231C502.258 145.111 501.046 146.039 499.868 147.003C498.729 136.992 495.101 127.348 489.072 118.803C477.203 101.984 458.035 91.933 437.774 91.8884ZM500.263 183.768C506.027 164.203 522.765 154.421 539.503 154.421C556.242 154.421 572.979 164.203 578.742 183.768C586.597 177.723 595.195 175.067 603.509 175.067C619.599 175.067 634.632 185.005 641.232 199.504C620.972 199.548 601.801 209.6 589.934 226.419C583.906 234.963 580.278 244.609 579.139 254.619C577.959 253.655 576.747 252.725 575.491 251.846C565.014 244.522 552.569 240.651 539.503 240.651C526.437 240.651 513.993 244.522 503.516 251.846C502.258 252.725 501.046 253.655 499.868 254.619C498.729 244.609 495.101 234.962 489.072 226.418C477.203 209.6 458.035 199.548 437.774 199.504C444.377 185.005 459.409 175.067 475.497 175.067C483.81 175.067 492.407 177.722 500.263 183.768ZM578.742 -31.4642C586.597 -37.5084 595.195 -40.1629 603.509 -40.1629C619.599 -40.1629 634.632 -30.2267 641.232 -15.7258C620.972 -15.6841 601.801 -5.63068 589.934 11.1875C583.906 19.7333 580.278 29.3768 579.139 39.3886C577.959 38.4232 576.747 37.493 575.491 36.6139C565.014 29.292 552.569 25.4196 539.503 25.4196C526.437 25.4196 513.993 29.292 503.515 36.6139C502.258 37.493 501.046 38.4232 499.868 39.3886C498.727 29.3768 495.101 19.7315 489.072 11.1861C477.203 -5.63068 458.035 -15.6841 437.774 -15.7258C444.377 -30.2267 459.409 -40.1629 475.498 -40.1629C483.81 -40.1629 492.407 -37.5098 500.263 -31.4642C506.027 -51.0289 522.765 -60.8089 539.503 -60.8089C556.242 -60.8089 572.979 -51.0289 578.742 -31.4642ZM831.994 -139.078C837.757 -158.643 854.497 -168.426 871.233 -168.426C887.971 -168.426 904.709 -158.643 910.473 -139.078C918.326 -145.123 926.926 -147.777 935.24 -147.777C951.33 -147.777 966.361 -137.842 972.964 -123.342C952.702 -123.299 933.535 -113.247 921.664 -96.4271C915.636 -87.8827 912.009 -78.2378 910.87 -68.2271C909.69 -69.1915 908.479 -70.1212 907.221 -71.0007C896.744 -78.3255 884.299 -82.195 871.233 -82.195C858.167 -82.195 845.722 -78.3255 835.247 -71.0007C833.989 -70.1212 832.778 -69.1915 831.6 -68.2289C830.46 -78.2392 826.834 -87.8841 820.803 -96.4285C808.937 -113.247 789.767 -123.299 769.506 -123.342C776.107 -137.841 791.138 -147.777 807.227 -147.777C815.543 -147.777 824.137 -145.126 831.994 -139.078ZM1163.33 -175.843C1162.19 -185.853 1158.56 -195.498 1152.53 -204.044C1140.67 -220.864 1121.5 -230.914 1101.24 -230.958C1107.84 -245.457 1122.87 -255.393 1138.96 -255.393C1147.27 -255.393 1155.87 -252.74 1163.73 -246.694C1165.65 -253.22 1168.8 -258.651 1172.75 -263H1099.94C1095.27 -259.273 1091.07 -254.876 1087.53 -249.861C1084.23 -245.184 1081.66 -240.175 1079.8 -234.958C1077.71 -236.923 1075.47 -238.749 1073.09 -240.414C1062.61 -247.737 1050.17 -251.61 1037.1 -251.61C1024.03 -251.61 1011.59 -247.737 1001.11 -240.414C998.727 -238.749 996.49 -236.923 994.393 -234.959C992.545 -240.176 989.969 -245.185 986.669 -249.863C983.129 -254.876 978.93 -259.273 974.258 -263H901.446C905.401 -258.651 908.551 -253.22 910.473 -246.694C918.326 -252.74 926.926 -255.393 935.24 -255.393C951.33 -255.393 966.361 -245.458 972.964 -230.958C952.702 -230.914 933.535 -220.864 921.664 -204.043C915.636 -195.497 912.009 -185.852 910.87 -175.843C909.69 -176.806 908.479 -177.737 907.221 -178.616C896.744 -185.94 884.299 -189.811 871.233 -189.811C858.167 -189.811 845.722 -185.94 835.247 -178.616C833.989 -177.737 832.778 -176.807 831.6 -175.843C830.46 -185.853 826.834 -195.5 820.803 -204.044C808.937 -220.864 789.767 -230.914 769.506 -230.958C776.107 -245.457 791.138 -255.393 807.227 -255.393C815.543 -255.393 824.137 -252.74 831.994 -246.694C833.916 -253.22 837.065 -258.651 841.021 -263H768.212C763.539 -259.273 759.338 -254.876 755.8 -249.861C752.499 -245.184 749.923 -240.175 748.074 -234.958C745.979 -236.923 743.738 -238.749 741.355 -240.414C730.878 -247.737 718.435 -251.61 705.369 -251.61C692.301 -251.61 679.858 -247.737 669.383 -240.414C666.998 -238.749 664.758 -236.923 662.664 -234.959C660.814 -240.175 658.24 -245.184 654.938 -249.861C651.4 -254.876 647.201 -259.273 642.526 -263H569.715C573.671 -258.651 576.82 -253.22 578.742 -246.694C586.597 -252.74 595.195 -255.393 603.509 -255.393C619.599 -255.393 634.632 -245.458 641.232 -230.958C620.972 -230.914 601.801 -220.864 589.934 -204.043C583.906 -195.498 580.278 -185.853 579.139 -175.843C577.959 -176.806 576.747 -177.737 575.491 -178.616C565.014 -185.94 552.569 -189.811 539.503 -189.811C526.437 -189.811 513.993 -185.94 503.516 -178.616C502.258 -177.737 501.046 -176.807 499.868 -175.843C498.729 -185.853 495.101 -195.498 489.072 -204.044C477.203 -220.864 458.035 -230.914 437.774 -230.958C444.377 -245.457 459.409 -255.393 475.497 -255.393C483.81 -255.393 492.407 -252.74 500.263 -246.694C502.186 -253.22 505.335 -258.651 509.292 -263H436.481C431.808 -259.273 427.607 -254.876 424.069 -249.861C420.768 -245.184 418.191 -240.175 416.343 -234.958C414.248 -236.923 412.007 -238.749 409.625 -240.414C399.148 -247.737 386.703 -251.61 373.637 -251.61C360.571 -251.61 348.127 -247.737 337.65 -240.414C335.266 -238.749 333.028 -236.923 330.932 -234.959C329.084 -240.175 326.508 -245.184 323.208 -249.861C319.668 -254.876 315.468 -259.273 310.795 -263H237.983C241.941 -258.651 245.088 -253.22 247.012 -246.694C254.865 -252.74 263.465 -255.393 271.777 -255.393C287.869 -255.393 302.9 -245.458 309.503 -230.958C289.24 -230.914 270.072 -220.864 258.203 -204.043C252.174 -195.497 248.548 -185.853 247.407 -175.843C246.229 -176.806 245.017 -177.737 243.759 -178.616C233.282 -185.94 220.838 -189.811 207.772 -189.811C194.706 -189.811 182.261 -185.94 171.786 -178.616C170.528 -177.737 169.316 -176.807 168.138 -175.843C166.997 -185.853 163.371 -195.5 157.342 -204.044C145.474 -220.864 126.305 -230.914 106.043 -230.958C112.646 -245.457 127.677 -255.393 143.766 -255.393C152.081 -255.393 160.676 -252.74 168.533 -246.694C170.455 -253.22 173.603 -258.651 177.56 -263H104.751C100.078 -259.273 95.8768 -254.876 92.3385 -249.861C89.0379 -245.184 86.4607 -240.175 84.6126 -234.958C82.5167 -236.923 80.2782 -238.749 77.8942 -240.414C67.4158 -247.737 54.9723 -251.61 41.9064 -251.61C28.8404 -251.61 16.3969 -247.737 5.91992 -240.414C3.8315 -238.954 1.86751 -237.357 0.000488281 -235.666V-202.776C0.896032 -202.181 1.7873 -201.555 2.6668 -200.876H2.66822C8.43043 -220.441 25.1684 -230.224 41.9064 -230.224C58.6443 -230.224 75.3823 -220.441 81.1456 -200.876C88.9994 -206.922 97.5987 -209.576 105.912 -209.576C127.447 -209.576 147.077 -191.78 147.141 -169.062C146.019 -169.124 144.895 -169.163 143.766 -169.163C123.457 -169.163 104.233 -159.099 92.3385 -142.245C89.0379 -137.566 86.4607 -132.559 84.6126 -127.343C82.5167 -129.307 80.2782 -131.133 77.8942 -132.798C67.4158 -140.123 54.9723 -143.994 41.9064 -143.994C28.8404 -143.994 16.3969 -140.123 5.91992 -132.798C3.8315 -131.339 1.86751 -129.743 0.000488281 -128.051V-95.1597C0.896032 -94.5658 1.7873 -93.9373 2.6668 -93.2613H2.66822C8.43043 -112.826 25.1684 -122.608 41.9064 -122.608C58.6443 -122.608 75.3823 -112.826 81.1456 -93.2613C88.9994 -99.3073 97.5987 -101.962 105.912 -101.962C127.447 -101.962 147.077 -84.1661 147.141 -61.4478C146.019 -61.5087 144.896 -61.5487 143.766 -61.5487C123.457 -61.5487 104.233 -51.4849 92.3385 -34.6296C89.0379 -29.9519 86.4607 -24.943 84.6126 -19.7262C82.5167 -21.6927 80.2782 -23.5169 77.8942 -25.1836C67.4158 -32.507 54.9723 -36.3779 41.9064 -36.3779C28.8404 -36.3779 16.3969 -32.507 5.91992 -25.1836C3.8315 -23.7234 1.86751 -22.1251 0.000488281 -20.436V12.456C0.896032 13.0488 1.7873 13.677 2.6668 14.3544H2.66822C8.43043 -5.21036 25.1684 -14.9922 41.9064 -14.9922C58.6443 -14.9922 75.3823 -5.21036 81.1456 14.3544C88.9994 8.30872 97.5987 5.65561 105.912 5.65561C127.447 5.65561 147.077 23.4499 147.141 46.1682C146.019 46.1059 144.895 46.067 143.766 46.067C123.457 46.067 104.233 56.1294 92.3385 72.9865C89.0379 77.6624 86.4607 82.6713 84.6126 87.8884C82.5167 85.923 80.2768 84.0973 77.8942 82.4321C67.4158 75.1091 54.9723 71.2382 41.9064 71.2382C28.8404 71.2382 16.3969 75.1091 5.91992 82.4321C3.8315 83.8923 1.86751 85.4891 0.000488281 87.1783V120.07C0.896032 120.663 1.7873 121.291 2.6668 121.969H2.66822C8.43043 102.404 25.1684 92.6239 41.9064 92.6239C58.6443 92.6239 75.3823 102.404 81.1456 121.969C88.9994 115.924 97.5987 113.27 105.912 113.27C127.447 113.27 147.077 131.064 147.141 153.783C146.019 153.72 144.895 153.683 143.766 153.683C123.457 153.683 104.233 163.745 92.3385 180.601C89.0379 185.28 86.4607 190.289 84.6126 195.504C82.5167 193.539 80.2768 191.715 77.8942 190.047C67.4158 182.725 54.9723 178.852 41.9064 178.852C28.8404 178.852 16.3969 182.725 5.91992 190.047C3.8315 191.508 1.86751 193.105 0.000488281 194.796V227.686C0.896032 228.281 1.7873 228.909 2.6668 229.586H2.66822C8.43043 210.021 25.1684 200.238 41.9064 200.238C58.6443 200.238 75.3823 210.021 81.1456 229.586C88.9994 223.539 97.5987 220.886 105.912 220.886C127.447 220.886 147.077 238.682 147.141 261.4C146.019 261.338 144.895 261.297 143.766 261.297C123.457 261.297 104.233 271.361 92.3385 288.216C89.0379 292.894 86.4607 297.903 84.6126 303.12C82.5167 301.153 80.2782 299.329 77.8942 297.662C67.4158 290.339 54.9723 286.469 41.9064 286.469C28.8404 286.469 16.3969 290.339 5.91992 297.664C3.8315 299.123 1.86751 300.719 0.000488281 302.41V335.302C0.896032 335.895 1.7873 336.523 2.6668 337.2H2.66822C8.43043 317.636 25.1684 307.854 41.9064 307.854C58.6443 307.854 75.3823 317.636 81.1456 337.2C88.9994 331.156 97.5987 328.5 105.912 328.5C127.447 328.5 147.077 346.296 147.141 369.014C146.019 368.952 144.895 368.915 143.766 368.915C123.457 368.915 104.231 378.977 92.3385 395.832C89.0379 400.51 86.4607 405.519 84.6126 410.736C82.5167 408.771 80.2782 406.945 77.8942 405.278C67.4158 397.955 54.9723 394.084 41.9064 394.084C28.8404 394.084 16.3969 397.955 5.91992 405.278C3.8315 406.739 1.86751 408.335 0.000488281 410.026V442.918C0.896032 443.512 1.7873 444.136 2.6668 444.819H2.66822C8.43043 425.256 25.1684 415.468 41.9064 415.468C58.6443 415.468 75.3823 425.256 81.1456 444.819C88.9994 438.774 97.5987 436.115 105.912 436.115C127.447 436.115 147.077 453.91 147.141 476.637C146.019 476.565 144.895 476.534 143.766 476.534C123.457 476.534 104.231 486.591 92.3385 503.45C89.0379 508.129 86.4607 513.135 84.6126 518.349C82.5167 516.388 80.2782 514.561 77.8942 512.897C67.4158 505.574 54.9723 501.697 41.9064 501.697C28.8404 501.697 16.3969 505.574 5.91992 512.897C3.8315 514.353 1.86751 515.957 0.000488281 517.636V550.538C0.896032 551.133 1.7873 551.757 2.6668 552.425H2.66822C8.43043 532.862 25.1684 523.087 41.9064 523.087C58.6443 523.087 75.3823 532.862 81.1456 552.425C88.9994 546.394 97.5987 543.735 105.912 543.735C127.447 543.735 147.077 561.531 147.141 584.243C146.019 584.184 144.895 584.139 143.766 584.139C123.457 584.139 104.231 594.21 92.3385 611.07C89.0379 615.734 86.4607 620.755 84.6126 625.969C82.5167 624.008 80.2782 622.181 77.8942 620.503C67.4158 613.179 54.9723 609.317 41.9064 609.317C28.8404 609.317 16.3969 613.179 5.91992 620.503C3.8315 621.973 1.86751 623.563 0.000488281 625.256V658.144C0.896032 658.738 1.7873 659.377 2.6668 660.045H2.66822C8.43043 640.482 25.1684 630.693 41.9064 630.693C58.6443 630.693 75.3823 640.482 81.1456 660.045C88.9994 653.999 97.5987 651.34 105.912 651.34C127.447 651.34 147.077 669.136 147.141 691.863C146.019 691.804 144.895 691.759 143.766 691.759C123.457 691.759 104.233 701.816 92.3385 718.676C89.0379 723.355 86.4607 728.361 84.6126 733.575C82.5167 731.614 80.2768 729.787 77.8942 728.123C67.4158 720.8 54.9723 716.938 41.9064 716.938C28.8404 716.938 16.3969 720.8 5.91992 728.123C3.8315 729.579 1.86751 731.183 0.000488281 732.876V765.764C0.896032 766.358 1.7873 766.982 2.6668 767.666H2.66822C8.43043 748.102 25.1684 738.313 41.9064 738.313C58.6443 738.313 75.3823 748.102 81.1456 767.666C88.9994 761.62 97.5987 758.961 105.912 758.961C127.447 758.961 147.077 776.756 147.141 799.484C146.019 799.409 144.895 799.38 143.766 799.38C123.457 799.38 104.233 809.436 92.3385 826.296C89.0379 830.975 86.4607 835.981 84.6126 841.195C82.5167 839.234 80.2768 837.407 77.8942 835.743C67.4158 828.42 54.9723 824.543 41.9064 824.543C28.8404 824.543 16.3969 828.42 5.91992 835.743C3.8315 837.199 1.86751 838.803 0.000488281 840.482V873.384C0.896032 873.979 1.7873 874.603 2.6668 875.271H2.66822C8.43043 855.708 25.1684 845.933 41.9064 845.933C58.6443 845.933 75.3823 855.708 81.1456 875.271C88.9994 869.24 97.5987 866.581 105.912 866.581C127.447 866.581 147.077 884.377 147.141 907.089C146.019 907.03 144.895 906.985 143.766 906.985C123.457 906.985 104.231 917.056 92.3385 933.916C91.6896 934.823 91.0775 935.758 90.4846 936.709H119.126C126.162 931.465 134.8 928.375 143.766 928.375C151.906 928.375 160.312 930.931 168.034 936.709H168.649C174.516 917.398 191.14 907.728 207.772 907.728C224.403 907.728 241.028 917.398 246.894 936.709H247.509C255.229 930.931 263.64 928.375 271.777 928.375C280.746 928.375 289.384 931.465 296.42 936.709H325.061C324.467 935.758 323.855 934.823 323.208 933.916C311.314 917.056 292.087 906.985 271.777 906.985C270.648 906.985 269.523 907.03 268.404 907.089C268.469 884.377 288.101 866.581 309.632 866.581C317.948 866.581 326.541 869.225 334.397 875.271C340.162 855.708 356.899 845.933 373.637 845.933C390.375 845.933 407.113 855.708 412.876 875.271C420.731 869.24 429.331 866.581 437.643 866.581C459.178 866.581 478.808 884.377 478.87 907.089C477.748 907.03 476.625 906.985 475.498 906.985C455.188 906.985 435.962 917.056 424.069 933.916C423.422 934.823 422.808 935.758 422.215 936.709H450.856C457.892 931.465 466.531 928.375 475.498 928.375C483.637 928.375 492.043 930.931 499.766 936.709H500.381C506.247 917.398 522.872 907.728 539.503 907.728C556.134 907.728 572.761 917.398 578.625 936.709H579.241C586.961 930.931 595.37 928.375 603.509 928.375C612.477 928.375 621.115 931.465 628.151 936.709H656.792C656.199 935.758 655.586 934.823 654.938 933.916C643.044 917.056 623.82 906.985 603.509 906.985C602.38 906.985 601.256 907.03 600.134 907.089C600.199 884.377 619.831 866.581 641.363 866.581C649.678 866.581 658.273 869.225 666.13 875.271C671.893 855.708 688.631 845.933 705.369 845.933C722.107 845.933 738.843 855.708 744.607 875.271C752.462 869.24 761.061 866.581 769.374 866.581C790.908 866.581 810.538 884.377 810.604 907.089C809.482 907.03 808.356 906.985 807.227 906.985C786.92 906.985 767.694 917.056 755.8 933.916C755.152 934.823 754.54 935.758 753.946 936.709H782.588C789.623 931.465 798.261 928.375 807.227 928.375C815.369 928.375 823.775 930.931 831.495 936.709H832.111C837.977 917.398 854.602 907.728 871.233 907.728C887.866 907.728 904.491 917.398 910.356 936.709H910.972C918.692 930.931 927.101 928.375 935.24 928.375C944.207 928.375 952.846 931.465 959.882 936.709H988.522C987.93 935.758 987.318 934.823 986.669 933.901C974.775 917.056 955.55 906.985 935.24 906.985C934.111 906.985 932.988 907.03 931.866 907.089C931.932 884.377 951.562 866.581 973.095 866.581C981.409 866.581 990.003 869.225 997.86 875.271C1003.62 855.708 1020.36 845.933 1037.1 845.933C1053.84 845.933 1070.58 855.708 1076.34 875.271C1084.19 869.24 1092.79 866.581 1101.1 866.581C1122.64 866.581 1142.27 884.377 1142.33 907.089C1141.21 907.03 1140.09 906.985 1138.96 906.985C1118.65 906.985 1099.42 917.056 1087.53 933.916C1086.88 934.823 1086.27 935.758 1085.68 936.709H1114.32C1121.35 931.465 1129.99 928.375 1138.96 928.375C1147.1 928.375 1155.51 930.931 1163.23 936.709H1163.84C1169.32 918.661 1184.21 909.035 1199.71 907.862V886.441C1187.84 887.021 1176.58 890.823 1166.98 897.538C1165.72 898.414 1164.51 899.35 1163.33 900.316C1162.19 890.304 1158.56 880.648 1152.53 872.107C1140.67 855.292 1121.5 845.235 1101.24 845.191C1107.84 830.693 1122.87 820.755 1138.96 820.755C1147.27 820.755 1155.87 823.414 1163.73 829.46C1169.11 811.174 1184.1 801.43 1199.71 800.241V778.821C1187.84 779.415 1176.58 783.203 1166.98 789.917C1165.72 790.809 1164.51 791.73 1163.33 792.695C1162.19 782.683 1158.56 773.043 1152.53 764.502C1140.67 747.671 1121.5 737.63 1101.24 737.585C1107.84 723.087 1122.87 713.15 1138.96 713.15C1147.27 713.15 1155.87 715.794 1163.73 721.84C1169.11 703.554 1184.1 693.809 1199.71 692.621V671.201C1187.84 671.795 1176.58 675.598 1166.98 682.312C1165.72 683.188 1164.51 684.109 1163.33 685.075C1162.19 675.078 1158.56 665.422 1152.53 656.881C1140.67 640.066 1121.5 630.01 1101.24 629.965C1107.84 615.467 1122.87 605.529 1138.96 605.529C1147.27 605.529 1155.87 608.188 1163.73 614.234C1169.11 595.933 1184.1 586.189 1199.71 585.015V563.595C1187.84 564.175 1176.58 567.978 1166.98 574.692C1165.72 575.568 1164.51 576.504 1163.33 577.47C1162.19 567.457 1158.56 557.802 1152.53 549.261C1140.67 532.446 1121.5 522.389 1101.24 522.345C1107.84 507.847 1122.87 497.909 1138.96 497.909C1147.27 497.909 1155.87 500.568 1163.73 506.614C1169.11 488.313 1184.1 478.584 1199.71 477.395V455.975C1187.84 456.569 1176.58 460.372 1166.98 467.071C1165.72 467.963 1164.51 468.883 1163.33 469.849C1162.19 459.837 1158.56 450.197 1152.53 441.655C1140.67 424.825 1121.5 414.779 1101.24 414.735C1107.84 400.235 1122.87 390.299 1138.96 390.299C1147.27 390.299 1155.87 392.951 1163.73 398.998C1169.11 380.705 1184.1 370.965 1199.71 369.778V348.358C1187.84 348.947 1176.58 352.749 1166.98 359.461C1165.72 360.341 1164.51 361.271 1163.33 362.233C1162.19 352.223 1158.56 342.578 1152.53 334.034C1140.67 317.215 1121.5 307.163 1101.24 307.12C1107.84 292.619 1122.87 282.683 1138.96 282.683C1147.27 282.683 1155.87 285.336 1163.73 291.384C1169.11 273.089 1184.1 263.35 1199.71 262.162V240.742C1187.84 241.332 1176.58 245.133 1166.98 251.846C1165.72 252.725 1164.51 253.655 1163.33 254.619C1162.19 244.609 1158.56 234.962 1152.53 226.418C1140.67 209.6 1121.5 199.548 1101.24 199.504C1107.84 185.005 1122.87 175.067 1138.96 175.067C1147.27 175.067 1155.87 177.722 1163.73 183.768C1169.11 165.473 1184.1 155.734 1199.71 154.546V133.126C1187.84 133.717 1176.58 137.518 1166.98 144.231C1165.72 145.111 1164.51 146.039 1163.33 147.003C1162.19 136.992 1158.56 127.348 1152.53 118.803C1140.67 101.984 1121.5 91.933 1101.24 91.8884C1107.84 77.3893 1122.87 67.4517 1138.96 67.4517C1147.27 67.4517 1155.87 70.1045 1163.73 76.1533C1169.11 57.857 1184.1 48.1201 1199.71 46.9315V25.5116C1187.84 26.0998 1176.58 29.9026 1166.98 36.6139C1165.72 37.493 1164.51 38.4232 1163.33 39.3886C1162.19 29.3768 1158.56 19.7315 1152.53 11.1861C1140.67 -5.63068 1121.5 -15.6841 1101.24 -15.7258C1107.84 -30.2267 1122.87 -40.1629 1138.96 -40.1629C1147.27 -40.1629 1155.87 -37.5098 1163.73 -31.4642C1169.11 -49.7572 1184.1 -59.4973 1199.71 -60.6856V-82.1045C1187.84 -81.5145 1176.58 -77.712 1166.98 -71.0007C1165.72 -70.1212 1164.51 -69.1915 1163.33 -68.2289C1162.19 -78.2378 1158.56 -87.8841 1152.53 -96.4285C1140.67 -113.247 1121.5 -123.299 1101.24 -123.342C1107.84 -137.841 1122.87 -147.777 1138.96 -147.777C1147.27 -147.777 1155.87 -145.126 1163.73 -139.078C1169.11 -157.372 1184.1 -167.112 1199.71 -168.3V-189.72C1187.84 -189.13 1176.58 -185.329 1166.98 -178.616C1165.72 -177.737 1164.51 -176.807 1163.33 -175.843Z" fill="#E8E4DC"/>
<path d="M268.403 46.1682C269.523 46.1058 270.648 46.067 271.777 46.067C292.087 46.067 311.313 56.1294 323.207 72.9846C326.508 77.6624 329.084 82.6713 330.931 87.8884C333.028 85.923 335.267 84.0973 337.65 82.4321C348.127 75.1091 360.571 71.2381 373.637 71.2381C386.702 71.2381 399.147 75.1091 409.624 82.4321C412.007 84.0973 414.247 85.923 416.343 87.8884C418.191 82.6713 420.768 77.6624 424.069 72.9864C435.961 56.1294 455.187 46.067 475.496 46.067C476.625 46.067 477.748 46.1058 478.87 46.1682C478.807 23.4499 459.177 5.65558 437.643 5.65558C429.33 5.65558 420.731 8.30871 412.876 14.3543C407.112 -5.21036 390.374 -14.9922 373.637 -14.9922C356.899 -14.9922 340.162 -5.21036 334.397 14.3543C326.541 8.30728 317.947 5.65558 309.632 5.65558C288.099 5.65558 268.469 23.4499 268.403 46.1682Z" fill="black"/>
<path d="M810.602 46.1682C810.537 23.4499 790.907 5.65558 769.374 5.65558C761.06 5.65558 752.46 8.30871 744.605 14.3543C738.842 -5.21036 722.105 -14.9922 705.367 -14.9922C688.629 -14.9922 671.891 -5.21036 666.128 14.3543C658.271 8.30728 649.677 5.65558 641.361 5.65558C619.83 5.65558 600.198 23.4499 600.133 46.1682C601.254 46.1058 602.379 46.067 603.508 46.067C623.818 46.067 643.043 56.1294 654.937 72.9846C658.239 77.6624 660.813 82.6713 662.663 87.8884C664.757 85.923 666.997 84.0973 669.381 82.4321C679.856 75.1091 692.3 71.2381 705.367 71.2381C718.433 71.2381 730.877 75.1091 741.354 82.4321C743.736 84.0973 745.978 85.923 748.073 87.8884C749.922 82.6713 752.497 77.6624 755.798 72.9864C767.692 56.1294 786.918 46.067 807.226 46.067C808.355 46.067 809.481 46.1058 810.602 46.1682Z" fill="black"/>
<path d="M157.341 118.804C163.371 127.348 166.997 136.993 168.137 147.003C169.315 146.039 170.527 145.111 171.786 144.231C182.261 136.907 194.706 133.037 207.772 133.037C220.838 133.037 233.281 136.907 243.758 144.231C245.017 145.111 246.229 146.039 247.407 147.005C248.547 136.994 252.173 127.348 258.203 118.804C270.071 101.984 289.241 91.9319 309.502 91.8887C302.9 77.3896 287.869 67.452 271.777 67.452C263.464 67.452 254.865 70.1062 247.012 76.1536C241.247 56.5889 224.51 46.8057 207.772 46.8057C191.034 46.8057 174.296 56.5889 168.532 76.1536C160.676 70.1048 152.081 67.452 143.766 67.452C127.677 67.452 112.646 77.3896 106.043 91.8887C126.304 91.9333 145.474 101.984 157.341 118.804Z" fill="black"/>
<path d="M503.515 144.23C513.992 136.906 526.436 133.036 539.502 133.036C552.567 133.036 565.013 136.906 575.489 144.23C576.746 145.11 577.958 146.038 579.138 147.004C580.277 136.993 583.904 127.347 589.933 118.803C601.8 101.983 620.971 91.9309 641.231 91.8878C634.631 77.3886 619.598 67.451 603.508 67.451C595.194 67.451 586.596 70.1052 578.741 76.1527C572.977 56.5879 556.241 46.8047 539.502 46.8047C522.764 46.8047 506.026 56.5879 500.262 76.1527C492.406 70.1038 483.809 67.451 475.495 67.451C459.408 67.451 444.375 77.3886 437.772 91.8878C458.034 91.9323 477.202 101.983 489.071 118.803C495.1 127.347 498.728 136.992 499.867 147.002C501.045 146.038 502.257 145.11 503.515 144.23Z" fill="black"/>
<path d="M935.241 67.452C926.926 67.452 918.327 70.1062 910.474 76.1536C904.71 56.5889 887.972 46.8057 871.234 46.8057C854.498 46.8057 837.758 56.5889 831.995 76.1536C824.138 70.1048 815.544 67.452 807.228 67.452C791.139 67.452 776.108 77.3896 769.507 91.8887C789.768 91.9333 808.938 101.984 820.803 118.802C826.834 127.348 830.461 136.993 831.601 147.003C832.779 146.039 833.99 145.111 835.248 144.231C845.723 136.907 858.168 133.037 871.234 133.037C884.3 133.037 896.745 136.907 907.222 144.231C908.48 145.111 909.691 146.039 910.87 147.005C912.009 136.994 915.637 127.348 921.665 118.804C933.535 101.984 952.703 91.9319 972.965 91.8887C966.362 77.3896 951.331 67.452 935.241 67.452Z" fill="black"/>
<path d="M268.403 153.785C269.523 153.722 270.648 153.685 271.777 153.685C292.087 153.685 311.313 163.748 323.207 180.603C326.508 185.281 329.084 190.289 330.931 195.505C333.028 193.541 335.267 191.717 337.65 190.049C348.127 182.727 360.571 178.854 373.637 178.854C386.702 178.854 399.147 182.727 409.624 190.049C412.007 191.717 414.247 193.541 416.343 195.505C418.191 190.291 420.768 185.282 424.069 180.603C435.961 163.748 455.187 153.685 475.496 153.685C476.625 153.685 477.748 153.722 478.87 153.785C478.807 131.066 459.177 113.272 437.643 113.272C429.33 113.272 420.731 115.927 412.876 121.971C407.112 102.406 390.374 92.626 373.637 92.626C356.899 92.626 340.162 102.406 334.397 121.971C326.541 115.925 317.947 113.272 309.632 113.272C288.1 113.272 268.469 131.068 268.403 153.785Z" fill="black"/>
<path d="M810.602 153.785C810.537 131.066 790.907 113.272 769.372 113.272C761.06 113.272 752.46 115.927 744.605 121.971C738.842 102.406 722.105 92.626 705.367 92.626C688.629 92.626 671.891 102.406 666.128 121.971C658.271 115.925 649.677 113.272 641.361 113.272C619.83 113.272 600.198 131.068 600.133 153.785C601.254 153.722 602.379 153.685 603.508 153.685C623.818 153.685 643.043 163.748 654.937 180.603C658.239 185.281 660.813 190.289 662.663 195.505C664.757 193.541 666.997 191.717 669.381 190.049C679.856 182.727 692.3 178.854 705.367 178.854C718.433 178.854 730.877 182.727 741.354 190.049C743.736 191.717 745.978 193.541 748.073 195.506C749.922 190.291 752.497 185.282 755.798 180.603C767.692 163.748 786.918 153.685 807.226 153.685C808.355 153.685 809.481 153.722 810.602 153.785Z" fill="black"/>
<path d="M157.341 226.419C163.371 234.963 166.997 244.61 168.137 254.62C169.315 253.656 170.527 252.726 171.786 251.847C182.261 244.524 194.706 240.653 207.772 240.653C220.838 240.653 233.281 244.524 243.758 251.847C245.017 252.726 246.229 253.658 247.407 254.62C248.547 244.611 252.173 234.965 258.203 226.421C270.071 209.601 289.241 199.549 309.502 199.506C302.9 185.005 287.869 175.069 271.777 175.069C263.464 175.069 254.865 177.725 247.012 183.769C241.247 164.204 224.51 154.423 207.772 154.423C191.034 154.423 174.296 164.204 168.532 183.769C160.676 177.723 152.081 175.069 143.766 175.069C127.677 175.069 112.646 185.006 106.043 199.506C126.304 199.549 145.474 209.601 157.341 226.419Z" fill="black"/>
<path d="M437.771 199.506C458.033 199.549 477.201 209.601 489.07 226.419C495.099 234.963 498.727 244.61 499.866 254.62C501.044 253.656 502.256 252.726 503.514 251.847C513.991 244.524 526.435 240.653 539.501 240.653C552.567 240.653 565.012 244.524 575.488 251.847C576.745 252.726 577.957 253.656 579.137 254.62C580.276 244.61 583.903 234.965 589.932 226.421C601.799 209.601 620.97 199.549 641.23 199.506C634.63 185.006 619.597 175.069 603.507 175.069C595.193 175.069 586.595 177.725 578.74 183.769C572.976 164.204 556.24 154.423 539.501 154.423C522.763 154.423 506.025 164.204 500.261 183.769C492.405 177.723 483.808 175.069 475.494 175.069C459.407 175.069 444.374 185.006 437.771 199.506Z" fill="black"/>
<path d="M935.241 175.068C926.926 175.068 918.327 177.724 910.474 183.768C904.71 164.203 887.972 154.422 871.234 154.422C854.498 154.422 837.758 164.203 831.995 183.768C824.138 177.722 815.544 175.068 807.228 175.068C791.139 175.068 776.108 185.005 769.507 199.505C789.768 199.548 808.938 209.6 820.803 226.418C826.834 234.962 830.461 244.609 831.601 254.618C832.779 253.655 833.99 252.725 835.248 251.846C845.723 244.523 858.168 240.652 871.234 240.652C884.3 240.652 896.745 244.523 907.222 251.846C908.48 252.725 909.692 253.657 910.87 254.619C912.009 244.61 915.637 234.964 921.665 226.42C933.535 209.6 952.703 199.548 972.965 199.505C966.362 185.004 951.331 175.068 935.241 175.068Z" fill="black"/>
<path d="M268.403 261.399C269.523 261.337 270.648 261.296 271.777 261.296C292.087 261.296 311.313 271.36 323.207 288.214C326.508 292.893 329.084 297.902 330.931 303.118C333.028 301.152 335.266 299.328 337.65 297.662C348.127 290.339 360.571 286.469 373.637 286.469C386.702 286.469 399.147 290.339 409.624 297.662C412.007 299.328 414.247 301.152 416.343 303.119C418.191 297.902 420.768 292.893 424.069 288.216C435.963 271.36 455.187 261.296 475.498 261.296C476.625 261.296 477.748 261.337 478.87 261.399C478.807 238.681 459.177 220.885 437.643 220.885C429.33 220.885 420.731 223.538 412.876 229.585C407.112 210.021 390.374 200.237 373.637 200.237C356.899 200.237 340.162 210.021 334.397 229.585C326.541 223.536 317.947 220.885 309.632 220.885C288.1 220.885 268.469 238.681 268.403 261.399Z" fill="black"/>
<path d="M810.602 261.399C810.537 238.681 790.907 220.885 769.372 220.885C761.06 220.885 752.46 223.538 744.605 229.585C738.842 210.021 722.105 200.237 705.367 200.237C688.629 200.237 671.891 210.021 666.128 229.585C658.271 223.536 649.677 220.885 641.361 220.885C619.83 220.885 600.198 238.681 600.133 261.399C601.254 261.337 602.379 261.296 603.508 261.296C623.818 261.296 643.043 271.36 654.937 288.214C658.239 292.893 660.813 297.902 662.663 303.119C664.757 301.152 666.997 299.328 669.381 297.662C679.856 290.339 692.3 286.469 705.367 286.469C718.433 286.469 730.877 290.339 741.354 297.663C743.736 299.328 745.978 301.154 748.073 303.119C749.922 297.902 752.499 292.893 755.798 288.216C767.692 271.36 786.918 261.296 807.226 261.296C808.355 261.296 809.481 261.337 810.602 261.399Z" fill="black"/>
<path d="M157.341 334.034C163.371 342.578 166.997 352.223 168.137 362.234C169.315 361.271 170.527 360.341 171.786 359.462C182.261 352.138 194.706 348.268 207.772 348.268C220.838 348.268 233.281 352.138 243.758 359.462C245.017 360.341 246.229 361.271 247.407 362.234C248.547 352.225 252.173 342.58 258.203 334.034C270.071 317.216 289.241 307.162 309.502 307.121C302.9 292.62 287.869 282.684 271.777 282.684C263.464 282.684 254.865 285.338 247.012 291.384C241.247 271.819 224.51 262.036 207.772 262.036C191.034 262.036 174.296 271.819 168.532 291.384C160.676 285.337 152.081 282.684 143.766 282.684C127.677 282.684 112.646 292.62 106.043 307.121C126.304 307.164 145.474 317.216 157.341 334.034Z" fill="black"/>
<path d="M437.771 307.122C458.033 307.163 477.201 317.217 489.07 334.035C495.099 342.579 498.727 352.224 499.866 362.235C501.044 361.272 502.256 360.342 503.514 359.463C513.991 352.139 526.435 348.268 539.501 348.268C552.567 348.268 565.012 352.139 575.488 359.463C576.745 360.342 577.957 361.272 579.137 362.235C580.276 352.226 583.903 342.581 589.932 334.035C601.799 317.217 620.97 307.163 641.23 307.122C634.63 292.621 619.597 282.685 603.507 282.685C595.193 282.685 586.595 285.339 578.74 291.385C572.976 271.82 556.24 262.037 539.501 262.037C522.763 262.037 506.025 271.82 500.261 291.385C492.405 285.338 483.808 282.685 475.496 282.685C459.407 282.685 444.374 292.621 437.771 307.122Z" fill="black"/>
<path d="M935.241 282.683C926.926 282.683 918.327 285.337 910.474 291.383C904.71 271.818 887.972 262.035 871.234 262.035C854.498 262.035 837.758 271.818 831.995 291.383C824.138 285.336 815.544 282.683 807.228 282.683C791.141 282.683 776.108 292.619 769.507 307.12C789.768 307.163 808.938 317.215 820.803 334.032C826.834 342.577 830.461 352.222 831.601 362.233C832.779 361.269 833.99 360.34 835.248 359.461C845.723 352.137 858.168 348.267 871.234 348.267C884.3 348.267 896.745 352.137 907.222 359.461C908.48 360.34 909.691 361.27 910.87 362.233C912.009 352.224 915.637 342.579 921.665 334.033C933.535 317.215 952.703 307.161 972.965 307.12C966.362 292.619 951.331 282.683 935.241 282.683Z" fill="black"/>
<path d="M268.403 369.015C269.523 368.952 270.648 368.915 271.777 368.915C292.087 368.915 311.313 378.978 323.207 395.833C326.508 400.509 329.084 405.518 330.931 410.735C333.028 408.769 335.266 406.944 337.65 405.279C348.127 397.955 360.571 394.084 373.637 394.084C386.702 394.084 399.147 397.955 409.624 405.279C412.008 406.945 414.247 408.771 416.343 410.736C418.191 405.519 420.768 400.51 424.069 395.833C435.961 378.978 455.187 368.915 475.498 368.915C476.625 368.915 477.748 368.952 478.87 369.015C478.807 346.296 459.177 328.5 437.643 328.5C429.33 328.5 420.731 331.156 412.876 337.201C407.112 317.636 390.374 307.854 373.637 307.854C356.899 307.854 340.162 317.636 334.397 337.201C326.541 331.155 317.947 328.5 309.632 328.5C288.1 328.5 268.469 346.298 268.403 369.015Z" fill="black"/>
<path d="M810.602 369.015C810.537 346.296 790.907 328.5 769.372 328.5C761.06 328.5 752.46 331.156 744.605 337.201C738.842 317.636 722.105 307.854 705.367 307.854C688.629 307.854 671.891 317.636 666.128 337.201C658.271 331.155 649.677 328.5 641.361 328.5C619.83 328.5 600.198 346.298 600.133 369.015C601.254 368.952 602.379 368.915 603.508 368.915C623.818 368.915 643.043 378.978 654.937 395.833C658.239 400.509 660.813 405.518 662.663 410.735C664.757 408.769 666.997 406.944 669.381 405.279C679.856 397.955 692.3 394.084 705.367 394.084C718.433 394.084 730.877 397.955 741.354 405.279C743.736 406.945 745.978 408.771 748.073 410.736C749.922 405.519 752.497 400.51 755.798 395.833C767.692 378.978 786.918 368.915 807.226 368.915C808.355 368.915 809.481 368.952 810.602 369.015Z" fill="black"/>
<path d="M157.341 441.656C163.371 450.198 166.997 459.838 168.137 469.85C169.315 468.885 170.527 467.964 171.786 467.072C182.261 459.749 194.706 455.887 207.772 455.887C220.838 455.887 233.281 459.749 243.758 467.072C245.017 467.964 246.229 468.885 247.407 469.85C248.547 459.838 252.173 450.198 258.203 441.656C270.071 424.827 289.24 414.78 309.502 414.736C302.9 400.236 287.869 390.3 271.777 390.3C263.464 390.3 254.865 392.955 247.012 398.999C241.247 379.436 224.51 369.654 207.772 369.654C191.034 369.654 174.296 379.436 168.532 398.999C160.676 392.952 152.081 390.3 143.766 390.3C127.677 390.3 112.646 400.236 106.043 414.736C126.304 414.78 145.474 424.827 157.341 441.656Z" fill="black"/>
<path d="M437.771 414.736C458.033 414.781 477.201 424.827 489.07 441.656C495.099 450.198 498.727 459.838 499.866 469.85C501.044 468.885 502.256 467.964 503.514 467.072C513.991 459.749 526.435 455.887 539.501 455.887C552.567 455.887 565.012 459.749 575.488 467.072C576.745 467.964 577.957 468.885 579.137 469.85C580.276 459.838 583.903 450.198 589.932 441.656C601.799 424.827 620.97 414.779 641.23 414.736C634.63 400.237 619.597 390.3 603.507 390.3C595.193 390.3 586.595 392.955 578.74 398.999C572.976 379.436 556.24 369.654 539.501 369.654C522.763 369.654 506.025 379.436 500.261 398.999C492.405 392.952 483.808 390.3 475.496 390.3C459.407 390.3 444.374 400.237 437.771 414.736Z" fill="black"/>
<path d="M935.241 390.297C926.926 390.297 918.327 392.952 910.474 398.996C904.71 379.433 887.972 369.651 871.234 369.651C854.498 369.651 837.758 379.433 831.995 398.996C824.138 392.949 815.544 390.297 807.228 390.297C791.141 390.297 776.108 400.234 769.507 414.733C789.768 414.778 808.938 424.824 820.803 441.653C826.834 450.195 830.461 459.835 831.601 469.847C832.779 468.882 833.99 467.961 835.248 467.07C845.723 459.746 858.168 455.884 871.234 455.884C884.3 455.884 896.745 459.746 907.222 467.07C908.48 467.961 909.691 468.882 910.87 469.847C912.009 459.835 915.637 450.195 921.665 441.653C933.535 424.824 952.703 414.778 972.965 414.733C966.362 400.234 951.331 390.297 935.241 390.297Z" fill="black"/>
<path d="M268.403 476.637C269.523 476.564 270.648 476.533 271.777 476.533C292.087 476.533 311.313 486.591 323.207 503.449C326.508 508.128 329.084 513.134 330.931 518.348C333.028 516.387 335.267 514.56 337.65 512.897C348.127 505.573 360.571 501.696 373.637 501.696C386.702 501.696 399.147 505.573 409.624 512.897C412.008 514.56 414.247 516.387 416.343 518.348C418.191 513.134 420.768 508.128 424.069 503.449C435.961 486.591 455.187 476.533 475.498 476.533C476.625 476.533 477.748 476.564 478.87 476.637C478.807 453.909 459.177 436.114 437.643 436.114C429.33 436.114 420.731 438.773 412.876 444.819C407.112 425.255 390.374 415.468 373.637 415.468C356.899 415.468 340.162 425.255 334.397 444.819C326.541 438.773 317.947 436.114 309.632 436.114C288.099 436.114 268.469 453.909 268.403 476.637Z" fill="black"/>
<path d="M810.602 476.637C810.537 453.909 790.907 436.114 769.374 436.114C761.06 436.114 752.46 438.773 744.605 444.819C738.842 425.255 722.105 415.468 705.367 415.468C688.629 415.468 671.891 425.255 666.128 444.819C658.271 438.773 649.677 436.114 641.361 436.114C619.83 436.114 600.198 453.909 600.133 476.637C601.254 476.564 602.379 476.533 603.508 476.533C623.818 476.533 643.043 486.591 654.937 503.449C658.239 508.128 660.813 513.134 662.663 518.348C664.757 516.387 666.997 514.56 669.381 512.897C679.856 505.573 692.3 501.696 705.367 501.696C718.433 501.696 730.877 505.573 741.354 512.897C743.736 514.56 745.978 516.387 748.073 518.348C749.922 513.134 752.497 508.128 755.798 503.449C767.692 486.591 786.918 476.533 807.226 476.533C808.355 476.533 809.481 476.564 810.602 476.637Z" fill="black"/>
<path d="M157.341 549.26C163.371 557.802 166.997 567.457 168.137 577.469C169.315 576.503 170.526 575.567 171.784 574.691C182.261 567.368 194.706 563.491 207.772 563.491C220.838 563.491 233.281 567.368 243.758 574.691C245.017 575.567 246.229 576.503 247.407 577.469C248.547 567.457 252.173 557.817 258.203 549.26C270.071 532.445 289.24 522.389 309.502 522.344C302.9 507.846 287.869 497.909 271.777 497.909C263.464 497.909 254.865 500.567 247.012 506.613C241.247 487.05 224.51 477.261 207.772 477.261C191.034 477.261 174.296 487.05 168.532 506.613C160.676 500.567 152.081 497.909 143.766 497.909C127.677 497.909 112.646 507.846 106.043 522.344C126.304 522.389 145.474 532.445 157.341 549.26Z" fill="black"/>
<path d="M437.771 522.344C458.033 522.389 477.201 532.445 489.07 549.26C495.099 557.802 498.725 567.457 499.866 577.469C501.044 576.503 502.256 575.567 503.513 574.691C513.991 567.368 526.435 563.491 539.501 563.491C552.567 563.491 565.012 567.368 575.488 574.691C576.745 575.567 577.957 576.503 579.137 577.469C580.276 567.457 583.903 557.817 589.932 549.26C601.799 532.445 620.97 522.389 641.23 522.344C634.63 507.846 619.597 497.909 603.507 497.909C595.193 497.909 586.595 500.567 578.74 506.613C572.976 487.05 556.24 477.261 539.501 477.261C522.763 477.261 506.025 487.05 500.261 506.613C492.405 500.567 483.808 497.909 475.496 497.909C459.407 497.909 444.374 507.846 437.771 522.344Z" fill="black"/>
<path d="M935.241 497.909C926.926 497.909 918.327 500.568 910.474 506.614C904.71 487.051 887.972 477.262 871.234 477.262C854.498 477.262 837.758 487.051 831.995 506.614C824.138 500.568 815.544 497.909 807.228 497.909C791.139 497.909 776.108 507.847 769.507 522.345C789.768 522.39 808.938 532.446 820.803 549.261C826.834 557.803 830.461 567.458 831.601 577.47C832.779 576.504 833.99 575.568 835.248 574.692C845.723 567.369 858.168 563.492 871.234 563.492C884.3 563.492 896.745 567.369 907.222 574.692C908.48 575.568 909.691 576.504 910.87 577.47C912.009 567.458 915.637 557.818 921.665 549.261C933.535 532.446 952.703 522.39 972.965 522.345C966.362 507.847 951.331 497.909 935.241 497.909Z" fill="black"/>
<path d="M268.403 584.245C269.523 584.185 270.648 584.141 271.777 584.141C292.087 584.141 311.313 594.212 323.207 611.057C326.508 615.736 329.084 620.757 330.931 625.971C333.028 623.995 335.267 622.183 337.65 620.504C348.127 613.181 360.571 609.319 373.637 609.319C386.702 609.319 399.147 613.181 409.624 620.504C412.007 622.183 414.247 624.01 416.343 625.971C418.191 620.757 420.768 615.736 424.069 611.072C435.961 594.212 455.187 584.141 475.498 584.141C476.625 584.141 477.748 584.185 478.87 584.245C478.807 561.532 459.177 543.737 437.643 543.737C429.33 543.737 420.731 546.395 412.876 552.426C407.112 532.863 390.374 523.089 373.637 523.089C356.899 523.089 340.162 532.863 334.397 552.426C326.541 546.38 317.947 543.737 309.632 543.737C288.099 543.737 268.469 561.532 268.403 584.245Z" fill="black"/>
<path d="M654.938 611.054C658.24 615.733 660.814 620.754 662.664 625.968C664.758 623.992 666.998 622.18 669.382 620.501C679.857 613.178 692.301 609.316 705.368 609.316C718.434 609.316 730.878 613.178 741.355 620.501C743.737 622.18 745.979 624.007 748.074 625.968C749.923 620.754 752.499 615.733 755.799 611.069C767.693 594.209 786.919 584.138 807.227 584.138C808.356 584.138 809.482 584.182 810.603 584.242C810.538 561.529 790.908 543.734 769.375 543.734C761.061 543.734 752.461 546.393 744.607 552.424C738.843 532.86 722.106 523.086 705.368 523.086C688.63 523.086 671.892 532.86 666.129 552.424C658.272 546.378 649.678 543.734 641.362 543.734C619.831 543.734 600.199 561.529 600.134 584.242C601.255 584.182 602.38 584.138 603.509 584.138C623.819 584.138 643.045 594.209 654.938 611.054Z" fill="black"/>
<path d="M157.341 656.882C163.371 665.424 166.997 675.079 168.137 685.076C169.315 684.111 170.527 683.189 171.786 682.313C182.261 674.99 194.706 671.113 207.772 671.113C220.838 671.113 233.281 674.99 243.758 682.313C245.017 683.189 246.229 684.111 247.407 685.076C248.547 675.079 252.173 665.424 258.203 656.882C270.071 640.067 289.24 630.011 309.502 629.966C302.9 615.468 287.869 605.531 271.777 605.531C263.464 605.531 254.865 608.189 247.012 614.235C241.247 594.672 224.51 584.883 207.772 584.883C191.034 584.883 174.296 594.672 168.532 614.235C160.676 608.189 152.081 605.531 143.766 605.531C127.677 605.531 112.646 615.468 106.043 629.966C126.304 630.011 145.474 640.067 157.341 656.882Z" fill="black"/>
<path d="M437.771 629.966C458.033 630.011 477.201 640.067 489.07 656.882C495.099 665.424 498.727 675.079 499.866 685.076C501.044 684.111 502.256 683.189 503.514 682.313C513.991 674.99 526.435 671.113 539.501 671.113C552.567 671.113 565.012 674.99 575.488 682.313C576.745 683.189 577.957 684.111 579.137 685.076C580.276 675.079 583.903 665.424 589.932 656.882C601.799 640.067 620.97 630.011 641.23 629.966C634.63 615.468 619.597 605.531 603.507 605.531C595.193 605.531 586.595 608.189 578.74 614.235C572.976 594.672 556.24 584.883 539.501 584.883C522.763 584.883 506.025 594.672 500.261 614.235C492.405 608.189 483.808 605.531 475.496 605.531C459.407 605.531 444.374 615.468 437.771 629.966Z" fill="black"/>
<path d="M935.241 605.528C926.926 605.528 918.327 608.186 910.474 614.232C904.71 594.669 887.972 584.88 871.234 584.88C854.498 584.88 837.758 594.669 831.995 614.232C824.138 608.186 815.544 605.528 807.228 605.528C791.139 605.528 776.108 615.465 769.507 629.963C789.768 630.008 808.938 640.064 820.803 656.88C826.834 665.421 830.461 675.076 831.601 685.073C832.779 684.108 833.99 683.186 835.248 682.31C845.723 674.987 858.168 671.11 871.234 671.11C884.3 671.11 896.745 674.987 907.222 682.31C908.48 683.186 909.691 684.108 910.87 685.073C912.009 675.076 915.637 665.421 921.665 656.88C933.535 640.064 952.703 630.008 972.965 629.963C966.362 615.465 951.331 605.528 935.241 605.528Z" fill="black"/>
</g>
<defs>
<clipPath id="clip0_1267_11449">
<rect width="1200" height="675" rx="32" fill="white"/>
</clipPath>
</defs>
</svg>
